<?xml version="1.0" encoding="UTF-8" standalone="no"?>
<svg
   width="1253.2343"
   height="140.94231"
   viewBox="0 0 331.60633 37.315116"
   version="1.1"
   id="svg10"
   sodipodi:docname="border--top2.svg"
   inkscape:version="1.4 (e7c3feb1, 2024-10-09)"
   xmlns:inkscape="http://www.inkscape.org/namespaces/inkscape"
   xmlns:sodipodi="http://sodipodi.sourceforge.net/DTD/sodipodi-0.dtd"
   xmlns="http://www.w3.org/2000/svg"
   xmlns:svg="http://www.w3.org/2000/svg">
  <defs
     id="defs10">
    <clipPath
       clipPathUnits="userSpaceOnUse"
       id="clipPath21">
      <rect
         style="fill:#a1c8f8;stroke-width:0.264755"
         id="rect22"
         width="332.07693"
         height="47.53846"
         x="-0.32748136"
         y="0.23076923" />
    </clipPath>
    <clipPath
       clipPathUnits="userSpaceOnUse"
       id="clipPath22">
      <rect
         style="fill:#a1c8f8;stroke-width:0.264755"
         id="rect23"
         width="332.07693"
         height="47.53846"
         x="-0.32748136"
         y="0.23076923" />
    </clipPath>
    <clipPath
       clipPathUnits="userSpaceOnUse"
       id="clipPath23">
      <rect
         style="fill:#a1c8f8;stroke-width:0.264755"
         id="rect24"
         width="332.07693"
         height="47.53846"
         x="-0.32748136"
         y="0.23076923" />
    </clipPath>
    <clipPath
       clipPathUnits="userSpaceOnUse"
       id="clipPath24">
      <rect
         style="fill:#a1c8f8;stroke-width:0.264755"
         id="rect25"
         width="332.07693"
         height="47.53846"
         x="-0.32748136"
         y="0.23076923" />
    </clipPath>
    <clipPath
       clipPathUnits="userSpaceOnUse"
       id="clipPath25">
      <rect
         style="fill:#a1c8f8;stroke-width:0.264755"
         id="rect26"
         width="332.07693"
         height="47.53846"
         x="-0.32748136"
         y="0.23076923" />
    </clipPath>
    <clipPath
       clipPathUnits="userSpaceOnUse"
       id="clipPath26">
      <rect
         style="fill:#a1c8f8;stroke-width:0.264755"
         id="rect27"
         width="332.07693"
         height="47.53846"
         x="-0.32748136"
         y="0.23076923" />
    </clipPath>
    <clipPath
       clipPathUnits="userSpaceOnUse"
       id="clipPath27">
      <rect
         style="fill:#a1c8f8;stroke-width:0.264755"
         id="rect28"
         width="332.07693"
         height="47.53846"
         x="-0.32748136"
         y="0.23076923" />
    </clipPath>
    <clipPath
       clipPathUnits="userSpaceOnUse"
       id="clipPath28">
      <rect
         style="fill:#a1c8f8;stroke-width:0.264755"
         id="rect29"
         width="332.07693"
         height="47.53846"
         x="-0.32748136"
         y="0.23076923" />
    </clipPath>
    <clipPath
       clipPathUnits="userSpaceOnUse"
       id="clipPath29">
      <rect
         style="fill:#a1c8f8;stroke-width:0.264755"
         id="rect30"
         width="332.07693"
         height="47.53846"
         x="-0.32748136"
         y="0.23076923" />
    </clipPath>
    <clipPath
       clipPathUnits="userSpaceOnUse"
       id="clipPath30">
      <rect
         style="fill:#a1c8f8;stroke-width:0.264755"
         id="rect31"
         width="332.07693"
         height="47.53846"
         x="-0.32748136"
         y="0.23076923" />
    </clipPath>
    <clipPath
       clipPathUnits="userSpaceOnUse"
       id="clipPath31">
      <rect
         style="fill:#a1c8f8;stroke-width:0.264755"
         id="rect32"
         width="332.07693"
         height="47.53846"
         x="-0.32748136"
         y="10.820951" />
    </clipPath>
  </defs>
  <sodipodi:namedview
     id="namedview10"
     pagecolor="#ffffff"
     bordercolor="#000000"
     borderopacity="0.25"
     inkscape:showpageshadow="2"
     inkscape:pageopacity="0.0"
     inkscape:pagecheckerboard="0"
     inkscape:deskcolor="#d1d1d1"
     inkscape:zoom="0.81124218"
     inkscape:cx="573.81138"
     inkscape:cy="298.30796"
     inkscape:window-width="1728"
     inkscape:window-height="1051"
     inkscape:window-x="0"
     inkscape:window-y="38"
     inkscape:window-maximized="1"
     inkscape:current-layer="svg10" />
  <g
     style="display:inline"
     id="g1"
     transform="matrix(1.1071442,0,0,0.82508056,-0.04135491,-8.9281562)"
     clip-path="url(#clipPath31)">
    <path
       d="m 26.9,48 a 1,1 0 0 1 -0.5,-0.3 c -0.2,-0.2 -0.2,-0.2 -0.2,0 L 26.1,48 c -0.2,0 -0.7,-0.3 -0.8,-0.5 L 25,47.3 c -0.3,0 -0.8,-0.3 -0.9,-0.5 0,-0.1 -0.1,-0.2 -0.3,-0.2 l -0.3,-0.2 -0.3,-0.3 a 0.4,0.4 0 0 1 -0.3,-0.3 c 0,-0.2 0,-0.3 -0.2,-0.3 -0.2,0 -0.3,0 -0.4,-0.2 0,-0.2 -0.1,-0.3 -0.2,-0.3 H 21.9 V 44.4 C 21.7,44 21.7,44 21.4,44 21.1,44.1 21,44 20.9,43.8 v -0.6 c 0.2,-0.2 0.2,-0.2 0,-0.4 a 1,1 0 0 0 -0.6,0 c -0.4,0 -0.7,-0.2 -0.7,-0.5 l 0.2,0.1 c 0,0.2 0.2,0.2 0.2,0 h 0.1 l 0.2,-0.1 c 0,-0.1 -0.1,-0.2 -0.3,-0.2 -0.5,0 -0.7,0 -0.7,-0.2 h 0.2 c 0,0 0.1,0 0,0 l -0.2,-0.1 -0.2,-0.5 c 0,-0.6 -0.2,-0.8 -0.6,-0.7 l -0.2,-0.1 c 0,-0.1 0,-0.3 -0.2,-0.3 -0.2,-0.2 -0.2,-0.2 0,0 h 0.4 l -0.3,-0.3 c -1,-1 -1.3,-1.6 -1.2,-1.8 0,0 0,-0.1 -0.2,0 -0.2,0 -0.3,0 -0.5,-0.4 A 4,4 0 0 1 16.1,37 c 0,-0.3 -0.4,-0.8 -0.5,-0.8 V 36 l -0.2,-0.1 c -0.2,0 -0.3,0 -0.3,-0.2 v -0.2 c -0.2,0 -0.2,0 0,-0.2 0,-0.2 0,-0.3 -0.1,-0.2 l -0.2,-0.3 c 0,-0.2 -0.2,-0.3 -0.2,-0.3 l -0.4,-0.6 c -0.3,-0.6 -0.4,-0.7 -0.2,-0.8 0.2,0 0.2,-0.1 0,-0.1 -0.3,0 -0.5,-0.3 -0.4,-0.5 0.2,-0.1 0.1,-0.2 0,-0.2 l -0.2,0.2 H 13.2 C 12.4,31.5 12.1,31 11.5,30.7 L 11.1,30.3 H 10.9 L 10.1,30.1 9.5,29.8 H 9.4 c 0,-0.2 -0.2,-0.2 -0.2,-0.2 0,0 -0.7,0 -1.5,-0.3 L 5.1,28.8 C 4.6,28.8 4.3,28.6 4,28.3 L 3.4,27.9 3.2,27.8 2.9,27.5 C 2.7,27.5 2.6,27.2 2.6,27.1 2.6,27 2.6,26.9 2.3,26.9 2.2,26.9 2.1,26.8 2,26.4 V 25.7 C 2,25.4 1.9,25.4 1.6,25.7 1.4,25.9 1.4,25.9 1.3,25.6 L 1.2,25.2 1,24.4 C 1,24.1 0.8,23.7 0.6,23.4 0.4,23.2 0.3,23 0.4,22.9 0.1,22.9 0,21.9 0.2,21.5 V 18.4 L 0,17.8 a 58.4,58.4 0 0 0 0.1,-3.3 c 0.1,-1 0.2,-1.6 0.4,-1.7 L 0.4,12.6 c -0.3,0 -0.3,0 -0.3,-0.6 V 11.3 L 0.3,11.2 C 0.3,11.1 0.3,11 0.1,11 -0.1,11 0,10.6 0.2,10.3 V 9.9 C 0.1,9.9 0.1,9.6 0.2,9.1 L 0.1,7.6 C -0.1,7 -0.1,6.7 0.1,6.6 L 0.2,5.7 C 0.2,5.4 0.4,5.2 0.4,5.2 L 0.7,4.6 C 0.8,4.2 0.9,4 1.1,4 1.2,4 1.3,4 1.3,4.2 h 0.8 c 0.3,0.1 0.3,0.1 0.4,-0.1 0,-0.2 0,-0.2 0,0 0.1,0.3 0.2,0.2 0.6,0 L 3.6,3.8 3.7,3.7 3.9,3.5 4.1,3.4 C 4,3.3 4.2,3.3 4.7,3.3 L 5.7,3.2 6.2,3 C 6.5,3 6.5,3 6.5,3.2 V 3.3 L 7.7,2.9 c 0.1,0 0.1,0 0,0 v 0.4 c 0,0.2 0,0.2 0.2,0 0.5,-0.4 1.5,-0.7 1.5,-0.4 0.1,0.2 0.2,0.2 0.4,0 0.4,-0.2 1.8,-0.3 2,-0.1 h 0.3 L 12.4,3 C 13,3.4 13.1,3.4 13.1,3.2 13.1,3.1 13.1,3 12.9,3 L 12.8,2.7 c 0,-0.3 0,-0.3 0.5,-0.3 0.7,0 1,0.2 1,0.3 -0.1,0.2 0.3,0 0.6,-0.2 0.2,-0.1 0.2,-0.1 0.4,0 l 0.3,0.2 h 0.7 c 0.2,-0.3 0.4,-0.3 0.4,0 0,0 0,0.1 0,0 h 0.2 V 2.3 c 0.2,-0.2 0.3,-0.2 0.3,-0.1 0,0.2 0.3,0.2 0.3,0 0,-0.2 0.1,-0.3 0.3,-0.3 h 0.3 l 0.1,0.2 h 0.2 c 0,0.4 0,0.4 0.2,0.1 0.2,-0.2 0.3,-0.3 1,-0.3 h 0.6 l -0.1,0.2 0.1,0.2 c 0.2,0.1 0.3,0.2 0.4,0 0.1,0 0.1,-0.1 0,-0.2 -0.4,0 -0.3,-0.2 0.2,-0.2 h 0.8 C 22,1.8 22,1.8 22,2.1 v 0.3 l 0.2,-0.3 c 0,-0.3 0.3,-0.4 0.3,-0.1 h 0.2 c 0.1,0 0.3,0 0.4,0.2 0.2,0.1 0.2,0.1 0.2,0 0,-0.4 0.4,-0.4 0.6,-0.2 0.1,0.3 0.2,0.3 0.2,0 V 1.9 c 0.2,0 0.9,0.6 0.9,0.7 l 0.1,0.2 c 0,0 0.1,0 0,-0.2 l 0.3,-0.4 c 0.4,-0.2 1.1,-0.3 1,-0.2 0,0.3 0.1,0.3 0.4,0.1 0.4,-0.3 1.2,-0.3 1.4,0 0.2,0.2 0.3,0.2 0.7,0 0.4,-0.3 0.4,-0.3 0.5,0 0.1,0.1 0.1,0.1 0.4,0 0.2,-0.3 1,-0.3 1.3,0 l 0.4,-0.2 c 0.2,-0.3 0.3,-0.3 0.2,0 v 0.2 c 0.1,0.1 0.2,0 0.2,-0.3 h 0.3 c 0.2,0 0.3,0 0.3,-0.2 h 0.2 c 0.1,0.2 0.2,0.2 0.2,0 0.2,-0.1 0.4,0 0.4,0.2 0,0.3 0.3,0.6 0.5,0.5 V 1.9 c 0,-0.2 0,-0.2 0.2,-0.1 0.3,0 0.3,0 0.2,-0.1 0,-0.4 0.3,-0.4 0.6,-0.2 0.2,0.2 0.4,0.2 0.4,0 0,-0.2 0.2,0 0.3,0.3 0.1,0.3 0.4,0.3 0.8,0 0.3,-0.4 0.3,-0.4 0.2,-0.1 l 0.1,0.2 c 0,0 0.2,0 0.2,0.2 0.1,0.3 0.1,0.2 0,-0.2 0,-0.3 0,-0.4 0.2,-0.4 l 0.3,-0.2 c 0,-0.1 0,-0.1 0.1,0 h 1.1 l 0.3,-0.1 h 0.6 c 0.2,0 0.4,0.2 0.4,0.3 h 0.1 c 0.1,0 0.1,-0.1 0,-0.2 -0.1,-0.2 0,-0.2 0.5,-0.2 h 0.8 c 0,-0.2 0.2,-0.1 0.3,0 0.3,0.2 0.9,0.2 1.2,0 0.1,-0.2 0.4,0 0.4,0 0,0.1 0.1,0.2 0.5,0.1 0.3,0 0.5,0 0.4,0.1 v 0.3 c 0.1,0.1 0.2,0 0.3,-0.1 l 0.2,-0.4 h 0.2 V 0.9 c 0.2,0 0.1,0 0,0 -0.2,0 -0.2,-0.1 -0.1,-0.2 0.2,-0.2 0.6,0 1,0.4 L 46,1.5 V 1.1 c 0,-0.4 0,-0.4 0.2,-0.3 0.2,0.2 0.7,0.2 0.8,0 0,-0.3 0.5,0 0.5,0.3 v 0.2 c 0.2,0 0.6,-0.5 0.5,-0.7 V 0.4 c 0.2,0 0.5,0.5 0.4,0.5 l 0.1,0.2 C 48.9,1.3 49.1,1 48.8,0.8 48.6,0.6 48.5,0.3 48.8,0.3 l 0.4,0.4 c 0.4,0.4 0.6,0.5 0.5,0 -0.1,-0.2 0,-0.2 0,0 h 0.4 c 0.3,-0.3 0.8,-0.4 1.1,-0.2 0.3,0.2 0.4,0.2 0.5,0 0.2,-0.2 0.2,-0.2 0.2,0 L 52,0.9 c 0.2,0 0.5,-0.2 0.4,-0.4 0,-0.1 0,-0.2 0.2,-0.2 L 53,0.4 c 0,0.1 0,0.2 -0.1,0.1 l -0.2,0.1 c 0,0.2 0.1,0.2 1,0.2 0.7,0 1.1,-0.1 1.1,-0.2 0,-0.2 0.5,-0.2 0.6,0 l 0.8,0.1 c 0.6,0 0.7,0 0.8,-0.2 0,-0.2 0.3,-0.3 0.3,0 h 0.2 c 0,-0.2 0,-0.3 0.2,-0.3 0.1,0 0.2,0 0.2,0.2 0,0.2 0.1,0.2 0.8,0.2 h 1 l 0.4,-0.1 0.4,-0.1 c 0,-0.1 0,-0.2 0.2,-0.3 h 1.2 L 61.5,0.3 61,0.4 c 0,0.1 0.2,0.2 0.6,0.2 0.6,0 0.7,0 0.6,0.1 V 1 c 0.1,0 0.3,0 0.3,-0.3 0.2,-0.4 0.4,-0.6 0.8,-0.4 l 0.5,0.1 c 0.2,0 0.2,0 0,-0.1 -0.1,0 -0.1,-0.1 0,-0.1 L 64,0.3 c 0,0.1 0.1,0.1 0.2,0 0,-0.2 0.1,-0.2 0.2,0 l 0.1,0.3 h 1.6 l 1.8,0.1 h 0.3 l 0.6,-0.1 c 0.4,0 0.5,0 0.4,0.2 0,0.2 0,0.2 0.3,0 0.2,-0.3 0.2,-0.2 0.1,0 -0.1,0.5 0,0.5 0.3,0.1 0,-0.2 0.2,-0.3 0.8,-0.3 h 2.7 c 1,0 1.4,0.1 1.3,0.4 0,0.2 0,0.2 0.2,0 0.3,-0.2 0.5,-0.3 1.2,-0.3 H 77 c 0,0.2 0,0.2 0.4,0 0.3,-0.2 0.4,-0.2 0.5,0 0.1,0.2 0.2,0.2 0.5,0 h 0.5 l 0.2,0.1 c 0,-0.1 0.2,-0.2 0.6,-0.2 h 0.7 a 7,7 0 0 0 1.6,0 c 0.1,0 0.7,0 1,0.2 0,0.1 0.1,0.1 0.1,0 l 0.8,-0.1 a 40.7,40.7 0 0 0 1.3,0 l 0.1,0.2 0.1,-0.1 c 0,-0.2 1.2,0 1.4,0.1 0.1,0.2 0.2,0.2 0.2,0 V 0.7 L 86.8,0.5 87,0.6 c 0.3,0.2 0.6,0.3 0.8,0 h 0.5 c 0.1,-0.2 0.1,-0.1 0,0.1 0,0.3 0,0.3 0.2,0 0.3,-0.2 0.7,-0.2 0.7,0 0,0.2 0.8,0.2 1,0 0.1,0 0.2,0 0.2,0.2 0,0.2 0,0.2 0,0 0.1,-0.2 0.4,-0.3 0.8,-0.2 h 0.4 l 0.2,-0.1 c 0,0.2 0,0.2 0.1,0.1 a 12.5,12.5 0 0 1 3.1,0 16.8,16.8 0 0 1 3.8,0 c 0,-0.1 0.3,-0.2 1,-0.1 L 101,0.5 h 0.3 l 0.4,0.1 a 61.5,61.5 0 0 1 8.2,0 l 0.2,0.4 c 0.1,0 0.2,0 0.2,-0.2 0,-0.3 0,-0.3 0.7,-0.3 h 0.8 l 0.3,0.2 c 0.3,0 0.3,0 0,-0.1 -0.2,-0.1 -0.2,-0.2 0,-0.2 0.3,0 0.8,0.4 0.7,0.6 0.1,0 0.2,0 0.2,-0.2 0,-0.3 -0.1,-0.3 1.9,-0.2 h 2.1 l 0.6,0.1 h 0.3 c 0.2,-0.2 1.7,0 1.9,0.2 a 159.6,159.6 0 0 0 7.5,0.2 h 0.4 c 0.2,-0.2 0.6,-0.2 1.3,-0.2 a 248.2,248.2 0 0 0 1.5,0.3 c 0,0.2 0,0.2 0.1,0 0.2,-0.2 1,-0.3 1.5,-0.1 h 1.6 c 0.5,0 0.6,0 0.6,0.2 l 0.1,0.1 0.1,-0.1 c 0,-0.2 0,-0.2 0.2,-0.2 0.1,0 0.3,0 0.3,0.2 0,0.2 0.3,0.2 0.4,0 0.1,-0.2 0.6,-0.1 0.6,0 l 0.1,0.3 0.1,-0.2 c 0,-0.2 0.4,-0.3 0.7,0 h 0.1 c 0,-0.1 0.2,-0.2 0.4,-0.1 h 2.8 l 0.8,0.2 h 0.4 l 0.4,0.1 c 0,0 0.1,0.1 0.4,0 h 0.7 a 81.2,81.2 0 0 0 3.7,0 l 0.5,0.1 h 2.3 l 0.3,0.3 c 0,0 0.1,0.2 0.3,0.2 0.3,0 0.4,0 0.3,-0.2 0,0 0.1,-0.2 0.4,-0.2 h 0.4 c 0,0.1 0,0.1 0.2,0 h 1 c 0,0.1 0,0.2 0.2,0 h 1.2 a 63.3,63.3 0 0 0 3,0.2 c 0.4,-0.2 1.3,-0.1 1.3,0.2 0,0.2 0,0.2 0.2,0 0.1,-0.2 0.3,-0.3 1.2,-0.3 h 1 c -0.2,0.2 0.4,0.2 0.6,0 l 0.4,0.1 h 0.5 c 0.3,-0.2 1.2,-0.1 1.9,0 0.3,0.2 0.5,0.2 0.5,0.1 0,0 0.1,-0.1 0.2,0 h 0.2 c 0.3,-0.3 1.7,-0.2 2,0 0,0.2 0.2,0.2 0.2,0.1 h 0.3 l 0.3,-0.1 c 0.1,-0.2 0.5,-0.2 0.4,0 -0.1,0.3 0,0.3 0.3,0 h 0.5 c 0.5,-0.2 0.7,0 0.4,0.3 -0.2,0.2 -0.2,0.2 0.3,0 0.4,-0.3 1,-0.4 1.4,-0.1 h 1.2 c 0,0.2 0.1,0.2 0.3,0 h 1.8 l 0.5,0.1 c 0,0 0.2,0 0.3,0.2 l 0.3,0.3 V 2.6 c 0.2,-0.3 0.6,-0.4 0.9,-0.1 h 0.2 c 0,-0.1 0.1,-0.1 0.2,0 0.2,0.2 0.9,0.2 0.9,0 0,-0.1 0,-0.1 0.2,0 v 0.3 c 0,0.3 0.1,0.4 0.3,0.1 0.3,-0.3 0.8,-0.4 0.8,-0.1 V 3 c 0.1,0 0.2,-0.1 0.1,-0.2 0,-0.2 0,-0.2 0.5,-0.2 0.3,0 0.6,0.2 0.7,0.3 0,0.1 0.1,0.1 0.1,0 0.1,-0.2 0.3,-0.2 0.5,0 0.2,0.2 0.2,0.2 0.3,0 0.1,-0.4 0.2,-0.4 0.7,0 h 0.5 c 0.1,-0.2 0.2,-0.2 0.7,0 h 0.8 c 0.2,0 0.3,0 0.2,0.2 0,0.2 0,0.2 0,0 0.2,-0.2 1,-0.2 1.3,0 l 0.5,0.1 c 0.2,0 0.3,0 0.3,0.2 h 0.1 c 0.2,0 0.2,0 0.2,0.2 v 0.3 l 0.1,-0.3 c 0,-0.4 0.2,-0.6 0.3,-0.4 h 0.3 l 0.4,0.2 c 0.1,0.2 0.2,0.2 0.1,0 l 0.1,-0.1 h 0.2 c 0,0.2 0.2,0.3 0.4,0.3 h 0.5 c 0.3,-0.3 0.6,-0.3 0.7,0 h 0.7 c 0,0.2 0.2,0.2 0.4,0.2 l 0.4,-0.1 c 0,-0.1 0,-0.2 0.4,0 h 1.4 c 0.2,-0.2 0.2,-0.2 0.2,0.1 0,0.4 0,0.4 0.2,0.1 0.1,-0.1 0.3,-0.2 0.7,0 a 9.9,9.9 0 0 0 2.3,0.2 c 0.1,0 0.1,0 0,0.2 h 0.3 c 0.2,-0.2 1.1,-0.4 1.2,-0.3 h 0.3 c 0.3,-0.2 1,0 1.1,0.4 h 1.3 c 0,0.1 0,0.1 0,0 -0.1,-0.1 0.7,-0.4 1,-0.3 l 0.9,0.1 c 0.6,0 0.7,0 0.5,0.1 -0.2,0.2 -0.2,0.2 0,0.4 0.2,0.1 0.2,0.1 0.2,0 0,-0.3 0.2,-0.7 0.4,-0.5 l 0.8,0.2 c 1,0 1.8,0 2,0.2 h 0.2 c 0,-0.2 1.7,-0.2 2,0 h 0.4 c 0.3,-0.2 0.4,-0.2 0.6,0 h 0.2 c 0.1,-0.2 0.8,-0.2 1,0 h 1 c 0.2,0.2 0.3,0.2 0.4,0 h 1 c 0.2,0 0.3,0 0.4,0.2 0,0.1 0.1,0.1 0.2,0 0.1,-0.1 0.2,-0.1 0.4,0 0.2,0 0.2,0.2 0.1,0.2 v 0.2 l 0.3,-0.1 c 0,-0.1 0,-0.2 0.2,-0.2 l 0.2,0.1 -0.2,0.2 h -0.1 c 0,0.2 0.4,0 0.6,-0.1 0,-0.2 0.2,-0.2 0.5,-0.2 h 0.3 c 0,-0.1 0,-0.1 0.2,0 0.1,0.2 0.6,0.3 0.8,0 l 1,0.1 0.5,0.1 c 0.2,0 0.5,0.1 0.7,0.4 0.3,0.4 0.5,0.4 0.5,0 0,-0.3 0.3,-0.3 2,-0.2 l 2.2,0.2 c 0.8,0 1.1,0 1.3,0.2 0.2,0.2 0.6,0.3 0.6,0.1 l 0.4,-0.1 c 0.2,0 0.3,0 0.2,0.2 v 0.3 l 0.2,-0.1 0.7,-0.4 0.2,0.3 c 0.1,0.3 0.6,0.3 0.5,0 0,-0.1 0.1,-0.2 0.4,-0.2 1.2,0 1.7,0 1.8,0.4 0,0.1 0.2,0.2 0.4,0.1 0.2,0 0.2,0 0,-0.2 l -0.2,-0.2 h 1.8 c 0,0.2 0,0.2 0.1,0 h 0.6 a 143.3,143.3 0 0 0 1.6,0.2 c -0.2,0.3 0.1,0.4 0.3,0 0.3,-0.3 1.2,-0.2 1.2,0.2 l 0.2,0.3 V 6.3 c 0,-0.3 0.2,-0.5 0.3,-0.2 l 0.2,0.2 c 0,0 0.1,0 0,-0.1 0,-0.1 0.1,-0.2 0.5,0 l 0.5,0.1 c 0,0.2 0.3,0.2 0.3,0 0,-0.2 0,-0.2 0.2,-0.2 0.2,0 0.3,0.2 0.2,0.3 -0.2,0.1 -0.2,0.4 0,0.5 0.2,0 0.2,0 0.2,-0.2 -0.1,-0.2 0,-0.3 0.2,-0.4 h 1.2 l 0.2,0.1 c 0.4,0 0.6,0 0.5,0.2 l 0.3,-0.1 c 0,-0.2 1,-0.3 1,0 h 1.4 c 1.4,0 1.5,0 1.5,0.2 0,0.3 0,0.3 0.1,0 0.3,-0.3 1.4,-0.3 1.7,0.2 0.1,0.2 0.4,0.3 0.5,0.3 0.3,0 0.3,0 0,-0.1 -0.4,-0.2 -0.3,-0.4 0.1,-0.4 0.3,0 0.5,0 0.7,0.2 0.1,0.1 0.2,0.2 0.3,0.1 l 0.1,-0.3 h 0.7 c 0.8,0.2 1.4,0.3 1.5,0.1 h 1.5 l 1,0.3 h 0.3 c 0,0 0.6,-0.2 1.4,-0.2 1.4,0 2,-0.1 2.2,-0.3 h 0.5 c 0.5,0.2 0.8,0.2 0.7,0 0,0 1.4,0 1.5,0.2 h 1.2 c 0.2,0.2 0.2,0.1 0.2,0 l 0.3,-0.1 0.3,0.1 h 0.4 c 0.2,-0.1 0.4,-0.2 0.5,-0.1 l 0.7,0.1 c 0.2,0 0.5,0.1 0.6,0.3 0.3,0.2 0.7,0.2 0.7,-0.1 0,-0.1 0,-0.2 0.2,-0.2 0.7,0 1.5,0 1.6,0.2 h 0.3 c 0,-0.1 0.2,-0.2 0.4,-0.1 h 0.3 c 0.2,-0.3 1.1,-0.2 1.5,0 h 0.6 l 0.2,0.1 0.2,0.1 0.1,0.1 C 269.7,7 270,7 271.2,7 c 1.6,0 2.2,0.1 2.3,0.4 h 0.2 c 0.2,-0.2 0.3,-0.2 0.5,-0.1 0.1,0 0.3,0.1 0.4,0 l 0.1,0.1 c 0,0.1 0.4,0.2 0.9,0.1 h 0.7 c 0,-0.1 0,-0.1 0.2,0 h 0.4 c 0,-0.1 0.2,-0.1 0.4,0 0.5,0.1 0.9,0.1 0.9,-0.1 0,-0.3 0.4,-0.2 0.7,0 0.3,0.4 0.4,0.4 0.8,0 L 280,7.2 v 0.5 c 0.2,0 0.2,0 0.1,-0.2 0,-0.2 0,-0.2 0.3,-0.1 h 0.3 l 0.4,-0.2 0.4,0.1 0.2,0.1 0.4,0.1 c 0,0.2 0.1,0.2 0.4,0.1 l 0.4,-0.2 c 0,-0.2 0.4,0 0.4,0.1 0,0.3 0.3,0.4 0.8,0.2 0.3,-0.2 0.3,-0.2 0.4,0 0,0.3 0.1,0.4 0.2,0.4 V 7.9 c 0,-0.1 0,-0.2 0.3,-0.2 l 0.3,-0.1 c 0,-0.2 0.1,-0.1 0.2,0 0.1,0.1 0.3,0.2 0.5,0.1 0.2,0 0.5,0 0.6,0.2 0.1,0.1 0.3,0.2 0.4,0.1 l 0.2,0.1 c 0,0.2 0,0.2 0.6,0.1 0.8,0 1.1,0 1.1,0.2 l 0.1,0.2 0.1,-0.2 0.1,0.1 0.2,0.4 c 0,0.2 0.4,0 0.5,-0.1 V 8.5 l -0.3,-0.1 c -0.2,-0.2 -0.2,-0.2 0.1,-0.1 l 0.4,-0.1 h 0.2 v 0.3 c -0.4,0.2 -0.2,0.5 0.2,0.4 0.2,0 0.5,0 0.7,0.2 0.3,0.2 0.3,0.2 0.2,0 V 8.6 c 0,-0.1 0,-0.1 0,0 h 1.1 c 0,0.2 0.3,0.2 0.7,0 h 0.6 l 0.4,0.2 0.2,0.2 c 0.1,0.2 0.3,0.2 0.4,0.2 l -0.1,-0.3 c -0.3,-0.2 0,-0.2 0.4,0 l 0.7,0.1 c 0.3,0 0.4,0 0.4,0.2 l 0.1,0.2 0.2,-0.2 c 0,-0.3 0.2,-0.3 0.3,0 0,0.4 0.4,0.4 0.6,0 0,-0.3 0.1,-0.4 0.2,-0.2 l 0.2,0.2 c 0.1,0 0.2,0.1 0.1,0.2 v 0.2 h 0.4 c 0.1,0.1 0.3,0.2 0.4,0.1 l 0.4,0.1 c 0.1,0.1 0.3,0.2 0.4,0.1 0.3,-0.2 0.8,-0.1 0.8,0.1 l 0.3,0.4 0.3,0.4 c 0,0.1 0,0.4 0.2,0.5 l 0.2,0.8 0.2,2.6 v 0.6 c -0.2,0.4 -0.3,2 -0.4,4 0,0.8 0,1.1 -0.2,1.3 -0.2,0.1 -0.2,0.3 0,0.5 V 22 l -0.2,0.8 -0.1,0.5 c -0.2,0 -0.2,0.7 0,0.6 v 0.6 c -0.1,0 -0.1,0.2 0,0.4 l -0.1,0.5 -0.2,0.6 -0.1,1.2 -0.2,2.6 c 0,1 -0.2,2 -0.3,2.5 -0.1,0.4 -0.2,0.8 -0.1,1 l -0.1,0.3 v 0.3 l -0.3,0.7 -0.3,0.8 c 0,0.2 0,0.3 -0.2,0.3 h -0.6 c 0,-0.2 -0.1,-0.2 -0.1,0 l -0.3,0.1 c 0,0 -0.2,0 -0.3,0.2 H 297 c -0.5,-0.3 -1.3,0 -2,0.8 -0.5,0.4 -0.8,0.7 -0.9,0.6 l -0.4,0.4 -0.9,0.4 -0.7,0.1 h -0.7 l -0.4,0.2 c -0.3,0 -1.7,0.4 -2.2,0.7 -0.2,0.1 -0.4,0.2 -0.5,0.1 l -0.4,0.2 -0.6,0.4 -0.7,0.4 -0.5,0.3 -0.4,0.2 -0.5,0.8 c -0.5,0.4 -0.7,0.6 -1,0.5 0,0 -0.1,0 0,0 0.2,0.2 0.2,0.4 0,0.4 l -0.2,0.1 h -0.3 l -0.3,0.1 0.3,0.1 c 0.2,0 0.1,0 -0.1,0.3 l -0.6,0.2 c -0.2,-0.1 -0.2,0 -0.2,0.1 v 0.2 l -0.1,0.2 -0.3,0.1 c -0.2,0 -0.3,0 -0.2,0.3 0,0.2 0,0.4 -0.2,0.5 l -0.2,0.2 c 0.2,0 -0.4,0.8 -0.7,1 l -0.6,0.3 -0.2,0.3 h -0.7 l -0.8,0.1 c 0,0.3 -0.6,0.3 -0.8,0.1 -0.2,-0.1 -0.2,-0.1 -0.2,0 -0.1,0.2 -0.2,0.2 -0.5,0.1 l -0.4,0.1 c 0,0.1 0,0.2 -0.2,0.2 l -0.2,-0.2 h -0.2 c -0.2,0.2 -0.3,0.2 -0.4,0 h -0.3 c 0.2,0.1 0,0.1 -0.6,0.1 h -0.7 l -0.1,-0.2 -0.2,0.1 c 0,0.3 0,0.3 -0.1,0 -0.1,-0.2 -1,-0.4 -1,-0.2 l 0.2,0.1 c 0.1,0 0.1,0 0,0.1 -0.1,0.1 -0.3,0.1 -0.4,0 -0.1,0 -0.3,0 -0.4,0.2 h -0.9 c 0,0.1 -0.7,0.2 -1.6,0.2 -1.3,0 -1.6,0 -1.8,-0.2 -0.1,-0.2 -0.1,-0.2 0,0.1 0,0.3 0,0.4 -0.2,0.4 -0.1,0 -0.2,0 -0.1,-0.2 h -0.1 l -0.8,0.1 -3.5,0.2 c -0.5,0 -1.3,-0.1 -1.5,-0.3 l -0.2,0.1 c -0.1,0.2 -0.7,0.2 -1.9,0 h -0.6 l -0.2,-0.2 c 0,-0.1 -0.1,-0.2 -0.3,-0.2 -0.8,0 -0.8,0 -0.8,-0.3 0,-0.3 0,-0.3 -0.2,0 -0.1,0.4 -0.2,0.4 -0.4,0.3 -0.1,-0.1 -0.2,-0.1 -0.2,0 0,0 -0.9,0 -1,-0.2 l -1,-0.1 c -0.3,0 -0.4,0 -0.4,-0.2 0,-0.1 -0.1,-0.2 -0.3,-0.1 -0.3,0 -0.4,0 -0.4,-0.3 V 46 l -0.3,0.3 c -0.1,0.1 -0.7,0 -0.9,-0.2 h -0.3 l -1.3,-0.3 h -0.5 c -0.6,0 -0.8,-0.3 -0.3,-0.4 h -0.5 c -0.8,0 -2.1,-0.3 -2.1,-0.4 0,-0.2 -1.5,-0.6 -1.7,-0.5 -0.2,0.1 -0.2,0 -0.2,0 v -0.3 l -0.2,0.2 c 0,0.1 0,0.1 -0.1,0 l -0.7,-0.2 c -0.3,0 -0.5,-0.1 -0.5,-0.2 h -0.6 c -0.3,0 -0.5,0 -0.7,-0.2 0,-0.1 -0.2,-0.2 -0.3,-0.1 0,0 -0.2,0 -0.3,-0.2 -0.2,-0.2 -0.3,-0.2 -0.6,-0.1 h -0.5 c -0.1,-0.2 -0.8,-0.4 -0.8,-0.3 -0.2,0.2 -0.5,0 -0.5,-0.3 0,-0.3 0,-0.3 -0.1,-0.2 h -0.5 l -0.2,0.1 -0.3,0.1 c -0.4,0 -0.4,0 -0.3,-0.2 0.1,-0.2 0,-0.2 -0.2,-0.1 -0.3,0.1 -0.5,0 -0.8,0 l -1,-0.2 c -0.6,0 -1.4,-0.4 -1.3,-0.7 v -0.2 l -0.1,0.3 c 0,0.2 0,0.3 -0.2,0.1 0,-0.1 0,-0.1 -0.1,0 0,0.2 -0.2,0.2 -0.8,0 l -1,-0.4 -0.8,-0.2 c -0.6,0 -0.9,-0.1 -0.8,-0.3 -0.1,0 -0.2,0 -0.2,0.2 H 231 c -0.2,-0.2 -0.3,-0.3 -0.2,-0.4 h -0.2 c 0,0.2 -0.7,0 -0.8,0 l -0.5,-0.2 c -0.7,-0.1 -1,-0.3 -1,-0.4 l -0.2,-0.2 c -0.1,0 -0.3,0 -0.5,-0.2 L 227,39.5 226.4,39.3 225.8,39 h -0.6 c -0.2,0 -0.3,0 -0.2,-0.2 v -0.1 c -0.2,0 -1,-0.2 -1.1,-0.4 l -0.2,-0.1 c -0.2,0 -0.3,0 -0.2,-0.2 0,-0.2 0,-0.2 -0.1,0 -0.2,0 -0.7,0 -0.6,-0.2 h -0.7 c 0,-0.2 0,-0.2 -0.2,-0.2 l -0.2,0.1 -0.1,0.1 c 0,0 -0.1,0 0,0 l -0.3,-0.4 c -0.2,-0.1 -0.3,-0.2 -0.4,0 l 0.2,0.2 H 220 c -1,-0.2 -1.4,-0.3 -1.5,-0.5 0,-0.2 -0.4,-0.2 -0.3,0 l -0.1,0.2 -0.2,-0.1 c 0,0 0,-0.1 -0.1,0 0,0 -0.4,0 -0.6,-0.2 a 4,4 0 0 0 -1.3,-0.2 c -0.8,0 -2,-0.4 -2,-0.5 l -0.1,-0.1 -0.2,0.1 -0.2,0.1 v -0.1 h -0.5 l -0.6,-0.1 c 0,-0.2 -0.6,-0.4 -0.7,-0.2 v -0.1 c 0,-0.2 -0.1,-0.2 -0.2,-0.2 0,0.1 -0.2,0.2 -0.5,0.2 -0.3,0 -0.3,0 -0.4,-0.2 v -0.3 l -0.3,0.3 c -0.2,0.2 -0.2,0.2 -0.4,0.1 a 0.6,0.6 0 0 0 -0.4,-0.1 1,1 0 0 1 -0.5,-0.1 c -0.2,-0.1 -0.3,-0.2 -0.3,0 l -1,-0.1 -0.4,-0.1 -0.2,-0.1 c 0,0 0,-0.1 -0.1,0 -0.2,0 -0.3,0 -0.3,-0.2 -0.1,-0.3 -0.3,-0.3 -0.3,0 0,0.2 -0.1,0.2 -0.5,0.2 -0.5,0 -0.6,0 -0.6,-0.3 0,-0.2 -0.3,-0.1 -0.4,0.1 -0.1,0.2 -0.2,0.2 -0.3,0 H 204 a 0.5,0.5 0 0 1 -0.4,-0.3 c 0,-0.1 -0.1,-0.2 -0.1,0 h -0.1 L 203,35 202.6,34.9 c -0.2,-0.3 -0.3,-0.3 -0.2,0 h -0.3 c -0.6,-0.2 -1,-0.4 -0.9,-0.6 0.1,-0.2 -0.1,-0.2 -0.2,0 h -1 c 0,0.2 -1.3,0 -1.5,0 l -0.2,-0.1 -0.7,-0.2 c -0.3,-0.2 -0.5,-0.2 -0.5,0 h -0.2 l -0.1,-0.1 c -0.1,0 -0.2,0 -0.2,-0.2 h -0.3 c -0.2,0.1 -0.2,0.1 -0.2,0 h -0.2 c -0.3,0.1 -2.4,-0.2 -2.6,-0.4 0,0 -0.2,-0.1 -0.4,0 0,0 -0.2,0 -0.1,-0.1 0,-0.1 -0.2,-0.2 -0.6,-0.2 l -0.8,-0.2 -0.6,-0.2 c -0.6,0 -1.2,-0.1 -1.3,-0.3 -0.1,-0.1 -0.4,-0.2 -0.8,-0.1 h -1 A 3,3 0 0 0 187,32 c -0.6,0 -0.7,0 -1,-0.4 -0.3,-0.3 -0.3,-0.3 -0.3,0 0,0.1 0,0.2 -0.2,0.2 l -0.2,-0.1 c 0,-0.2 -0.7,0 -1,0.1 0,0.1 -0.1,0.1 -0.2,0 h -0.6 l -0.7,0.1 -0.8,0.3 c -1.2,0 -1.3,0 -1.5,0.2 h -0.2 c 0,-0.2 0,-0.2 -0.2,0 -0.1,0.1 -0.6,0.2 -1.3,0.2 a 1,1 0 0 0 -0.5,0.2 h -0.4 c -0.2,0.1 -0.4,0.1 -0.4,0 h -0.4 V 33 h -0.5 l -1,0.2 -0.8,0.1 a 2,2 0 0 1 -0.9,0.2 l -1.6,0.3 A 7,7 0 0 1 171,34 l -0.4,0.1 -0.5,0.4 h -0.8 c 0,0.1 -0.2,0.3 -0.4,0.3 -0.2,0 -0.3,0.2 -0.3,0.2 0,0.1 -0.1,0.1 -0.2,0 v 0.1 c 0,0.2 -1.7,1 -2,1 0,0 -0.2,0 -0.4,0.3 l -0.4,0.3 -0.1,0.1 -0.5,0.3 c -0.3,0 -0.5,0.2 -0.5,0.2 0,0 -0.1,0.2 -0.3,0.2 a 2,2 0 0 0 -0.4,0.2 c -0.1,0.1 -0.3,0.2 -0.3,0 h -0.6 c 0,0.2 -0.2,0.3 -0.4,0.4 -0.4,0.2 -0.4,0.2 -0.7,0 l -0.7,-0.2 -0.6,-0.2 c 0,-0.1 -0.1,-0.1 -0.2,0 -0.1,0.1 -1.2,0.3 -1.4,0.2 -0.2,-0.2 -0.9,-0.2 -1,0 l -0.8,0.1 c -0.5,0 -0.7,0 -0.8,0.2 l -0.2,0.1 c 0,0 -0.2,0 -0.3,0.2 -0.2,0.2 -0.3,0.2 -0.6,0.1 H 154 c -0.3,-0.2 -0.5,-0.2 -0.3,0 0.2,0.2 0.2,0.3 0,0.3 l -0.3,-0.3 c -0.1,-0.2 -0.2,-0.2 -0.4,0 -0.4,0.2 -1,0.2 -1,0 0,-0.2 -0.2,-0.3 -0.4,-0.3 -0.3,0 -0.3,0 -0.2,0.2 0.2,0 0.2,0.1 0,0.1 A 1,1 0 0 1 151,38.4 c -0.2,-0.1 -0.4,-0.2 -0.5,0 h -1.1 c -0.9,0 -1,0 -1,-0.2 0,-0.2 0,-0.1 -0.2,0 -0.2,0.3 -0.5,0.4 -0.5,0.1 -0.2,0 -0.2,0 -0.1,0.1 0,0.1 0,0.2 -0.2,0.2 0,0 -0.2,0 -0.2,-0.2 -0.1,0.4 -1.3,0.8 -1.6,0.6 -0.1,-0.1 -0.2,-0.1 -0.2,0 -0.1,0.3 -0.6,0.3 -0.6,0 l -0.3,0.2 c -0.2,0.3 -0.3,0.4 -0.3,0.1 0,-0.1 -0.1,-0.2 -0.2,-0.1 -0.1,0 -0.2,0.1 -0.1,0.2 l -0.1,0.2 -0.2,-0.1 -0.2,0.1 a 1,1 0 0 1 -0.6,0.3 3,3 0 0 0 -0.7,0 c -0.2,0.1 -0.2,0 -0.2,0 0,-0.3 -0.6,-0.2 -1,0.2 l -0.4,0.2 h -0.2 c 0,0.2 0,0.2 -0.2,0 -0.4,0 -0.7,0 -1,0.2 h -0.3 c 0,0 -0.2,0 -0.2,0.2 h -0.7 c 0,0.2 0,0.1 -0.2,0 -0.2,-0.3 -0.5,-0.4 -0.4,-0.1 0.1,0.3 -0.2,0.5 -0.6,0.3 -0.2,-0.1 -0.3,-0.1 -0.4,0 -0.1,0.1 -0.4,0.1 -0.8,0 l -0.5,0.1 -0.2,0.1 -0.2,0.1 c -0.2,0.3 -0.5,0.3 -0.6,0 L 133.8,41 c 0,0 0,0.2 -0.2,0.2 0,0 -0.2,0 -0.2,0.2 -0.1,0.3 -0.4,0.4 -0.5,0.1 0,-0.2 -1,0.2 -1,0.4 0,0.2 -0.1,0.2 -0.5,0.2 l -0.8,0.1 -0.4,0.1 v 0.1 l -0.3,0.2 c -0.2,0 -0.3,0 -0.3,0.2 0,0.2 -0.3,0.2 -0.5,0 -0.1,-0.3 -0.1,-0.2 0,0 0,0.3 0,0.4 -0.2,0.5 -0.2,0 -0.2,0 -0.2,-0.2 0,-0.2 0,-0.2 -0.3,-0.2 l -0.3,0.1 c 0,0.1 0,0.3 -0.3,0.4 -0.5,0.2 -0.6,0.2 -0.4,0 0,-0.2 0,-0.2 -0.2,0 -0.2,0.2 -0.4,0.2 -0.7,0.1 h -0.7 c -0.3,0.2 -0.3,0.2 -0.2,0 0.2,0 0.2,-0.2 0.2,-0.3 0,0 -0.2,0 -0.4,0.3 l -0.4,0.2 -0.5,-0.1 c -0.4,0 -0.5,0 -0.4,0.1 0.2,0.2 0,0.2 -0.5,0.2 -0.3,0 -0.4,-0.2 -0.4,-0.3 0,-0.3 0,-0.3 -0.5,-0.2 -0.3,0 -0.5,0 -0.6,-0.2 h -1.2 l -1,-0.2 a 2,2 0 0 1 -0.8,-0.2 l -1,-0.3 c -0.6,-0.1 -1.2,-0.3 -1.4,-0.5 -0.2,-0.2 -0.6,-0.2 -0.6,0 l -0.2,0.2 -0.1,-0.3 -0.1,-0.4 -0.2,0.2 -0.6,0.1 c -0.4,0 -0.6,0 -0.7,0.2 l -0.3,-0.1 a 0.5,0.5 0 0 0 -0.8,0 l -0.4,-0.2 -0.3,-0.2 -0.3,0.2 -0.3,0.1 c 0,0.2 -0.9,0 -0.9,-0.2 0,-0.2 0,-0.2 -0.2,0 h -0.3 c 0,-0.1 0,-0.2 -0.2,-0.2 -0.2,0 -0.3,0 -0.3,0.2 l -0.1,0.2 -0.1,-0.1 c 0,-0.1 -0.1,-0.2 -0.3,-0.1 l -0.7,0.1 -2.8,0.4 -0.5,-0.1 c -0.2,-0.2 -0.2,-0.2 -0.3,0 0,0.1 0,0.2 -0.3,0 l -0.7,0.1 c 0,0 -0.2,0 -0.3,-0.2 -0.3,-0.3 -0.4,-0.3 -0.5,-0.1 h -0.6 c -0.1,0 -0.2,0 -0.2,-0.2 0,-0.1 -0.1,-0.2 -0.3,-0.2 -0.6,0 -1.2,-0.2 -1.3,-0.4 0,-0.4 -3,0 -3.6,0.3 h -0.2 c 0,0 -0.2,-0.1 -0.4,0 -0.2,0 -0.3,-0.1 -0.3,-0.2 h -0.1 l -0.1,0.3 c 0,0.1 -0.2,0.2 -0.5,0.2 l -0.6,0.3 h -0.7 c -0.3,0 -0.4,0 -0.4,0.2 0,0.2 -0.6,0.1 -1,0 0,-0.2 0,-0.2 0,0 0,0.2 0,0.2 -0.3,0.2 L 92.3,42.2 91.9,42 c -0.3,0 -0.3,0 -0.4,0.2 0,0.2 -0.2,0.2 -0.3,0.2 h -0.3 c 0,0.2 -0.5,0.2 -1.1,0.2 h -1 v -0.1 c -0.2,0 -0.3,0 -0.4,-0.2 0,-0.2 -0.2,-0.3 -0.2,-0.3 H 88 c -0.1,-0.2 -0.2,-0.2 -0.2,0 0,0.1 0,0.2 -0.1,0.1 -0.1,0 -0.1,0 0,0 l 0.2,0.2 c 0.2,0 0.2,0 0,0.1 0,0.1 -0.3,0.1 -0.4,0 H 86.4 L 85.3,42.2 A 34.3,34.3 0 0 1 84,41.7 L 83.8,42 83.6,42.1 83.3,42 c 0,-0.3 -0.2,-0.2 -0.3,0.1 -0.2,0.3 -0.2,0.4 -0.3,0.2 0,-0.1 -0.1,-0.1 -0.1,0 l -0.9,-0.1 h -0.3 a 1,1 0 0 1 -0.5,0.2 l -0.4,0.3 c 0,0 -0.1,0.1 -0.2,0 v -0.1 c 0.2,0 0.2,-0.2 0.1,-0.2 0,0 -0.2,0 -0.3,0.2 l -0.3,0.3 -0.5,0.1 c -0.5,0.3 -0.6,0.2 -0.8,0 0,-0.2 -0.2,-0.2 -0.3,-0.1 -0.5,0.2 -0.7,0.2 -1.2,-0.3 -0.3,-0.3 -0.5,-0.4 -0.6,-0.3 -0.2,0.2 -0.4,0.2 -0.3,0 0,-0.1 0,-0.1 -0.2,0 -0.2,0.1 -0.3,0.1 -0.4,0 -0.2,-0.1 -0.2,-0.1 -0.4,0 h -1 L 73.8,42.2 A 2,2 0 0 0 73,42 c -0.4,0 -0.8,-0.2 -1,-0.3 -0.1,-0.1 -0.4,-0.2 -0.5,-0.1 l -0.3,-0.1 -0.7,-0.2 c -0.2,0 -0.5,0 -0.6,-0.2 l -0.7,-0.2 -0.6,-0.1 c 0,-0.1 -0.3,-0.2 -0.7,-0.2 L 67.2,40.4 65.9,40.1 65.8,40 h -1 l -0.2,0.1 c 0.1,0.2 0,0.2 -0.5,0.2 l -0.3,0.3 c -0.2,0.1 -0.4,0.2 -0.6,0.1 -0.2,0 -0.3,0 -0.2,0.1 0.2,0.2 0.2,0.4 0,0.4 -0.3,0 -1,0.6 -1.3,1 a 4,4 0 0 1 -0.6,1 c -0.2,0.1 -0.2,0.3 -0.1,0.2 0,0 0.1,0 0,0 l -0.2,0.2 h -0.1 l -0.4,0.7 c -0.4,0.4 -0.4,0.4 -0.7,0.3 -0.3,0 -0.4,0 -0.6,0.2 -0.2,0.2 -0.3,0.3 -0.4,0.2 -0.1,-0.1 -0.2,0 -0.4,0.1 -0.2,0.2 -0.3,0.3 -0.4,0.2 0,-0.2 0,-0.2 -0.2,0 L 57.2,45.2 C 57,45 57,45 57,45.2 c 0,0.2 0,0.3 -0.2,0.3 l -0.3,-0.1 c 0,-0.3 0,-0.3 -0.2,0 l -0.5,0.2 -0.4,0.1 c -0.2,0.2 -0.9,0.3 -0.8,0 h -0.5 c -0.3,0.2 -0.3,0.2 -0.4,0 -0.2,-0.3 -0.6,-0.3 -0.5,0 0.1,0.2 0,0.2 -0.8,0.1 l -1,0.1 c 0,0.2 -0.6,0.1 -0.9,-0.2 -0.2,-0.2 -0.2,-0.2 -0.3,0 -0.1,0.2 -0.2,0.2 -0.3,0 0,-0.1 -0.4,0.1 -0.4,0.4 0,0.2 0,0.2 -0.2,0 h -0.7 c -0.3,-0.4 -1.3,-0.2 -1.3,0.2 h 0.2 C 47.7,46 48,46 48,46.3 l -0.6,0.3 -1.5,-0.1 h -0.2 c -0.3,0.3 -1.2,0.4 -1.2,0.2 L 44.2,46.6 A 3,3 0 0 1 42.8,46 l -0.7,-0.4 c -0.3,0 -0.6,-0.2 -0.6,-0.3 0,-0.1 -0.1,-0.2 -0.2,-0.1 L 40.5,44.8 39.5,44.3 39,44.2 38.6,44.1 38.2,44 c 0,0 -0.2,-0.1 -0.4,0 -0.2,0 -0.4,0 -0.5,-0.3 -0.3,-0.5 -0.5,-0.5 -1,-0.4 a 1,1 0 0 1 -0.8,0 c -0.3,0 -0.3,0 -0.2,0.2 0.2,0.2 0.2,0.2 0,0.3 A 1,1 0 0 1 34.8,44 c -0.3,0 -0.6,0.3 -0.5,0.7 0,0.3 0,0.3 -0.2,0.1 -0.2,-0.2 -0.2,-0.2 -0.1,0 V 45 l -0.2,0.1 v 0.1 L 33,46.3 h -0.3 c -0.2,-0.2 -0.2,-0.2 -0.2,0 0,0.2 -0.1,0.2 -0.5,0.2 l -0.6,0.1 -0.3,0.2 -0.5,0.1 c 0,0.1 -0.1,0.1 -0.1,0 l -0.3,0.2 c -0.2,0.2 -0.2,0.2 -0.3,0 0,-0.2 0,-0.2 -0.2,0.1 -0.1,0.3 -0.5,0.4 -0.4,0.1 l -0.1,-0.1 -0.1,0.2 c 0,0.2 -0.4,0.5 -0.5,0.3 h -0.3 c -0.3,0.4 -0.8,0.5 -1.4,0.4 z m 234,-0.7 -0.2,-0.2 c 0,0 -0.1,0 0,0 0,0.2 0.2,0.3 0.2,0.2 z m -1.2,-0.4 -0.2,-0.2 -0.1,0.2 V 47 Z M 46.4,46.3 46.1,46.2 c -0.2,0 -0.2,0 0,0.1 0.2,0.2 0.4,0.2 0.3,0 z m 11,-1.7 v 0.3 z m 0.5,0 -0.1,-0.3 c -0.3,0 -0.3,0 -0.2,0.3 0.1,0.2 0.3,0.2 0.3,0 z M 22.5,43.9 h -0.1 c 0,0 -0.1,0 0,0.1 v 0.1 L 22.5,44 Z m 4.4,-0.8 a 0.8,0.8 0 0 0 -0.3,0 c -0.1,0 0,0 0,0 l 0.3,0.2 c 0.1,0 0,-0.1 0,-0.2 z M 82.3,41.9 H 82 82.4 Z m 26.2,-0.5 h -0.1 c -0.1,0 -0.1,0 0,0 v 0.2 z m 125.3,-0.2 h -0.2 c -0.1,0 -0.1,0.1 0,0.1 h 0.2 z M 231.2,40 231,39.8 V 40 Z M 123,39.6 122.8,39.3 c 0,-0.3 -0.2,-0.5 -0.4,-0.3 l 0.2,0.5 c 0.2,0.3 0.3,0.4 0.4,0.3 0.1,-0.1 0.1,-0.2 0,-0.2 z m 144.1,0 V 39.2 C 266.9,39 267,39 267.2,39 l 0.4,0.1 0.2,0.1 c 0.2,-0.1 0,-0.5 -0.3,-0.4 l -0.6,-0.1 c -0.4,-0.2 -0.5,-0.1 -0.7,0 -0.2,0.1 -0.4,0.2 -0.5,0.1 0,0 -0.2,0 -0.2,0.2 0,0.3 -0.2,0.2 -0.4,-0.2 -0.3,-0.5 -0.7,-0.8 -0.8,-0.6 0,0.1 -0.2,0.1 -0.4,0 h -0.7 l 0.6,0.4 0.5,0.3 c 0,0 -0.1,0.1 -0.2,0 h -0.7 c 0,0.1 0.3,0.2 0.7,0.2 l 0.8,0.2 c 0.5,0.2 0.7,0.2 1,0 0,0 0.2,0 0.2,0.2 0.1,0.2 0.9,0.2 1,0 z m -4.6,-1.5 h -0.2 v 0.2 h 0.2 z m -31,-1.2 a 2,2 0 0 0 -0.8,-0.2 h -0.4 l 0.2,0.1 c -0.3,0 0.4,0.3 0.9,0.3 0.3,0 0.3,0 0.1,-0.2 z m -17.7,-1.2 -0.1,-0.1 h -0.2 c 0,0.2 0,0.2 0.2,0.2 v -0.1 z m 54.8,-1.3 -0.4,-0.3 h -0.1 c 0.2,0 0.2,0 0,-0.2 -0.3,-0.2 -0.4,-0.2 -0.3,0 l -0.2,0.2 h -0.2 c 0,-0.2 0,-0.2 -0.2,-0.1 h -0.7 c -0.3,-0.1 -0.3,-0.2 -0.3,-0.5 0.1,-0.3 0,-0.4 0,-0.4 H 266 c 0,-0.1 -0.1,-0.2 -0.3,-0.2 h -0.8 l -0.6,0.2 c 0,0.1 0.1,0.2 0.6,0.2 l 0.6,0.1 c 0,0.1 0,0.1 0.2,0 0.2,-0.2 0.3,-0.2 0.3,0 0,0.3 -0.2,0.4 -0.8,0.4 l -0.4,0.1 0.3,0.1 c 0.2,0 0.3,0.1 0.3,0.2 0,0.1 0.2,0.1 0.4,0 0.4,-0.2 1.1,0 1.1,0.1 h 0.3 l 0.4,0.1 c 0.2,0.2 1,0.1 1,0 z m -4.9,-0.5 h -0.3 c -0.1,0 -0.3,0 -0.2,0.1 z m 4,-0.4 c 0,-0.2 -0.1,-0.3 -0.3,-0.3 -0.4,-0.1 -0.6,0 -0.3,0.3 0.4,0.2 0.4,0.2 0.5,0 z m 15.3,-5 c 0,-0.2 0,-0.2 -0.2,-0.2 -0.2,0 -0.3,0 -0.2,0.1 l 0.2,0.1 z M 72,28.3 C 71.9,28 71.3,28 71.3,28.3 l 0.4,0.1 c 0.2,0 0.3,0 0.2,-0.1 z m 210.3,0 c -0.1,-0.2 0,-0.3 0.2,-0.3 l 0.4,-0.2 c 0,-0.2 -1.3,-0.4 -1.8,-0.4 h -0.6 c 0,0 -0.1,-0.1 -0.2,0 h -1.2 c 0,-0.2 0,-0.2 -0.3,-0.1 h -0.4 l -0.2,0.2 c -0.2,0.3 -0.2,0.3 -0.5,-0.1 -0.2,-0.2 -0.4,-0.5 -0.3,-0.6 h -0.2 c 0,-0.1 -0.1,-0.2 -0.2,-0.1 V 27 c 0.2,0.1 0,0.1 -0.4,0.1 -0.4,0 -0.6,0 -0.7,-0.2 -0.2,-0.2 -0.2,-0.2 0.1,-0.1 h 0.4 c 0,-0.1 -0.2,-0.2 -0.5,-0.2 -0.4,0 -0.6,0 -0.8,0.3 -0.3,0.4 -0.3,0.4 -0.5,0.1 -0.2,-0.1 -0.3,-0.1 -0.4,0 h -2 l -0.3,-0.1 -0.2,-0.1 c 0,0 -0.1,0 0,-0.1 0,-0.2 -0.2,-0.3 -0.5,-0.3 -0.2,0.1 -0.3,0.2 -0.2,0.3 l 0.2,0.4 a 96.9,96.9 0 0 1 2.6,0.3 c -0.1,-0.2 0,-0.2 0.1,0 0.3,0.3 1.3,0.3 1.1,0.1 h 0.2 c 0.2,0.2 0.4,0.2 0.7,0 l 0.6,0.1 c 0,0.2 0.2,0.2 0.6,0 h 0.4 l 0.4,0.3 h 0.6 c 0.4,-0.3 0.6,-0.3 0.5,-0.1 0,0 0.1,0.2 0.3,0.2 h 0.4 c 0.2,0.2 1.6,0.4 2.3,0.4 0.3,0 0.4,0 0.3,-0.2 z M 75.6,28.1 a 7,7 0 0 1 1.3,-0.2 c 1,0 1.3,0 2.9,-0.3 1.2,-0.1 1.7,-0.6 0.7,-0.6 -0.2,0 -0.3,-0.1 -0.3,-0.2 h -0.3 c 0,0.2 -0.2,0.2 -0.6,0.2 -0.5,0 -0.7,0 -0.9,0.2 -0.3,0.2 -1.3,0.4 -1.3,0.2 h -1.3 l -2.2,0.4 c -0.1,0 -0.1,0.1 0,0.1 a 4,4 0 0 1 1.4,0.3 h 0.6 z M 284,27.9 h -0.2 c -0.1,0 0,0.1 0,0.1 h 0.2 z m -13.5,-0.8 h 0.5 l -0.5,-0.1 -0.4,-0.2 h 0.3 c 0.6,0 0.4,-0.4 -0.2,-0.3 l -0.6,-0.1 c -0.2,-0.2 -1.2,-0.2 -1.3,-0.1 l 0.2,0.2 c 0,0 0,0.1 -0.1,0 l -1,0.3 0.8,0.1 1,0.2 z m 10.5,0 h -0.4 c 0,0.1 0,0.2 0.2,0.2 z m -237,0 c 0.2,-0.3 -0.1,-0.4 -0.3,-0.2 v 0.2 h 0.4 z m 234,-0.2 -0.2,-0.1 -0.1,0.1 c 0,0.2 0.2,0.2 0.2,0 z m 0.4,0 c 0,-0.1 0,-0.1 0,0 v 0.2 z M 46,26.9 c 0,-0.2 -0.2,-0.3 -0.3,-0.3 -0.2,0 -0.2,0 0,0.1 l 0.2,0.2 0.2,0.1 v -0.1 z m 2.6,-0.5 h -0.3 z m 3,-0.2 c 0,-0.2 0,-0.3 -0.3,0 -0.2,0.1 -0.2,0.3 0,0.3 z m 1.1,0 c 0.2,-0.2 0.6,-0.3 1.4,-0.3 h 1.2 c 0.2,0 0.3,-0.3 0,-0.5 -0.2,-0.2 -0.8,-0.1 -1,0.2 l -1.1,0.2 -1.2,0.1 c -0.2,0.1 -0.2,0.1 0,0.4 0.4,0.2 0.4,0.2 0.7,0 z m 211.3,0 c 0,0 0,-0.1 -0.4,0 h -0.4 l 0.3,-0.1 c 0.4,-0.2 0.4,-0.2 0.1,-0.4 a 0.8,0.8 0 0 0 -0.5,0 c -0.3,0 -0.3,0.3 -0.1,0.3 0.1,0 0.1,0 0,0.2 -0.2,0.2 -0.1,0.2 0.4,0.2 l 0.6,-0.1 z m 3.5,0 c 0.1,-0.2 -0.8,-0.4 -1,-0.3 v 0.3 c 0.2,0.2 0.8,0.1 1,0 z m 0.5,0 h -0.2 l 0.1,0.2 v -0.2 z m -6.7,-0.3 c 0,0 0,-0.2 0.2,-0.2 0,-0.2 -0.3,-0.2 -0.5,-0.2 -0.5,0 -0.8,0.2 -0.4,0.2 0.1,0 0.2,0.1 0.1,0.2 0,0.1 0,0.2 0.2,0.2 0.3,0.1 0.4,0 0.4,-0.2 z m 4,0.1 c 0,-0.1 -0.7,-0.3 -0.7,-0.1 l 0.6,0.2 v -0.2 z m -6.4,-1 h -0.2 v 0.2 l 0.2,-0.1 z m -32.5,-1.1 c 0.2,-0.2 0.2,-0.2 -0.3,-0.2 -0.6,0 -0.6,0 -0.4,0.2 l 0.4,0.1 z m 2.3,0 c -0.2,-0.1 -0.2,0 -0.2,0 l 0.1,0.1 h 0.1 z m 61,-1.2 v -0.6 c 0,-0.3 -0.2,-0.4 -0.5,-0.5 -0.2,0 -0.3,-0.1 -0.3,-0.2 l -0.1,-0.1 c -0.2,-0.1 0,1.2 0.1,1.4 0.2,0.2 0.8,0.2 0.9,0 z M 90,21.9 c 0.1,-0.2 0,-0.2 -0.2,-0.1 L 89.2,22 c -0.4,0 -0.3,0.3 0.2,0.2 0.3,0 0.5,-0.1 0.6,-0.3 z m 2.4,-0.1 h 0.3 c 0,-0.1 0,-0.2 0.3,-0.2 0.2,0 0.3,0 0.2,-0.2 V 21.1 L 92.9,21 c -0.2,0 -0.3,0 -0.3,0.2 l -0.3,0.4 c -0.3,0 -0.4,0.2 -0.4,0.3 0,0.1 0,0.1 0,0 0.2,-0.1 0.3,-0.2 0.5,-0.1 z m 191,-0.2 -0.2,-0.1 c -0.2,0 -0.3,0.1 -0.1,0.3 0,0 0.3,0 0.3,-0.2 z m -188.7,0 -0.3,-0.1 -0.4,0.1 c 0,0 0.2,0.1 0.4,0 z m 1.4,0 c 0.1,0 0.1,0 0,-0.1 -0.1,-0.2 -0.5,0 -0.5,0.1 0,0.1 0,0.1 0.2,0 z m 186,-0.2 c 0,0.2 0.7,0.3 0.7,0.1 L 282,20.9 c -0.2,-0.1 -0.3,-0.1 -0.2,0 h -0.5 l 0.3,0.2 c 0.2,0 0.3,0 0.3,0.4 0,0.3 0,0.3 0,0 0.1,0 0.2,-0.1 0.2,0 z M 43,21.1 c -0.2,-0.2 -0.6,0 -0.6,0.3 0,0.2 0,0.2 0.4,0 C 43,21.3 43,21.1 43,21.1 Z m 241.7,0.2 c 0,-0.1 -0.4,0 -0.4,0.2 h 0.3 z m 9,0 0.1,-0.2 c 0.2,0 0.2,0 0,-0.2 -0.1,-0.3 -0.5,-0.4 -0.4,-0.1 V 21 c -0.3,0 -0.2,0.3 0,0.5 0.4,0.2 0.4,0.1 0.3,-0.1 z m -203.4,0 h -0.5 l 0.3,0.1 h 0.2 z m -1,-0.1 c 0,-0.3 -0.2,-0.5 -0.6,-0.3 -0.3,0.1 -0.3,0.1 0,0.3 0.2,0.2 0.5,0.2 0.6,0 z m 7.4,0 -0.1,-0.2 c 0,0 -0.1,0.2 0,0.2 0,0.2 0.1,0.2 0.1,0 z M 90,21 c 0,-0.1 0,-0.2 -0.3,-0.1 -0.3,0 -0.3,0 0,0 l 0.2,0.2 z m 193.1,-0.1 h -0.2 c -0.1,0 -0.1,0 0,0 z M 169.7,19.2 169.8,19 c 0.2,-0.1 0.2,-0.3 -0.1,-0.2 -0.1,0 -0.2,0.1 -0.2,0.3 l 0.1,0.3 z m -6.8,0 h -0.1 c 0,-0.1 -0.1,-0.1 -0.1,0 v 0.1 h 0.2 z m 3.4,-0.3 h -0.5 c 0,0.3 0.6,0.4 0.7,0.2 z m 4.7,0.2 0.5,-0.3 h -0.4 c -0.5,0 -1,0 -1,0.3 0,0.3 0.4,0.3 1,0 z m 3.7,-0.3 -0.2,-0.3 v 0.3 l 0.2,0.3 z m 2.4,-0.5 c -0.3,-0.2 -0.4,-0.2 -0.3,0 l 0.3,0.1 c 0.2,0 0.2,0 0,-0.1 z m -0.6,-0.1 -0.2,-0.2 v 0.2 z m -1.8,-0.4 c 0.5,-0.3 0.5,-0.3 0.3,-0.5 -0.2,-0.2 -0.2,-0.2 -0.3,0 -0.1,0 -0.2,0.1 -0.2,0 v -0.2 c 0.2,-0.2 0.2,-0.3 -0.1,-0.2 -0.2,0 -0.4,0.1 -0.4,0.3 0,0.1 -0.1,0.2 -0.3,0.1 h -0.2 c 0,0.2 0.4,0.4 0.7,0.4 0.1,0 0.1,0 0,0 l -0.2,0.4 c 0,0.2 0.3,0 0.7,-0.3 z m 53.6,0.2 c 0,-0.1 -0.3,-0.2 -0.8,-0.1 l -0.2,0.1 c 0.1,0.2 1,0.1 1,0 z m 0.7,0 h -0.5 c 0,0.2 0.2,0.2 0.5,0 z m -2.3,0 c 0,-0.2 -0.3,-0.2 -0.7,-0.2 -0.4,0 -0.5,0 -0.4,0.1 0.3,0.2 1.2,0.2 1.1,0 z m -58.6,-0.3 v -0.2 c -0.2,0 -0.2,-0.2 0,-0.4 0.1,-0.2 0.3,-0.1 0.3,0.1 v 0.2 l 0.1,0.2 0.2,0.1 c 0.2,0 0.2,-0.2 0.2,-0.5 l -0.1,-0.5 c 0,0 -0.2,-0.2 -0.5,-0.2 -0.3,0 -0.4,0 -0.3,0.2 v 0.2 c -0.2,0 -0.2,0 -0.3,-0.2 h -0.1 v 0.2 c 0.2,0.2 0.2,0.2 0,0.2 l -0.4,-0.2 c 0,-0.2 -0.2,-0.3 -0.2,-0.2 0,0.2 0.5,0.7 0.6,0.7 h 0.2 c -0.1,0.5 0.1,0.7 0.3,0.3 z m 7.8,-0.3 c 0,-0.3 0,-0.5 -0.3,-0.5 -0.1,0 -0.2,0 -0.1,0.1 v 0.1 l -0.2,0.3 c 0,0.1 0,0.3 0.2,0.3 h 0.2 l 0.1,0.2 z m 3.4,0.4 0.1,-0.2 c 0.2,0 0,-0.3 -0.2,-0.3 l -0.2,0.1 c 0,0.1 0,0.1 -0.2,0 h -0.3 c -0.3,0.2 0,0.3 0.8,0.5 z m -12.2,0 v -0.3 c -0.1,-0.2 -0.2,-0.2 -0.4,-0.1 -0.3,0.2 -0.3,0.4 0.1,0.4 z M 181,17.7 v -0.2 c -0.1,0 -0.2,0 -0.2,0.2 z m -52.5,-0.2 -0.2,-0.1 -0.3,0.1 0.2,0.2 z m 12.4,0 c 0,-0.2 -0.1,-0.2 -0.3,-0.3 -0.3,0 -0.4,0.1 0,0.2 l 0.2,0.1 z m 4,-0.4 c 0.1,-0.5 0,-0.6 -0.9,-0.6 -0.3,0 -0.5,0 -0.5,0.2 0,0.1 0,0.2 0.2,0.2 l 0.2,0.1 h -0.5 c -0.6,0 -0.9,0.2 -0.4,0.4 l 1.1,0.1 h 0.9 z m 25.9,0.2 c 0,-0.1 0,-0.2 -0.2,-0.2 -0.3,0 -0.5,0.2 -0.3,0.3 0.1,0.2 0.4,0.1 0.5,0 z m 5.9,0 -0.4,-0.3 c -0.3,-0.1 -0.2,-0.1 0,0.2 l 0.4,0.2 c 0.1,0 0,0 0,-0.2 z m -15,-0.1 h -0.2 c -0.2,0.2 -0.1,0.2 0,0.1 z m 10,0.1 h -0.3 0.2 z m -61.6,-0.2 c 0,-0.2 -0.3,-0.3 -0.7,-0.2 -0.3,0 -0.4,0.2 -0.1,0.3 0.3,0.1 0.8,0 0.8,0 z m 18,0 -0.1,-0.2 c -0.2,0 -0.3,0.1 -0.1,0.3 0.1,0.1 0.3,0 0.3,-0.1 z m 14,0 c 0,0 0,-0.2 0.2,-0.3 0.2,-0.1 0.2,-0.2 -0.3,-0.2 a 19.4,19.4 0 0 0 -1.8,-0.1 h -0.8 c 0,0.3 0.5,0.5 1.3,0.5 l 0.8,0.1 c 0.4,0.2 0.7,0.2 0.6,0 z m 35.2,-0.2 h -0.4 c -0.2,0.2 -0.2,0.2 0,0.2 0.3,0.2 0.7,0 0.4,-0.2 z m 1.8,0.2 c 0.1,-0.1 0,-0.2 -0.1,-0.2 -0.1,0 -0.2,0 -0.2,0.2 0,0.2 0.1,0.2 0.3,0 z m -52,-0.2 c 0.2,-0.1 0.2,-0.1 0,-0.1 l -0.3,0.1 v 0.2 c 0.1,0 0.3,0 0.3,-0.2 z m 45.7,0.2 v -0.4 c -0.2,-0.3 -0.3,-0.2 -0.4,0.2 0,0.2 0.2,0.3 0.4,0.2 z m 7.6,0 c 0,-0.2 -0.2,-0.2 -0.4,-0.2 l -0.4,0.1 0.4,0.1 z m -18,-0.3 c 0.2,-0.1 0.2,-0.2 0,-0.2 l -0.3,-0.1 h 0.3 c 0.2,0 0.3,0 0.1,-0.2 h -0.4 a 1,1 0 0 1 -0.4,0.2 c -0.2,0 -0.3,0.3 0,0.4 h 0.6 z m 3.4,-0.3 v -0.4 0.1 l -0.4,0.2 c -0.2,0 -0.2,0 0,0 v 0.4 c 0,0.2 0,0.2 0.1,0.1 z m 1,0.3 c 0,-0.1 -0.1,-0.2 -0.2,-0.1 -0.2,0 -0.3,0.3 0,0.3 l 0.1,-0.2 z m 3.8,0.1 h 0.3 c 0.2,0 0.2,0 0,-0.1 -0.3,-0.1 -0.7,0 -0.7,0.1 l 0.2,0.1 z m -7.2,-0.3 0.1,-0.2 v -0.2 c -0.2,0 -0.6,0.5 -0.6,0.6 h 0.2 c 0,-0.2 0.2,-0.2 0.3,-0.2 z m 0.7,0.2 -0.1,-0.2 c -0.1,0 -0.2,0 -0.1,0.2 z m 2,-0.1 -0.1,-0.2 c 0,0 -0.2,0 -0.2,0.2 0,0.2 0.3,0.2 0.3,0 z m 3.3,0 c 0,-0.1 0,-0.2 -0.2,-0.2 0,0 -0.2,0 -0.2,0.2 0,0.2 0.3,0.2 0.4,0 z m -41.2,0 -0.2,-0.1 h -0.1 l 0.1,0.2 z m 14.9,0 h -0.3 0.2 z m 133,-0.1 -0.2,-0.1 h -0.2 l 0.2,0.1 z M 140.8,16.2 h -0.3 0.2 z M 141.4,16 H 141 l 0.2,0.1 h 0.2 z m -89,-1.1 H 52 Z m 195.8,-1.3 h -0.3 l 0.2,0.1 h 0.1 z M 160,13.5 c 0,-0.2 -0.1,-0.2 -0.4,0 -0.1,0 -0.1,0 0,0 z m 1.3,-0.4 H 161 c -0.1,0.2 0,0.4 0.2,0.3 0.2,0 0.2,-0.1 0,-0.3 z m -2,0.1 c -0.3,-0.1 -0.4,-0.1 -0.4,0 l 0.3,0.1 h 0.1 z m -3.8,-0.4 c 0,-0.2 -0.4,-0.2 -0.4,0 0,0.1 0,0.2 0.2,0.1 z m 0.5,-0.4 c 0.5,-0.1 0.4,-0.3 -0.2,-0.3 -0.5,0.1 -0.6,0.2 -0.4,0.3 0.3,0.2 0.2,0.2 0.6,0 z m 0.8,0 v -0.2 l -0.2,0.1 0.1,0.1 z m -1.4,-0.5 h 0.1 c 0,0 0.1,0 0,-0.2 l -0.1,-0.4 c -0.1,0 -0.2,0 -0.1,0.2 0,0.2 0,0.3 -0.5,0.3 l -0.4,0.1 c 0,0 0,-0.1 0,0 l 0.5,-0.1 0.3,-0.1 -0.3,-0.2 -1,-0.2 -0.6,-0.1 c 0,-0.2 0,-0.2 -0.2,0 l -0.1,0.4 c 0,0.3 0.1,0.4 0.5,0.5 0.6,0.2 1.9,0.2 1.9,0 z m -0.3,-0.8 -0.1,-0.2 c 0,0 -0.1,0 0,0.2 z m 134,-2.2 h -0.2 V 9.1 L 289.1,9 Z m -4,-1 -0.1,0.2 V 8.3 8 Z M 182.8,7.6 C 183,7.4 182.6,7.2 182.3,7.3 a 3,3 0 0 1 -1,0 c -0.4,-0.2 -0.7,-0.2 -0.7,-0.1 l -0.3,0.2 0.2,0.1 0.7,0.3 c 0,0.1 1.4,0 1.6,-0.2 z m 2.3,0 h -0.3 c -0.2,0.1 -0.1,0.1 0.1,0.1 0.3,0 0.3,0 0.2,-0.1 z M 270.8,7.4 V 7.2 c -0.1,0 -0.2,0 -0.2,0.2 z M 261.1,7 V 6.9 l -0.2,0.2 v 0.2 c 0.1,0 0.2,0 0.2,-0.2 z m -20,-0.4 c -0.2,-0.2 -0.4,-0.2 -0.3,0 0,0.2 0.2,0.2 0.2,0.2 0,0 0.1,-0.2 0,-0.2 z m -9.5,-0.5 c 0,-0.1 0,-0.1 0,0 V 6.3 Z M 45.4,5.5 46.8,5.2 h -1.7 a 94.6,94.6 0 0 1 -1.2,0.3 z m 9.8,0 c -0.1,0 -0.1,0 0,0 0.1,-0.1 0.4,-0.2 0.6,-0.1 0.4,0 1.2,-0.2 1,-0.4 -0.1,-0.1 -0.7,-0.2 -1.5,0 -0.8,0 -0.9,0.1 -0.6,0.4 h 0.4 c 0.1,-0.2 0.2,-0.1 0,0 z m 163.1,0 -0.1,-0.2 c -0.1,0 -0.2,0 -0.1,0.1 l 0.1,0.1 z M 47.9,5.1 c 0.2,-0.1 0.2,-0.2 0,-0.2 -0.3,-0.2 -0.7,0 -0.8,0.1 0,0.2 0.4,0.2 0.8,0 z m 6.4,0 V 4.9 l -1,0.1 c -0.1,0.1 0,0.2 0.5,0.2 z M 49,4.9 48.8,4.8 48.4,4.9 c -0.1,0.2 0.3,0.2 0.6,0 z M 204.6,4.5 h -0.2 v 0.2 c 0.1,0 0.2,0 0.2,-0.2 z m -153,0 V 4.3 L 51.4,4.4 V 4.5 Z M 198.6,4.2 198.4,4 c -0.1,0 -0.2,0 -0.1,0.2 z M 185.2,3.9 V 3.5 h -0.3 l 0.1,0.2 v 0.5 c 0,0 0.2,-0.1 0.2,-0.3 z m 4.3,-0.1 c 0,0 0,-0.2 -0.2,-0.2 H 189 c 0,0 0.1,0.1 0.2,0 v 0.2 l 0.2,0.1 z M 29.7,3.2 h -0.2 v 0.2 c 0.1,0 0.2,0 0.2,-0.2 z m 152.6,0 h -0.2 c -0.1,0 -0.1,0 0,0 0.2,0.2 0.3,0.2 0.2,0 z M 9.1,3.2 C 9.1,3 9,2.9 8.8,2.9 L 8.7,3.1 c 0,0.2 0.4,0.2 0.4,0 z m 2.2,0 V 3.1 C 11,3.1 11,3.2 11.1,3.2 Z M 13.8,2.7 13.6,2.6 13.5,2.7 c 0,0.1 0,0.2 0.2,0.2 0,0 0.1,-0.1 0,-0.2 z M 20.1,2.5 20,2.3 19.8,2.5 19.9,2.6 Z m 5.9,0 -0.1,-0.2 -0.2,0.2 0.2,0.1 V 2.5 Z M 19.4,2.2 V 2.1 l -0.2,0.1 v 0.1 h 0.2 z m 134.5,0 -0.2,-0.1 -0.2,0.1 0.2,0.1 z M 145.1,2.1 144.9,2 h -0.1 l 0.1,0.2 z M 133.6,1.9 133.4,1.7 133.3,1.9 Z M 73,1.5 V 1.4 H 72.8 V 1.6 Z M 119,1 c -0.3,0 -0.4,0.2 -0.2,0.4 0.2,0.2 0.3,0.1 0.4,0 0.1,-0.3 0,-0.4 -0.1,-0.4 z M 94.6,1.3 94.5,1.2 h -0.2 c 0,0 0,0.2 0.2,0.2 V 1.3 Z M 47.1,1.1 46.9,1 V 1.1 L 47,1.2 V 1.1 Z m 79.8,0 c 0,-0.2 -0.2,-0.2 -0.3,-0.2 l 0.1,0.2 z M 71.1,0.9 71,0.7 70.8,0.9 c 0,0.1 0,0.2 0.2,0.2 V 0.9 Z m -20,0 V 0.7 l -0.2,0.1 v 0.1 z m -29.7,43.5 0.1,-0.1 0.1,0.1 v 0.1 h -0.2 z m 72,-2.2 h 0.2 c 0,0.1 0,0.2 -0.2,0.2 -0.1,0 -0.2,0 -0.2,-0.2 z M 115,41.9 v -0.2 c 0,0 0.2,0 0.2,0.2 z M 16.3,1.9 h 0.1 c 0,0 0.1,0 0,0 V 2.1 L 16.3,2 Z m 27,-1.2 V 0.6 l 0.2,0.1 v 0.1 h -0.2 z m 22,-0.5 c 0,-0.1 0,-0.1 0.1,0 l 0.2,-0.1 0.1,-0.2 c 0.2,0 0.1,0.3 0,0.4 L 65.4,0.2 Z m 14,0 0.2,-0.1 c 0,0 0.1,0 0,0.1 V 0.3 L 79.4,0.2 Z m -20.5,0 c 0,-0.1 0.2,-0.1 0.2,0 z"
       style="display:inline;fill:#ffb9ad;fill-opacity:1;stroke-width:1.509"
       id="path1" />
  </g>
  <path
     d="m 303.6,17.30982 -0.1,-0.1 -0.1,-0.2 c 0,-0.2 -0.1,-0.2 -0.2,-0.1 -0.1,0 -0.1,0.1 0,0.1 0.2,0.1 0,0.2 -0.3,0.2 h -0.4 c 0,-0.2 0,-0.2 0,0 H 302 c 0,-0.1 0,-0.1 0,0 h -0.3 c -0.1,-0.2 -0.3,-0.2 -0.3,-0.2 h -0.2 l -0.3,-0.1 h -0.2 l -0.1,-0.2 c 0,0 -0.3,0 -0.4,-0.2 a 1,1 0 0 0 -0.5,-0.2 h -0.1 c 0,-0.1 -0.3,-0.3 -0.5,-0.3 l -0.7,-0.4 h -0.5 l -0.4,-0.2 h -0.2 l -0.5,-0.1 -0.5,-0.2 h -0.4 c 0,-0.1 0,-0.2 -0.3,-0.1 l -0.5,-0.1 a 1,1 0 0 0 -0.4,-0.1 c 0,0 -0.2,0 -0.3,-0.2 a 0.9,0.9 0 0 0 -0.5,0 c -0.6,0 -0.8,0 -0.8,-0.3 l -0.1,-0.1 -0.2,0.1 c -0.2,0.2 -0.2,0.2 -0.6,0.1 l -0.4,-0.1 h -0.2 c -0.2,0.1 -0.9,0 -1,-0.3 l -0.1,-0.2 c 0,0 -0.1,0 0,0.2 l -0.2,0.1 h -0.5 c 0,-0.2 -0.5,-0.1 -0.7,0 l -0.2,-0.1 c 0,-0.2 -0.1,-0.2 -0.4,-0.1 h -0.8 c -0.5,0 -0.5,0 -0.4,0.2 H 287 c -0.2,-0.2 -0.3,-0.2 -0.4,0 h -0.7 c -0.2,-0.1 -0.3,0 -0.2,0.2 0.1,0 0.1,0.1 0,0.2 -0.1,-0.2 -0.1,-0.2 -0.2,-0.1 H 285 c 0,-0.1 -0.1,-0.1 -0.4,0 l -0.3,-0.1 -0.2,-0.2 a 0.8,0.8 0 0 1 -0.3,-0.2 l -0.3,-0.2 c -0.1,0 -0.3,0 -0.4,-0.2 l -0.3,-0.3 c -0.2,0 -1,-1.3 -1,-1.5 h 0.1 v -0.4 c 0,-0.4 0.1,-0.7 0.3,-1 l 0.2,-0.4000001 c 0,-0.1 0,-0.4 0.2,-0.6000001 l 0.3,-0.6000001 0.2,-0.2 0.1,-0.2000001 0.1,-0.2 c 0.1,0 0.2,0 0.2,-0.2 l 0.2,-0.2000001 c 0,0 0.2,0 0.3,-0.2 0.4,-0.4000001 0.7,-0.5000001 0.9,-0.3000001 0,0 0.1,-0.2 0.3,-0.2 l 0.3,-0.2000001 c 0,-0.1 0.1,-0.1 0.2,0 0.2,0 0.2,0 0,0 v 0.2000001 c 0,0 0.4,0 0.7,-0.2000001 h 0.3 l 0.3,0.1000001 0.3,0.2 0.3,0.1 0.2,0.3000001 0.4,0.4000001 h 1.2 c 0,0.1 0,0.2 -0.2,0.2 -0.2,0 -0.2,0 0,0.1 h 0.5 v -0.1 l 0.2,-0.1 c -0.1,-0.2000001 0.1,-0.3000001 0.4,-0.2000001 h 1.2 l 0.6,0.3000001 h 0.3 v 0.1 c 0,0.2 0.1,0.2 0.3,0 h 0.3 l 0.4,0.2 0.9,0.2000001 h 0.5 l 1,0.5000001 c 0,0.1 0,0.2 0.2,0.1 h 0.3 c 0,0.1 0,0.1 0.1,0 h 0.2 l 0.4,0.2 c 0.4,0 0.5,0.1000001 0.3,0.2000001 v 0.1 h 0.2 c 0.2,-0.2 0.8,-0.2 0.9,0 h 0.3 c 0,-0.1 0.4,-0.2 0.5,0 h 0.2 c 0.2,-0.2 0.6,-0.3000001 0.7,-0.2 0.1,0.2 0.2,0.2 0.4,0 h 1.2 c 0.1,0.2 0.2,0.2 0.3,0.2 l 0.2,-0.2 c 0,-0.2000001 0.1,-0.2000001 0.2,0 l 0.1,0.2 0.4,-0.1 c 0.4,-0.2000001 0.9,-0.1 0.9,0 h 0.2 c 0.2,0 0.3,0.1 0.3,0.2 h 0.2 l 0.4,0.1 h 0.3 c 0,0 0.2,0.1000001 0.4,0 l 0.5,0.1000001 h 0.5 l 0.3,0.1 v 0.1 h 0.3 c 0,0.1 0,0.2 0.1,0.1 0.3,0 0.7,0.1 0.7,0.3 0,0.1 0,0.1 0,0 0.2,-0.1 0.4,-0.2 0.4,0 l 0.2,0.1 v 0.1 h 1.3 l 0.1,-0.1 c 0,-0.2 0.4,-0.2 0.8,-0.2 h 0.3 c 0,0 0.1,-0.1 0.2,0 0,0 0.1,0 0,-0.1 h 0.3 c 0.1,0 0.2,0.1 0.2,0 h 0.6 c 0,0.2 0.4,0.1 0.5,0 0,0 0.1,-0.1 0.1,0 h 0.6 v 0.1 c 0,0.2 0,0.2 0.2,0.2 l 0.3,-0.1 h 0.3 c 0.3,0 0.3,0 0.3,0.2 l 0.2,0.3 c 0,-0.3 0.1,-0.4 0.7,-0.4 h 0.5 c -0.1,0 -0.1,0.1 0,0.2 l 0.4,-0.1 h 0.2 l 0.4,-0.2 a 31.5,31.5 0 0 0 1.8,0 c 0.1,0 0.1,0 0,0 0,0.2 0,0.2 0.3,0.2 h 0.7 -0.2 l -0.2,-0.2 h 0.3 l 0.1,-0.1 c 0,-0.2 0.3,-0.1 0.5,0 0.1,0.2 0.3,0.2 0.2,0 -0.1,-0.2 0.2,-0.4 1.1,-0.5 l 0.4,-0.1000001 c 0,-0.1 0.8,-0.4 1,-0.3 0,0 0.3,0 0.5,-0.2000001 l 0.6,-0.1 0.5,-0.1 c 0.2,-0.2 1,-0.2 1,0 h 0.4 c 0,0 0.2,0 0.3,-0.2 0.1,-0.2000001 0.1,-0.2000001 0.1,0 l 0.2,0.1 0.1,-0.2000001 0.1,0.1000001 c 0,0.1 0,0 0.2,0 0.1,-0.2000001 0.2,-0.2000001 0.3,-0.2000001 h 0.8 l 0.7,0.2000001 h 0.4 v 0.2 h 0.3 l 0.1,0.2 c 0.1,0 0.3,0 0.4,0.2000001 0.1,0.2 0.3,0.3 0.3,0.2 0.1,0 0.5,0.2000001 0.5,0.4000001 h 0.1 c 0.3,0 0.7,0.4 0.8,0.6 0.2,0.5 0.3,1 0.2,1.3 l -0.2,0.3 v 0.3 c 0,0.3 -0.1,0.4 -0.3,0.5 l -0.2,0.3 c 0,0 -0.7,0.6 -0.9,0.6 l -0.1,0.1 h -0.2 c -0.2,-0.1 -0.2,-0.1 -0.1,0 0,0 0,0.1 -0.1,0 l -0.1,0.2 -0.2,0.2 h -0.3 v 0.1 c 0,0.2 0,0.3 -0.6,0.6 l -1.3,0.4 -0.2,0.1 H 327 l -0.3,-0.2 c 0.2,0.2 0.1,0.3 -0.1,0.3 H 326 c 0,0.1 -0.2,0.2 -0.5,0.2 l -0.5,-0.1 c 0,-0.2 -0.2,-0.2 -0.2,0 0,0.2 -0.2,0.2 -0.2,0 l -0.3,0.1 -0.1,0.1 c 0,0.1 0,0.2 -0.3,0.2 -0.3,0 -0.4,0 -0.5,-0.2 0,-0.2 0,-0.2 0,0 l -0.4,0.2 c -0.2,0.1 -0.3,0.1 -0.2,0 h -0.1 l -0.1,0.2 h -0.1 c -0.2,-0.2 -0.4,-0.2 -0.3,0 l -0.1,-0.2 c 0,-0.1 0,-0.2 -0.2,-0.2 l -0.1,0.2 c 0,0.1 -0.1,0.2 -0.2,0.1 -0.1,0 -0.1,0 0,-0.1 0,0 0,-0.1 -0.2,0 l -0.5,-0.1 h -0.7 l 0.2,0.1 c 0.3,0.2 0.3,0.3 0,0.3 H 320 c -0.2,0.1 -0.3,0 -0.4,0 h -0.3 c -0.2,0.1 -0.5,0 -0.3,-0.2 v -0.1 h -0.3 l -0.4,0.5 v -0.2 h -0.5 c 0,0 -0.1,0 0,0 0,0.2 -0.2,0.3 -0.3,0.2 h -0.6 c -0.2,0 -0.3,-0.1 -0.2,-0.3 0,0 0,-0.1 -0.4,0 0.2,0.2 0,0.3 -0.2,0.2 h -0.5 l -0.2,0.1 c -0.2,0.3 -0.5,0 -0.5,-0.3 v -0.1 l -0.2,0.2 h -0.1 l -0.2,0.1 c 0,0.2 -0.3,0.2 -0.3,0 l -0.5,0.1 -0.3,0.2 c -0.2,0 -0.2,0 -0.2,-0.2 0,-0.2 0,-0.3 -0.2,-0.2 l -0.3,0.1 c -0.1,0 -0.2,0 -0.2,0.2 l -0.3,-0.2 -0.3,-0.4 h -0.4 c -0.1,0 -0.2,0 -0.1,0.1 0,0.2 0,0.3 -0.2,0.1 H 311 c 0,0.2 0.2,0.5 0.4,0.4 h 0.5 l -0.1,0.2 c -0.2,0.1 -0.6,0 -0.7,-0.1 h -0.8 l -0.3,0.1 c -0.3,0 -0.3,0 -0.3,-0.2 l -0.1,-0.4 c -0.2,-0.1 -0.2,-0.1 -0.2,0 l -0.1,0.1 -0.1,0.3 c 0,0.2 0,0.2 -0.3,0.2 l -0.3,-0.1 c 0,-0.1 -0.8,-0.1 -0.8,0 h -0.3 l -0.1,0.1 -0.1,-0.1 -0.1,-0.2 v 0.2 c 0,0.2 -0.2,0.2 -0.3,0 0,-0.3 -0.2,-0.4 -0.2,-0.1 0,0.2 -0.2,0.2 -0.3,0 0,-0.1 0,-0.1 0,0 l -0.2,0.1 -0.2,0.1 c 0,0.1 0,0.1 0,0 h -0.5 l -0.1,0.1 h -0.1 l 0.1,-0.3 c 0.1,0 0.1,0 0,-0.2 h -0.1 c 0,0.1 -0.2,0.2 -0.4,0.1 -0.3,0 -0.3,0 -0.3,0.4 l -0.1,-0.1 c -0.1,-0.1 -0.1,-0.1 -0.2,0 -0.1,0.1 -0.1,0.1 -0.3,-0.1 l -0.2,-0.3 v 0.3 c 0,0.2 0,0.4 -0.2,0.2 z m 5,-0.6 c 0,-0.1 0,-0.2 0,0 v 0.1 z m 1.6,0 c 0.2,-0.1 0.2,-0.2 0,-0.1 0,-0.1 -0.1,-0.1 -0.2,0 0,0.1 0.1,0.2 0,0.2 h 0.2 z m -3.7,0 c 0,-0.2 0,-0.2 -0.2,-0.1 -0.3,0.1 -0.3,0.2 0,0.2 z m 7.3,-0.1 0.1,-0.2 c 0,0 -0.3,0 -0.3,0.2 0,0.2 0,0.2 0.2,0 z m -13.2,-0.1 v -0.3 h -0.1 v 0.3 z m 16.7,-0.1 c 0,-0.2 0,-0.2 -0.2,0 -0.2,0.1 -0.2,0.1 0,0.1 z m 5.8,-0.4 c 0,-0.3 -0.2,-0.3 -0.4,0 0,0.2 0,0.2 0,0 h 0.2 c 0.1,0.3 0.2,0.2 0.2,0 z m 1,-0.3 c -0.2,0 -0.3,0.1 -0.2,0.2 z m -4.7,0 c 0.1,-0.1 0.1,-0.2 0,-0.2 v 0.2 h -0.1 z m 5.2,0 h -0.2 z m 3.2,-0.2 v -0.2 c -0.1,0 -0.1,-0.1 0,-0.2 h -0.2 c -0.2,0 -0.2,0.1 -0.1,0.2 0.1,0.2 0.2,0.2 0.3,0 z m -25.4,-1 c 0.2,0 0.2,-0.1 0,-0.3 -0.2,-0.1 -0.4,0 -0.4,0.3 0,0.1 0,0.1 0.1,0 z m 22.7,-0.7 c 0.2,0 0.3,-0.2 0.2,-0.3 l -1,0.3 c 0,0 0.2,0.1 0.4,0 z m 4.7,0 h -0.1 v 0.1 z m -2,-2.7 h -0.3 0.2 z m -17.2,-0.4 h -0.1 z m -7.5,-0.7 c -0.1,-0.1000001 -0.2,-0.1000001 -0.2,0 z m -6.7,-0.4000001 v -0.1 h -0.2 l 0.1,0.1 z M 324,9.4098198 h -0.2 l 0.1,0.1000001 h 0.1 z m 1,0 v -0.1 h -0.1 v 0.1 z m -30,-0.3 c 0.1,0 0,0 0,-0.1 h -0.1 c 0,0.2 0.1,0.2 0.2,0.1 z m -3,-0.8000002 v -0.1 h -0.1 v 0.1 z m 21.8,8.8000004 c -0.1,-0.1 -0.1,-0.1 0,-0.1 h 0.1 c 0,0.2 0,0.2 -0.1,0 z m 7,-0.7 h 0.2 l -0.1,0.1 h -0.1 z m -34.2,-2 0.2,-0.1 v 0.1 z m -163,-0.1 -0.2,-0.3 c -0.3,0 -0.4,-0.2 -0.4,-0.8 v -0.9 c 0,-0.6 -0.1,-0.7 -0.2,-0.8 -0.1,0 -0.2,-0.2 -0.1,-0.6 l 0.1,-0.7 c 0.1,0 0.1,-0.1 0,-0.2 l 0.2,-0.6000002 0.2,-0.7000001 0.2,-0.2 0.2,-0.4000001 0.4,-0.5000001 c 0.2,0 0.2,-0.2 0.2,-0.2 l 0.2,-0.4000001 c 0,0 0.3,0 0.5,-0.2000001 l 0.4,-0.1 0.4,-0.2 c 0.1,-0.1 0.3,-0.2 0.4,-0.1 h 0.4 a 36.1,36.1 0 0 1 1.3,0 h 0.3 c 0,0.2 0.1,0.2 0.2,0 l 0.2,-0.1 h 0.1 c 0.1,-0.1000001 0.2,-0.2000001 0.3,-0.1000001 h 0.2 l 0.4,-0.2 h 0.6 l 0.3,-0.1 h 0.4 c 0,-0.2000001 0.6,-0.2000001 0.6,0 h 0.1 c 0.1,-0.1 0.3,-0.2000001 0.5,-0.1 h 0.2 C 132,5.7098191 132,5.5098191 132.2,5.6098191 h 0.3 c 0.1,-0.1 0.3,-0.1 0.4,0 0.2,0 0.4,0 0.7,-0.2 L 134,5.209819 h 0.2 l 0.2,-0.1 h 0.3 l 0.4,0.1 c 0,0.1000001 0.3,0 0.3,-0.2 0,-0.2 0,-0.2 0.1,0 0.2,0.1 0.2,0.1 0.2,0 0,-0.1 0.1,-0.2 0.5,-0.1 0.1,0 0.2,0 0.3,-0.2 h 0.7 c 0.1,0.1 0.1,0.1 0.2,0 0,-0.1000001 0.4,-0.3000001 0.7,-0.3000001 h 0.7 c 0,-0.2 1.1,-0.4000001 1.5,-0.3000001 l 3,-0.1 c 0,0 0.3,0 0.2,0.1 h 0.2 c 0.1,0 0.1,0 0,0 l 0.1,-0.2 h 0.4 v 0.2 h 0.1 c 0,-0.1 0.1,-0.2 0.3,-0.1 h 0.3 l 0.5,-0.1 h 0.5 l 0.1,-0.1 0.2,0.1 0.2,0.1 0.1,0.1 h 0.1 c 0,-0.2 0.2,-0.3 1.1,-0.2 h 0.8 c 0,-0.1 0.2,0 0.2,0 h 0.3 c 0,-0.2 0.3,-0.1 0.4,0 0,0 0,0.1 0.1,0 l 0.2,-0.1 0.7,-0.1 c 0.2,-0.1000001 0.5,-0.2000001 1,-0.1000001 h 0.8 c 0,-0.2 0.9,0 1.4,0 l 0.8,0.1000001 h 0.4 c 0,0.1 0.2,0.1 0.4,0 0.2,0 0.4,0 0.5,0.2 h 0.6 c 0,-0.2 0,-0.2 0.3,-0.1 h 0.3 c 0,-0.1 0.7,0 1,0.2 0,0.1 0,0.1 0.1,0 0,-0.2 0.3,-0.2 0.4,0 0.1,0.2000001 0.2,0.2000001 0.3,0.1 h 0.2 l 0.3,0.1000001 h 0.2 l 0.3,0.2 c 0.1,0 0.5,0 1,0.3000001 l 0.8,0.3 h 0.2 l 0.1,0.1 0.3,0.2000001 0.1,0.2 v 0.3000001 c 0.2,0 0.2,0.3 0.1,0.5000001 v 0.3 c 0.2,0.1 0,0.4000001 -0.4,0.8000002 l -0.3,0.5000001 -0.1,0.1 -0.4,0.3 a 1,1 0 0 1 -0.3,0.2000001 l -0.5,0.2 c -0.6,0.3000001 -1.4,0.4000001 -1.5,0.2 h -0.2 c -0.1,0 -0.1,0 0,0 0.1,0.2000001 0,0.3000001 -0.2,0.3000001 -0.2,0 -0.5,-0.3000001 -0.6,-0.5000001 0,-0.2 0,-0.2 0,0 -0.2,0 -0.1,0.1 0,0.2 v 0.2000001 c 0,0.2 -0.2,0.1 -0.2,0 0,-0.2000001 0,-0.2000001 -0.2,0 -0.2,0.1 -0.2,0.1 -0.2,0 l -0.1,-0.2000001 c 0,0 -0.1,0 0,0.2000001 0,0.2 -0.3,0.1 -0.4,0 -0.1,-0.2000001 -0.2,-0.2000001 -0.3,-0.1 l -0.3,0.1 -0.6,-0.2000001 c 0.1,0 0.2,-0.1 0.1,-0.3 0,-0.2000001 0,-0.2000001 0,0 h -0.5 V 8.3098196 c -0.1,0 -0.2,0 -0.2,0.2000001 h -1.2 c 0,0.1 -0.3,0.1 -0.8,0 h -0.5 l -0.2,0.1 c -0.3,0 -1.4,0.7000001 -1.7,1.2000002 -0.1,0.3000001 -0.7,0.6000001 -1,0.6000001 l -0.1,0.2 -0.4,0.3 c -0.4,0.1 -0.5,0.2 -1,0 h -0.2 c 0,0.2 0,0.2 -0.3,0.2 h -0.4 c 0,0.2 -0.2,0 -0.3,-0.2 0,-0.2 0,-0.3 -0.4,0 -0.2,0.1 -0.2,0.1 -0.2,0 l -0.1,-0.2 h -0.2 c 0,-0.2 -0.6,-0.2 -0.7,0 0,0 -0.9,0 -1,-0.2 -0.2,-0.2 -0.3,-0.2 -0.3,0 h -0.4 l -0.2,-0.2 -0.1,-0.1 h -0.5 l -0.2,0.2 -0.2,0.1 h -0.2 l -0.4,-0.2 -0.4,-0.1 c -0.2,-0.2 -0.4,-0.2 -0.5,0 0,0.1 -0.2,0.1 -0.4,-0.1 -0.2,-0.3000001 -0.3,-0.3000001 -0.4,0 -0.2,0.1 -0.4,0.1 -0.4,0 V 9.9098199 h -0.5 c -0.2,0 -0.3,0 -0.2,0.2000001 h -0.3 c 0,-0.1 -0.5,0 -0.4,0.1 h -0.3 c -0.3,0 -0.3,0 -0.4,0.2 0,0.1 0,0.1 -0.2,0 h -0.1 c 0,0.2 -0.5,0.3 -0.8,0.3 -0.2,0 -0.4,0 -0.4,0.2 h -0.3 c 0,-0.1 0,-0.1 0,0 l -0.2,0.2 -0.1,0.1 h -0.6 l -0.1,0.1 h -0.1 l -0.4,-0.3 c -0.3,-0.2 -0.4,-0.2 -0.3,0 0,0.1 0,0.1 0.1,0 v 0.5 h -0.2 l -0.5,0.2 c 0,0.1 -0.1,0.1 -0.2,0 h -0.7 c 0,0.2 -0.8,0.1 -1,0 0,-0.2 -0.1,-0.2 -0.1,0 h -0.2 c -0.3,-0.1 -0.4,0 -0.4,0 0,0.2 -0.1,0.2 -0.3,0.3 l -1.3,0.3 -0.3,0.1 -0.5,0.2 c -0.3,0 -0.5,0.1 -0.5,0.2 h -0.2 c -0.1,0 -0.2,0 -0.3,0.2 l -0.3,0.2 -0.3,0.1 -0.4,0.2 a 1,1 0 0 0 -0.4,0.2 h -0.4 l -0.5,0.3 -0.2,0.1 -0.3,0.1 c -0.4,0.2 -0.9,0.3 -0.9,0.2 z m 6.9,-2.7 h -0.2 z m 18,-0.8 h -0.1 v 0.1 l 0.2,-0.1 z m 0.3,-2.2000003 h -0.3 c -0.4,0 -0.5,0.1 -0.4,0.3 0.1,0.1000001 0.2,0.1000001 0.4,0 z m 7.6,-0.1 V 8.3098196 l -0.1,0.2000001 v 0.1 -0.1 z M 129.8,6.3098193 129.7,6.2098192 v 0.1000001 z m 13.8,-2.0000004 h -0.1 v 0.1 z m 13.2,-0.4000001 h -0.2 z"
     style="fill:#0150f3;fill-opacity:1"
     id="path2"
     clip-path="url(#clipPath30)"
     transform="translate(-0.04671212,-0.23076923)" />
  <path
     d="m 209.1,13.30982 -1,-0.2 c -0.7,0 -1,-0.2 -1,-0.3 h -0.2 v -0.1 c 0,-0.1 -0.1,-0.1 -0.4,0 -0.2,0.2 -1,0.2 -1,0.1 h -1.4 a 996.4,996.4 0 0 1 -5.3,-0.2 l -0.8,-0.2 h -0.4 c -0.4,-0.2 -0.4,-0.2 -0.5,-0.1 l -0.3,-0.1 c -0.2,-0.2 -0.2,-0.2 -0.1,0 l -0.2,0.1 h -0.3 l -0.4,0.2 h -0.6 v -0.2 H 195 l -0.4,0.1 h -0.5 c -0.1,0.1 -1,0 -1,-0.2 h -0.5 l -0.2,-0.1 c -0.2,-0.2 -0.2,-0.2 -0.3,0 0,0.1 -0.1,0 -0.8,0 l -0.7,-0.3 -0.3,-0.1 -0.4,-0.1 -0.3,-0.2 -0.2,-0.1 -0.3,-0.1 -1,-0.4 -0.8,-0.4 c -0.1,0 -0.5,-0.3 -0.6,-0.6000001 -0.1,-0.1 -0.2,-0.2 -0.3,-0.1 -0.2,0 -0.2,-0.2 0,-0.2 l -0.1,-0.2000001 c -0.2,-0.1 -0.2,-0.2 -0.2,-0.3 V 8.9098197 c -0.1,0 -0.1,-0.1 0,-0.2 V 8.3098196 h -0.2 0.1 c 0.2,0 0.2,-0.3 0,-0.5000001 l 0.1,-0.3 c 0.2,-0.1 0.3,-0.2000001 0.3,0 l 0.2,-0.3000001 c 0.1,-0.3 0.3,-0.4000001 0.4,-0.2 h 0.1 l 0.9,-0.5000001 0.1,-0.1 c 0,-0.2000001 0,-0.2000001 0.5,-0.2000001 l 0.6,-0.2 h 0.6 c 0,-0.2 0.5,-0.3000001 0.6,-0.3000001 h 2.3 c 0,0 0.5,0 0.5,0.2000001 h 0.1 l 1.5,0.3 h 0.1 c 0,-0.1 0.4,0 0.4,0.2000001 0.1,0.2 0.1,0.2 0.2,0 0.1,-0.1 0.2,-0.2000001 0.2,0 l 0.4,0.3 v -0.2 l 1.1,0.3 0.7,0.1000001 0.6,0.1 0.3,0.1 0.1,0.2 V 7.5098195 L 199,7.3098194 c 0.1,-0.2 0.2,-0.2 0.4,0 h 0.1 l 0.4,0.2000001 0.5,0.1 0.1,0.1 h 0.3 c 0.2,0 0.3,0.1 0.3,0.2000001 h 0.3 l 0.2,0.2 h 0.3 c 0,0 0,0.1 0.2,0 h 0.4 l 0.6,0.1 0.1,0.2 0.1,-0.2 h 0.3 c 0.1,0.1 0.2,0.1 0.2,0 h 0.6 c 0.8,0 1,0 1,0.2 0,0.1000001 0.1,0.1000001 0.1,0 0,-0.2 0.3,-0.3 0.3,-0.1 h 0.2 l 0.2,-0.1 0.6,-0.1 h 0.6 l 0.5,-0.1 0.7,-0.2000001 c 0.2,0 0.7,0 1.2,-0.2 0.8,-0.2 1.7,-0.2 2.2,-0.1 h 0.1 l 0.1,-0.2000001 c 0.1,0 0.1,0 0,0 0,-0.2 0.1,-0.2 0.3,0 0,-0.2 0.4,-0.5000001 0.5,-0.5000001 h 0.2 l 0.2,-0.1 h 0.2 c 0,-0.1 0.2,-0.3 0.5,-0.4 a 10.4,10.4 0 0 1 0.8,-0.4000001 c 0.2,0 0.3,-0.1 0.3,-0.2000001 0,-0.2 0.2,-0.3 0.3,-0.4 l 0.5,-0.2000001 0.5,-0.2 h 0.3 V 4.6098189 l 0.4,-0.2 h 0.6 l 0.2,-0.1 c 0,-0.1 0.1,-0.1 0.2,0 h 0.1 c 0.2,-0.3000001 0.4,-0.4000001 1.1,-0.4000001 h 0.9 c 0.2,0.2 0.2,0.2 0.2,0 0,-0.2 0.1,-0.2 0.7,-0.2 h 0.7 l 0.2,0.1 c 0.1,0 0.3,0 0.4,0.2 h 0.2 c 0.1,0 0.4,0.4000001 0.4,0.6000001 h 0.2 l 0.2,0.2000001 c 0,0 0,0.2 0.2,0.3 0.2,0 0.3,0.4000001 0.2,0.4000001 v 0.2 c 0.3,0.3000001 0.4,0.7000002 0.3,0.8000002 -0.1,0 -0.1,0 0,0.2 0.2,0.1 0.2,0.6000001 0,0.9000002 v 0.2 l -0.4,0.7000002 c 0,0.2 0,0.3 -0.2,0.4 l -0.2,0.3000001 h -0.2 l -0.4,0.4000001 c -0.2,0.1 -0.3,0.1 -0.4,0 h -0.1 l -0.6,0.1 -1.2,0.2 h -0.6 V 10.00982 h -0.2 l -0.1,0.2 -1.2,0.5 h -0.5 c -0.1,-0.1 -0.2,0 -0.2,0 0,0.2 0,0.3 -0.3,0.2 h -0.2 c 0.1,0 0.2,0.2 0,0.2 h -0.3 l -0.3,0.2 h -0.1 l -0.4,0.2 -0.4,0.3 -0.8,0.3 -0.7,0.5 h -0.5 c 0,0 -0.2,0 -0.2,0.2 l -0.5,0.1 h -0.3 c 0,0.1 -0.1,0.2 -0.3,0.1 h -0.3 l -0.2,0.2 h -2.8 z m -22,-3.1 c -0.1,-0.2 -0.2,-0.1 0,0 l 0.1,0.1 v -0.1 z m 32.4,-6.0000011 c 0,-0.3000001 -0.2,-0.2000001 -0.3,0 l 0.1,0.1 c 0.1,0 0.2,0 0.2,-0.2000001 z m -7.9,3.0000005 h 0.2 -0.1 c -0.1,0 -0.1,0 0,0 z"
     style="fill:#008955;fill-opacity:1"
     id="path3"
     clip-path="url(#clipPath29)"
     transform="translate(-0.04671212,-0.23076923)" />
  <path
     d="m 27.9,11.00982 -1.7,0.4 -0.4,0.1 -0.4,0.1 c -0.3,0 -0.6,0.2 -0.5,0.3 l -0.1,0.3 c -0.2,0.1 -0.2,0.1 -0.1,0.3 v 0.3 l 0.1,0.3 0.1,0.2 0.4,0.6 v 0.1 l 0.2,0.3 0.3,0.2 c 0,0 0,0.1 0,0 l -0.1,0.1 c 0,0.2 0.5,0.7 0.6,0.7 0,0.3 0.8,0.7 1,0.6 h 0.2 c 0,0.1 0.2,0.3 0.4,0.3 h 0.5 l 0.3,0.2 0.4,0.2 h 0.2 c 0,0.1 1,0.3 1.3,0.2 h 3.3 l 1.8,-0.1 a 9,9 0 0 0 1.7,0 c 0,0 0.2,0 0.2,-0.2 l 0.3,-0.1 h 0.2 c 0,-0.1 0.1,-0.2 0.2,-0.1 h 0.3 a 18.3,18.3 0 0 0 3.4,-0.7 l 0.7,-0.4 0.3,-0.3 c 0.2,-0.1 0.6,-0.8 0.6,-1.2 a 5,5 0 0 0 -0.3,-1.5 c -0.2,-0.3 -0.7,-0.7 -1,-0.7 l -0.8,-0.2 h -0.8 l -0.7,0.2 -0.7,0.2 -0.9,0.2 -0.8,0.1 -0.4,0.1 H 37 l -0.8,-0.1 v 0.1 c 0,-0.2 -0.5,-0.4 -0.6,-0.3 h -0.2 a 0.9,0.9 0 0 0 -0.4,-0.2 1,1 0 0 1 -0.4,-0.1 l -0.8,-0.2 h -0.6 l -0.1,0.2 c -0.1,0 -0.1,0 0,0 0,-0.3 -0.2,-0.4 -0.3,-0.3 -0.1,0.1 -0.1,0.1 -0.1,0 h -0.3 c -0.2,0.1 -0.2,0.1 -0.4,0 -0.1,-0.1 -0.3,-0.2 -1,-0.1 l -0.9,-0.1 h -1.7 c -0.2,0.2 -0.2,0.1 -0.2,0 0,0 0,-0.1 0,0 z m 6,1 -0.2,-0.2 h 0.1 l 0.1,0.1 z m -8.3,1.7 h -0.2 z m 1.7,1.8 c 0.1,0.2 0,0.2 -0.1,0 H 27 c 0,-0.2 0.2,-0.1 0.3,0 z m 253.4,-1.4 c 0,-0.1 -0.1,-0.2 -0.2,0 h -0.7 c -0.1,-0.1 -0.1,-0.1 -0.1,0 0,0 -1.2,0 -1.4,-0.2 H 278 c 0,0 -0.1,0 0,-0.2 0,0 -0.2,-0.1 -0.2,0 -0.1,0.2 -0.4,0.2 -0.6,0 -0.2,-0.2 -0.6,-0.4 -0.6,-0.2 l -0.4,-0.1 c -0.1,-0.1 -0.2,-0.1 -0.2,0 -0.1,0 -0.4,0 -0.7,-0.3 l -0.2,-0.1 H 275 c 0,-0.2 -0.2,-0.2 -0.3,-0.2 h -0.2 l -0.8,-0.4 -0.2,-0.2 c 0,0 -0.2,-0.1 -0.2,0 -0.2,0 -0.9,-0.2 -1,-0.4 h -0.2 c 0,0 -0.1,0.1 -0.2,0 l -0.1,0.1 h -1 a 1,1 0 0 0 -0.5,0.1 h -0.4 c -0.2,-0.1 -0.3,-0.1 -0.4,0 -0.2,0 -0.6,0 -0.7,-0.2 h -0.4 c -0.7,-0.2 -1,-0.3 -1,-0.5 0,-0.1 0,-0.2 -0.1,0 h -0.7 l -0.3,-0.1 -0.2,-0.1 h -0.6 a 0.4,0.4 0 0 0 -0.4,-0.1 h -0.4 c -0.2,-0.1 -0.6,-0.1 -0.8,0 h -0.2 c -0.1,-0.1 -0.2,-0.1 -0.2,0 -0.1,0 -0.4,0 -0.6,-0.2 0,0 -0.2,-0.1 -0.2,0 l 0.2,0.1 c 0.1,0 0.1,0 0,0.1 a 2,2 0 0 1 -0.9,-0.4 l -0.1,-0.1 c 0,0.1 0,0.1 -0.2,0 a 1,1 0 0 1 -0.3,-0.2 h -0.3 l -0.3,-0.1 c -0.1,0 -0.2,-0.2 -0.1,-0.3000001 0,-0.1 0,-0.1 0,0 -0.2,0.1000001 -0.8,0 -1,-0.2 l -0.8,-0.4000001 c -0.2,0 -0.3,0 -0.1,-0.2 A 1165.6,1165.6 0 0 1 256.3,7.5098195 H 256 c -0.1,-0.2000001 -0.1,-0.2000001 -0.2,0 h -1.1 l -0.7,0.3 -0.9,-0.1 c -0.2,-0.2 -0.3,-0.2 -0.4,0 0,0.1 -0.2,0.1 -0.4,0 l -0.2,-0.1 h -0.2 c -0.1,-0.2 -0.3,-0.2 -0.3,0 h -0.2 c 0,-0.1 -0.1,-0.2 -0.4,-0.2 h -1 c 0,-0.2000001 0.2,-0.1000001 0.3,0 0,0 0.1,0 0,0 V 7.1098194 h -0.5 l -0.4,-0.1 c -0.3,0 -0.4,-0.1 -0.5,-0.2000001 -0.2,-0.2 -0.3,-0.3 -0.4,-0.1 0,0 -0.2,0 -0.3,-0.2 l -0.5,-0.3000001 c -0.2,0 -0.2,-0.1 -0.3,-0.3 l -0.1,-0.2000001 c -0.1,0 -0.4,-0.3 -0.4,-0.5000001 l -0.2,-0.3 -0.3,-0.3000001 -0.3,-0.3 v 0.2 c -0.2,0 -0.2,-0.2 -0.1,-0.3 0.2,-0.2000001 0.1,-1.5000003 -0.1,-2.0000004 L 245.7,1.6098184 V 1.2098183 c -0.1,-0.2 -0.1,-0.30000009 0,-0.40000009 l 0.2,-0.3 0.1,-0.40000009 0.1,-0.60000013 v -0.2 c 0.1,0 0,0 0,-0.2 V -1.290182 h 0.1 v -0.4 c 0.2,-0.1 0.2,-0.2 0.1,-0.2 0,0 0,-0.5 0.2,-0.5 v -0.1 l 0.2,-0.4 a 329.7,329.7 0 0 1 0.7,-1.8 l 0.4,-0.4 c 0.5,-0.2 1.1,-0.3 1.1,-0.2 h 2.8 l 0.5,-0.1 c 0.2,-0.2 0.5,-0.2 0.5,0 l 0.3,-0.1 0.3,0.1 c 0,0.2 0,0.2 0.1,0.1 0.1,0 0.2,-0.1 0.1,-0.2 l 0.8,-0.1 a 34,34 0 0 0 2.3,0 c -0.1,0 -0.1,0 0,0 h 0.1 c 0.2,-0.2 0.5,-0.1 0.6,0.1 l 0.1,0.2 v -0.4 h 0.6 c 0.4,-0.2 0.4,-0.2 0.6,0 h 0.3 a 10,10 0 0 1 3.6,-0.2 l 2.3,0.1 h 1 l 1.4,0.2000001 a 4,4 0 0 1 1.2,0 c 0.1,0.1 0.3,0.2 0.5,0.1 h 1.1 l 0.8,-0.2 a 96.9,96.9 0 0 0 10.7,-0.8 h 0.8 l 0.2,0.1 h 3 c 0,-0.1 0,-0.1 0,0 h 0.5 c 0.8,-0.2 2,-0.2 2,-0.1 h 1.9 l 1.5,0.2 h 0.3 l 0.3,0.1 c 0.3,0.2 1.1,0.3 2.3,0.3 a 4.5,4.5 0 0 1 1.3,0.2 l 0.7,0.2 0.4,0.1999999 h 0.3 l 0.3,0.2 0.2,0.1 0.2,0.2 h 0.2 l 0.1,0.1 h 0.3 l 0.1,0.2 h 0.4 l 0.6,0.3 0.4,0.2 c 0,0.2 0.2,0.2 0.1,0 0,-0.2 0.3,0 0.6,0.3 0.1,0.2 0.3,0.3 0.4,0.3 h 0.2 v 0.1 l 0.4,0.1 0.3,0.2000001 c 0.2,0 0.8,0.3999999 0.8,0.4999999 l 0.1,0.1 0.3,0.2 0.4,0.3 c 0.4,0.5 0.8,0.99999999 1.2,1.80000003 l 0.3,0.40000009 0.1,0.30000009 c 0,0.2 0,0.40000009 0.2,0.50000009 0.2,0.2 0.2,0.2 0,0.3 -0.2,0 -0.2,0.1 -0.1,0.1 l 0.2,0.1000001 v 0.2 c 0.2,0 0.1,0.2 0,0.4000001 -0.2,0.2 -0.3,0.3 -0.1,0.2 0,0.1 0,0.1 0.2,0 0.2,-0.1 0.2,0 0.2,0.7000001 v 1.3000003 c -0.2,0 -0.3,0 -0.3,0.2 V 4.809819 c -0.2,0 -0.3,0 -0.2,0.1 0.1,0.1 0,0.3 -0.2,0.3 h -0.2 v 0.1000001 c 0.2,0 0.2,0.5000001 0,0.6000001 v 0.2 c 0,0.1 0,0.1 -0.1,0 h -0.1 c 0,0.4000001 -0.1,0.7000001 -0.5,1.0000002 l -1.5,1.0000002 c -0.1,0 -0.7,0 -2,0.5000001 -1.5,0.5000001 -1.6,0.5000001 -1.8,0.4000001 a 2,2 0 0 0 -0.6,-0.2000001 h -0.7 l -0.8,-0.1 h -0.3 l -0.3,-0.2 h -0.3 c -0.1,0 -0.2,0 -0.2,-0.2000001 0,-0.2 0,-0.2 -0.1,0 h -0.6 l -0.6,-0.3 h -0.5 a 3,3 0 0 0 -0.6,-0.2000001 l -0.8,-0.2 h -0.7 l -0.4,-0.2 -0.2,0.1 c 0,0.1 0,0.1 0,0 h -0.1 l -0.4,0.2 -0.7,0.5000001 c -0.1,0.2 -0.3,0.3000001 -0.4,0.3000001 -0.1,0 0,0 0,0.2 0.2,0 0.2,0.2 0.1,0.3000001 v 0.3 l -0.2,0.3000001 -0.2,0.4000001 c 0,0.2 -0.1,0.3 -0.2,0.3 l -0.2,0.2 -0.3,0.4 -0.3,0.4 -0.2,0.2 -0.3,0.3 c 0,0 0,0.1 -0.1,0 l -0.1,0.1 c 0,0.2 -0.6,0.7 -0.7,0.7 l -0.2,0.1 c 0,0 -0.1,0.2 -0.3,0.2 l -0.3,0.1 -0.2,0.1 -0.2,0.1 v 0.1 l -0.1,-0.2 h -0.1 c 0,0.2 -0.2,0.3 -0.3,0.3 h -0.2 c 0,0.2 0,0.2 -0.2,0.2 0,0.2 -0.3,0.2 -0.7,0.2 0,0.1 -0.1,0.2 -0.2,0.1 h -0.1 l -0.4,0.1 -0.7,0.1 h -0.2 v -0.1 h -0.2 c 0,0.3 -1.2,0.3 -1.3,0 z m -0.1,-0.6 h -0.2 c -0.1,0.2 0,0.3 0,0.2 0.2,0 0.2,-0.2 0.2,-0.2 z m -4,-0.2 h -0.3 0.2 z M 267,-5.490182 v -0.2 c -0.1,0.1 -0.1,0.2 0,0.2 v -0.1 z m 33.5,2 v -0.2 h 0.1 v 0.1 z"
     style="fill:#ffeb01;fill-opacity:1"
     id="path4"
     clip-path="url(#clipPath28)"
     transform="translate(-0.04671212,-0.23076923)" />
  <path
     d="m 113.3,20.40982 a 4,4 0 0 1 -0.7,-0.1 l -0.5,-0.1 a 70.8,70.8 0 0 1 -6.5,-0.6 29.4,29.4 0 0 0 -1.6,-0.2 l -0.8,-0.2 a 5,5 0 0 0 -2.2,-0.5 l -0.5,-0.1 h -1.1 a 15.5,15.5 0 0 1 -1.6,0 h -1 c -1.4,0.1 -2,0.2 -2.5,0.4 l -0.5,0.2 h -0.1 c -0.1,0.2 -0.2,0.2 -0.2,0 h -0.7 l -0.3,-0.2 c -0.1,0 -0.1,0.1 0,0.2 0.2,0.1 0.1,0.1 -0.3,0.1 h -0.1 c 0,-0.2 -0.7,-0.2 -0.8,0 h -0.2 c 0,0 -0.2,0 -0.3,-0.2 -0.1,0 -0.1,0 0,0 0,0.2 0,0.2 -0.2,0.1 a 1,1 0 0 1 -0.3,0 l -0.2,-0.1 -0.1,-0.2 h -0.1 c 0,0.2 -0.4,0.1 -0.5,0 l -2.1,-0.2 -0.2,-0.1 c 0,-0.2 -0.3,-0.2 -0.4,0 0,0 -0.1,0.1 -0.4,0 h -0.4 c 0,-0.2 -0.1,-0.2 -0.3,-0.2 l -0.4,0.1 -0.3,-0.1 v -0.2 c -0.1,0 -0.2,0 -0.2,-0.2 0,-0.1 0,-0.1 0,0 l -0.2,0.2 h -0.2 c -0.1,-0.2 -0.2,-0.2 -0.2,-0.1 -0.1,0.1 -1,0 -1.2,-0.2 h -0.6 l -0.4,0.1 c 0,0 0,0.1 -0.1,0 l -0.6,0.3 -0.6,0.2 -0.5,0.1 h -0.3 l -0.5,-0.3 -0.3,0.1 c -0.2,0 -0.3,0 -0.2,-0.2 v -0.1 l -0.2,0.1 c 0,0.2 -0.1,0.3 -0.3,0.1 0,0 -0.1,-0.1 -0.2,0 -0.1,0 -0.3,-0.2 -0.2,-0.3 h -0.5 l -0.8,-0.4 h -0.2 c -0.3,0 -0.4,-0.2 -0.5,-0.4 h -0.2 c -0.3,0.1 -0.8,0 -0.8,-0.2 l -0.1,-0.2 a 1,1 0 0 1 -0.4,-0.2 H 74 l -0.7,-0.1 -0.5,-0.1 c -0.2,0 -0.3,0 -0.2,-0.2 0,0 0,-0.1 -0.2,0 h -0.3 l -0.3,0.1 h -0.4 l -0.4,-0.2 h -0.6 c -0.6,-0.2 -1,-0.2 -2.1,-0.2 -1,0 -1.4,-0.1 -1.5,-0.2 0,-0.1 -0.1,-0.1 -0.1,0 -0.1,0.2 -0.3,0.2 -0.4,0 0,-0.1 0,-0.1 0,0 H 66 l -0.4,0.1 h -2.1 l -1,0.1 -2.2,0.1 h -0.4 c 0,-0.1 0,-0.1 0,0 -0.1,0.1 -0.2,0.1 -0.2,0 h -0.2 c 0,0.2 0,0.2 -0.3,0.1 h -0.3 l -0.3,0.1 -0.6,0.1 h -0.8 c 0,0.1 -0.2,0.2 -0.5,0.2 h -1.5 v -0.3 l -0.1,0.2 c 0,0.1 -0.1,0.2 -0.3,0.1 h -0.4 l -0.4,-0.1 h -0.6 l -0.2,-0.1 c -0.3,0 -1,-0.5 -1,-0.8 -0.1,-0.2 -0.2,-0.4 -0.1,-0.6 a 28.6,28.6 0 0 0 0.2,-0.8 l 1,-1.1 1.3,-1.3 c 0.2,-0.5 0.3,-0.5 0.2,-0.6 -0.2,-0.1 -1.4,-0.3 -1.5,-0.2 H 52 c -0.1,-0.2 -0.2,-0.1 -0.1,0 h -1.2 a 4,4 0 0 1 -1,0 l -0.4,-0.1 -0.3,-0.2 -0.2,0.1 -0.1,0.1 h -0.5 c -0.1,0.2 -0.2,0.2 -0.5,0.1 h -1 c 0,-0.1 0,-0.2 -0.2,-0.2 a 1,1 0 0 1 -0.4,-0.2 l -0.5,-0.2 h -2 l -0.2,0.1 -1,0.1 h -0.5 l -0.8,0.2 h -0.5 l -0.2,0.2 -0.5,0.2 v -0.1 l -0.1,0.1 c 0,0.1 -0.1,0.2 -0.2,0.1 h -0.3 c -0.2,0 -0.2,0.1 -0.1,0.1 v 0.2 h -0.8 c -0.1,0.2 -0.5,0.3 -1.4,0.3 h -0.6 c -0.2,0.2 -0.7,0.2 -0.6,0.1 h -0.4 l -0.7,0.3 h -0.3 l -0.3,-0.1 v -0.1 h -1.5 l -0.3,-0.1 H 32 l -0.5,-0.2 -0.3,-0.1 c 0,-0.2 -0.1,-0.3 -0.2,-0.2 0,0.1 -0.2,0.1 -0.2,0 l -0.2,-0.1 -0.2,-0.1 -0.3,-0.1 h -0.2 c 0,-0.2 -0.4,-0.2 -0.5,0 h -0.5 l -0.1,0.3 c 0,0.1 -0.1,0.1 -0.2,0 -0.2,-0.2 -0.4,-0.2 -0.4,0 h -0.6 c -0.1,0.1 -0.3,0 -0.6,-0.1 -0.1,-0.2 -0.1,-0.2 0,0 0,0.1 0,0.2 -0.2,0.2 l -0.1,-0.2 h -0.3 c -0.1,-0.1 -0.2,-0.1 -0.2,0 H 25 c -0.8,-0.1 -1.1,-0.2 -1.3,0 a 4,4 0 0 1 -1.5,0 c 0,-0.1 -0.1,-0.1 -0.2,0 h -0.1 l -0.2,0.1 -0.1,0.1 h -0.2 c 0,0.1 -0.1,0.2 -0.3,0.2 l -0.5,0.1 c 0,0 -0.1,0.2 -0.4,0.3 l -0.6,0.4 h -0.2 c -0.1,0 -0.1,0 0,0 l -1,0.5 -0.2,0.1 c 0,0.2 -0.4,0.4 -0.5,0.3 h -0.3 l -0.4,0.1 c -0.2,0 -0.3,0 -0.3,-0.2 l -0.1,-0.1 v 0.1 l -0.2,0.2 h -0.3 a 2,2 0 0 1 -0.6,0 c -0.4,-0.1 -0.5,-0.2 -0.5,-0.4 l -0.3,-0.1 h -0.6 l -0.6,-0.1 a 9,9 0 0 0 -2.8,1 18.6,18.6 0 0 1 -1.8,1 l -2.1,0.4 H 6.2 l -0.3,0.1 H 5.5 l -0.1,-0.1 -0.2,-0.1 -0.3,-0.2 -1.3,-0.7 c -0.3,-0.2 -1,-1.6 -1.1,-2 -0.2,-0.8 -0.5,-1.2 -1,-1.3 -0.2,0 -0.5,-0.6 -0.5,-0.9 0,0 0,-0.2000001 -0.2,-0.3000001 -0.3,-0.2 -0.3,-0.3 -0.1,-0.4000001 0,0 0.1,-0.2 0,-0.2 L 0.8,8.6098197 V 7.3098194 l 0.2,-0.3 0.3,-0.5000001 0.4,-0.2 0.5,-0.2000001 A 7,7 0 0 1 4,5.6098191 l 0.6,-0.2 h 0.5 l 1,-0.2000001 1.3,-0.2 a 44,44 0 0 0 4,-0.3 h 0.7 c 0,-0.1000001 0,-0.1000001 0.2,0 h 0.6 c 0.1,-0.2000001 0.6,-0.1000001 0.7,0 h 0.2 c 0,-0.2000001 0.4,0 0.4,0 l 0.1,0.1 v -0.1 l 0.5,-0.1000001 h 0.7 c 0.2,0.1000001 0.2,0.1000001 0.2,0 h 1.7 c 0,-0.1 0.1,-0.1 0.4,0 l 0.4,-0.1 h 0.5 a 39.1,39.1 0 0 0 3.4,-0.2 13,13 0 0 1 3.1,0 h 0.3 c 0.6,0 1.1,0.1 1.1,0.2 0,0.1 0.1,0.1 0.2,0 0,0 0.2,-0.1 0.4,0 l 0.4,-0.1 H 28 a 23,23 0 0 0 2.8,0.1 25.7,25.7 0 0 1 4.7,0 h 3.1 l 0.3,-0.1 h 1 l 1.2,-0.1 a 23.8,23.8 0 0 0 3.5,-0.3000001 l 1.3,-0.1 h 1 c 0,-0.1 0.4,-0.2 0.8,-0.1 l 0.8,-0.1 0.2,-0.2000001 c 0.1,0 0.1,0 0,0.2000001 h 0.2 c 0.1,-0.2000001 0.1,-0.2000001 0.2,0 0,-0.1000001 0.2,-0.2000001 0.4,-0.1000001 h 0.3 l 0.5,-0.1 A 82.7,82.7 0 0 0 58,3.1098186 h 1 c 0,0.1000001 0,0 0,0 h 2.8 a 204.6,204.6 0 0 1 15,1.0000002 h 0.4 l 0.3,-0.2 a 27.9,27.9 0 0 0 4.5,0 h 0.6 c 0.2,0.1 0.4,0 0.4,0 h 4.7 c 0.2,-0.1 0.8,-0.2 0.9,0 l 0.2,-0.1 h 2 c 0.3,0.2 0.3,0.2 0.3,0 l 1.2,-0.1 h 1.1 c 0.1,0.1 0.2,0.1 0.2,0 l 1.6,-0.1000001 a 55.1,55.1 0 0 0 3.5,0 c 0,0.1000001 0.1,0.1000001 0.2,0 h 0.9 c 0,-0.1 0.1,-0.1 0.2,0 h 0.5 l 0.3,0.1000001 c 0,0.1 0,0.1 0,0 0,-0.1000001 0.4,-0.2000001 0.5,0 0,0.1 0.3,0.1 0.4,0 h 0.6 a 19.2,19.2 0 0 1 3.6,0.4 h 1.2 c 0.1,0.1000001 0.1,0.1000001 0.1,0 h 1.3 l 0.6,0.1000001 h 2.7 a 27.1,27.1 0 0 1 3.8,0.3 9,9 0 0 0 1.5,-0.2 h 0.2 l 0.8,-0.3000001 0.4,-0.2 h 0.5 c 0,-0.2000001 0.3,0 0.4,0 l 0.2,0.1 0.1,0.1 0.3,0.5000001 0.4,0.5000001 a 30.8,30.8 0 0 1 -0.1,5.100001 v 1.4 l -0.2,1.1 c 0,0.8 -0.6,3.7 -0.9,4.2 0,0.3 -0.7,1 -0.9,1 l -0.2,0.2 -0.3,0.2 -0.2,0.1 -0.2,0.2 -0.7,0.3 -0.6,0.3 c -0.2,0 -0.2,0 0,0.1 l 0.2,0.2 -0.5,0.4 -0.2,0.2 h -0.1 l -1,0.5 h -0.2 c 0,-0.1 0,-0.1 0,0 h -1 z m -21.1,-1.5 c 0,-0.1 0,-0.1 0,0 v 0.1 z m 7.8,-0.4 -0.1,-0.1 v 0.1 z m -20.7,-0.3 -0.1,-0.1 c 0,0 -0.1,0 0,0.1 0,0.2 0,0.2 0,0 z m 31.8,-0.5 c 0.1,0 0.1,0 0,-0.2 l -0.7,-0.1 c -0.5,0 -0.5,0 0,0.2 0.4,0.2 0.6,0.2 0.7,0.1 z m 1.7,0 v -0.1 c -0.1,0.1 0,0.2 0,0.2 z m -58,-3.1 -0.1,-0.1 v 0.1 z m -41.4,-2 h -0.1 z m 100.7,-1.7 v -0.2 l -0.3,0.2 c -0.2,0.3 -0.2,0.3 0,0.4 0.2,0 0.3,-0.2 0.3,-0.4 z m -50.8,0.2 c 0.2,-0.1 0.1,-0.2 -0.2,0 h -0.2 c 0.1,0.2 0.2,0.2 0.4,0 z M 24.1,4.709819 c -0.1,-0.1000001 -0.2,-0.1000001 -0.2,0 z m 60.3,0 -0.1,-0.2000001 c -0.2,0 -0.3,0 -0.2,0.1 0.2,0.1000001 0.3,0.2000001 0.3,0 z M 47.2,4.0098188 c -0.1,-0.1 -0.1,-0.1 -0.1,0 v 0.3000001 c 0.1,-0.1 0.1,-0.2000001 0,-0.2000001 z m -12,8.1000012 c 0.2,0 0.2,0 0,0.1 z m 66.3,-8.5000013 h 0.1 v 0.1000001 h -0.1 z"
     style="display:inline;fill:#fcb271;fill-opacity:1"
     id="path5"
     clip-path="url(#clipPath27)"
     transform="translate(-0.04671212,-0.23076923)" />
  <path
     d="m 117.3,14.70982 a 28.7,28.7 0 0 1 -1,-0.1 h -0.9 c -0.4,0 -0.6,-0.1 -0.6,-0.2 h -0.4 l -0.8,-0.2 c -0.4,0 -0.8,-0.2 -1,-0.3 a 0.9,0.9 0 0 0 -0.3,-0.1 2,2 0 0 1 -0.6,-0.1 2,2 0 0 0 -0.4,-0.2 H 111 l -1,-0.1 c -0.2,0 -0.3,0 -0.2,-0.1 0.1,0 0,-0.1 0,-0.1 h -0.5 l -0.4,-0.2 c 0,0 0,-0.1 -0.2,0 l -0.4,-0.3 a 1,1 0 0 0 -0.4,-0.2 2.7,2.7 0 0 1 -1.3,-0.7 c 0.1,0.2 0,0.2 -0.3,0 -0.4,-0.4 -1.1,-0.5 -1.6,-0.3 l -0.7,0.1 h -0.4 v -0.3 c -0.1,0 -0.1,0 0,0.2 0,0.2 0,0.3 -0.3,0.3 l -0.2,0.1 h -0.3 l -0.5,0.1 c 0,0.1 -0.1,0.2 -0.2,0.1 l -0.7,-0.1 a 3,3 0 0 1 -0.7,-0.2 h -0.4 l -0.3,-0.2 -0.2,-0.1 -0.3,-0.1 v -0.1 c 0,0.2 -1.5,-0.2 -1.6,-0.4 h -0.3 l -0.3,-0.2 h -1.9 c -0.1,0 -0.4,0.1 -0.4,0.3 h -0.2 l -0.2,0.1 h -0.2 l -0.3,0.1 -0.1,0.2 c 0,0.2 0,0.4 -0.2,0.5 -0.1,0.1 -0.3,0.2 -0.2,0 l -0.1,0.1 -0.3,0.2 h -0.1 l -0.1,0.3 c -0.4,0.3 -1.8,0 -2,-0.5 0,-0.1 -0.1,-0.1 -0.1,0 l -0.7,-0.7 -0.3,-0.1 -1,-0.4 a 7.2,7.2 0 0 0 -2.9,0 h -1 c 0,0 0,0.1 0,0 h -0.1 v -0.1 h -0.2 c -0.1,0.3 -0.4,0.4 -0.5,0.3 -0.1,-0.1 -0.1,-0.1 -0.2,0 l -0.4,0.1 c -0.2,0 -0.4,0 -0.4,0.2 l -0.4,0.2 -0.7,0.3 c -0.3,0.2 -0.6,0.2 -0.7,0.2 l -0.3,0.1 c 0,0.1 0,0.1 -0.1,0 h -1.4 l -0.3,-0.3 -0.2,-0.1 -0.3,-0.2 c -0.1,0 -0.1,0 0,0 v 0.1 c -0.2,0 -0.7,-0.6 -0.7,-0.7 l -0.5,-0.4 -0.4,-0.1 -0.6,-0.2 -0.5,-0.1 -0.5,-0.2000001 a 2,2 0 0 1 -0.6,-0.1 c -0.3,-0.2 -2.1,-0.5000001 -2.2,-0.4000001 0,0.2000001 0,0.2000001 -0.2,0 h -0.2 l 0.1,0.3000001 c 0.1,0 -0.4,0.5000001 -0.6,0.5000001 h -0.2 l -0.3,0.1 c 0,0.1 -0.7,0.3 -1,0.2 a 16.8,16.8 0 0 1 -1.5,-0.2 l -1.1,0.1 c -0.3,0.2 -0.4,0.2 -0.5,0 -0.2,0 -0.4,0.1 -0.3,0.3 h -0.1 c -0.2,-0.2 -0.3,-0.1 -0.2,0 0,0.2 0,0.3 -0.4,0.2 l -0.2,0.1 h -0.2 c 0,-0.1 -0.2,-0.1 -0.2,0 l -0.1,0.2 h -0.2 l -0.1,0.2 -1,0.4 h -0.8 c -0.3,0 -0.4,0 -0.4,0.2 h -0.3 l -0.7,0.2 c -0.5,0.1 -0.6,0.1 -0.8,0 l -0.4,-0.1 -0.3,-0.1 -0.3,-0.1 -0.5,-0.6 -0.2,-0.1 v -0.1 l -0.1,-0.1 -0.1,-0.2 c 0,-0.1 0,-0.1 0,0 h 0.2 l -0.1,-0.2 -0.1,-0.1 h 0.2 c 0.2,0 0.4,-0.2 0.3,-0.4 0,0 -0.1,-0.1 0,-0.1 L 59.8,9.9098199 c -0.1,0 -0.2,0 -0.2,-0.3 V 9.4098198 l 0.1,-0.2 V 8.6098197 L 59.5,8.1098196 V 7.5098195 c 0.2,0 0.2,-0.1 0,-0.3000001 V 6.7098193 c -0.1,-0.1 0,-0.4 0.2,-0.4 V 6.1098192 c -0.1,-0.1 0,-0.5000001 0.2,-1.4000002 a 40.2,40.2 0 0 0 1,-3.0000006 c 0.1,0 0.2,0 0.2,-0.2000001 0.1,-0.2 0.2,-0.2 0.4,-0.2 0.2,0 0.6,-0.40000009 0.6,-0.70000009 0,-0.1 0,-0.20000009 0.2,-0.30000009 l 0.5,-0.2 1.5,-0.30000009 0.3,-0.1 h 0.5 l 0.6,-0.1 0.7,-0.20000004 H 68 l 0.4,-0.1 a 19.7,19.7 0 0 1 2.7,0 h 0.3 l 0.7,-0.1 H 73 l 0.8,-0.1 h 1.1 c 0.1,0.1 0.1,0.1 0.2,0 0,0 0,-0.1 0.1,0 h 0.3 c 0.4,-0.1 0.7,-0.1 0.8,0 v 0.1 h 0.1 c 0,-0.2 0.2,-0.39999999 0.3,-0.29999999 v 0.19999999 l -0.1,0.1 h 0.2 c 0.1,-0.2 0.8,-0.29999999 0.9,-0.1 0,0.1 0.2,0 0.1,0 0,-0.19999999 0,-0.19999999 0.3,-0.19999999 h 0.8 c 0.3,-0.1 0.4,0 0.4,0 H 80 a 22.4,22.4 0 0 0 0.9,0 H 81 c 0,0 0.1,0 0,0 l 0.1,-0.1 a 35.6,35.6 0 0 1 2.3,-0.2 c 0.3,0 0.5,0 0.5,0.3 0,0.1 0,0.19999999 0.1,0.1 v -0.2 l 0.3,-0.2 a 6.9,6.9 0 0 1 2,0 h 0.4 c 0.2,0 0.2,0 0,0 -0.2,-0.1 -0.1,-0.1 0.9,-0.2 1,0 1.7,0 1.6,0.2 h 0.1 l 1,-0.2 h 0.1 v 0.2 c 0,0.2 0.2,0.1 0.2,0 0.2,-0.3 0.5,-0.4 0.7,-0.1 h 1.5 l 0.2,0.2 c 0.2,0 0.2,0 0,-0.1 -0.2,-0.2 0,-0.2 0.5,-0.2 0.3,0 0.4,0 0.4,0.2 0,-0.2 0.3,-0.3 0.3,-0.1 h 0.2 c 0.1,-0.1 0.4,-0.2 0.6,-0.1 h 0.5 c 0.1,0 0.2,0 0.2,0.2 0,0.2 0,0.2 0.1,0 0,-0.2 0.2,-0.3 0.7,-0.3 h 1 v 0.1 h -0.2 c 0,0.2000001 0.7,0.1000001 0.8,0 0.1,-0.1999999 0.3,-0.1999999 0.3,-0.1 h 0.3 c 0.1,-0.2 0.5,-0.2 0.5,0 h 0.2 c 0,-0.1 0.1,-0.2 0.3,-0.2 h 0.6 c 0.2,-0.1 0.6,0 0.6,0.2 l 0.1,0.2 v -0.2 c 0,-0.2 0.1,-0.3 0.3,-0.2 h 0.8 c 0.1,-0.2 0.2,-0.2 0.3,-0.2 l 0.5,0.1 a 60.8,60.8 0 0 1 5.5,-0.1 c 0,0.1 0,0.1 0.1,0 h 0.3 l 0.2,-0.2 h 0.3 c 0,0 0.1,0 0,0 v 0.1 h 0.2 l 0.3,-0.1 h 0.2 c 0,-0.2 0.3,-0.2 0.5,0 l 0.3,-0.1 c 0.1,-0.2 0.2,-0.2 0.2,0 v 0.2 h 0.2 v -0.2 c -0.1,-0.1 -0.1,-0.2 0,-0.1 l 0.2,0.1 h 1.2 c 0,-0.1 0,-0.1 0.1,0 l 0.3,-0.1 c 0.2,-0.1 0.2,-0.1 0.2,0 0,0.2 0,0.2 0,0 l 0.4,-0.1 h 1 c 0,0.1 0,0.1 0.2,0 0.1,0 0.3,-0.1 0.4,0 l 0.3,-0.1 h 0.3 l 0.1,0.3 0.2,0.1 v -0.4 c 0,-0.1 0,-0.1 0,0 0.2,0.2 0.3,0.2 0.2,0 0,-0.1 0.3,-0.3 0.9,-0.2 h 1.5 c 0,-0.2 0.8,-0.3 0.9,-0.2 h 0.3 c 0.2,-0.1 0.3,-0.1 0.4,0 h 0.2 c 0,-0.2 0.4,-0.2 0.6,0 l 0.2,0.2 v -0.2 h 0.7 a 21.5,21.5 0 0 1 1.6,0 l 0.1,-0.2 0.3,0.1 c 0,0.1000001 0.3,0.2000001 0.4,0 h 0.3 c 0.2,0 0.2,0 0.1,0.1000001 0,0.2 0.1,0.3 0.2,0 h 0.3 l 0.4,-0.2 0.4,0.1 c 0.2,0.2 0.3,0.2 0.2,0 h 0.2 c 0,0.1 0.1,0 0.2,0 h 0.3 c 0.1,0 0.1,0 0,0.1 -0.2,0.1 0,0.2 0.2,0 l 0.6,-0.2 0.3,0.2 c 0,0 0.1,0.1 0.2,0 -0.1,-0.1 0,-0.1 0.2,0 l 0.5,-0.1 c 0.1,-0.1 0.2,-0.1 0.2,0 h 0.2 c 0.3,-0.1 0.5,0 0.3,0.1 -0.1,0.2 0,0.1 0.2,0 0,-0.2 0.3,-0.2 0.7,-0.2 h 0.6 v 0.1 l -0.1,0.2 0.3,-0.1 c 0.3,-0.2 0.3,-0.2 0.5,-0.1 h 0.2 c 0,-0.1 0.3,-0.2 0.4,0 h 0.1 l 0.4,-0.1 h 0.3 c -0.1,0.1 -0.1,0.1 0,0.1 h 1 c 0,0.1 0.1,0.1 0.2,0 h 0.2 c 0.1,0.2 0.2,0.2 0.3,0 h 1.2 a 40,40 0 0 1 5,0.7 h 0.5 c 0.3,0 0.5,0.1 0.5,0.2 h 0.4 l 0.3,0.1999999 c 0.1,0.2000001 0.4,0.3000001 0.7,0.2000001 0.4,0 0.8,0 0.9,0.2 0,0.2 0,0.2 0.1,0 0.1,0 0.7,0 1,0.3 0,0 0.1,0.1 0.1,0 l 2.2,0.2999999 0.3,0.20000009 c 0.1,0.1 0.2,0.1 0.2,0 l 0.8,0.1 0.5,0.2 c 0.5,0 1,0.39999994 1.2,0.80000003 0.1,0.30000009 0,1.20000018 -0.1,1.30000018 l -0.2,0.3000001 c 0,0.3000001 -0.3,1.0000002 -0.5,1.2000002 -0.3,0.4000001 -0.7,0.5000001 -1.2,0.3000001 l -0.6,-0.2000001 -0.4,-0.1 h -0.5 c -0.2,0 -0.3,-0.1 -0.3,-0.2 0,-0.1 -0.2,-0.1 -0.2,0 h -0.4 l -0.3,0.1 -0.1,0.2 h -0.2 c 0,-0.2 -0.2,-0.2 -0.4,0 h -0.3 l -0.3,0.1000001 h -0.2 l -0.5,0.1 h -0.6 v 0.2 l -0.4,0.1 -1,0.3000001 c -0.3,0.1 -0.5,0 -0.4,-0.1 0.1,-0.2000001 -0.2,0 -0.4,0.1 0,0.2 -0.1,0.2 -0.2,0.1 -0.1,0 -0.2,0 -0.3,0.2000001 0,0.2 -0.1,0.3 -0.3,0.3 l -0.3,-0.1 H 140 c -0.1,0 -0.1,0 0,0 l 0.2,0.1 V 4.709819 l -0.2,0.1 -0.2,0.1 -0.1,0.1 h -0.2 c 0,0.1 -0.2,0.1 -0.4,0 l -0.3,0.1 0.1,0.1 c 0.1,0 0.1,0 0,0.1000001 -0.2,0 -0.2,0.1 -0.2,0.2 a 159,159 0 0 1 -0.8,0.2 c -0.1,0 -0.3,0.1000001 -0.3,0.3000001 h -0.2 l -0.1,-0.2 c 0,-0.2000001 0,-0.2000001 -0.2,0 -0.2,0 -0.2,0 0,0.1 0,0.1 0,0.2 -0.4,0.2 l -0.5,0.1 -0.6,0.2000001 v 0.1 h -2.7 c 0,-0.1 -1.3,0.2 -1.6,0.4000001 l -0.4,0.2 -0.5,0.1 -0.5,0.1 c -0.1,0 -0.2,0 -0.3,0.2000001 0,0.2 -0.2,0.2 -0.8,0.2 h -0.1 l -0.3,0.3000001 c -0.1,0 -0.1,0 0,-0.1 V 7.8098195 l -0.2,0.1000001 c 0,0.2 0,0.2 -0.2,0.2 h -0.2 c -0.2,0.3 -0.5,0.4000001 -0.5,0.3 H 127 l -0.2,0.1000001 c 0,0 -0.1,0 0,0.1 l -0.3,0.4000001 c -0.1,0.1 -0.2,0.2 -0.3,0.1 l -0.2,0.2 -0.3,0.3000001 c -0.1,0 -0.1,0 0,0.2 l -0.5,0.7000001 c -0.4,0.3 -0.6,0.6 -0.6,0.7 v 0.3 c -0.2,0 -0.2,0.1 -0.2,0.2 l -0.5,0.8 v 0.2 c 0.2,0 0.1,0.1 0,0 l -0.1,0.2 -0.1,0.1 -0.1,0.3 v 0.3 l -0.2,0.4 c 0,0.2 0,0.1 -0.5,0.4 -0.4,0.1 -1,0.2 -1.1,0 l -0.3,0.1 c 0,0.2 -0.2,0.2 -0.5,0.2 h -1.3 c 0,-0.2 -0.5,-0.3 -0.6,-0.2 0,0.1 -0.2,0.1 -0.4,0 l -0.6,0.1 h -0.8 z m -14,-3 -0.2,-0.2 c -0.1,0 -0.1,0 0,0.1 0.1,0.2 0.1,0.2 0.1,0 z m -41,-1.6 0.1,-0.2000001 c 0,-0.2 0,-0.2 -0.3,-0.2 l -0.3,0.1 c 0,0.2000001 0.2,0.4000001 0.3,0.3000001 z m 4.5,0 V 9.9098199 H 66.6 L 66.7,10.10982 Z M 129.3,7.5098195 H 129 l 0.2,0.1 h 0.1 z m 1,-0.2000001 h -0.3 0.2 z m 8.1,-1.9000003 h -0.1 v 0.1 h 0.1 z m 1.3,-0.7000001 c 0,-0.2000001 -0.3,-0.1000001 -0.3,0 0,0.1 0,0.1 0,0 z m 5.5,-1.7000004 H 145 l 0.1,0.1 h 0.1 z M 90.2,-1.290182 H 90 v 0.1 h 0.1 z m 2.3,0 v -0.1 h -0.1 v 0.1 z m 14.4,-0.3 -0.1,-0.1 h -0.1 v 0.2 z m -7.2,0 -0.1,-0.1 h -0.2 0.2 z m 7.3,-0.4 v -0.1 l -0.1,0.1 v 0.1 z m 16.4,-0.7 h -0.1 c 0,0 -0.1,0 0,0 z m 8.7,0 v -0.2 h 0.1 c 0,-0.2 -0.3,0 -0.3,0.2 z m -4.5,0 -0.1,-0.1 h -0.2 l 0.2,0.1 z M 103.8,12.00982 v -0.1 h 0.2 l -0.1,0.1 z M 143,-1.890182 h 0.4 l -0.1,0.1 h -0.2 z"
     style="fill:#ff653f;fill-opacity:1"
     id="path6"
     clip-path="url(#clipPath26)"
     transform="translate(-0.04671212,-0.23076923)" />
  <path
     d="m 42.9,11.40982 h -0.2 l -0.3,-0.1 -0.3,-0.1 -0.1,-0.2 h -0.3 c -0.2,0 -0.8,-0.2 -0.9,-0.5 l -0.1,-0.1 c -0.2,0 -0.3,-0.3 -0.2,-0.4 0.1,0 0.1,-0.1000001 0,-0.2000001 -0.3,-0.1 -0.5,-1.0000002 -0.3,-1.0000002 0.1,0 0.2,0 0.2,-0.2 0,0 0,-0.1 -0.1,0 L 40.1,8.2098196 V 7.7098195 c 0.2,-0.2 0.2,-0.4000001 0.1,-0.3 L 40,6.9098194 C 39.8,6.4098193 39.7,6.3098193 39.3,6.0098192 h -0.6 c -0.6,0.2 -0.8,0.3000001 -0.8,0.7000001 0,0.2000001 -0.2,0.3000001 -0.3,0.3000001 l -0.3,0.2 -1,0.1 a 4.1,4.1 0 0 0 -1.2,0.1000001 c -0.5,0 -0.8,0.1 -0.8,0.2 l -0.6,0.3000001 -0.2,0.3 c -0.2,0.4000001 -0.7,0.7000001 -1,0.6000001 l -0.3,0.1 c 0,0 0,0.1000001 -0.2,0 a 4,4 0 0 0 -1.1,-0.2 l -0.3,-0.2 C 30.5,8.3098196 30.4,8.3098196 30.1,8.3098196 a 1,1 0 0 1 -0.4,-0.1 l -0.9,-0.1 h -0.7 c 0,-0.2 -0.2,-0.2 -0.4,-0.1 L 26.9,7.8098195 c -0.3,0 -0.6,-0.2 -0.6,-0.3 h 0.1 c 0.1,0.1 0.1,0.1 0.2,0 0,0 0,-0.1 0,0 L 26.4,7.3098194 c -0.1,0 -0.8,-0.1 -0.7,-0.2 a 7,7 0 0 0 -2,-1.0000002 H 23 c -0.2,-0.1 -0.7,-0.3 -0.8,-0.2 0,0 -0.1,0.1 -0.2,0 h -0.6 c -0.7,0 -0.8,0 -1,-0.2000001 0,0 0,-0.1 -0.1,0 h -0.9 c -1,0 -1.4,0.2000001 -1.8,0.5000001 l -0.3,0.1000001 c -0.3,0 -0.7,0.1 -0.7,0.3 h -0.2 l -0.1,0.1 -0.2,0.2000001 h -0.3 c 0,0.2 -0.1,0.2 -0.3,0.2 H 14.7 L 14.1,6.8098193 c -0.1,0 -0.2,0 -0.3,-0.2 -0.1,-0.3 -0.2,-0.3 -0.3,-0.2 h -0.3 l -0.2,-0.1 h -0.6 c -0.2,0 -0.4,0 -0.6,-0.2000001 H 10.7 V 6.3098193 L 10.6,6.2098192 H 9 l -0.4,-0.1 c 0,-0.2 -0.1,-0.2 -0.2,-0.1 H 7.5 c -0.6,-0.1 -1.1,-0.3000001 -1,-0.4000001 H 5.8 l -1,-0.1 -0.7,-0.1 H 2.7 c -0.4,0 -0.6,0 -1.1,-0.3000001 l -0.2,-0.1 c 0,-0.1 0,-0.2 -0.2,-0.3 0,0 -0.1,-0.2000001 0,-0.2000001 H 0.9 c 0,0 -0.2,-0.5000001 0,-0.6000001 v -0.1 l -0.1,-0.1 -0.1,-0.1000001 -0.1,-0.3 V 2.5098185 l -0.2,-0.2 L 0.2,1.7098184 C 0,1.3098183 -0.1,0.80981821 0.1,0.70981821 l 0.1,-0.30000009 0.2,-0.4 c 0.2,-0.20000009 0.3,-0.20000009 0.5,-0.20000009 a 24.9,24.9 0 0 0 2.8,0.20000009 331.2,331.2 0 0 0 5.7,-0.20000009 h 2.4 a 1643.6,1643.6 0 0 1 43.6,0 151,151 0 0 1 9,0.30000009 l 0.2,-0.1 h 0.5 c 0.1,-0.10000009 0.2,-0.10000009 0.2,0 H 67 c 0.2,-0.20000009 0.3,-0.20000009 0.2,0 h 0.3 c 0,-0.10000009 0.1,-0.10000009 0.2,0 h 0.1 c 0,-0.20000009 0,-0.20000009 0,0 h 0.3 l 0.2,0.1 h 0.2 c 0.3,-0.30000009 0.4,-0.30000009 0.8,-0.20000009 h 0.8 c 0.2,-0.1 0.2,-0.1 0.2,0 0,0.10000009 0,0.10000009 0.1,0 h 0.4 c 0,-0.1 0.8,0 0.8,0 0,0.20000009 0,0.20000009 0.3,0 h 0.8 L 73,0.00981812 c 0,0.1 0.1,0.1 0.2,0 0,-0.10000009 0,-0.10000009 0.1,0 h 0.1 c 0,-0.20000009 1,0 1.2,0 0,0.2 0,0.1 0.2,0 0.2,-0.20000009 0.2,-0.20000009 0.4,0 0.2,0 0.3,0.1 0.4,0 H 77 c 0.4,0 0.7,0.1 0.7,0.2 l 0.1,0.2 c 0.2,0 0.2,-0.1 0,-0.3 h 0.8 c 0.3,0 0.5,0 0.6,0.2 0,0.20000009 0,0.20000009 0,0 h 1 c 0,0.1 0.1,0.1 0.1,0 h 1.8 a 294,294 0 0 1 2.8,0.1 l 0.5,0.20000009 0.2,0.1 0.2,0.1 0.3,0.30000009 c 0.1,0.2 0.1,0.3 0,0.4 0.2,0.2000001 0.3,0.5000001 0,0.6000002 v 0.2 c 0,0.2 -0.2,0.3000001 -3,0.3000001 H 82 c 0,0.1 0,0.1 -0.1,0 l -0.4,0.1 -0.5,0.2 h -0.6 c -0.1,-0.2 -0.3,-0.1 -0.2,0 v 0.4000001 h -0.1 l -0.2,-0.1 h -0.2 c 0,-0.1000001 0,-0.1000001 -0.1,0 0,0.2 -0.4,0.4 -0.6,0.4 l -0.2,0.1000001 c -0.1,0.1 -0.2,0.1 -0.2,0 h -0.2 c -0.2,0 -0.2,0 -0.2,0.2 0,0.2 0,0.2 -0.3,0.2 h -0.2 l -0.1,0.2000001 h -0.2 c 0,0.2 -0.3,0.2 -0.4,0.1 l -0.3,0.2 C 76.5,4.809819 76.4,4.909819 76.1,4.809819 h -0.4 l -0.1,0.1 -0.3,0.1 -0.7,0.1 h 0.2 c 0,0 0.1,-0.1 0,-0.1 h -0.3 l -0.4,0.1 H 74 c -0.2,0.1 -0.2,0.1 -0.4,0 h -0.2 c 0,0.2000001 -0.5,0.2000001 -0.6,0 l -0.3,0.1 c 0,0.2000001 -1.3,0.1000001 -1.4,0 0,-0.1 0,-0.1 -0.1,0 0,0.1000001 -1,0.2000001 -1,0 -0.2,0.2000001 -1.2,0.3000001 -1.4,0.2000001 h -0.4 c -0.1,0 -0.2,0 -0.3,0.2 l -0.3,0.1 -0.5,0.1000001 h -0.3 l -0.1,0.1 -0.1,0.3 h -0.3 c 0,-0.2 0,-0.2 -0.1,0 0,0.2000001 -0.4,0.4000001 -0.5,0.1000001 0,-0.2000001 -0.2,-0.1000001 -0.1,0 0,0.3 -0.3,0.7000001 -0.6,0.6000001 l -0.3,0.1 c 0,0.2 -0.2,0.2 -0.4,0.2 -0.2,0 -0.2,0 -0.3,0.2000001 0,0.2 -0.4,0.2 -0.7,0 l -0.4,0.1 c -0.3,0.2 -0.5,0.1 -0.4,0 V 7.3098194 c -0.2,0 -0.2,0.2000001 -0.2,0.3000001 v 0.1 l -0.1,-0.2 c 0,-0.1 0,-0.2000001 -0.1,0 h -0.3 c -0.2,-0.2000001 -0.5,-0.2000001 -0.2,0 0.1,0.1 0,0.1 -0.4,0 l -1.3,-0.1 h -0.7 c 0,-0.2000001 0,-0.2000001 -0.2,-0.1000001 h -0.1 l -0.3,0.2000001 c -0.5,0 -0.6,0 -0.6,-0.2000001 0,-0.2 0,-0.2 -0.3,-0.1 -0.3,0 -0.4,0.2000001 -0.4,0.3000001 h -4 l -0.5,0.1 -0.3,0.3000001 -0.5,0.3 c -0.2,0 -0.2,0 0,0 0.2,0.1 0.2,0.3000001 0,0.5000001 0,0 -0.1,0.1 0,0.2 l -0.1,0.2000001 -0.3,0.3 c 0,0.2000001 -0.2,0.3000001 -0.3,0.3000001 l -0.1,0.1 c 0,0 0,0.1 0,0 -0.1,0 -0.3,0 -0.4,0.2000001 L 49.6,9.9098199 H 48.1 L 47.8,10.00982 c -0.3,0.3 -0.8,0.7 -1,0.7 h -0.2 c -0.1,0.2 -0.7,0.4 -0.8,0.3 0,0 -0.2,0 -0.3,0.2 -0.1,0.1 -0.2,0.2 -0.4,0.1 h -0.4 c -0.2,0.2 -1.8,0.2 -1.8,0.1 z M 17.1,6.3098193 c 0,-0.1000001 -0.2,-0.1000001 -0.2,0 l 0.1,0.1 z m 19,-2.0000004 H 36 l -0.1,0.1 v 0.2 l 0.1,-0.2 z M 3.8,3.6098187 v -0.3 H 3.6 c -0.2,0 -0.2,0 -0.2,-0.2000001 H 3.2 L 3.1,3.3098187 c 0,0.2 0,0.2 0.4,0.1 h 0.4 z"
     style="fill:#f5dabf;fill-opacity:1"
     id="path7"
     clip-path="url(#clipPath25)"
     transform="translate(-0.04671212,-0.23076923)" />
  <path
     d="m 373.05245,20.730865 h -0.3664 l -0.54959,-0.183198 -0.5496,-0.183198 -0.18319,-0.366396 h -0.5496 c -0.36639,0 -1.46558,-0.366396 -1.64878,-0.91599 l -0.1832,-0.183198 c -0.36639,0 -0.54959,-0.549595 -0.36639,-0.732793 0.18319,0 0.18319,-0.183198 0,-0.366396 -0.5496,-0.183198 -0.91599,-1.831981 -0.5496,-1.831981 0.1832,0 0.3664,0 0.3664,-0.366396 0,0 0,-0.183198 -0.1832,0 l -0.3664,-0.732792 v -0.91599 c 0.3664,-0.366396 0.3664,-0.732794 0.1832,-0.549594 l -0.36639,-0.915992 c -0.3664,-0.91599 -0.5496,-1.099188 -1.28239,-1.648782 h -1.09919 c -1.09919,0.366396 -1.46558,0.549594 -1.46558,1.282386 0,0.366396 -0.3664,0.549594 -0.5496,0.549594 l -0.54959,0.366396 -1.83198,0.183198 a 7.5111194,7.5111194 0 0 0 -2.19838,0.183198 c -0.91599,0 -1.46558,0.1832 -1.46558,0.366398 l -1.09919,0.549594 -0.3664,0.549594 c -0.36639,0.732792 -1.28238,1.282386 -1.83198,1.099188 l -0.54959,0.183198 c 0,0 0,0.183199 -0.3664,0 a 7.3279213,7.3279213 0 0 0 -2.01518,-0.366396 l -0.54959,-0.366396 c -0.1832,-0.366396 -0.3664,-0.366396 -0.91599,-0.366396 a 1.8319803,1.8319803 0 0 1 -0.73279,-0.183198 l -1.64878,-0.183198 h -1.28239 c 0,-0.366396 -0.3664,-0.366396 -0.73279,-0.183198 l -1.46559,-0.366396 c -0.54959,0 -1.09919,-0.366396 -1.09919,-0.549594 h 0.1832 c 0.1832,0.183198 0.1832,0.183198 0.3664,0 0,0 0,-0.183198 0,0 l -0.3664,-0.366398 c -0.1832,0 -1.46558,-0.183198 -1.28238,-0.366396 a 12.823862,12.823862 0 0 0 -3.66396,-1.83198 h -1.28239 c -0.3664,-0.183198 -1.28239,-0.549594 -1.46558,-0.366396 0,0 -0.1832,0.183198 -0.3664,0 h -1.09919 c -1.28239,0 -1.46558,0 -1.83198,-0.366396 0,0 0,-0.183198 -0.1832,0 h -1.64878 c -1.83198,0 -2.56477,0.366396 -3.29756,0.91599 l -0.5496,0.183198 c -0.54959,0 -1.28238,0.183198 -1.28238,0.549594 h -0.3664 l -0.1832,0.183198 -0.36639,0.366396 h -0.5496 c 0,0.366396 -0.1832,0.366396 -0.54959,0.366396 h -1.46559 l -1.09919,-0.549594 c -0.18319,0 -0.36639,0 -0.54959,-0.366396 -0.1832,-0.549594 -0.3664,-0.549594 -0.54959,-0.366396 h -0.5496 l -0.36639,-0.183198 h -1.09919 c -0.3664,0 -0.73279,0 -1.09919,-0.366396 h -2.01518 v 0.366396 l -0.1832,-0.183198 h -2.93117 l -0.73279,-0.183198 c 0,-0.366396 -0.1832,-0.366396 -0.36639,-0.183198 h -1.64879 c -1.09918,-0.183198 -2.01517,-0.549594 -1.83198,-0.732792 h -1.28238 L 303.254,9.9221789 301.97161,9.7389809 h -2.56477 c -0.73279,0 -1.09919,0 -2.01518,-0.5495951 l -0.3664,-0.183198 c 0,-0.1831977 0,-0.3663957 -0.36639,-0.5495937 0,0 -0.1832,-0.3663961 0,-0.3663961 h -0.5496 c 0,0 -0.36639,-0.9159902 0,-1.0991882 v -0.183198 l -0.18319,-0.1831981 -0.1832,-0.183198 -0.1832,-0.5495941 V 4.4262373 l -0.3664,-0.366396 -0.36639,-1.09919 c -0.3664,-0.7327922 -0.5496,-1.6487823 -0.1832,-1.8319804 l 0.1832,-0.54959409 0.36639,-0.73279217 c 0.3664,-0.36639605 0.5496,-0.36639605 0.91599,-0.36639605 a 45.61631,45.61631 0 0 0 5.12955,0.36639605 606.75189,606.75189 0 0 0 10.44229,-0.36639605 h 4.39675 a 3011.0429,3011.0429 0 0 1 79.87434,0 276.62903,276.62903 0 0 1 16.48783,0.54959403 l 0.36639,-0.18319798 h 0.91599 c 0.1832,-0.18319804 0.3664,-0.18319804 0.3664,0 h 3.11436 c 0.3664,-0.36639605 0.5496,-0.36639605 0.3664,0 h 0.54959 c 0,-0.18319804 0.1832,-0.18319804 0.3664,0 h 0.1832 c 0,-0.36639605 0,-0.36639605 0,0 h 0.54959 l 0.3664,0.18319798 h 0.36639 c 0.5496,-0.54959403 0.7328,-0.54959403 1.46559,-0.36639602 h 1.46558 c 0.3664,-0.18319801 0.3664,-0.18319801 0.3664,0 0,0.18319804 0,0.18319804 0.1832,0 h 0.73279 c 0,-0.18319801 1.46558,0 1.46558,0 0,0.36639602 0,0.36639602 0.5496,0 h 1.46558 l 0.5496,0.18319804 c 0,0.18319798 0.18319,0.18319798 0.36639,0 0,-0.18319804 0,-0.18319804 0.1832,0 h 0.1832 c 0,-0.36639605 1.83198,0 2.19837,0 0,0.36639608 0,0.18319798 0.3664,0 0.3664,-0.36639605 0.3664,-0.36639605 0.73279,0 0.3664,0 0.5496,0.18319798 0.73279,0 h 2.56478 c 0.73279,0 1.28238,0.18319798 1.28238,0.36639608 l 0.1832,0.36639609 c 0.3664,0 0.3664,-0.18319809 0,-0.54959419 h 1.46559 c 0.54959,0 0.91599,0 1.09918,0.3663961 0,0.36639619 0,0.36639619 0,0 h 1.83198 c 0,0.18319809 0.1832,0.18319809 0.1832,0 h 3.29757 a 538.60222,538.60222 0 0 1 5.12954,0.18319809 l 0.91599,0.3663961 0.3664,0.18319799 0.36639,0.1831981 0.5496,0.5495941 c 0.1832,0.366396 0.1832,0.5495941 0,0.7327921 0.36639,0.3663961 0.54959,0.9159902 0,1.09919 v 0.3663961 c 0,0.366396 -0.3664,0.5495941 -5.49594,0.5495941 h -2.01518 c 0,0.183198 0,0.183198 -0.1832,0 l -0.73279,0.183198 -0.91599,0.3663961 h -1.09919 c -0.1832,-0.3663961 -0.54959,-0.1831981 -0.3664,0 v 0.7327921 h -0.18319 l -0.3664,-0.183198 h -0.3664 c 0,-0.1831981 0,-0.1831981 -0.18319,0 0,0.366396 -0.7328,0.7327921 -1.09919,0.7327921 l -0.3664,0.183198 c -0.1832,0.1831981 -0.36639,0.1831981 -0.36639,0 h -0.3664 c -0.3664,0 -0.3664,0 -0.3664,0.3663961 0,0.3663961 0,0.3663961 -0.54959,0.3663961 h -0.3664 l -0.18319,0.366396 h -0.3664 c 0,0.3663961 -0.54959,0.3663961 -0.73279,0.1831981 l -0.5496,0.366396 c -0.36639,0.3663961 -0.54959,0.5495941 -1.09918,0.3663961 h -0.7328 l -0.1832,0.183198 -0.54959,0.1831977 -1.28239,0.183198 h 0.3664 c 0,0 0.1832,-0.183198 0,-0.183198 h -0.54959 l -0.7328,0.183198 h -0.18319 c -0.3664,0.183198 -0.3664,0.183198 -0.7328,0 h -0.36639 c 0,0.3663961 -0.91599,0.3663961 -1.09919,0 l -0.54959,0.183198 c 0,0.3663971 -2.38158,0.1831981 -2.56478,0 0,-0.183198 0,-0.183198 -0.18319,0 0,0.1831981 -1.83198,0.3663971 -1.83198,0 -0.3664,0.3663971 -2.19838,0.5495951 -2.56478,0.3663971 h -0.73279 c -0.1832,0 -0.3664,0 -0.54959,0.3663961 l -0.5496,0.183198 -0.91599,0.183198 h -0.54959 l -0.1832,0.183198 -0.1832,0.549594 h -0.54959 c 0,-0.366396 0,-0.366396 -0.1832,0 0,0.366396 -0.73279,0.732792 -0.91599,0.183198 0,-0.366396 -0.3664,-0.183198 -0.1832,0 0,0.549594 -0.54959,1.282386 -1.09919,1.099188 l -0.54959,0.183198 c 0,0.366396 -0.3664,0.366396 -0.73279,0.366396 -0.3664,0 -0.3664,0 -0.5496,0.366396 0,0.366396 -0.73279,0.366396 -1.28238,0 l -0.7328,0.183198 c -0.54959,0.366396 -0.91599,0.183198 -0.73279,0 v -0.366396 c -0.36639,0 -0.36639,0.366398 -0.36639,0.549596 v 0.183198 l -0.1832,-0.366396 c 0,-0.183198 0,-0.366398 -0.1832,0 h -0.54959 c -0.3664,-0.366398 -0.91599,-0.366398 -0.3664,0 0.1832,0.183198 0,0.183198 -0.73279,0 l -2.38158,-0.183198 h -1.28238 c 0,-0.366398 0,-0.366398 -0.3664,-0.1832 h -0.1832 l -0.54959,0.366398 c -0.91599,0 -1.09919,0 -1.09919,-0.366398 0,-0.366396 0,-0.366396 -0.54959,-0.183198 -0.5496,0 -0.7328,0.366398 -0.7328,0.549596 h -7.32792 l -0.91599,0.183198 -0.54959,0.549594 -0.91599,0.549594 c -0.3664,0 -0.3664,0 0,0 0.3664,0.183198 0.3664,0.549594 0,0.91599 0,0 -0.1832,0.183198 0,0.366396 l -0.1832,0.366397 -0.54959,0.549594 c 0,0.366396 -0.3664,0.549594 -0.5496,0.549594 l -0.1832,0.183198 c 0,0 0,0.183198 0,0 -0.18319,0 -0.54959,0 -0.73279,0.366396 l -2.19837,-0.183198 h -2.74797 l -0.5496,0.183198 c -0.54959,0.549595 -1.46558,1.282387 -1.83198,1.282387 h -0.36639 c -0.1832,0.366396 -1.28239,0.732792 -1.46559,0.549594 0,0 -0.36639,0 -0.54959,0.366396 -0.1832,0.183198 -0.3664,0.366396 -0.7328,0.183198 h -0.73279 c -0.36639,0.366396 -3.29756,0.366396 -3.29756,0.183198 z m -47.26509,-9.343102 c 0,-0.183198 -0.3664,-0.183198 -0.3664,0 l 0.1832,0.183198 z m 34.80762,-3.6639611 h -0.1832 L 360.22859,7.907 V 8.273396 L 360.41178,7.907 Z M 301.42202,6.4414157 V 5.8918216 h -0.3664 c -0.36639,0 -0.36639,0 -0.36639,-0.3663961 h -0.3664 l -0.1832,0.3663961 c 0,0.3663961 0,0.3663961 0.73279,0.183198 h 0.7328 z"
     style="fill:#f5dabf;fill-opacity:1;stroke-width:1.83198"
     id="path7-9"
     clip-path="url(#clipPath24)"
     transform="translate(-0.04671212,-0.23076923)" />
  <path
     d="M 300.4,15.30982 H 300 l -0.1,-0.1 h -0.3 l -0.2,-0.1 c -0.2,0 -0.5,-0.2 -0.5,-0.4 h -0.2 c 0,0.2 0,0.2 -0.1,0.1 h -0.3 c 0,-0.1 0,-0.2 -0.2,-0.2 h -0.4 c -0.1,0 -0.1,0 0,-0.2 0,-0.1 0,-0.1 0,0 h -0.6 c -0.2,0 -0.3,0 -0.5,-0.2 l -0.5,-0.2 c -0.4,0 -0.8,-0.3 -0.8,-0.4 l -0.2,-0.1 c -0.2,0 -0.4,-0.4 -0.2,-0.4 0.1,-0.1 -0.1,-0.2 -0.4,-0.1 h -0.1 v -0.3 c -0.1,-0.1 -0.1,-0.1 -0.1,0 0,0.2 -0.1,0.2 -0.3,0 h -0.1 l 0.1,-0.2 -0.1,-0.1 c -0.2,0 -0.6,-0.1 -0.6,-0.3 0,-0.1 0,-0.3 0.2,-0.2 v -0.1 c 0,0 0,-0.1 0,0 l -0.3,-0.3 h -0.1 l -0.3,0.1 -0.1,-0.1 -0.3,-0.3 v -0.3 h -0.3 l -0.1,0.1 v -0.1 c 0.2,-0.2 0,-0.3 -0.3,-0.3 h -0.2 l -0.2,-0.1 -0.2,-0.2 -0.2,-0.1 c 0,-0.2 -0.2,-0.3000001 -0.5,-0.4000001 -0.3,0 -0.5,-0.1 -0.5,-0.2 h -0.1 c -0.1,0 -0.8,-0.4000001 -0.8,-0.6000001 l -0.3,-0.2000001 c -0.3,0 -0.7,-0.3 -0.6,-0.5000001 0,0 0,-0.1 0,0 -0.1,0 -0.2,0 -0.2,-0.2 0,-0.1 0,-0.2 -0.2,0 H 287 a 4,4 0 0 1 -1.7,0.1 c 0,0 -0.1,-0.1 0,-0.2 h -0.2 c -0.1,0.1 -0.5,0 -0.5,-0.2000001 v -0.1 l 0.2,-0.2 h -0.1 l -0.2,0.2 -0.1,0.1 c 0,0.2000001 -0.2,0.3000001 -0.6,0.1000001 -0.5,-0.2000001 -0.8,-0.3000001 -0.9,-0.2000001 l -0.2,-0.1 -0.3,-0.1 h -0.1 c 0,-0.2000001 -0.2,-0.2000001 -0.4,-0.2000001 l -0.6,-0.1 -1,-0.1 -1.3,-0.2 h -0.3 c -0.2,0 -0.3,0 -0.3,-0.2000001 v -0.1 h -0.1 c 0,0.1 -0.3,0.2 -0.7,0.1 -0.6,0 -1.3,0.1 -1.7,0.4000001 h -0.3 v 0.1 l -0.1,0.2000001 -0.3,0.1 c -0.1,0.2 -0.2,0.2 -0.4,0.2 h -0.7 c 0,-0.1 0,-0.1 -0.1,0 l -0.4,0.1 -0.5,0.2000001 h -0.9 c 0,0.2 -0.7,0.4 -1.1,0.4 h -0.3 l -0.2,0.1000001 -0.4,0.2 c -0.2,0.1 -1.3,0.2 -1.4,0 h -0.2 c -0.2,0 -0.5,-0.2 -0.4,-0.3000001 l -0.3,-0.3 c -0.2,0 -0.2,-0.1 -0.2,-0.2 -0.2,0 -0.2,0 -0.2,-0.2000001 v -0.2 h -0.1 l -0.1,0.5000001 -0.2,-0.4000001 -0.3,-0.2 c -0.2,0 -0.3,0 -0.4,-0.3000001 l -0.4,-0.2 -0.1,-0.1000001 -0.1,-0.1 -0.5,-0.5000001 c -0.4,-0.4 -0.4,-0.4 -0.7,-0.4 h -0.4 c 0,-0.2000001 -0.4,-0.2000001 -0.4,0 h -0.6 c 0,0.1 -0.4,0.1 -0.4,0 h -0.5 a 30.5,30.5 0 0 1 -1.1,0.2 c -0.2,0.2 -0.4,0.2 -0.5,0 l -0.2,0.2 c -0.2,0.1000001 -0.8,0.3000001 -1.2,0.2000001 l -0.6,-0.2000001 -0.6,-0.2 h -0.2 c 0,-0.2 -0.2,-0.2 -0.4,-0.1 H 256 c 0,0.1 0,0.1 0,0 h -0.3 l -0.4,-0.2000001 c -0.2,0 -0.4,0 -0.7,-0.2 -0.4,-0.3000001 -1,-0.4000001 -1.2,-0.3000001 h -1 l -1,-0.1 h -0.3 l -0.4,0.1 c -0.4,0 -2,0 -2.8,0.2000001 l -1,-0.1 -0.6,-0.3000001 -0.2,-0.1 -0.8,-0.3000001 -0.3,-0.2 c -0.1,-0.1 -0.1,-0.1 0,0 h -0.2 c 0,-0.2 -0.2,-0.3000001 -0.3,-0.3000001 h -0.4 a 7,7 0 0 0 -2.9,0 c 0.1,-0.2 -0.4,-0.2 -0.5,0 -0.1,0.1000001 -0.3,0.2000001 -0.3,0 H 240 c 0,0.2000001 0,0.2000001 -0.3,0 l -0.2,0.1000001 h -0.7 V 4.1098188 c 0,0 -0.1,-0.1 -0.2,0 h -0.7 c 0,-0.2 -0.1,-0.2 -0.2,-0.2 l -0.2,-0.1 -0.2,-0.2000001 c -0.2,0 -0.8,-1.0000001 -0.8,-1.4000002 l -0.1,-0.4000001 a 4.8,4.8 0 0 1 0,-2.60000041 c -0.1,-0.2 0,-0.29999999 0.7,-0.89999999 0.2,-0.2 0.8,-0.2 1,0 h 1.8 a 26.1,26.1 0 0 1 3.7,0.2 h 0.6 c 0.1,0 0.2,0 0.2,-0.2 0,-0.2 0.2,-0.2 0.4,0 0.2,0.4 0,0.3 1.7,0.4 a 591.3,591.3 0 0 1 19.3,0.59999999 c 0,-0.2 0.2,0 0.2,0.2 0,0.20000004 0,0.20000004 0,0 l 0.1,-0.2 h 0.5 c 0,0.1 0.1,0.1 0.2,0 h 0.7 a 55,55 0 0 0 4,0 206,206 0 0 0 12.2,0.50000004 l 1.6,0.1 h 1.9 a 123.2,123.2 0 0 0 3,0.40000009 c 0,0.20000009 0,0.20000009 0.2,0 l 0.2,-0.1 a 22.3,22.3 0 0 0 2.8,0.40000009 h 0.3 l 0.2,0.2 0.1,-0.1 1.3,-0.1 a 140,140 0 0 0 5,0 v 0.2 l 0.2,-0.1 c 0,-0.2 1.8,-0.1 1.8,0 l 0.5,0.1 h 0.8 l 1.5,0.1 h 0.5 l 1.2,0.20000009 c 1.9,0 2.2,0 2.3,0.2 h 0.3 c 0.2,0 0.5,0.1 0.4,0.2 h 0.3 c -0.2,0 0,-0.1 0.2,0 h 0.4 c 0.2,0 0.8,0.2000001 1,0.4000001 h 0.2 l 1,0.6000001 c 0,0.1000001 0,0.1000001 0,0 l 0.4,0.8000002 c 0.2,0.5000001 0.2,1.7000003 0,1.9000003 l -0.2,0.5000001 -0.2,0.6000002 -0.1,0.4 c 0,0.2000001 -0.6,1.0000002 -1,1.4000003 -0.4,0.5000001 -0.6,0.6000001 -1,0.6000001 h -0.4 c 0,0.1 0,0 0,0 h -0.3 c -0.2,0.2 -0.6,0.3000001 -1.3,0.4000001 h -0.4 c 0,0.1 0,0 -0.1,0 h -0.2 c 0,0.2 -0.1,0.2 -0.3,0.2 h -0.3 l -0.4,0.2000001 h -0.3 l -0.3,0.1 a 1,1 0 0 1 -0.3,0.2 l -0.3,0.2000001 -0.1,0.4 v 0.3 l 0.2,0.1 c 0.1,0.3 -0.1,0.9 -0.5,1.3 -0.4,0.3 -0.8,0.6 -0.7,0.3 h -0.2 c -0.2,0.2 -0.2,0.2 -0.3,0.1 0,0.2 -0.1,0.3 -0.2,0.3 l -0.2,0.2 -0.2,0.1 -0.1,0.1 -0.6,0.3 c 0,0 -0.1,0 0,0 0,0.2 -0.3,0.2 -0.4,0 -0.1,0 -0.1,0 0,0 0,0.2 0.1,0.3 0.2,0.3 v 0.2 a 606.8,606.8 0 0 0 -1.3,1.1 c 0,0.2 -0.3,0.3 -0.5,0.2 z m -4.8,-1.7 h -0.1 v 0.1 h 0.1 z m 2.5,-1.2 H 298 v 0.1 h 0.1 z m -5.2,-1 v -0.1 l -0.2,0.1 z m 10.5,-1.5000001 h -0.2 z M 267.8,7.4098195 v 0.2 z M 246.4,4.809819 c 0,-0.1 0,-0.1 -0.1,0 0,0 0,0.1 0,0 z m 63.3,-3.0000006 -0.2,-0.1 v 0.2 z m -6.3,-0.6000001 c 0.2,-0.2 0,-0.2 -0.1,0 -0.1,0 -0.1,0.1 0,0.1 h 0.1 z m -21.1,-1.30000027 -0.1,0.20000009 z"
     style="display:inline;fill:#fcb271;fill-opacity:1"
     id="path8"
     clip-path="url(#clipPath23)"
     transform="translate(-0.04671212,-0.23076923)" />
  <path
     d="m 243.7,9.2098198 -0.6,-0.1 a 3,3 0 0 1 -1.3,-0.4000001 h -0.2 l -0.3,-0.3000001 -0.4,-0.2 h -0.2 l -0.4,-0.2 h -0.4 l -0.3,-0.2000001 -0.4,-0.1 -0.2,-0.1 c 0,0.1 -1.2,-0.1 -1.9,-0.4000001 h -0.2 c -1.4,-0.2 -2,-0.4000001 -2.2,-0.7000001 l -0.2,-0.2 -0.4,-0.2000001 c 0,-0.2 -0.4,-0.3 -0.7,-0.4000001 a 3,3 0 0 1 -0.6,-0.3 h -0.3 l -1.1,-0.1 a 42.2,42.2 0 0 0 -8,-0.2000001 28.7,28.7 0 0 0 -3.6,1.0000002 l -1.4,0.3000001 -0.5,0.2 h -0.3 l -0.6,0.2 -0.6,0.1000001 -0.7,0.1 a 50.6,50.6 0 0 0 -7,1.1000002 1142.9,1142.9 0 0 0 -7,1.0000002 l -1.8,-0.1 h -0.5 l -0.3,-0.2000001 -0.5,-0.2 h -0.2 l -0.3,-0.1 -0.4,-0.2000001 -1,-0.2 -0.4,-0.1 -0.8,-0.2000001 -0.5,-0.1 h -0.3 l -1.1,-0.5000001 -0.3,-0.3 c -0.2,0 -0.4,-0.3000001 -0.6,-0.5000001 A 3,3 0 0 1 192.2,5.009819 l -0.1,-0.2 -0.3,-1.0000002 -0.1,-0.5000001 A 15.5,15.5 0 0 1 191,1.6098184 V 1.1098183 c -0.2,0 -0.4,-0.60000009 -0.5,-1.60000031 V -1.990182 l -0.1,-0.7 c -0.2,0 -0.3,-0.1 -0.3,-0.3 l -0.2,-0.5 -0.1,-0.3 c 0,-0.2 0.1,-0.2 0.2,-0.1 0.1,0.2 0.2,0 0.2,-0.1 v -0.2 l 0.2,-0.2 c 0,-0.2 0,-0.2 0.2,-0.2 h 0.5 l 0.3,-0.1 h 0.1 c 0.2,-0.2 1,-0.2 1.6,0 a 19,19 0 0 0 2.9,0.2 l 2.5,0.1 a 32.6,32.6 0 0 1 5.7,0.3 l 2,-0.1 h 2.6 a 55.4,55.4 0 0 1 8.5,-0.1 136.1,136.1 0 0 0 9.3,0 104.4,104.4 0 0 0 9.4,0.8 v 0.1 l 0.1,0.2 c 0.1,0 0.2,0 0.2,-0.2 h 0.8 c 0.8,0 1.7,0.2 1.8,0.3 h 0.5 l 0.4,0.1 1,0.1 c 0.6,0 0.9,0.1 1.3,0.3 0.6,0.3 1.4,0.4 3,0.2 l 4.4,-0.2 a 130,130 0 0 0 7.6,-0.3 128.3,128.3 0 0 1 15.5,0.3 l 1.2,-0.2 c 1,0 2,0.1 2.4,0.3 l 0.6,0.6 0.6,0.5 c 0.2,0 0.6,0.39999999 0.6,0.59999999 h -0.3 l 0.4,0.2 0.1,0.20000004 0.2,0.40000009 v -0.10000009 h 0.1 l 0.4,0.60000018 0.2,0.3 V 1.3098183 c 0,0 0.1,0.1 0,0.2 l 0.1,0.1000001 0.1,0.5000001 v 1.2000002 l -0.1,0.3 c -0.1,0.1000001 -0.1,0.2000001 0,0.2000001 0,0.1 0,0.2 -0.2,0.3 l -0.2,0.2000001 v 0.2 l -0.1,0.3000001 -0.2,0.3 h -0.1 c 0,0 -0.2,0 -0.2,0.2000001 -0.1,0.2 -1.1,0.5000001 -1.8,0.4 h -2.3 c -0.1,0.2000001 -1,0.1000001 -1.3,0 l -1,-0.5000001 c -0.2,0 -0.2,-0.1 -0.3,-0.2 0,0 0,-0.1 0,0 l -0.6,-0.2 -0.6,-0.3000001 h -0.2 l -0.2,-0.1 h -0.2 c 0,0 -0.1,-0.1 -0.1,0 l -1,-0.3000001 -1.3,-0.2 a 8,8 0 0 0 -2.7,0.5000001 7,7 0 0 1 -1.7,0.6000001 l -2.2,0.7000001 -0.5,0.2000001 H 260 c 0,0.2 -1,0.6000001 -1.2,0.6000001 H 258 l -0.6,-0.2 h -1.1 a 641.3,641.3 0 0 1 -3.6,0.9000001 h -0.3 l -0.5,0.2000001 -0.5,0.2 h -0.2 c 0,0.2 -0.1,0.2 -0.1,0 -0.2,0.2 -1,0.4000001 -1.2,0.4000001 h -0.3 c -0.2,0.2 -1.3,0.4 -1.5,0.3 h -0.2 v 0.1 l -0.5,0.1000001 c -0.3,0.2 -2,0.4 -2.9,0.5000001 h -0.8 z m -43.2,-0.2 h -0.1 c 0,-0.1000001 -0.1,-0.1000001 -0.1,0 z m 36,-4.3000008 -0.2,-0.2000001 -0.3,-0.1 h -0.2 l 0.1,0.3000001 c 0.3,0.1 0.5,0.2 0.5,0 z m 38.1,-1.0000002 c 0.1,0 0.1,-0.1000001 0,-0.2000001 h -1 c 0,0.2000001 0.7,0.3000001 1,0.2000001 z m 2,-0.2000001 c 0.2,-0.2 0.1,-0.2 -0.4,-0.1 -0.4,0 -0.5,0.1 -0.3,0.2 l 0.8,-0.1 z M 269.9,2.2098185 V 2.0098184 c -0.2,-0.1 -1,-0.2 -1,0 l 0.5,0.1000001 h 0.2 c 0.2,0.2 0.3,0.2 0.3,0 z m 5.9,-2.00000038 c 0,-0.1 -0.2,-0.2 -0.2,0 v 0.1 h 0.2 z m 2.7,0 c 0,-0.1 0,-0.1 0,0 v 0.1 -0.2 z m -37.2,-3.30000012 0.2,-0.1 h 0.1 l -0.2,0.1 c 0,0 -0.1,0 0,0 z"
     style="fill:#3f6846;fill-opacity:1"
     id="path9"
     clip-path="url(#clipPath22)"
     transform="translate(-0.04671212,-0.23076923)" />
  <path
     d="m 151.8,12.60982 -0.4,-0.2 a 1,1 0 0 1 -0.4,-0.2 l -0.5,-0.2 h -1 c -0.7,0 -1.3,0 -1.2,-0.2 l -0.2,-0.1 c -0.2,0 -0.2,-0.1 -0.2,-0.2 h -0.6 c -0.2,-0.1 -0.3,-0.2 -0.4,-0.5 0,-0.3 0,-0.3 -0.2,-0.4 l -0.2,-0.1 c 0,-0.2 -0.3,-0.4 -0.6,-0.4 l -0.3,-0.2000001 -1.5,-0.3 -0.8,-0.2000001 a 4,4 0 0 0 -1.6,0 l -0.3,-0.1 h -1 l -0.5,0.1 h -0.3 l -0.5,-0.1 -0.7,-0.3 -0.5,-0.2000001 -0.6,-0.2 a 5,5 0 0 0 -0.8,-0.3000001 1,1 0 0 1 -0.4,-0.2 h -1.5 c -0.2,-0.1 -0.5,-0.2 -0.6,0 h -0.1 c -0.1,-0.1 -0.2,-0.2 -0.3,-0.1 h -0.1 c 0,-0.2000001 -0.4,-0.2000001 -0.5,0 h -0.1 l -0.5,-0.1 a 2,2 0 0 1 -0.6,0 c -0.2,-0.1000001 -0.4,-0.1000001 -0.4,0 H 131 a 3,3 0 0 0 -1.2,0.3 c 0,0 -0.2,0.1 -0.1,0 l -0.3,0.1 c -0.3,0.2000001 -0.8,0.4000001 -1.1,0.4000001 H 128 c -0.1,0.2 -0.5,0.3000001 -0.6,0.3000001 h -0.2 c 0,0.2 0,0.2 -0.3,0.2 h -0.2 l -0.4,0.1 a 5,5 0 0 0 -1,0.5000001 l -0.7,0.4000001 -0.2,0.2 h -0.3 c -0.2,0 -0.2,0 -0.2,0.2 l -0.2,0.1 h -0.2 l -0.2,0.1 c 0,0 -0.2,0 -0.3,0.2 -0.3,0.2 -1,0.3 -1,0 h -0.4 c -0.2,0 -0.3,0 -0.5,-0.2 -0.2,-0.2 -0.3,-0.2 -0.4,-0.1 l -0.3,-0.1 c 0,-0.1 0,-0.3 -0.2,-0.3 A 4,4 0 0 1 119.8,8.9098197 L 119.6,8.0098196 119.5,6.2098192 V 1.6098184 h 0.1 c 0,0 0.2,0 0.2,-0.2000001 l 0.2,-0.2 v -0.2 l 0.1,-0.60000018 v -0.90000013 a 43.9,43.9 0 0 0 0.2,-0.99999999 l 0.2,-0.1 c 0,-0.2 0.4,-0.4 0.5,-0.4 h 0.1 l 0.3,-0.3 0.3,-0.1 c 0,-0.2 0.1,-0.1 0.1,0 0,0.2 0.1,0.2 0.2,0.2 v -0.2 c -0.2,-0.2 -0.2,-0.2 0,-0.3 l 0.2,-0.1 0.2,-0.2 0.4,-0.2 a 29.8,29.8 0 0 1 0.5,0 c 0,-0.2 0.7,-0.5 0.7,-0.5 l 0.8,-0.2 h 0.2 l 0.3,-0.1 0.6,-0.2 0.7,-0.1 h 0.7 l 0.6,-0.2 h 0.2 c 0.4,0 1.4,-0.2 1.7,-0.4 0.2,0 0.4,-0.1 0.4,0 l 0.3,-0.2 h 0.8 l 1,0.1 h 1.5 l 1,0.1 h 1.5 c 0,0.1 0.1,0.1 0.1,0 h 5.5 c 0.1,0.2 0.2,0.2 0.4,0.1 h 3.3 c 0,-0.1999999 2.5,-0.1999999 5.5,-0.1 a 198,198 0 0 0 7.9,0.2 l 1.1,0.2 h 1.5 a 36.7,36.7 0 0 0 3.7,0.3 h 1.2 l 1,0.1 1,0.1 1,0.1 h 3.2 a 17.2,17.2 0 0 1 2.7,0 h 1.3 a 37,37 0 0 1 1.5,0 103.3,103.3 0 0 1 4.4,-0.2 h 2 c -0.1,0.2 -0.1,0.2 0,0 h 1.8 c 0.4,-0.1 0.8,0 0.8,0 h 0.3 c 0,0 0.2,-0.1 0.2,0 h 0.4 c 0,0.1 0.1,0.1 0.1,0 h 2.9 l 0.4,-0.1 a 25.4,25.4 0 0 1 2,-0.2 c 0.1,-0.1 2.1,-0.3 2.2,-0.2 h 0.2 l 0.3,-0.2 h 1.4 c 0,-0.1 0,-0.2 0.2,0 0,-0.2 0.1,-0.2 0.2,0 l 0.2,-0.1 c 0,-0.1 0.1,-0.2 0.2,0 h 0.1 l 0.1,-0.1 h 0.2 l 0.1,0.2 v -0.1 l 0.1,-0.1 0.3,-0.1 h 0.2 v 0.2 l 0.2,-0.1 c 0,-0.2 0.1,-0.3 0.3,-0.1 h 0.8 c 0,0 0.1,-0.1 0.1,0 h 0.1 c 0,-0.2 0.2,-0.2 0.3,-0.2 -0.2,0.2 -0.1,0.2 0.1,0.3 0.4,0 0.5,0 0.5,-0.2 0,-0.1 0.2,-0.2 0.3,0 h 0.3 c 0,-0.2 1.8,-0.3 2,-0.2 0,0.1 0.1,0.1 0.1,0 h 0.8 v -0.3 l 0.2,0.2 a 580,580 0 0 0 3.4,0.3 l 0.1,0.1 0.1,-0.1 c 0,-0.1 0,-0.2 0.4,-0.2 l 1.5,0.3 c 0,0 0.4,0.2 0.4,0 h 1.7 l 1.6,0.1 0.3,0.3 c 0,0.1 0,0.2 0.1,0.1 0,0 0.3,0 0.4,0.2 0.2,0.1 0.2,0.2 0.2,0.5 v 0.5 l -0.1,0.3 c 0,0.1 0,0.2 -0.2,0.3 v 0.1 l -0.4,0.8 -0.4,0.5 -0.6,0.59999999 -0.2,0.3 -0.2,0.30000004 -0.2,0.40000009 -1,1.00000018 -0.4,0.1 -1,0.2 a 30.3,30.3 0 0 0 -3.4,0.7000002 l -0.6,0.2 -0.6,0.2000001 -1,0.4 h -0.4 c 0,0.2000001 -0.1,0.2000001 -0.1,0 -0.2,0.2000001 -0.8,0.3000001 -1,0.2000001 h -0.2 c -0.3,0.2 -0.5,0.2 -0.8,-0.1000001 l -0.6,-0.3 -0.6,-0.2 h -0.4 l -0.6,0.2 -1.1,0.1 -1.3,0.3000001 c -1,0.1 -2.2,0.6000001 -2.3,1.0000002 h -0.2 l -0.2,0.1 c 0,0.2 -0.8,0.6000001 -1,0.6000001 h -0.1 v 0.1 h -0.1 l -0.4,0.3000001 -0.3,0.2 -0.4,0.2 -0.5,0.5000001 a 1,1 0 0 0 -0.4,0.4000001 l -0.1,0.1 -0.9,0.7000002 -0.8,0.7000001 h -0.2 v 0.2 c -0.1,0.2000001 -0.7,0.3000001 -0.7,0.2000001 l -0.2,-0.2000001 -0.4,0.1 -0.3,0.2000001 c 0,0.2 -0.3,0.1 -0.3,0 V 8.4098196 l -0.3,0.2000001 -0.1,0.1 v -0.1 l -0.1,-0.2000001 v 0.2000001 l -0.4,0.1 -0.4,0.1 h -0.1 c -0.1,0 -0.2,0 -0.3,0.2000001 h -0.5 l -0.1,0.1 -0.2,0.1 v -0.2 c 0,-0.1000001 0,-0.1000001 0,0 -0.2,0 -0.2,0.2 -0.2,0.2 l -0.2,0.1 -0.6,0.2000001 c -0.2,0.1 -0.4,0.2 -0.5,0.1 a 10.6,10.6 0 0 0 -4,1.4000001 l -0.2,0.2 h -0.3 l -0.1,0.1 c 0.2,0.1 -0.1,0.3 -0.4,0.3 l -0.5,0.2 c -0.2,0.3 -0.5,0.2 -0.6,0 0,-0.2 -0.2,-0.2 -0.2,0 h -0.1 c -0.1,0 -0.1,0 0,0 0.1,0.1 0,0.2 -0.3,0.2 h -0.3 c 0,-0.2 -0.3,-0.3 -0.3,-0.1 0,0 -0.3,0.2 -0.4,0 h -0.4 c 0,-0.1 -0.2,-0.1 -0.2,0 0,0 -0.1,0.2 -0.4,0.2 -0.4,0.2 -0.6,0.2 -0.8,0 l -0.3,-0.1 -0.2,-0.2 c -0.4,0 -0.7,-0.2 -0.7,-0.3 l -0.5,-0.2 h -0.8 a 31.5,31.5 0 0 0 -5.4,0 l -0.3,0.1 c -0.2,0.3 -1,0.4 -1.1,0.2 l -1.4,-0.3 h -0.5 c -0.1,-0.2 -0.3,-0.2 -0.2,-0.1 h -0.1 l -0.7,0.2 c -0.6,0.1 -0.9,0 -1,-0.1 -0.1,-0.2 -1.4,-0.5 -1.5,-0.5 h -0.1 c -0.1,-0.3 -0.3,-0.3 -0.3,0 0,0.1 -0.3,0.3 -0.8,0.2 h -0.3 c 0,0.2 0,0.2 -0.3,0.3 a 2,2 0 0 1 -0.4,0 H 158 c 0,0.1 0,0.1 -0.1,0 l -0.3,0.2 h -0.2 c 0,0.2 0,0.2 -0.3,0.3 -0.5,0 -0.8,0 -1,0.2 -0.2,0.2 -0.4,0.2 -0.5,0.1 h -0.1 c 0,0.3 -1,0.5 -1.3,0.4 l -0.3,-0.1 -0.4,-0.1 h -0.2 c 0,0.2 0,0.2 -0.1,0 H 153 c -0.2,0.3 -1,0.4 -1.1,0.3 z m 14.5,-1 c 0,-0.1 0,-0.1 0,0 -0.1,0 0,0.1 0,0.1 v -0.2 z m -7.8,-0.5 c 0,0 0.1,0 0,0 0,-0.1 0,0 -0.1,0 -0.2,0.1 -0.1,0.2 0,0 z m -0.6,0 c 0,-0.1 0,-0.1 -0.1,0 -0.2,0 -0.2,0 0,0 z m 1.8,-0.3 h -0.3 c 0.1,0.2 0.3,0.2 0.3,0 z m 27.7,-2.1000003 v -0.1 h -0.2 v 0.2 z m 7.2,-4.0000007 h -0.1 v 0.2 l 0.1,-0.1 z m -75,-0.7000002 v -0.1 h -0.1 v 0.1 z m 63.1,-7.9000008 c -0.1,-0.1 -0.2,-0.1 -0.2,0 z"
     style="fill:#ff8402;fill-opacity:1"
     id="path10"
     clip-path="url(#clipPath21)"
     transform="translate(-0.04671212,-0.23076923)" />
</svg>
