<svg xmlns="http://www.w3.org/2000/svg" width="1255.1" height="181.3" viewBox="0 0 332.1 48">
  <g style="display:inline">
    <path d="M26.5 42.1a1 1 0 0 1-.5-.3c-.2-.2-.2-.2-.2 0l-.1.3c-.2 0-.7-.3-.8-.5l-.3-.2c-.3 0-.8-.3-.9-.5 0-.1-.1-.2-.3-.2l-.3-.2-.3-.3a.4.4 0 0 1-.3-.3c0-.2 0-.3-.2-.3s-.3 0-.4-.2c0-.2-.1-.3-.2-.3h-.2v-.6c-.2-.4-.2-.4-.5-.4-.3.1-.4 0-.5-.2v-.6c.2-.2.2-.2 0-.4a1 1 0 0 0-.6 0c-.4 0-.7-.2-.7-.5l.2.1c0 .2.2.2.2 0h.1l.2-.1c0-.1-.1-.2-.3-.2-.5 0-.7 0-.7-.2h.2s.1 0 0 0l-.2-.1-.2-.5c0-.6-.2-.8-.6-.7l-.2-.1c0-.1 0-.3-.2-.3-.2-.2-.2-.2 0 0h.4l-.3-.3c-1-1-1.3-1.6-1.2-1.8 0 0 0-.1-.2 0-.2 0-.3 0-.5-.4a4 4 0 0 1-.2-.7c0-.3-.4-.8-.5-.8v-.2L15 30c-.2 0-.3 0-.3-.2v-.2c-.2 0-.2 0 0-.2 0-.2 0-.3-.1-.2l-.2-.3c0-.2-.2-.3-.2-.3l-.4-.6c-.3-.6-.4-.7-.2-.8.2 0 .2-.1 0-.1-.3 0-.5-.3-.4-.5.2-.1.1-.2 0-.2l-.2.2h-.2c-.8-1-1.1-1.5-1.7-1.8l-.4-.4h-.2l-.8-.2-.6-.3H9c0-.2-.2-.2-.2-.2s-.7 0-1.5-.3l-2.6-.5c-.5 0-.8-.2-1.1-.5L3 22l-.2-.1-.3-.3c-.2 0-.3-.3-.3-.4 0-.1 0-.2-.3-.2-.1 0-.2-.1-.3-.5v-.7c0-.3-.1-.3-.4 0-.2.2-.2.2-.3-.1l-.1-.4-.2-.8c0-.3-.2-.7-.4-1-.2-.2-.3-.4-.2-.5-.3 0-.4-1-.2-1.4v-3.1l-.2-.6a58.4 58.4 0 0 0 .1-3.3c.1-1 .2-1.6.4-1.7L0 6.7c-.3 0-.3 0-.3-.6v-.7l.2-.1c0-.1 0-.2-.2-.2s-.1-.4.1-.7V4c-.1 0-.1-.3 0-.8l-.1-1.5c-.2-.6-.2-.9 0-1l.1-.9c0-.3.2-.5.2-.5l.3-.6c.1-.4.2-.6.4-.6.1 0 .2 0 .2.2h.8c.3.1.3.1.4-.1 0-.2 0-.2 0 0 .1.3.2.2.6 0l.5-.3.1-.1.2-.2.2-.1c-.1-.1.1-.1.6-.1l1-.1.5-.2c.3 0 .3 0 .3.2v.1L7.3-3c.1 0 .1 0 0 0v.4c0 .2 0 .2.2 0C8-3 9-3.3 9-3c.1.2.2.2.4 0 .4-.2 1.8-.3 2-.1h.3l.3.2c.6.4.7.4.7.2 0-.1 0-.2-.2-.2l-.1-.3c0-.3 0-.3.5-.3.7 0 1 .2 1 .3-.1.2.3 0 .6-.2.2-.1.2-.1.4 0l.3.2h.7c.2-.3.4-.3.4 0 0 0 0 .1 0 0h.2v-.4c.2-.2.3-.2.3-.1 0 .2.3.2.3 0s.1-.3.3-.3h.3l.1.2h.2c0 .4 0 .4.2.1.2-.2.3-.3 1-.3h.6l-.1.2.1.2c.2.1.3.2.4 0 .1 0 .1-.1 0-.2-.4 0-.3-.2.2-.2h.8c.4-.1.4-.1.4.2v.3l.2-.3c0-.3.3-.4.3-.1h.2c.1 0 .3 0 .4.2.2.1.2.1.2 0 0-.4.4-.4.6-.2.1.3.2.3.2 0V-4c.2 0 .9.6.9.7l.1.2s.1 0 0-.2l.3-.4c.4-.2 1.1-.3 1-.2 0 .3.1.3.4.1.4-.3 1.2-.3 1.4 0 .2.2.3.2.7 0 .4-.3.4-.3.5 0 .1.1.1.1.4 0 .2-.3 1-.3 1.3 0l.4-.2c.2-.3.3-.3.2 0v.2c.1.1.2 0 .2-.3h.3c.2 0 .3 0 .3-.2h.2c.1.2.2.2.2 0 .2-.1.4 0 .4.2 0 .3.3.6.5.5V-4c0-.2 0-.2.2-.1.3 0 .3 0 .2-.1 0-.4.3-.4.6-.2.2.2.4.2.4 0s.2 0 .3.3c.1.3.4.3.8 0 .3-.4.3-.4.2-.1l.1.2s.2 0 .2.2c.1.3.1.2 0-.2 0-.3 0-.4.2-.4l.3-.2c0-.1 0-.1.1 0h1.1l.3-.1h.6c.2 0 .4.2.4.3h.1c.1 0 .1-.1 0-.2-.1-.2 0-.2.5-.2h.8c0-.2.2-.1.3 0 .3.2.9.2 1.2 0 .1-.2.4 0 .4 0 0 .1.1.2.5.1.3 0 .5 0 .4.1v.3c.1.1.2 0 .3-.1l.2-.4h.2V-5c.2 0 .1 0 0 0-.2 0-.2-.1-.1-.2.2-.2.6 0 1 .4l.4.4v-.4c0-.4 0-.4.2-.3.2.2.7.2.8 0 0-.3.5 0 .5.3v.2c.2 0 .6-.5.5-.7v-.2c.2 0 .5.5.4.5l.1.2c.4.2.6-.1.3-.3-.2-.2-.3-.5 0-.5l.4.4c.4.4.6.5.5 0-.1-.2 0-.2 0 0h.4c.3-.3.8-.4 1.1-.2.3.2.4.2.5 0 .2-.2.2-.2.2 0l.1.4c.2 0 .5-.2.4-.4 0-.1 0-.2.2-.2l.4.1c0 .1 0 .2-.1.1l-.2.1c0 .2.1.2 1 .2.7 0 1.1-.1 1.1-.2 0-.2.5-.2.6 0l.8.1c.6 0 .7 0 .8-.2 0-.2.3-.3.3 0h.2c0-.2 0-.3.2-.3.1 0 .2 0 .2.2s.1.2.8.2h1l.4-.1.4-.1c0-.1 0-.2.2-.3h1.2l-.4.2-.5.1c0 .1.2.2.6.2.6 0 .7 0 .6.1v.3c.1 0 .3 0 .3-.3.2-.4.4-.6.8-.4l.5.1c.2 0 .2 0 0-.1-.1 0-.1-.1 0-.1l.2.1c0 .1.1.1.2 0 0-.2.1-.2.2 0l.1.3h1.6l1.8.1h.3l.6-.1c.4 0 .5 0 .4.2 0 .2 0 .2.3 0 .2-.3.2-.2.1 0-.1.5 0 .5.3.1 0-.2.2-.3.8-.3H73c1 0 1.4.1 1.3.4 0 .2 0 .2.2 0 .3-.2.5-.3 1.2-.3h.9c0 .2 0 .2.4 0 .3-.2.4-.2.5 0 .1.2.2.2.5 0h.5l.2.1c0-.1.2-.2.6-.2h.7a7 7 0 0 0 1.6 0c.1 0 .7 0 1 .2 0 .1.1.1.1 0l.8-.1a40.7 40.7 0 0 0 1.3 0l.1.2.1-.1c0-.2 1.2 0 1.4.1.1.2.2.2.2 0v-.2l-.2-.2.2.1c.3.2.6.3.8 0h.5c.1-.2.1-.1 0 .1 0 .3 0 .3.2 0 .3-.2.7-.2.7 0s.8.2 1 0c.1 0 .2 0 .2.2s0 .2 0 0c.1-.2.4-.3.8-.2h.4l.2-.1c0 .2 0 .2.1.1a12.5 12.5 0 0 1 3.1 0 16.8 16.8 0 0 1 3.8 0c0-.1.3-.2 1-.1l1.2-.1h.3l.4.1a61.5 61.5 0 0 1 8.2 0l.2.4c.1 0 .2 0 .2-.2 0-.3 0-.3.7-.3h.8l.3.2c.3 0 .3 0 0-.1-.2-.1-.2-.2 0-.2.3 0 .8.4.7.6.1 0 .2 0 .2-.2 0-.3-.1-.3 1.9-.2h2.1l.6.1h.3c.2-.2 1.7 0 1.9.2a159.6 159.6 0 0 0 7.5.2h.4c.2-.2.6-.2 1.3-.2a248.2 248.2 0 0 0 1.5.3c0 .2 0 .2.1 0 .2-.2 1-.3 1.5-.1h1.6c.5 0 .6 0 .6.2l.1.1.1-.1c0-.2 0-.2.2-.2.1 0 .3 0 .3.2s.3.2.4 0c.1-.2.6-.1.6 0l.1.3.1-.2c0-.2.4-.3.7 0h.1c0-.1.2-.2.4-.1h2.8l.8.2h.4l.4.1s.1.1.4 0h.7a81.2 81.2 0 0 0 3.7 0l.5.1h2.3l.3.3s.1.2.3.2c.3 0 .4 0 .3-.2 0 0 .1-.2.4-.2h.4c0 .1 0 .1.2 0h1c0 .1 0 .2.2 0h1.2a63.3 63.3 0 0 0 3 .2c.4-.2 1.3-.1 1.3.2 0 .2 0 .2.2 0 .1-.2.3-.3 1.2-.3h1c-.2.2.4.2.6 0l.4.1h.5c.3-.2 1.2-.1 1.9 0 .3.2.5.2.5.1 0 0 .1-.1.2 0h.2c.3-.3 1.7-.2 2 0 0 .2.2.2.2.1h.3l.3-.1c.1-.2.5-.2.4 0-.1.3 0 .3.3 0h.5c.5-.2.7 0 .4.3-.2.2-.2.2.3 0 .4-.3 1-.4 1.4-.1h1.2c0 .2.1.2.3 0h1.8l.5.1s.2 0 .3.2l.3.3v-.3c.2-.3.6-.4.9-.1h.2c0-.1.1-.1.2 0 .2.2.9.2.9 0 0-.1 0-.1.2 0v.3c0 .3.1.4.3.1.3-.3.8-.4.8-.1v.2c.1 0 .2-.1.1-.2 0-.2 0-.2.5-.2.3 0 .6.2.7.3 0 .1.1.1.1 0 .1-.2.3-.2.5 0s.2.2.3 0c.1-.4.2-.4.7 0h.5c.1-.2.2-.2.7 0h.8c.2 0 .3 0 .2.2 0 .2 0 .2 0 0 .2-.2 1-.2 1.3 0l.5.1c.2 0 .3 0 .3.2h.1c.2 0 .2 0 .2.2v.3l.1-.3c0-.4.2-.6.3-.4h.3l.4.2c.1.2.2.2.1 0l.1-.1h.2c0 .2.2.3.4.3h.5c.3-.3.6-.3.7 0h.7c0 .2.2.2.4.2l.4-.1c0-.1 0-.2.4 0h1.4c.2-.2.2-.2.2.1 0 .4 0 .4.2.1.1-.1.3-.2.7 0a9.9 9.9 0 0 0 2.3.2c.1 0 .1 0 0 .2h.3c.2-.2 1.1-.4 1.2-.3h.3c.3-.2 1 0 1.1.4h1.3c0 .1 0 .1 0 0-.1-.1.7-.4 1-.3l.9.1c.6 0 .7 0 .5.1-.2.2-.2.2 0 .4.2.1.2.1.2 0 0-.3.2-.7.4-.5l.8.2c1 0 1.8 0 2 .2h.2c0-.2 1.7-.2 2 0h.4c.3-.2.4-.2.6 0h.2c.1-.2.8-.2 1 0h1c.2.2.3.2.4 0h1c.2 0 .3 0 .4.2 0 .1.1.1.2 0s.2-.1.4 0c.2 0 .2.2.1.2v.2l.3-.1c0-.1 0-.2.2-.2l.2.1-.2.2h-.1c0 .2.4 0 .6-.1 0-.2.2-.2.5-.2h.3c0-.1 0-.1.2 0 .1.2.6.3.8 0l1 .1.5.1c.2 0 .5.1.7.4.3.4.5.4.5 0 0-.3.3-.3 2-.2l2.2.2c.8 0 1.1 0 1.3.2.2.2.6.3.6.1l.4-.1c.2 0 .3 0 .2.2v.3l.2-.1.7-.4.2.3c.1.3.6.3.5 0 0-.1.1-.2.4-.2 1.2 0 1.7 0 1.8.4 0 .1.2.2.4.1.2 0 .2 0 0-.2l-.2-.2h1.8c0 .2 0 .2.1 0h.6a143.3 143.3 0 0 0 1.6.2c-.2.3.1.4.3 0 .3-.3 1.2-.2 1.2.2l.2.3V.4c0-.3.2-.5.3-.2l.2.2s.1 0 0-.1c0-.1.1-.2.5 0l.5.1c0 .2.3.2.3 0s0-.2.2-.2.3.2.2.3c-.2.1-.2.4 0 .5.2 0 .2 0 .2-.2-.1-.2 0-.3.2-.4h1.2l.2.1c.4 0 .6 0 .5.2l.3-.1c0-.2 1-.3 1 0h1.4c1.4 0 1.5 0 1.5.2 0 .3 0 .3.1 0 .3-.3 1.4-.3 1.7.2.1.2.4.3.5.3.3 0 .3 0 0-.1-.4-.2-.3-.4.1-.4.3 0 .5 0 .7.2.1.1.2.2.3.1l.1-.3h.7c.8.2 1.4.3 1.5.1h1.5l1 .3h.3s.6-.2 1.4-.2c1.4 0 2-.1 2.2-.3h.5c.5.2.8.2.7 0 0 0 1.4 0 1.5.2h1.2c.2.2.2.1.2 0l.3-.1.3.1h.4c.2-.1.4-.2.5-.1l.7.1c.2 0 .5.1.6.3.3.2.7.2.7-.1 0-.1 0-.2.2-.2.7 0 1.5 0 1.6.2h.3c0-.1.2-.2.4-.1h.3c.2-.3 1.1-.2 1.5 0h.6l.2.1.2.1.1.1c0-.2.3-.2 1.5-.2 1.6 0 2.2.1 2.3.4h.2c.2-.2.3-.2.5-.1.1 0 .3.1.4 0l.1.1c0 .1.4.2.9.1h.7c0-.1 0-.1.2 0h.4c0-.1.2-.1.4 0 .5.1.9.1.9-.1 0-.3.4-.2.7 0 .3.4.4.4.8 0l.3-.2v.5c.2 0 .2 0 .1-.2 0-.2 0-.2.3-.1h.3l.4-.2.4.1.2.1.4.1c0 .2.1.2.4.1l.4-.2c0-.2.4 0 .4.1 0 .3.3.4.8.2.3-.2.3-.2.4 0 0 .3.1.4.2.4V2c0-.1 0-.2.3-.2l.3-.1c0-.2.1-.1.2 0s.3.2.5.1c.2 0 .5 0 .6.2.1.1.3.2.4.1l.2.1c0 .2 0 .2.6.1.8 0 1.1 0 1.1.2l.1.2.1-.2.1.1.2.4c0 .2.4 0 .5-.1v-.3l-.3-.1c-.2-.2-.2-.2.1-.1l.4-.1h.2v.3c-.4.2-.2.5.2.4.2 0 .5 0 .7.2.3.2.3.2.2 0v-.5c0-.1 0-.1 0 0h1.1c0 .2.3.2.7 0h.6l.4.2.2.2c.1.2.3.2.4.2l-.1-.3c-.3-.2 0-.2.4 0l.7.1c.3 0 .4 0 .4.2l.1.2.2-.2c0-.3.2-.3.3 0 0 .4.4.4.6 0 0-.3.1-.4.2-.2l.2.2c.1 0 .2.1.1.2v.2h.4c.1.1.3.2.4.1l.4.1c.1.1.3.2.4.1.3-.2.8-.1.8.1l.3.4.3.4c0 .1 0 .4.2.5l.2.8.2 2.6v.6c-.2.4-.3 2-.4 4 0 .8 0 1.1-.2 1.3-.2.1-.2.3 0 .5v.9l-.2.8-.1.5c-.2 0-.2.7 0 .6v.6c-.1 0-.1.2 0 .4l-.1.5-.2.6-.1 1.2-.2 2.6c0 1-.2 2-.3 2.5-.1.4-.2.8-.1 1l-.1.3v.3l-.3.7-.3.8c0 .2 0 .3-.2.3h-.6c0-.2-.1-.2-.1 0l-.3.1s-.2 0-.3.2h-.4c-.5-.3-1.3 0-2 .8-.5.4-.8.7-.9.6l-.4.4-.9.4-.7.1h-.7l-.4.2c-.3 0-1.7.4-2.2.7-.2.1-.4.2-.5.1l-.4.2-.6.4-.7.4-.5.3-.4.2-.5.8c-.5.4-.7.6-1 .5 0 0-.1 0 0 0 .2.2.2.4 0 .4l-.2.1h-.3l-.3.1.3.1c.2 0 .1 0-.1.3l-.6.2c-.2-.1-.2 0-.2.1v.2l-.1.2-.3.1c-.2 0-.3 0-.2.3 0 .2 0 .4-.2.5l-.2.2c.2 0-.4.8-.7 1l-.6.3-.2.3h-.7l-.8.1c0 .3-.6.3-.8.1-.2-.1-.2-.1-.2 0-.1.2-.2.2-.5.1l-.4.1c0 .1 0 .2-.2.2l-.2-.2h-.2c-.2.2-.3.2-.4 0h-.3c.2.1 0 .1-.6.1h-.7l-.1-.2-.2.1c0 .3 0 .3-.1 0-.1-.2-1-.4-1-.2l.2.1c.1 0 .1 0 0 .1s-.3.1-.4 0c-.1 0-.3 0-.4.2h-.9c0 .1-.7.2-1.6.2-1.3 0-1.6 0-1.8-.2-.1-.2-.1-.2 0 .1 0 .3 0 .4-.2.4-.1 0-.2 0-.1-.2h-.1l-.8.1-3.5.2c-.5 0-1.3-.1-1.5-.3l-.2.1c-.1.2-.7.2-1.9 0h-.6l-.2-.2c0-.1-.1-.2-.3-.2-.8 0-.8 0-.8-.3s0-.3-.2 0c-.1.4-.2.4-.4.3-.1-.1-.2-.1-.2 0 0 0-.9 0-1-.2l-1-.1c-.3 0-.4 0-.4-.2 0-.1-.1-.2-.3-.1-.3 0-.4 0-.4-.3v-.2l-.3.3c-.1.1-.7 0-.9-.2h-.3l-1.3-.3h-.5c-.6 0-.8-.3-.3-.4h-.5c-.8 0-2.1-.3-2.1-.4 0-.2-1.5-.6-1.7-.5-.2.1-.2 0-.2 0v-.3l-.2.2c0 .1 0 .1-.1 0l-.7-.2c-.3 0-.5-.1-.5-.2h-.6c-.3 0-.5 0-.7-.2 0-.1-.2-.2-.3-.1 0 0-.2 0-.3-.2-.2-.2-.3-.2-.6-.1h-.5c-.1-.2-.8-.4-.8-.3-.2.2-.5 0-.5-.3s0-.3-.1-.2h-.5l-.2.1-.3.1c-.4 0-.4 0-.3-.2.1-.2 0-.2-.2-.1-.3.1-.5 0-.8 0l-1-.2c-.6 0-1.4-.4-1.3-.7v-.2l-.1.3c0 .2 0 .3-.2.1 0-.1 0-.1-.1 0 0 .2-.2.2-.8 0l-1-.4-.8-.2c-.6 0-.9-.1-.8-.3-.1 0-.2 0-.2.2h-.3c-.2-.2-.3-.3-.2-.4h-.2c0 .2-.7 0-.8 0l-.5-.2c-.7-.1-1-.3-1-.4l-.2-.2c-.1 0-.3 0-.5-.2l-.6-.2-.6-.2-.6-.3h-.6c-.2 0-.3 0-.2-.2v-.1c-.2 0-1-.2-1.1-.4l-.2-.1c-.2 0-.3 0-.2-.2 0-.2 0-.2-.1 0-.2 0-.7 0-.6-.2h-.7c0-.2 0-.2-.2-.2l-.2.1-.1.1s-.1 0 0 0l-.3-.4c-.2-.1-.3-.2-.4 0l.2.2h-1.1c-1-.2-1.4-.3-1.5-.5 0-.2-.4-.2-.3 0l-.1.2-.2-.1s0-.1-.1 0c0 0-.4 0-.6-.2a4 4 0 0 0-1.3-.2c-.8 0-2-.4-2-.5l-.1-.1-.2.1-.2.1v-.1h-.5l-.6-.1c0-.2-.6-.4-.7-.2V30c0-.2-.1-.2-.2-.2 0 .1-.2.2-.5.2s-.3 0-.4-.2v-.3l-.3.3c-.2.2-.2.2-.4.1a.6.6 0 0 0-.4-.1 1 1 0 0 1-.5-.1c-.2-.1-.3-.2-.3 0l-1-.1-.4-.1-.2-.1s0-.1-.1 0c-.2 0-.3 0-.3-.2-.1-.3-.3-.3-.3 0 0 .2-.1.2-.5.2-.5 0-.6 0-.6-.3 0-.2-.3-.1-.4.1-.1.2-.2.2-.3 0h-.5a.5.5 0 0 1-.4-.3c0-.1-.1-.2-.1 0h-.1l-.4.2-.4-.1c-.2-.3-.3-.3-.2 0h-.3c-.6-.2-1-.4-.9-.6.1-.2-.1-.2-.2 0h-1c0 .2-1.3 0-1.5 0l-.2-.1-.7-.2c-.3-.2-.5-.2-.5 0h-.2l-.1-.1c-.1 0-.2 0-.2-.2h-.3c-.2.1-.2.1-.2 0h-.2c-.3.1-2.4-.2-2.6-.4 0 0-.2-.1-.4 0 0 0-.2 0-.1-.1 0-.1-.2-.2-.6-.2l-.8-.2-.6-.2c-.6 0-1.2-.1-1.3-.3-.1-.1-.4-.2-.8-.1h-1a3 3 0 0 0-.7-.2c-.6 0-.7 0-1-.4-.3-.3-.3-.3-.3 0 0 .1 0 .2-.2.2l-.2-.1c0-.2-.7 0-1 .1 0 .1-.1.1-.2 0h-.6l-.7.1-.8.3c-1.2 0-1.3 0-1.5.2h-.2c0-.2 0-.2-.2 0-.1.1-.6.2-1.3.2a1 1 0 0 0-.5.2h-.4c-.2.1-.4.1-.4 0h-.4v.2h-.5l-1 .2-.8.1a2 2 0 0 1-.9.2l-1.6.3a7 7 0 0 1-1.3.2l-.4.1-.5.4h-.8c0 .1-.2.3-.4.3s-.3.2-.3.2c0 .1-.1.1-.2 0v.1c0 .2-1.7 1-2 1 0 0-.2 0-.4.3l-.4.3-.1.1-.5.3c-.3 0-.5.2-.5.2s-.1.2-.3.2a2 2 0 0 0-.4.2c-.1.1-.3.2-.3 0h-.6c0 .2-.2.3-.4.4-.4.2-.4.2-.7 0l-.7-.2-.6-.2c0-.1-.1-.1-.2 0s-1.2.3-1.4.2c-.2-.2-.9-.2-1 0l-.8.1c-.5 0-.7 0-.8.2l-.2.1s-.2 0-.3.2c-.2.2-.3.2-.6.1h-1.2c-.3-.2-.5-.2-.3 0s.2.3 0 .3l-.3-.3c-.1-.2-.2-.2-.4 0-.4.2-1 .2-1 0s-.2-.3-.4-.3c-.3 0-.3 0-.2.2.2 0 .2.1 0 .1a1 1 0 0 1-.4-.2c-.2-.1-.4-.2-.5 0H149c-.9 0-1 0-1-.2s0-.1-.2 0c-.2.3-.5.4-.5.1-.2 0-.2 0-.1.1 0 .1 0 .2-.2.2 0 0-.2 0-.2-.2-.1.4-1.3.8-1.6.6-.1-.1-.2-.1-.2 0-.1.3-.6.3-.6 0l-.3.2c-.2.3-.3.4-.3.1 0-.1-.1-.2-.2-.1-.1 0-.2.1-.1.2l-.1.2-.2-.1-.2.1a1 1 0 0 1-.6.3 3 3 0 0 0-.7 0c-.2.1-.2 0-.2 0 0-.3-.6-.2-1 .2l-.4.2h-.2c0 .2 0 .2-.2 0-.4 0-.7 0-1 .2h-.3s-.2 0-.2.2h-.7c0 .2 0 .1-.2 0-.2-.3-.5-.4-.4-.1.1.3-.2.5-.6.3-.2-.1-.3-.1-.4 0-.1.1-.4.1-.8 0l-.5.1-.2.1-.2.1c-.2.3-.5.3-.6 0l-.2-.2s0 .2-.2.2c0 0-.2 0-.2.2-.1.3-.4.4-.5.1 0-.2-1 .2-1 .4s-.1.2-.5.2l-.8.1-.4.1v.1l-.3.2c-.2 0-.3 0-.3.2s-.3.2-.5 0c-.1-.3-.1-.2 0 0 0 .3 0 .4-.2.5-.2 0-.2 0-.2-.2s0-.2-.3-.2l-.3.1c0 .1 0 .3-.3.4-.5.2-.6.2-.4 0 0-.2 0-.2-.2 0s-.4.2-.7.1h-.7c-.3.2-.3.2-.2 0 .2 0 .2-.2.2-.3 0 0-.2 0-.4.3l-.4.2-.5-.1c-.4 0-.5 0-.4.1.2.2 0 .2-.5.2-.3 0-.4-.2-.4-.3 0-.3 0-.3-.5-.2-.3 0-.5 0-.6-.2h-1.2l-1-.2a2 2 0 0 1-.8-.2l-1-.3c-.6-.1-1.2-.3-1.4-.5-.2-.2-.6-.2-.6 0l-.2.2-.1-.3-.1-.4-.2.2-.6.1c-.4 0-.6 0-.7.2l-.3-.1a.5.5 0 0 0-.8 0l-.4-.2-.3-.2-.3.2-.3.1c0 .2-.9 0-.9-.2s0-.2-.2 0h-.3c0-.1 0-.2-.2-.2s-.3 0-.3.2l-.1.2-.1-.1c0-.1-.1-.2-.3-.1l-.7.1-2.8.4-.5-.1c-.2-.2-.2-.2-.3 0 0 .1 0 .2-.3 0l-.7.1s-.2 0-.3-.2c-.3-.3-.4-.3-.5-.1h-.6c-.1 0-.2 0-.2-.2 0-.1-.1-.2-.3-.2-.6 0-1.2-.2-1.3-.4 0-.4-3 0-3.6.3h-.2s-.2-.1-.4 0c-.2 0-.3-.1-.3-.2h-.1l-.1.3c0 .1-.2.2-.5.2l-.6.3H94c-.3 0-.4 0-.4.2s-.6.1-1 0c0-.2 0-.2 0 0s0 .2-.3.2l-.4-.1-.4-.2c-.3 0-.3 0-.4.2 0 .2-.2.2-.3.2h-.3c0 .2-.5.2-1.1.2h-1v-.1c-.2 0-.3 0-.4-.2 0-.2-.2-.3-.2-.3h-.2c-.1-.2-.2-.2-.2 0 0 .1 0 .2-.1.1-.1 0-.1 0 0 0l.2.2c.2 0 .2 0 0 .1 0 .1-.3.1-.4 0H86l-1.1-.2a34.3 34.3 0 0 1-1.3-.5l-.2.3-.2.1-.3-.1c0-.3-.2-.2-.3.1-.2.3-.2.4-.3.2 0-.1-.1-.1-.1 0l-.9-.1H81a1 1 0 0 1-.5.2l-.4.3s-.1.1-.2 0v-.1c.2 0 .2-.2.1-.2 0 0-.2 0-.3.2l-.3.3-.5.1c-.5.3-.6.2-.8 0 0-.2-.2-.2-.3-.1-.5.2-.7.2-1.2-.3-.3-.3-.5-.4-.6-.3-.2.2-.4.2-.3 0 0-.1 0-.1-.2 0s-.3.1-.4 0c-.2-.1-.2-.1-.4 0h-1l-.3-.1a2 2 0 0 0-.8-.2c-.4 0-.8-.2-1-.3-.1-.1-.4-.2-.5-.1l-.3-.1-.7-.2c-.2 0-.5 0-.6-.2l-.7-.2-.6-.1c0-.1-.3-.2-.7-.2l-.7-.2-1.3-.3-.1-.1h-1l-.2.1c.1.2 0 .2-.5.2l-.3.3c-.2.1-.4.2-.6.1-.2 0-.3 0-.2.1.2.2.2.4 0 .4-.3 0-1 .6-1.3 1a4 4 0 0 1-.6 1c-.2.1-.2.3-.1.2 0 0 .1 0 0 0l-.2.2h-.1l-.4.7c-.4.4-.4.4-.7.3-.3 0-.4 0-.6.2-.2.2-.3.3-.4.2-.1-.1-.2 0-.4.1-.2.2-.3.3-.4.2 0-.2 0-.2-.2 0l-.4-.1c-.2-.2-.2-.2-.2 0s0 .3-.2.3l-.3-.1c0-.3 0-.3-.2 0l-.5.2-.4.1c-.2.2-.9.3-.8 0h-.5c-.3.2-.3.2-.4 0-.2-.3-.6-.3-.5 0 .1.2 0 .2-.8.1l-1 .1c0 .2-.6.1-.9-.2-.2-.2-.2-.2-.3 0-.1.2-.2.2-.3 0 0-.1-.4.1-.4.4 0 .2 0 .2-.2 0h-.7c-.3-.4-1.3-.2-1.3.2h.2c.2-.3.5-.3.5 0l-.6.3-1.5-.1h-.2c-.3.3-1.2.4-1.2.2l-.3-.1a3 3 0 0 1-1.4-.6l-.7-.4c-.3 0-.6-.2-.6-.3 0-.1-.1-.2-.2-.1l-.8-.4-1-.5-.5-.1-.4-.1-.4-.1s-.2-.1-.4 0c-.2 0-.4 0-.5-.3-.3-.5-.5-.5-1-.4a1 1 0 0 1-.8 0c-.3 0-.3 0-.2.2.2.2.2.2 0 .3a1 1 0 0 1-.5.2c-.3 0-.6.3-.5.7 0 .3 0 .3-.2.1-.2-.2-.2-.2-.1 0v.2l-.2.1v.1l-.8 1.1h-.3c-.2-.2-.2-.2-.2 0s-.1.2-.5.2l-.6.1-.3.2-.5.1c0 .1-.1.1-.1 0l-.3.2c-.2.2-.2.2-.3 0 0-.2 0-.2-.2.1-.1.3-.5.4-.4.1l-.1-.1-.1.2c0 .2-.4.5-.5.3h-.3c-.3.4-.8.5-1.4.4zm234-.7-.2-.2s-.1 0 0 0c0 .2.2.3.2.2zm-1.2-.4-.2-.2-.1.2v.1l.3-.1zM46 40.4l-.3-.1c-.2 0-.2 0 0 .1.2.2.4.2.3 0zm11-1.7v.3-.3zm.5 0-.1-.3c-.3 0-.3 0-.2.3.1.2.3.2.3 0zM22.1 38H22s-.1 0 0 .1v.1l.1-.1zm4.4-.8a.8.8 0 0 0-.3 0c-.1 0 0 0 0 0l.3.2c.1 0 0-.1 0-.2zM81.9 36h-.3.4zm26.2-.5h-.1c-.1 0-.1 0 0 0v.2l.1-.2zm125.3-.2h-.2c-.1 0-.1.1 0 .1h.2zm-2.6-1.2-.2-.2v.2h.2zm-108.2-.4-.2-.3c0-.3-.2-.5-.4-.3l.2.5c.2.3.3.4.4.3.1-.1.1-.2 0-.2zm144.1 0v-.4c-.2-.2-.1-.2.1-.2l.4.1.2.1c.2-.1 0-.5-.3-.4l-.6-.1c-.4-.2-.5-.1-.7 0-.2.1-.4.2-.5.1 0 0-.2 0-.2.2 0 .3-.2.2-.4-.2-.3-.5-.7-.8-.8-.6 0 .1-.2.1-.4 0h-.7l.6.4.5.3s-.1.1-.2 0h-.7c0 .1.3.2.7.2l.8.2c.5.2.7.2 1 0 0 0 .2 0 .2.2.1.2.9.2 1 0zm-4.6-1.5h-.2v.2h.2v-.2zm-31-1.2a2 2 0 0 0-.8-.2h-.4l.2.1c-.3 0 .4.3.9.3.3 0 .3 0 .1-.2zm-17.7-1.2-.1-.1h-.2c0 .2 0 .2.2.2v-.1zm54.8-1.3-.4-.3h-.1c.2 0 .2 0 0-.2-.3-.2-.4-.2-.3 0l-.2.2h-.2c0-.2 0-.2-.2-.1h-.7c-.3-.1-.3-.2-.3-.5.1-.3 0-.4 0-.4h-.2c0-.1-.1-.2-.3-.2h-.8l-.6.2c0 .1.1.2.6.2l.6.1c0 .1 0 .1.2 0 .2-.2.3-.2.3 0 0 .3-.2.4-.8.4l-.4.1.3.1c.2 0 .3.1.3.2s.2.1.4 0c.4-.2 1.1 0 1.1.1h.3l.4.1c.2.2 1 .1 1 0zm-4.9-.5h-.3c-.1 0-.3 0-.2.1l.5-.1zm4-.4c0-.2-.1-.3-.3-.3-.4-.1-.6 0-.3.3.4.2.4.2.5 0zm15.3-5c0-.2 0-.2-.2-.2s-.3 0-.2.1l.2.1h.2zm-211-.2c-.1-.3-.7-.3-.7 0l.4.1c.2 0 .3 0 .2-.1zm210.3 0c-.1-.2 0-.3.2-.3l.4-.2c0-.2-1.3-.4-1.8-.4h-.6s-.1-.1-.2 0h-1.2c0-.2 0-.2-.3-.1h-.4l-.2.2c-.2.3-.2.3-.5-.1-.2-.2-.4-.5-.3-.6h-.2c0-.1-.1-.2-.2-.1v.3c.2.1 0 .1-.4.1s-.6 0-.7-.2c-.2-.2-.2-.2.1-.1h.4c0-.1-.2-.2-.5-.2-.4 0-.6 0-.8.3-.3.4-.3.4-.5.1-.2-.1-.3-.1-.4 0h-2l-.3-.1-.2-.1s-.1 0 0-.1c0-.2-.2-.3-.5-.3-.2.1-.3.2-.2.3l.2.4a96.9 96.9 0 0 1 2.6.3c-.1-.2 0-.2.1 0 .3.3 1.3.3 1.1.1h.2c.2.2.4.2.7 0l.6.1c0 .2.2.2.6 0h.4l.4.3h.6c.4-.3.6-.3.5-.1 0 0 .1.2.3.2h.4c.2.2 1.6.4 2.3.4.3 0 .4 0 .3-.2zm-206.7-.2a7 7 0 0 1 1.3-.2c1 0 1.3 0 2.9-.3 1.2-.1 1.7-.6.7-.6-.2 0-.3-.1-.3-.2h-.3c0 .2-.2.2-.6.2-.5 0-.7 0-.9.2-.3.2-1.3.4-1.3.2h-1.3l-2.2.4c-.1 0-.1.1 0 .1a4 4 0 0 1 1.4.3h.6zm208.4-.2h-.2c-.1 0 0 .1 0 .1h.2zm-13.5-.8h.5l-.5-.1-.4-.2h.3c.6 0 .4-.4-.2-.3l-.6-.1c-.2-.2-1.2-.2-1.3-.1l.2.2s0 .1-.1 0l-1 .3.8.1 1 .2h1.3zm10.5 0h-.4c0 .1 0 .2.2.2l.2-.2zm-237 0c.2-.3-.1-.4-.3-.2v.2h.4zm234-.2-.2-.1-.1.1c0 .2.2.2.2 0zm.4 0c0-.1 0-.1 0 0v.2-.2zM45.6 21c0-.2-.2-.3-.3-.3-.2 0-.2 0 0 .1l.2.2.2.1V21zm2.6-.5h-.3.3zm3-.2c0-.2 0-.3-.3 0-.2.1-.2.3 0 .3l.3-.3zm1.1 0c.2-.2.6-.3 1.4-.3h1.2c.2 0 .3-.3 0-.5-.2-.2-.8-.1-1 .2l-1.1.2-1.2.1c-.2.1-.2.1 0 .4.4.2.4.2.7 0zm211.3 0s0-.1-.4 0h-.4l.3-.1c.4-.2.4-.2.1-.4a.8.8 0 0 0-.5 0c-.3 0-.3.3-.1.3.1 0 .1 0 0 .2-.2.2-.1.2.4.2l.6-.1zm3.5 0c.1-.2-.8-.4-1-.3v.3c.2.2.8.1 1 0zm.5 0h-.2l.1.2v-.2zm-6.7-.3s0-.2.2-.2c0-.2-.3-.2-.5-.2-.5 0-.8.2-.4.2.1 0 .2.1.1.2 0 .1 0 .2.2.2.3.1.4 0 .4-.2zm4 .1c0-.1-.7-.3-.7-.1l.6.2V20zm-6.4-1h-.2v.2l.2-.1zM226 18c.2-.2.2-.2-.3-.2-.6 0-.6 0-.4.2l.4.1.3-.1zm2.3 0c-.2-.1-.2 0-.2 0l.1.1h.1zm61-1.2v-.6c0-.3-.2-.4-.5-.5-.2 0-.3-.1-.3-.2l-.1-.1c-.2-.1 0 1.2.1 1.4.2.2.8.2.9 0zM89.6 16c.1-.2 0-.2-.2-.1l-.6.2c-.4 0-.3.3.2.2.3 0 .5-.1.6-.3zm2.4-.1h.3c0-.1 0-.2.3-.2.2 0 .3 0 .2-.2v-.3l-.3-.1c-.2 0-.3 0-.3.2l-.3.4c-.3 0-.4.2-.4.3 0 .1 0 .1 0 0 .2-.1.3-.2.5-.1zm191-.2-.2-.1c-.2 0-.3.1-.1.3 0 0 .3 0 .3-.2zm-188.7 0-.3-.1-.4.1s.2.1.4 0h.3zm1.4 0c.1 0 .1 0 0-.1-.1-.2-.5 0-.5.1s0 .1.2 0h.3zm186-.2c0 .2.7.3.7.1l-.8-.6c-.2-.1-.3-.1-.2 0h-.5l.3.2c.2 0 .3 0 .3.4 0 .3 0 .3 0 0 .1 0 .2-.1.2 0zm-239.1-.3c-.2-.2-.6 0-.6.3 0 .2 0 .2.4 0 .2-.1.2-.3.2-.3zm241.7.2c0-.1-.4 0-.4.2h.3l.1-.2zm9 0 .1-.2c.2 0 .2 0 0-.2-.1-.3-.5-.4-.4-.1v.2c-.3 0-.2.3 0 .5.4.2.4.1.3-.1zm-203.4 0h-.5l.3.1h.2zm-1-.1c0-.3-.2-.5-.6-.3-.3.1-.3.1 0 .3.2.2.5.2.6 0zm7.4 0-.1-.2s-.1.2 0 .2c0 .2.1.2.1 0zm-6.7-.2c0-.1 0-.2-.3-.1-.3 0-.3 0 0 0l.2.2.1-.1zm193.1-.1h-.2c-.1 0-.1 0 0 0h.2zm-113.4-1.7.1-.2c.2-.1.2-.3-.1-.2-.1 0-.2.1-.2.3l.1.3.1-.2zm-6.8 0h-.1c0-.1-.1-.1-.1 0v.1h.2zm3.4-.3h-.5c0 .3.6.4.7.2l-.2-.2zm4.7.2.5-.3h-.4c-.5 0-1 0-1 .3s.4.3 1 0zm3.7-.3-.2-.3v.3l.2.3v-.3zm2.4-.5c-.3-.2-.4-.2-.3 0l.3.1c.2 0 .2 0 0-.1zm-.6-.1-.2-.2v.2h.2zm-1.8-.4c.5-.3.5-.3.3-.5s-.2-.2-.3 0c-.1 0-.2.1-.2 0v-.2c.2-.2.2-.3-.1-.2-.2 0-.4.1-.4.3 0 .1-.1.2-.3.1h-.2c0 .2.4.4.7.4.1 0 .1 0 0 0l-.2.4c0 .2.3 0 .7-.3zm53.6.2c0-.1-.3-.2-.8-.1l-.2.1c.1.2 1 .1 1 0zm.7 0h-.5c0 .2.2.2.5 0zm-2.3 0c0-.2-.3-.2-.7-.2-.4 0-.5 0-.4.1.3.2 1.2.2 1.1 0zm-58.6-.3v-.2c-.2 0-.2-.2 0-.4.1-.2.3-.1.3.1v.2l.1.2.2.1c.2 0 .2-.2.2-.5l-.1-.5s-.2-.2-.5-.2-.4 0-.3.2v.2c-.2 0-.2 0-.3-.2h-.1v.2c.2.2.2.2 0 .2l-.4-.2c0-.2-.2-.3-.2-.2 0 .2.5.7.6.7h.2c-.1.5.1.7.3.3zm7.8-.3c0-.3 0-.5-.3-.5-.1 0-.2 0-.1.1v.1l-.2.3c0 .1 0 .3.2.3h.2l.1.2.1-.5zm3.4.4.1-.2c.2 0 0-.3-.2-.3l-.2.1c0 .1 0 .1-.2 0h-.3c-.3.2 0 .3.8.5v-.1zm-12.2 0v-.3c-.1-.2-.2-.2-.4-.1-.3.2-.3.4.1.4h.3zm13.9-.1v-.2c-.1 0-.2 0-.2.2h.2zm-52.5-.2-.2-.1-.3.1.2.2.3-.2zm12.4 0c0-.2-.1-.2-.3-.3-.3 0-.4.1 0 .2l.2.1zm4-.4c.1-.5 0-.6-.9-.6-.3 0-.5 0-.5.2 0 .1 0 .2.2.2l.2.1h-.5c-.6 0-.9.2-.4.4l1.1.1h.9zm25.9.2c0-.1 0-.2-.2-.2-.3 0-.5.2-.3.3.1.2.4.1.5 0zm5.9 0-.4-.3c-.3-.1-.2-.1 0 .2l.4.2c.1 0 0 0 0-.2zm-15-.1h-.2c-.2.2-.1.2 0 .1l.2-.1zm10 .1h-.3.2zm-61.6-.2c0-.2-.3-.3-.7-.2-.3 0-.4.2-.1.3.3.1.8 0 .8 0zm18 0-.1-.2c-.2 0-.3.1-.1.3.1.1.3 0 .3-.1zm14 0s0-.2.2-.3c.2-.1.2-.2-.3-.2a19.4 19.4 0 0 0-1.8-.1h-.8c0 .3.5.5 1.3.5l.8.1c.4.2.7.2.6 0zm35.2-.2h-.4c-.2.2-.2.2 0 .2.3.2.7 0 .4-.2zm1.8.2c.1-.1 0-.2-.1-.2s-.2 0-.2.2.1.2.3 0zm-52-.2c.2-.1.2-.1 0-.1l-.3.1v.2c.1 0 .3 0 .3-.2zm45.7.2v-.4c-.2-.3-.3-.2-.4.2 0 .2.2.3.4.2zm7.6 0c0-.2-.2-.2-.4-.2l-.4.1.4.1h.4zm-18-.3c.2-.1.2-.2 0-.2l-.3-.1h.3c.2 0 .3 0 .1-.2h-.4a1 1 0 0 1-.4.2c-.2 0-.3.3 0 .4h.6zm3.4-.3v-.4.1l-.4.2c-.2 0-.2 0 0 0v.4c0 .2 0 .2.1.1l.3-.4zm1 .3c0-.1-.1-.2-.2-.1-.2 0-.3.3 0 .3l.1-.2zm3.8.1h.3c.2 0 .2 0 0-.1-.3-.1-.7 0-.7.1l.2.1.2-.1zm-7.2-.3.1-.2v-.2c-.2 0-.6.5-.6.6h.2c0-.2.2-.2.3-.2zm.7.2-.1-.2c-.1 0-.2 0-.1.2h.2zm2-.1-.1-.2s-.2 0-.2.2.3.2.3 0zm3.3 0c0-.1 0-.2-.2-.2 0 0-.2 0-.2.2s.3.2.4 0zm-41.2 0-.2-.1h-.1l.1.2.2-.1zm14.9 0h-.3.2zm133-.1-.2-.1h-.2l.2.1h.2zm-135.3-.4h-.3.2zm.6-.2h-.4l.2.1h.2zM52 9h-.4.4zm195.8-1.3h-.3l.2.1h.1zm-88.2-.1c0-.2-.1-.2-.4 0-.1 0-.1 0 0 0h.4zm1.3-.4h-.3c-.1.2 0 .4.2.3.2 0 .2-.1 0-.3zm-2 .1c-.3-.1-.4-.1-.4 0l.3.1h.1zm-3.8-.4c0-.2-.4-.2-.4 0 0 .1 0 .2.2.1l.2-.1zm.5-.4c.5-.1.4-.3-.2-.3-.5.1-.6.2-.4.3.3.2.2.2.6 0zm.8 0v-.2l-.2.1.1.1h.1zM155 6h.1s.1 0 0-.2l-.1-.4c-.1 0-.2 0-.1.2 0 .2 0 .3-.5.3l-.4.1s0-.1 0 0l.5-.1.3-.1-.3-.2-1-.2-.6-.1c0-.2 0-.2-.2 0l-.1.4c0 .3.1.4.5.5.6.2 1.9.2 1.9 0zm-.3-.8-.1-.2s-.1 0 0 .2h.1zm134-2.2h-.2v.2l.2-.1zm-4-1-.1.2v.2-.3zm-102.3-.3c.2-.2-.2-.4-.5-.3a3 3 0 0 1-1 0c-.4-.2-.7-.2-.7-.1l-.3.2.2.1.7.3c0 .1 1.4 0 1.6-.2zm2.3 0h-.3c-.2.1-.1.1.1.1.3 0 .3 0 .2-.1zm85.7-.2v-.2c-.1 0-.2 0-.2.2h.2zm-9.7-.4V1l-.2.2v.2c.1 0 .2 0 .2-.2zm-20-.4c-.2-.2-.4-.2-.3 0 0 .2.2.2.2.2s.1-.2 0-.2zm-9.5-.5c0-.1 0-.1 0 0v.2-.2zM45-.4l1.4-.3h-1.7a94.6 94.6 0 0 1-1.2.3H45zm9.8 0c-.1 0-.1 0 0 0 .1-.1.4-.2.6-.1.4 0 1.2-.2 1-.4-.1-.1-.7-.2-1.5 0-.8 0-.9.1-.6.4h.4c.1-.2.2-.1 0 0zm163.1 0-.1-.2c-.1 0-.2 0-.1.1l.1.1h.1zM47.5-.8c.2-.1.2-.2 0-.2-.3-.2-.7 0-.8.1 0 .2.4.2.8 0zm6.4 0V-1l-1 .1c-.1.1 0 .2.5.2l.5-.1zM48.6-1l-.2-.1-.4.1c-.1.2.3.2.6 0zm155.6-.4h-.2v.2c.1 0 .2 0 .2-.2zm-153 0v-.2l-.2.1v.1h.2zm147-.3-.2-.2c-.1 0-.2 0-.1.2h.3zM184.8-2v-.4h-.3l.1.2v.5s.2-.1.2-.3zm4.3-.1s0-.2-.2-.2h-.3s.1.1.2 0v.2l.2.1.1-.1zM29.3-2.7h-.2v.2c.1 0 .2 0 .2-.2zm152.6 0h-.2c-.1 0-.1 0 0 0 .2.2.3.2.2 0zM8.7-2.7c0-.2-.1-.3-.3-.3l-.1.2c0 .2.4.2.4 0zm2.2 0v-.1c-.3 0-.3.1-.2.1h.2zm2.5-.5-.2-.1-.1.1c0 .1 0 .2.2.2 0 0 .1-.1 0-.2zm6.3-.2-.1-.2-.2.2.1.1.2-.1zm5.9 0-.1-.2-.2.2.2.1v-.1zM19-3.7v-.1l-.2.1v.1h.2zm134.5 0-.2-.1-.2.1.2.1.2-.1zm-8.8-.1-.2-.1h-.1l.1.2.2-.1zM133.2-4l-.2-.2-.1.2h.3zm-60.6-.4v-.1h-.2v.2l.2-.1zm46-.5c-.3 0-.4.2-.2.4s.3.1.4 0c.1-.3 0-.4-.1-.4zm-24.4.3-.1-.1h-.2s0 .2.2.2v-.1zm-47.5-.2-.2-.1v.1l.1.1v-.1zm79.8 0c0-.2-.2-.2-.3-.2l.1.2h.2zM70.7-5l-.1-.2-.2.2c0 .1 0 .2.2.2V-5zm-20 0v-.2l-.2.1v.1h.2zM21 38.5l.1-.1.1.1v.1H21zm72-2.2h.2c0 .1 0 .2-.2.2-.1 0-.2 0-.2-.2zm21.6-.3v-.2s.2 0 .2.2h-.2zM15.9-4h.1s.1 0 0 0v.2l-.1-.1zm27-1.2v-.1l.2.1v.1h-.2zm22-.5c0-.1 0-.1.1 0l.2-.1.1-.2c.2 0 .1.3 0 .4l-.3-.1zm14 0 .2-.1s.1 0 0 .1v.1l-.1-.1zm-20.5 0c0-.1.2-.1.2 0h-.2z" style="display:inline;fill:#ffb9ad;fill-opacity:1;stroke-width:1.509" transform="translate(.4 5.9)"/>
  </g>
  <path d="m303.2 22-.1-.1-.1-.2c0-.2-.1-.2-.2-.1-.1 0-.1.1 0 .1.2.1 0 .2-.3.2h-.4c0-.2 0-.2 0 0h-.5c0-.1 0-.1 0 0h-.3c-.1-.2-.3-.2-.3-.2h-.2l-.3-.1h-.2l-.1-.2s-.3 0-.4-.2a1 1 0 0 0-.5-.2h-.1c0-.1-.3-.3-.5-.3l-.7-.4h-.5l-.4-.2h-.2l-.5-.1-.5-.2h-.4c0-.1 0-.2-.3-.1l-.5-.1a1 1 0 0 0-.4-.1s-.2 0-.3-.2a.9.9 0 0 0-.5 0c-.6 0-.8 0-.8-.3l-.1-.1-.2.1c-.2.2-.2.2-.6.1l-.4-.1h-.2c-.2.1-.9 0-1-.3l-.1-.2s-.1 0 0 .2l-.2.1h-.5c0-.2-.5-.1-.7 0l-.2-.1c0-.2-.1-.2-.4-.1h-.8c-.5 0-.5 0-.4.2h-.3c-.2-.2-.3-.2-.4 0h-.7c-.2-.1-.3 0-.2.2.1 0 .1.1 0 .2-.1-.2-.1-.2-.2-.1h-.5c0-.1-.1-.1-.4 0l-.3-.1-.2-.2a.8.8 0 0 1-.3-.2l-.3-.2c-.1 0-.3 0-.4-.2l-.3-.3c-.2 0-1-1.3-1-1.5h.1V16c0-.4.1-.7.3-1l.2-.4c0-.1 0-.4.2-.6l.3-.6.2-.2.1-.2.1-.2c.1 0 .2 0 .2-.2l.2-.2s.2 0 .3-.2c.4-.4.7-.5.9-.3 0 0 .1-.2.3-.2l.3-.2c0-.1.1-.1.2 0 .2 0 .2 0 0 0v.2s.4 0 .7-.2h.3l.3.1.3.2.3.1.2.3.4.4h1.2c0 .1 0 .2-.2.2s-.2 0 0 .1h.5v-.1l.2-.1c-.1-.2.1-.3.4-.2h1.2l.6.3h.3v.1c0 .2.1.2.3 0h.3l.4.2.9.2h.5l1 .5c0 .1 0 .2.2.1h.3c0 .1 0 .1.1 0h.2l.4.2c.4 0 .5.1.3.2v.1h.2c.2-.2.8-.2.9 0h.3c0-.1.4-.2.5 0h.2c.2-.2.6-.3.7-.2.1.2.2.2.4 0h1.2c.1.2.2.2.3.2l.2-.2c0-.2.1-.2.2 0l.1.2.4-.1c.4-.2.9-.1.9 0h.2c.2 0 .3.1.3.2h.2l.4.1h.3s.2.1.4 0l.5.1h.5l.3.1v.1h.3c0 .1 0 .2.1.1.3 0 .7.1.7.3 0 .1 0 .1 0 0 .2-.1.4-.2.4 0l.2.1v.1h1.3l.1-.1c0-.2.4-.2.8-.2h.3s.1-.1.2 0c0 0 .1 0 0-.1h.3c.1 0 .2.1.2 0h.6c0 .2.4.1.5 0 0 0 .1-.1.1 0h.6v.1c0 .2 0 .2.2.2l.3-.1h.3c.3 0 .3 0 .3.2l.2.3c0-.3.1-.4.7-.4h.5c-.1 0-.1.1 0 .2l.4-.1h.2l.4-.2a31.5 31.5 0 0 0 1.8 0c.1 0 .1 0 0 0 0 .2 0 .2.3.2h.7-.2l-.2-.2h.3l.1-.1c0-.2.3-.1.5 0 .1.2.3.2.2 0-.1-.2.2-.4 1.1-.5l.4-.1c0-.1.8-.4 1-.3 0 0 .3 0 .5-.2l.6-.1.5-.1c.2-.2 1-.2 1 0h.4s.2 0 .3-.2c.1-.2.1-.2.1 0l.2.1.1-.2.1.1c0 .1 0 0 .2 0 .1-.2.2-.2.3-.2h.8l.7.2h.4v.2h.3l.1.2c.1 0 .3 0 .4.2.1.2.3.3.3.2.1 0 .5.2.5.4h.1c.3 0 .7.4.8.6.2.5.3 1 .2 1.3l-.2.3v.3c0 .3-.1.4-.3.5l-.2.3s-.7.6-.9.6l-.1.1h-.2c-.2-.1-.2-.1-.1 0 0 0 0 .1-.1 0l-.1.2-.2.2h-.3v.1c0 .2 0 .3-.6.6l-1.3.4-.2.1h-.2l-.3-.2c.2.2.1.3-.1.3h-.6c0 .1-.2.2-.5.2l-.5-.1c0-.2-.2-.2-.2 0s-.2.2-.2 0l-.3.1-.1.1c0 .1 0 .2-.3.2s-.4 0-.5-.2c0-.2 0-.2 0 0l-.4.2c-.2.1-.3.1-.2 0h-.1l-.1.2h-.1c-.2-.2-.4-.2-.3 0l-.1-.2c0-.1 0-.2-.2-.2l-.1.2c0 .1-.1.2-.2.1-.1 0-.1 0 0-.1 0 0 0-.1-.2 0l-.5-.1h-.7l.2.1c.3.2.3.3 0 .3h-.4c-.2.1-.3 0-.4 0h-.3c-.2.1-.5 0-.3-.2v-.1h-.3l-.4.5v-.2h-.5s-.1 0 0 0c0 .2-.2.3-.3.2h-.6c-.2 0-.3-.1-.2-.3 0 0 0-.1-.4 0 .2.2 0 .3-.2.2h-.5l-.2.1c-.2.3-.5 0-.5-.3v-.1l-.2.2h-.1l-.2.1c0 .2-.3.2-.3 0l-.5.1-.3.2c-.2 0-.2 0-.2-.2s0-.3-.2-.2l-.3.1c-.1 0-.2 0-.2.2l-.3-.2-.3-.4h-.4c-.1 0-.2 0-.1.1 0 .2 0 .3-.2.1h-.1c0 .2.2.5.4.4h.5l-.1.2c-.2.1-.6 0-.7-.1h-.8l-.3.1c-.3 0-.3 0-.3-.2l-.1-.4c-.2-.1-.2-.1-.2 0l-.1.1-.1.3c0 .2 0 .2-.3.2l-.3-.1c0-.1-.8-.1-.8 0h-.3l-.1.1-.1-.1-.1-.2v.2c0 .2-.2.2-.3 0 0-.3-.2-.4-.2-.1 0 .2-.2.2-.3 0 0-.1 0-.1 0 0l-.2.1-.2.1c0 .1 0 .1 0 0h-.5l-.1.1h-.1l.1-.3c.1 0 .1 0 0-.2h-.1c0 .1-.2.2-.4.1-.3 0-.3 0-.3.4l-.1-.1c-.1-.1-.1-.1-.2 0s-.1.1-.3-.1l-.2-.3v.3c0 .2 0 .4-.2.2zm5-.6c0-.1 0-.2 0 0v.1-.1zm1.6 0c.2-.1.2-.2 0-.1 0-.1-.1-.1-.2 0 0 .1.1.2 0 .2h.2zm-3.7 0c0-.2 0-.2-.2-.1-.3.1-.3.2 0 .2l.2-.1zm7.3-.1.1-.2s-.3 0-.3.2 0 .2.2 0zm-13.2-.1v-.3h-.1v.3h.1zm16.7-.1c0-.2 0-.2-.2 0-.2.1-.2.1 0 .1l.2-.1zm5.8-.4c0-.3-.2-.3-.4 0 0 .2 0 .2 0 0h.2c.1.3.2.2.2 0zm1-.3c-.2 0-.3.1-.2.2l.2-.2zm-4.7 0c.1-.1.1-.2 0-.2v.2h-.1.1zm5.2 0h-.2.2zm3.2-.2V20c-.1 0-.1-.1 0-.2h-.2c-.2 0-.2.1-.1.2.1.2.2.2.3 0zm-25.4-1c.2 0 .2-.1 0-.3-.2-.1-.4 0-.4.3 0 .1 0 .1.1 0h.3zm22.7-.7c.2 0 .3-.2.2-.3l-1 .3s.2.1.4 0h.4zm4.7 0h-.1v.1zm-2-2.7h-.3.2zm-17.2-.4h-.1.1zm-7.5-.7c-.1-.1-.2-.1-.2 0h.2zm-6.7-.4v-.1h-.2l.1.1h.1zm27.6-.2h-.2l.1.1h.1zm1 0V14h-.1v.1h.1zm-30-.3c.1 0 0 0 0-.1h-.1c0 .2.1.2.2.1zm-3-.8v-.1h-.1v.1h.1zm21.8 8.8c-.1-.1-.1-.1 0-.1h.1c0 .2 0 .2-.1 0zm7-.7h.2l-.1.1h-.1zm-34.2-2 .2-.1v.1h-.2zm-163-.1-.2-.3c-.3 0-.4-.2-.4-.8V17c0-.6-.1-.7-.2-.8-.1 0-.2-.2-.1-.6l.1-.7c.1 0 .1-.1 0-.2l.2-.6.2-.7.2-.2.2-.4.4-.5c.2 0 .2-.2.2-.2l.2-.4s.3 0 .5-.2l.4-.1.4-.2c.1-.1.3-.2.4-.1h.4a36.1 36.1 0 0 1 1.3 0h.3c0 .2.1.2.2 0l.2-.1h.1c.1-.1.2-.2.3-.1h.2l.4-.2h.6l.3-.1h.4c0-.2.6-.2.6 0h.1c.1-.1.3-.2.5-.1h.2c-.2-.1-.2-.3 0-.2h.3c.1-.1.3-.1.4 0 .2 0 .4 0 .7-.2l.4-.2h.2l.2-.1h.3l.4.1c0 .1.3 0 .3-.2s0-.2.1 0c.2.1.2.1.2 0s.1-.2.5-.1c.1 0 .2 0 .3-.2h.7c.1.1.1.1.2 0 0-.1.4-.3.7-.3h.7c0-.2 1.1-.4 1.5-.3l3-.1s.3 0 .2.1h.2c.1 0 .1 0 0 0l.1-.2h.4v.2h.1c0-.1.1-.2.3-.1h.3l.5-.1h.5l.1-.1.2.1.2.1.1.1h.1c0-.2.2-.3 1.1-.2h.8c0-.1.2 0 .2 0h.3c0-.2.3-.1.4 0 0 0 0 .1.1 0l.2-.1.7-.1c.2-.1.5-.2 1-.1h.8c0-.2.9 0 1.4 0l.8.1h.4c0 .1.2.1.4 0 .2 0 .4 0 .5.2h.6c0-.2 0-.2.3-.1h.3c0-.1.7 0 1 .2 0 .1 0 .1.1 0 0-.2.3-.2.4 0 .1.2.2.2.3.1h.2l.3.1h.2l.3.2c.1 0 .5 0 1 .3l.8.3h.2l.1.1.3.2.1.2v.3c.2 0 .2.3.1.5v.3c.2.1 0 .4-.4.8l-.3.5-.1.1-.4.3a1 1 0 0 1-.3.2l-.5.2c-.6.3-1.4.4-1.5.2h-.2c-.1 0-.1 0 0 0 .1.2 0 .3-.2.3s-.5-.3-.6-.5c0-.2 0-.2 0 0-.2 0-.1.1 0 .2v.2c0 .2-.2.1-.2 0 0-.2 0-.2-.2 0-.2.1-.2.1-.2 0l-.1-.2s-.1 0 0 .2c0 .2-.3.1-.4 0-.1-.2-.2-.2-.3-.1l-.3.1-.6-.2c.1 0 .2-.1.1-.3 0-.2 0-.2 0 0h-.5V13c-.1 0-.2 0-.2.2h-1.2c0 .1-.3.1-.8 0h-.5l-.2.1c-.3 0-1.4.7-1.7 1.2-.1.3-.7.6-1 .6l-.1.2-.4.3c-.4.1-.5.2-1 0h-.2c0 .2 0 .2-.3.2h-.4c0 .2-.2 0-.3-.2 0-.2 0-.3-.4 0-.2.1-.2.1-.2 0l-.1-.2h-.2c0-.2-.6-.2-.7 0 0 0-.9 0-1-.2-.2-.2-.3-.2-.3 0h-.4l-.2-.2-.1-.1h-.5l-.2.2-.2.1h-.2l-.4-.2-.4-.1c-.2-.2-.4-.2-.5 0 0 .1-.2.1-.4-.1-.2-.3-.3-.3-.4 0-.2.1-.4.1-.4 0v-.2h-.5c-.2 0-.3 0-.2.2h-.3c0-.1-.5 0-.4.1h-.3c-.3 0-.3 0-.4.2 0 .1 0 .1-.2 0h-.1c0 .2-.5.3-.8.3-.2 0-.4 0-.4.2h-.3c0-.1 0-.1 0 0l-.2.2-.1.1h-.6l-.1.1h-.1l-.4-.3c-.3-.2-.4-.2-.3 0 0 .1 0 .1.1 0v.5h-.2l-.5.2c0 .1-.1.1-.2 0h-.7c0 .2-.8.1-1 0 0-.2-.1-.2-.1 0h-.2c-.3-.1-.4 0-.4 0 0 .2-.1.2-.3.3l-1.3.3-.3.1-.5.2c-.3 0-.5.1-.5.2h-.2c-.1 0-.2 0-.3.2l-.3.2-.3.1-.4.2a1 1 0 0 0-.4.2h-.4l-.5.3-.2.1-.3.1c-.4.2-.9.3-.9.2zm6.9-2.7h-.2.2zm18-.8h-.1v.1l.2-.1zm.3-2.2h-.3c-.4 0-.5.1-.4.3.1.1.2.1.4 0l.3-.3zm7.6-.1V13l-.1.2v.1-.1zM129.4 11l-.1-.1v.1zm13.8-2h-.1v.1zm13.2-.4h-.2.2z" style="fill:#0150f3;fill-opacity:1" transform="translate(.4 5.9)"/>
  <path d="m208.7 18-1-.2c-.7 0-1-.2-1-.3h-.2v-.1c0-.1-.1-.1-.4 0-.2.2-1 .2-1 .1h-1.4a996.4 996.4 0 0 1-5.3-.2l-.8-.2h-.4c-.4-.2-.4-.2-.5-.1l-.3-.1c-.2-.2-.2-.2-.1 0l-.2.1h-.3l-.4.2h-.6V17h-.2l-.4.1h-.5c-.1.1-1 0-1-.2h-.5l-.2-.1c-.2-.2-.2-.2-.3 0 0 .1-.1 0-.8 0l-.7-.3-.3-.1-.4-.1-.3-.2-.2-.1-.3-.1-1-.4-.8-.4c-.1 0-.5-.3-.6-.6-.1-.1-.2-.2-.3-.1-.2 0-.2-.2 0-.2l-.1-.2c-.2-.1-.2-.2-.2-.3v-.1c-.1 0-.1-.1 0-.2V13h-.2.1c.2 0 .2-.3 0-.5l.1-.3c.2-.1.3-.2.3 0l.2-.3c.1-.3.3-.4.4-.2h.1l.9-.5.1-.1c0-.2 0-.2.5-.2l.6-.2h.6c0-.2.5-.3.6-.3h2.3s.5 0 .5.2h.1l1.5.3h.1c0-.1.4 0 .4.2.1.2.1.2.2 0 .1-.1.2-.2.2 0l.4.3v-.2l1.1.3.7.1.6.1.3.1.1.2v.2l.1-.2c.1-.2.2-.2.4 0h.1l.4.2.5.1.1.1h.3c.2 0 .3.1.3.2h.3l.2.2h.3s0 .1.2 0h.4l.6.1.1.2.1-.2h.3c.1.1.2.1.2 0h.6c.8 0 1 0 1 .2 0 .1.1.1.1 0 0-.2.3-.3.3-.1h.2l.2-.1.6-.1h.6l.5-.1.7-.2c.2 0 .7 0 1.2-.2.8-.2 1.7-.2 2.2-.1h.1l.1-.2c.1 0 .1 0 0 0 0-.2.1-.2.3 0 0-.2.4-.5.5-.5h.2l.2-.1h.2c0-.1.2-.3.5-.4a10.4 10.4 0 0 1 .8-.4c.2 0 .3-.1.3-.2 0-.2.2-.3.3-.4l.5-.2.5-.2h.3v-.3l.4-.2h.6l.2-.1c0-.1.1-.1.2 0h.1c.2-.3.4-.4 1.1-.4h.9c.2.2.2.2.2 0s.1-.2.7-.2h.7l.2.1c.1 0 .3 0 .4.2h.2c.1 0 .4.4.4.6h.2l.2.2s0 .2.2.3c.2 0 .3.4.2.4v.2c.3.3.4.7.3.8-.1 0-.1 0 0 .2.2.1.2.6 0 .9v.2l-.4.7c0 .2 0 .3-.2.4l-.2.3h-.2l-.4.4c-.2.1-.3.1-.4 0h-.1l-.6.1-1.2.2h-.6v.1h-.2l-.1.2-1.2.5h-.5c-.1-.1-.2 0-.2 0 0 .2 0 .3-.3.2h-.2c.1 0 .2.2 0 .2h-.3l-.3.2h-.1l-.4.2-.4.3-.8.3-.7.5h-.5s-.2 0-.2.2l-.5.1h-.3c0 .1-.1.2-.3.1h-.3l-.2.2h-2.8zm-22-3.1c-.1-.2-.2-.1 0 0l.1.1v-.1zm32.4-6c0-.3-.2-.2-.3 0l.1.1c.1 0 .2 0 .2-.2zm-7.9 3h.2-.1c-.1 0-.1 0 0 0z" style="fill:#008955;fill-opacity:1" transform="translate(.4 5.9)"/>
  <path d="m27.5 15.7-1.7.4-.4.1-.4.1c-.3 0-.6.2-.5.3l-.1.3c-.2.1-.2.1-.1.3v.3l.1.3.1.2.4.6v.1l.2.3.3.2s0 .1 0 0l-.1.1c0 .2.5.7.6.7 0 .3.8.7 1 .6h.2c0 .1.2.3.4.3h.5l.3.2.4.2h.2c0 .1 1 .3 1.3.2h3.3l1.8-.1a9 9 0 0 0 1.7 0s.2 0 .2-.2l.3-.1h.2c0-.1.1-.2.2-.1h.3a18.3 18.3 0 0 0 3.4-.7l.7-.4.3-.3c.2-.1.6-.8.6-1.2a5 5 0 0 0-.3-1.5c-.2-.3-.7-.7-1-.7l-.8-.2h-.8l-.7.2-.7.2-.9.2-.8.1-.4.1h-.2l-.8-.1v.1c0-.2-.5-.4-.6-.3H35a.9.9 0 0 0-.4-.2 1 1 0 0 1-.4-.1l-.8-.2h-.6l-.1.2c-.1 0-.1 0 0 0 0-.3-.2-.4-.3-.3-.1.1-.1.1-.1 0H32c-.2.1-.2.1-.4 0-.1-.1-.3-.2-1-.1l-.9-.1H28c-.2.2-.2.1-.2 0 0 0 0-.1 0 0h-.3zm6 1-.2-.2h.1l.1.1zm-8.3 1.7H25h.2zm1.7 1.8c.1.2 0 .2-.1 0h-.2c0-.2.2-.1.3 0zm253.4-1.4c0-.1-.1-.2-.2 0h-.7c-.1-.1-.1-.1-.1 0 0 0-1.2 0-1.4-.2h-.3s-.1 0 0-.2c0 0-.2-.1-.2 0-.1.2-.4.2-.6 0-.2-.2-.6-.4-.6-.2l-.4-.1c-.1-.1-.2-.1-.2 0-.1 0-.4 0-.7-.3l-.2-.1h-.1c0-.2-.2-.2-.3-.2h-.2l-.8-.4-.2-.2s-.2-.1-.2 0c-.2 0-.9-.2-1-.4h-.2s-.1.1-.2 0l-.1.1h-1a1 1 0 0 0-.5.1h-.4c-.2-.1-.3-.1-.4 0-.2 0-.6 0-.7-.2h-.4c-.7-.2-1-.3-1-.5 0-.1 0-.2-.1 0h-.7l-.3-.1-.2-.1h-.6a.4.4 0 0 0-.4-.1h-.4c-.2-.1-.6-.1-.8 0h-.2c-.1-.1-.2-.1-.2 0-.1 0-.4 0-.6-.2 0 0-.2-.1-.2 0l.2.1c.1 0 .1 0 0 .1a2 2 0 0 1-.9-.4l-.1-.1c0 .1 0 .1-.2 0a1 1 0 0 1-.3-.2h-.3l-.3-.1c-.1 0-.2-.2-.1-.3 0-.1 0-.1 0 0-.2.1-.8 0-1-.2l-.8-.4c-.2 0-.3 0-.1-.2a1165.6 1165.6 0 0 1-2.5-1.6h-.3c-.1-.2-.1-.2-.2 0h-1.1l-.7.3-.9-.1c-.2-.2-.3-.2-.4 0 0 .1-.2.1-.4 0l-.2-.1h-.2c-.1-.2-.3-.2-.3 0h-.2c0-.1-.1-.2-.4-.2h-1c0-.2.2-.1.3 0 0 0 .1 0 0 0v-.3h-.5l-.4-.1c-.3 0-.4-.1-.5-.2-.2-.2-.3-.3-.4-.1 0 0-.2 0-.3-.2l-.5-.3c-.2 0-.2-.1-.3-.3l-.1-.2c-.1 0-.4-.3-.4-.5l-.2-.3-.3-.3-.3-.3v.2c-.2 0-.2-.2-.1-.3.2-.2.1-1.5-.1-2l-.2-.6v-.4c-.1-.2-.1-.3 0-.4l.2-.3.1-.4.1-.6V4c.1 0 0 0 0-.2v-.4h.1V3c.2-.1.2-.2.1-.2 0 0 0-.5.2-.5v-.1l.2-.4A329.7 329.7 0 0 1 247 0l.4-.4c.5-.2 1.1-.3 1.1-.2h2.8l.5-.1c.2-.2.5-.2.5 0l.3-.1.3.1c0 .2 0 .2.1.1.1 0 .2-.1.1-.2l.8-.1a34 34 0 0 0 2.3 0c-.1 0-.1 0 0 0h.1c.2-.2.5-.1.6.1l.1.2V-1h.6c.4-.2.4-.2.6 0h.3a10 10 0 0 1 3.6-.2l2.3.1h1l1.4.2a4 4 0 0 1 1.2 0c.1.1.3.2.5.1h1.1l.8-.2a96.9 96.9 0 0 0 10.7-.8h.8l.2.1h3c0-.1 0-.1 0 0h.5c.8-.2 2-.2 2-.1h1.9l1.5.2h.3l.3.1c.3.2 1.1.3 2.3.3a4.5 4.5 0 0 1 1.3.2l.7.2.4.2h.3l.3.2.2.1.2.2h.2l.1.1h.3l.1.2h.4l.6.3.4.2c0 .2.2.2.1 0 0-.2.3 0 .6.3.1.2.3.3.4.3h.2v.1l.4.1.3.2c.2 0 .8.4.8.5l.1.1.3.2.4.3c.4.5.8 1 1.2 1.8l.3.4.1.3c0 .2 0 .4.2.5.2.2.2.2 0 .3-.2 0-.2.1-.1.1l.2.1v.2c.2 0 .1.2 0 .4-.2.2-.3.3-.1.2 0 .1 0 .1.2 0s.2 0 .2.7v1.3c-.2 0-.3 0-.3.2v.2c-.2 0-.3 0-.2.1.1.1 0 .3-.2.3h-.2v.1c.2 0 .2.5 0 .6v.2c0 .1 0 .1-.1 0h-.1c0 .4-.1.7-.5 1l-1.5 1c-.1 0-.7 0-2 .5-1.5.5-1.6.5-1.8.4a2 2 0 0 0-.6-.2h-.7l-.8-.1h-.3l-.3-.2h-.3c-.1 0-.2 0-.2-.2s0-.2-.1 0h-.6l-.6-.3h-.5a3 3 0 0 0-.6-.2l-.8-.2h-.7l-.4-.2-.2.1c0 .1 0 .1 0 0h-.1l-.4.2-.7.5c-.1.2-.3.3-.4.3-.1 0 0 0 0 .2.2 0 .2.2.1.3v.3l-.2.3-.2.4c0 .2-.1.3-.2.3l-.2.2-.3.4-.3.4-.2.2-.3.3s0 .1-.1 0l-.1.1c0 .2-.6.7-.7.7l-.2.1s-.1.2-.3.2l-.3.1-.2.1-.2.1v.1l-.1-.2h-.1c0 .2-.2.3-.3.3h-.2c0 .2 0 .2-.2.2 0 .2-.3.2-.7.2 0 .1-.1.2-.2.1h-.1l-.4.1-.7.1h-.2v-.1h-.2c0 .3-1.2.3-1.3 0zm-.1-.6h-.2c-.1.2 0 .3 0 .2.2 0 .2-.2.2-.2zm-4-.2h-.3.2zM266.6-.8V-1c-.1.1-.1.2 0 .2v-.1zm33.5 2V1h.1v.1z" style="fill:#ffeb01;fill-opacity:1" transform="translate(.4 5.9)"/>
  <path d="M112.9 25.1a4 4 0 0 1-.7-.1l-.5-.1a70.8 70.8 0 0 1-6.5-.6 29.4 29.4 0 0 0-1.6-.2l-.8-.2a5 5 0 0 0-2.2-.5l-.5-.1H99a15.5 15.5 0 0 1-1.6 0h-1c-1.4.1-2 .2-2.5.4l-.5.2h-.1c-.1.2-.2.2-.2 0h-.7l-.3-.2c-.1 0-.1.1 0 .2.2.1.1.1-.3.1h-.1c0-.2-.7-.2-.8 0h-.2s-.2 0-.3-.2c-.1 0-.1 0 0 0 0 .2 0 .2-.2.1a1 1 0 0 1-.3 0l-.2-.1-.1-.2h-.1c0 .2-.4.1-.5 0l-2.1-.2-.2-.1c0-.2-.3-.2-.4 0 0 0-.1.1-.4 0h-.4c0-.2-.1-.2-.3-.2l-.4.1-.3-.1v-.2c-.1 0-.2 0-.2-.2 0-.1 0-.1 0 0l-.2.2h-.2c-.1-.2-.2-.2-.2-.1-.1.1-1 0-1.2-.2h-.6l-.4.1s0 .1-.1 0l-.6.3-.6.2-.5.1h-.3l-.5-.3-.3.1c-.2 0-.3 0-.2-.2v-.1l-.2.1c0 .2-.1.3-.3.1 0 0-.1-.1-.2 0-.1 0-.3-.2-.2-.3H77l-.8-.4H76c-.3 0-.4-.2-.5-.4h-.2c-.3.1-.8 0-.8-.2l-.1-.2a1 1 0 0 1-.4-.2h-.4l-.7-.1-.5-.1c-.2 0-.3 0-.2-.2 0 0 0-.1-.2 0h-.3l-.3.1H71l-.4-.2H70c-.6-.2-1-.2-2.1-.2-1 0-1.4-.1-1.5-.2 0-.1-.1-.1-.1 0-.1.2-.3.2-.4 0 0-.1 0-.1 0 0h-.3l-.4.1h-2.1l-1 .1-2.2.1h-.4c0-.1 0-.1 0 0-.1.1-.2.1-.2 0h-.2c0 .2 0 .2-.3.1h-.3l-.3.1-.6.1h-.8c0 .1-.2.2-.5.2h-1.5v-.3l-.1.2c0 .1-.1.2-.3.1H54l-.4-.1H53l-.2-.1c-.3 0-1-.5-1-.8-.1-.2-.2-.4-.1-.6a28.6 28.6 0 0 0 .2-.8l1-1.1 1.3-1.3c.2-.5.3-.5.2-.6-.2-.1-1.4-.3-1.5-.2h-1.3c-.1-.2-.2-.1-.1 0h-1.2a4 4 0 0 1-1 0l-.4-.1-.3-.2-.2.1-.1.1h-.5c-.1.2-.2.2-.5.1h-1c0-.1 0-.2-.2-.2a1 1 0 0 1-.4-.2l-.5-.2h-2l-.2.1-1 .1h-.5l-.8.2h-.5l-.2.2-.5.2v-.1l-.1.1c0 .1-.1.2-.2.1h-.3c-.2 0-.2.1-.1.1v.2H38c-.1.2-.5.3-1.4.3H36c-.2.2-.7.2-.6.1H35l-.7.3H34l-.3-.1v-.1h-1.5l-.3-.1h-.3l-.5-.2-.3-.1c0-.2-.1-.3-.2-.2 0 .1-.2.1-.2 0l-.2-.1-.2-.1-.3-.1h-.2c0-.2-.4-.2-.5 0h-.5l-.1.3c0 .1-.1.1-.2 0-.2-.2-.4-.2-.4 0h-.6c-.1.1-.3 0-.6-.1-.1-.2-.1-.2 0 0 0 .1 0 .2-.2.2l-.1-.2H26c-.1-.1-.2-.1-.2 0h-1.2c-.8-.1-1.1-.2-1.3 0a4 4 0 0 1-1.5 0c0-.1-.1-.1-.2 0h-.1l-.2.1-.1.1H21c0 .1-.1.2-.3.2l-.5.1s-.1.2-.4.3l-.6.4H19c-.1 0-.1 0 0 0l-1 .5-.2.1c0 .2-.4.4-.5.3H17l-.4.1c-.2 0-.3 0-.3-.2l-.1-.1v.1l-.2.2h-.3a2 2 0 0 1-.6 0c-.4-.1-.5-.2-.5-.4l-.3-.1h-.6l-.6-.1a9 9 0 0 0-2.8 1 18.6 18.6 0 0 1-1.8 1l-2.1.4h-.6l-.3.1h-.4L5 20l-.2-.1-.3-.2-1.3-.7c-.3-.2-1-1.6-1.1-2-.2-.8-.5-1.2-1-1.3-.2 0-.5-.6-.5-.9 0 0 0-.2-.2-.3-.3-.2-.3-.3-.1-.4 0 0 .1-.2 0-.2l.1-.6V12l.2-.3.3-.5.4-.2.5-.2a7 7 0 0 1 1.8-.5l.6-.2h.5l1-.2L7 9.7a44 44 0 0 0 4-.3h.7c0-.1 0-.1.2 0h.6c.1-.2.6-.1.7 0h.2c0-.2.4 0 .4 0l.1.1v-.1l.5-.1h.7c.2.1.2.1.2 0H17c0-.1.1-.1.4 0l.4-.1h.5a39.1 39.1 0 0 0 3.4-.2 13 13 0 0 1 3.1 0h.3c.6 0 1.1.1 1.1.2s.1.1.2 0c0 0 .2-.1.4 0l.4-.1h.4a23 23 0 0 0 2.8.1 25.7 25.7 0 0 1 4.7 0h3.1l.3-.1h1l1.2-.1a23.8 23.8 0 0 0 3.5-.3l1.3-.1h1c0-.1.4-.2.8-.1l.8-.1.2-.2c.1 0 .1 0 0 .2h.2c.1-.2.1-.2.2 0 0-.1.2-.2.4-.1h.3l.5-.1a82.7 82.7 0 0 0 7.7-.4h1c0 .1 0 0 0 0h2.8a204.6 204.6 0 0 1 15 1h.4l.3-.2a27.9 27.9 0 0 0 4.5 0h.6c.2.1.4 0 .4 0h4.7c.2-.1.8-.2.9 0l.2-.1h2c.3.2.3.2.3 0l1.2-.1H93c.1.1.2.1.2 0l1.6-.1a55.1 55.1 0 0 0 3.5 0c0 .1.1.1.2 0h.9c0-.1.1-.1.2 0h.5l.3.1c0 .1 0 .1 0 0s.4-.2.5 0c0 .1.3.1.4 0h.6a19.2 19.2 0 0 1 3.6.4h1.2c.1.1.1.1.1 0h1.3l.6.1h2.7a27.1 27.1 0 0 1 3.8.3 9 9 0 0 0 1.5-.2h.2l.8-.3.4-.2h.5c0-.2.3 0 .4 0l.2.1.1.1.3.5.4.5a30.8 30.8 0 0 1-.1 5.1v1.4l-.2 1.1c0 .8-.6 3.7-.9 4.2 0 .3-.7 1-.9 1l-.2.2-.3.2-.2.1-.2.2-.7.3-.6.3c-.2 0-.2 0 0 .1l.2.2-.5.4-.2.2h-.1l-1 .5h-.2c0-.1 0-.1 0 0h-1zm-21.1-1.5c0-.1 0-.1 0 0v.1-.1zm7.8-.4-.1-.1v.1zm-20.7-.3-.1-.1s-.1 0 0 .1c0 .2 0 .2 0 0zm31.8-.5c.1 0 .1 0 0-.2l-.7-.1c-.5 0-.5 0 0 .2.4.2.6.2.7.1zm1.7 0v-.1c-.1.1 0 .2 0 .2v-.1zm-58-3.1-.1-.1v.1zm-41.4-2h-.1.1zm100.7-1.7v-.2l-.3.2c-.2.3-.2.3 0 .4.2 0 .3-.2.3-.4zm-50.8.2c.2-.1.1-.2-.2 0h-.2c.1.2.2.2.4 0zM23.7 9.4c-.1-.1-.2-.1-.2 0h.2zm60.3 0-.1-.2c-.2 0-.3 0-.2.1.2.1.3.2.3 0zm-37.2-.7c-.1-.1-.1-.1-.1 0V9c.1-.1.1-.2 0-.2zm-12 8.1c.2 0 .2 0 0 .1zm66.3-8.5h.1v.1h-.1z" style="display:inline;fill:#fcb271;fill-opacity:1" transform="translate(.4 5.9)"/>
  <path d="M116.9 19.4a28.7 28.7 0 0 1-1-.1h-.9c-.4 0-.6-.1-.6-.2h-.4l-.8-.2c-.4 0-.8-.2-1-.3a.9.9 0 0 0-.3-.1 2 2 0 0 1-.6-.1 2 2 0 0 0-.4-.2h-.3l-1-.1c-.2 0-.3 0-.2-.1.1 0 0-.1 0-.1h-.5l-.4-.2s0-.1-.2 0l-.4-.3a1 1 0 0 0-.4-.2 2.7 2.7 0 0 1-1.3-.7c.1.2 0 .2-.3 0-.4-.4-1.1-.5-1.6-.3l-.7.1h-.4V16c-.1 0-.1 0 0 .2 0 .2 0 .3-.3.3l-.2.1h-.3l-.5.1c0 .1-.1.2-.2.1l-.7-.1a3 3 0 0 1-.7-.2h-.4l-.3-.2-.2-.1-.3-.1V16c0 .2-1.5-.2-1.6-.4h-.3l-.3-.2H95c-.1 0-.4.1-.4.3h-.2l-.2.1H94l-.3.1-.1.2c0 .2 0 .4-.2.5-.1.1-.3.2-.2 0l-.1.1-.3.2h-.1l-.1.3c-.4.3-1.8 0-2-.5 0-.1-.1-.1-.1 0l-.7-.7-.3-.1-1-.4a7.2 7.2 0 0 0-2.9 0h-1s0 .1 0 0h-.1v-.1h-.2c-.1.3-.4.4-.5.3-.1-.1-.1-.1-.2 0l-.4.1c-.2 0-.4 0-.4.2l-.4.2-.7.3c-.3.2-.6.2-.7.2l-.3.1c0 .1 0 .1-.1 0h-1.4l-.3-.3-.2-.1-.3-.2c-.1 0-.1 0 0 0v.1c-.2 0-.7-.6-.7-.7l-.5-.4-.4-.1-.6-.2-.5-.1-.5-.2a2 2 0 0 1-.6-.1c-.3-.2-2.1-.5-2.2-.4 0 .2 0 .2-.2 0H72l.1.3c.1 0-.4.5-.6.5h-.2l-.3.1c0 .1-.7.3-1 .2a16.8 16.8 0 0 1-1.5-.2l-1.1.1c-.3.2-.4.2-.5 0-.2 0-.4.1-.3.3h-.1c-.2-.2-.3-.1-.2 0 0 .2 0 .3-.4.2l-.2.1h-.2c0-.1-.2-.1-.2 0l-.1.2H65l-.1.2-1 .4h-.8c-.3 0-.4 0-.4.2h-.3l-.7.2c-.5.1-.6.1-.8 0l-.4-.1-.3-.1-.3-.1-.5-.6-.2-.1v-.1l-.1-.1-.1-.2c0-.1 0-.1 0 0h.2l-.1-.2-.1-.1h.2c.2 0 .4-.2.3-.4 0 0-.1-.1 0-.1l-.1-.1c-.1 0-.2 0-.2-.3v-.2l.1-.2v-.6l-.2-.5v-.6c.2 0 .2-.1 0-.3v-.5c-.1-.1 0-.4.2-.4v-.2c-.1-.1 0-.5.2-1.4a40.2 40.2 0 0 0 1-3c.1 0 .2 0 .2-.2.1-.2.2-.2.4-.2s.6-.4.6-.7c0-.1 0-.2.2-.3l.5-.2 1.5-.3.3-.1h.5l.6-.1.7-.2h1.6L68 4a19.7 19.7 0 0 1 2.7 0h.3l.7-.1h.9l.8-.1h1.1c.1.1.1.1.2 0 0 0 0-.1.1 0h.3c.4-.1.7-.1.8 0v.1h.1c0-.2.2-.4.3-.3v.2l-.1.1h.2c.1-.2.8-.3.9-.1 0 .1.2 0 .1 0 0-.2 0-.2.3-.2h.8c.3-.1.4 0 .4 0h.7a22.4 22.4 0 0 0 .9 0h.1s.1 0 0 0l.1-.1a35.6 35.6 0 0 1 2.3-.2c.3 0 .5 0 .5.3 0 .1 0 .2.1.1v-.2l.3-.2a6.9 6.9 0 0 1 2 0h.4c.2 0 .2 0 0 0-.2-.1-.1-.1.9-.2 1 0 1.7 0 1.6.2h.1l1-.2h.1v.2c0 .2.2.1.2 0 .2-.3.5-.4.7-.1h1.5l.2.2c.2 0 .2 0 0-.1-.2-.2 0-.2.5-.2.3 0 .4 0 .4.2 0-.2.3-.3.3-.1h.2c.1-.1.4-.2.6-.1h.5c.1 0 .2 0 .2.2s0 .2.1 0c0-.2.2-.3.7-.3h1v.1h-.2c0 .2.7.1.8 0 .1-.2.3-.2.3-.1h.3c.1-.2.5-.2.5 0h.2c0-.1.1-.2.3-.2h.6c.2-.1.6 0 .6.2l.1.2V3c0-.2.1-.3.3-.2h.8c.1-.2.2-.2.3-.2l.5.1a60.8 60.8 0 0 1 5.5-.1c0 .1 0 .1.1 0h.3l.2-.2h.3s.1 0 0 0v.1h.2l.3-.1h.2c0-.2.3-.2.5 0l.3-.1c.1-.2.2-.2.2 0v.2h.2v-.2c-.1-.1-.1-.2 0-.1l.2.1h1.2c0-.1 0-.1.1 0l.3-.1c.2-.1.2-.1.2 0 0 .2 0 .2 0 0l.4-.1h1c0 .1 0 .1.2 0 .1 0 .3-.1.4 0l.3-.1h.3l.1.3.2.1V2c0-.1 0-.1 0 0 .2.2.3.2.2 0 0-.1.3-.3.9-.2h1.5c0-.2.8-.3.9-.2h.3c.2-.1.3-.1.4 0h.2c0-.2.4-.2.6 0l.2.2v-.2h.7a21.5 21.5 0 0 1 1.6 0l.1-.2.3.1c0 .1.3.2.4 0h.3c.2 0 .2 0 .1.1 0 .2.1.3.2 0h.3l.4-.2.4.1c.2.2.3.2.2 0h.2c0 .1.1 0 .2 0h.3c.1 0 .1 0 0 .1-.2.1 0 .2.2 0l.6-.2.3.2s.1.1.2 0c-.1-.1 0-.1.2 0l.5-.1c.1-.1.2-.1.2 0h.2c.3-.1.5 0 .3.1-.1.2 0 .1.2 0 0-.2.3-.2.7-.2h.6v.1l-.1.2.3-.1c.3-.2.3-.2.5-.1h.2c0-.1.3-.2.4 0h.1l.4-.1h.3c-.1.1-.1.1 0 .1h1c0 .1.1.1.2 0h.2c.1.2.2.2.3 0h1.2a40 40 0 0 1 5 .7h.5c.3 0 .5.1.5.2h.4l.3.2c.1.2.4.3.7.2.4 0 .8 0 .9.2 0 .2 0 .2.1 0 .1 0 .7 0 1 .3 0 0 .1.1.1 0l2.2.3.3.2c.1.1.2.1.2 0l.8.1.5.2c.5 0 1 .4 1.2.8.1.3 0 1.2-.1 1.3l-.2.3c0 .3-.3 1-.5 1.2-.3.4-.7.5-1.2.3l-.6-.2-.4-.1h-.5c-.2 0-.3-.1-.3-.2s-.2-.1-.2 0h-.4l-.3.1-.1.2h-.2c0-.2-.2-.2-.4 0h-.3l-.3.1h-.2l-.5.1h-.6v.2l-.4.1-1 .3c-.3.1-.5 0-.4-.1.1-.2-.2 0-.4.1 0 .2-.1.2-.2.1-.1 0-.2 0-.3.2 0 .2-.1.3-.3.3l-.3-.1h-.3c-.1 0-.1 0 0 0l.2.1v.2l-.2.1-.2.1-.1.1h-.2c0 .1-.2.1-.4 0l-.3.1.1.1c.1 0 .1 0 0 .1-.2 0-.2.1-.2.2a159 159 0 0 1-.8.2c-.1 0-.3.1-.3.3h-.2l-.1-.2c0-.2 0-.2-.2 0-.2 0-.2 0 0 .1 0 .1 0 .2-.4.2l-.5.1-.6.2v.1h-2.7c0-.1-1.3.2-1.6.4l-.4.2-.5.1-.5.1c-.1 0-.2 0-.3.2 0 .2-.2.2-.8.2h-.1l-.3.3c-.1 0-.1 0 0-.1v-.1l-.2.1c0 .2 0 .2-.2.2h-.2c-.2.3-.5.4-.5.3h-.3l-.2.1s-.1 0 0 .1l-.3.4c-.1.1-.2.2-.3.1l-.2.2-.3.3c-.1 0-.1 0 0 .2l-.5.7c-.4.3-.6.6-.6.7v.3c-.2 0-.2.1-.2.2l-.5.8v.2c.2 0 .1.1 0 0l-.1.2-.1.1-.1.3v.3l-.2.4c0 .2 0 .1-.5.4-.4.1-1 .2-1.1 0l-.3.1c0 .2-.2.2-.5.2h-1.3c0-.2-.5-.3-.6-.2 0 .1-.2.1-.4 0l-.6.1h-.8zm-14-3-.2-.2c-.1 0-.1 0 0 .1.1.2.1.2.1 0zm-41-1.6.1-.2c0-.2 0-.2-.3-.2l-.3.1c0 .2.2.4.3.3h.2zm4.5 0v-.2h-.2l.1.2h.1zm62.5-2.6h-.3l.2.1h.1zm1-.2h-.3.2zm8.1-1.9h-.1v.1h.1zm1.3-.7c0-.2-.3-.1-.3 0s0 .1 0 0h.3zm5.5-1.7h-.2l.1.1h.1zm-55-4.3h-.2v.1h.1zm2.3 0v-.1H92v.1h.1zm14.4-.3-.1-.1h-.1v.2l.2-.1zm-7.2 0-.1-.1H99h.2zm7.3-.4v-.1l-.1.1v.1zM123 2h-.1s-.1 0 0 0zm8.7 0v-.2h.1c0-.2-.3 0-.3.2h.2zm-4.5 0-.1-.1h-.2l.2.1zm-23.8 14.7v-.1h.2l-.1.1h-.1zm39.2-13.9h.4l-.1.1h-.2z" style="fill:#ff653f;fill-opacity:1" transform="translate(.4 5.9)"/>
  <path d="M42.5 16.1h-.2L42 16l-.3-.1-.1-.2h-.3c-.2 0-.8-.2-.9-.5l-.1-.1c-.2 0-.3-.3-.2-.4.1 0 .1-.1 0-.2-.3-.1-.5-1-.3-1 .1 0 .2 0 .2-.2 0 0 0-.1-.1 0l-.2-.4v-.5c.2-.2.2-.4.1-.3l-.2-.5c-.2-.5-.3-.6-.7-.9h-.6c-.6.2-.8.3-.8.7 0 .2-.2.3-.3.3l-.3.2-1 .1a4.1 4.1 0 0 0-1.2.1c-.5 0-.8.1-.8.2l-.6.3-.2.3c-.2.4-.7.7-1 .6l-.3.1s0 .1-.2 0a4 4 0 0 0-1.1-.2l-.3-.2c-.1-.2-.2-.2-.5-.2a1 1 0 0 1-.4-.1l-.9-.1h-.7c0-.2-.2-.2-.4-.1l-.8-.2c-.3 0-.6-.2-.6-.3h.1c.1.1.1.1.2 0 0 0 0-.1 0 0L26 12c-.1 0-.8-.1-.7-.2a7 7 0 0 0-2-1h-.7c-.2-.1-.7-.3-.8-.2 0 0-.1.1-.2 0H21c-.7 0-.8 0-1-.2 0 0 0-.1-.1 0H19c-1 0-1.4.2-1.8.5l-.3.1c-.3 0-.7.1-.7.3H16l-.1.1-.2.2h-.3c0 .2-.1.2-.3.2h-.8l-.6-.3c-.1 0-.2 0-.3-.2-.1-.3-.2-.3-.3-.2h-.3l-.2-.1H12c-.2 0-.4 0-.6-.2h-1.1v.2l-.1-.1H8.6l-.4-.1c0-.2-.1-.2-.2-.1h-.9c-.6-.1-1.1-.3-1-.4h-.7l-1-.1-.7-.1H2.3c-.4 0-.6 0-1.1-.3L1 9.7c0-.1 0-.2-.2-.3 0 0-.1-.2 0-.2H.5s-.2-.5 0-.6v-.1l-.1-.1-.1-.1L.2 8v-.8L0 7l-.2-.6c-.2-.4-.3-.9-.1-1l.1-.3.2-.4c.2-.2.3-.2.5-.2a24.9 24.9 0 0 0 2.8.2A331.2 331.2 0 0 0 9 4.5h2.4a1643.6 1643.6 0 0 1 43.6 0 151 151 0 0 1 9 .3l.2-.1h.5c.1-.1.2-.1.2 0h1.7c.2-.2.3-.2.2 0h.3c0-.1.1-.1.2 0h.1c0-.2 0-.2 0 0h.3l.2.1h.2c.3-.3.4-.3.8-.2h.8c.2-.1.2-.1.2 0s0 .1.1 0h.4c0-.1.8 0 .8 0 0 .2 0 .2.3 0h.8l.3.1c0 .1.1.1.2 0 0-.1 0-.1.1 0h.1c0-.2 1 0 1.2 0 0 .2 0 .1.2 0 .2-.2.2-.2.4 0 .2 0 .3.1.4 0h1.4c.4 0 .7.1.7.2l.1.2c.2 0 .2-.1 0-.3h.8c.3 0 .5 0 .6.2 0 .2 0 .2 0 0h1c0 .1.1.1.1 0h1.8a294 294 0 0 1 2.8.1l.5.2.2.1.2.1.3.3c.1.2.1.3 0 .4.2.2.3.5 0 .6V7c0 .2-.2.3-3 .3h-1.1c0 .1 0 .1-.1 0l-.4.1-.5.2H80c-.1-.2-.3-.1-.2 0V8h-.1l-.2-.1h-.2c0-.1 0-.1-.1 0 0 .2-.4.4-.6.4l-.2.1c-.1.1-.2.1-.2 0H78c-.2 0-.2 0-.2.2s0 .2-.3.2h-.2l-.1.2H77c0 .2-.3.2-.4.1l-.3.2c-.2.2-.3.3-.6.2h-.4l-.1.1-.3.1-.7.1h.2s.1-.1 0-.1h-.3l-.4.1h-.1c-.2.1-.2.1-.4 0H73c0 .2-.5.2-.6 0l-.3.1c0 .2-1.3.1-1.4 0 0-.1 0-.1-.1 0 0 .1-1 .2-1 0-.2.2-1.2.3-1.4.2h-.4c-.1 0-.2 0-.3.2l-.3.1-.5.1h-.3l-.1.1-.1.3h-.3c0-.2 0-.2-.1 0 0 .2-.4.4-.5.1 0-.2-.2-.1-.1 0 0 .3-.3.7-.6.6l-.3.1c0 .2-.2.2-.4.2s-.2 0-.3.2c0 .2-.4.2-.7 0l-.4.1c-.3.2-.5.1-.4 0V12c-.2 0-.2.2-.2.3v.1l-.1-.2c0-.1 0-.2-.1 0h-.3c-.2-.2-.5-.2-.2 0 .1.1 0 .1-.4 0l-1.3-.1h-.7c0-.2 0-.2-.2-.1h-.1l-.3.2c-.5 0-.6 0-.6-.2s0-.2-.3-.1c-.3 0-.4.2-.4.3h-4l-.5.1-.3.3-.5.3c-.2 0-.2 0 0 0 .2.1.2.3 0 .5 0 0-.1.1 0 .2l-.1.2-.3.3c0 .2-.2.3-.3.3l-.1.1s0 .1 0 0c-.1 0-.3 0-.4.2l-1.2-.1h-1.5l-.3.1c-.3.3-.8.7-1 .7h-.2c-.1.2-.7.4-.8.3 0 0-.2 0-.3.2-.1.1-.2.2-.4.1h-.4c-.2.2-1.8.2-1.8.1zM16.7 11c0-.1-.2-.1-.2 0l.1.1.1-.1zm19-2h-.1l-.1.1v.2l.1-.2zM3.4 8.3V8h-.2C3 8 3 8 3 7.8h-.2l-.1.2c0 .2 0 .2.4.1h.4z" style="fill:#f5dabf;fill-opacity:1" transform="translate(.4 5.9)"/>
  <path d="M300 20h-.4l-.1-.1h-.3l-.2-.1c-.2 0-.5-.2-.5-.4h-.2c0 .2 0 .2-.1.1h-.3c0-.1 0-.2-.2-.2h-.4c-.1 0-.1 0 0-.2 0-.1 0-.1 0 0h-.6c-.2 0-.3 0-.5-.2l-.5-.2c-.4 0-.8-.3-.8-.4l-.2-.1c-.2 0-.4-.4-.2-.4.1-.1-.1-.2-.4-.1h-.1v-.3c-.1-.1-.1-.1-.1 0 0 .2-.1.2-.3 0h-.1l.1-.2-.1-.1c-.2 0-.6-.1-.6-.3 0-.1 0-.3.2-.2v-.1s0-.1 0 0l-.3-.3h-.1l-.3.1-.1-.1-.3-.3v-.3h-.3l-.1.1v-.1c.2-.2 0-.3-.3-.3h-.2l-.2-.1-.2-.2-.2-.1c0-.2-.2-.3-.5-.4-.3 0-.5-.1-.5-.2h-.1c-.1 0-.8-.4-.8-.6l-.3-.2c-.3 0-.7-.3-.6-.5 0 0 0-.1 0 0-.1 0-.2 0-.2-.2 0-.1 0-.2-.2 0h-.7a4 4 0 0 1-1.7.1s-.1-.1 0-.2h-.2c-.1.1-.5 0-.5-.2v-.1l.2-.2h-.1l-.2.2-.1.1c0 .2-.2.3-.6.1-.5-.2-.8-.3-.9-.2l-.2-.1-.3-.1h-.1c0-.2-.2-.2-.4-.2l-.6-.1-1-.1-1.3-.2h-.3c-.2 0-.3 0-.3-.2v-.1h-.1c0 .1-.3.2-.7.1-.6 0-1.3.1-1.7.4h-.3v.1l-.1.2-.3.1c-.1.2-.2.2-.4.2h-.7c0-.1 0-.1-.1 0l-.4.1-.5.2h-.9c0 .2-.7.4-1.1.4h-.3l-.2.1-.4.2c-.2.1-1.3.2-1.4 0h-.2c-.2 0-.5-.2-.4-.3l-.3-.3c-.2 0-.2-.1-.2-.2-.2 0-.2 0-.2-.2v-.2h-.1l-.1.5-.2-.4-.3-.2c-.2 0-.3 0-.4-.3l-.4-.2-.1-.1-.1-.1-.5-.5c-.4-.4-.4-.4-.7-.4h-.4c0-.2-.4-.2-.4 0h-.6c0 .1-.4.1-.4 0h-.5a30.5 30.5 0 0 1-1.1.2c-.2.2-.4.2-.5 0l-.2.2c-.2.1-.8.3-1.2.2l-.6-.2-.6-.2h-.2c0-.2-.2-.2-.4-.1h-1.5c0 .1 0 .1 0 0h-.3l-.4-.2c-.2 0-.4 0-.7-.2-.4-.3-1-.4-1.2-.3h-1l-1-.1h-.3l-.4.1c-.4 0-2 0-2.8.2l-1-.1-.6-.3-.2-.1-.8-.3-.3-.2c-.1-.1-.1-.1 0 0h-.2c0-.2-.2-.3-.3-.3h-.4a7 7 0 0 0-2.9 0c.1-.2-.4-.2-.5 0-.1.1-.3.2-.3 0h-.4c0 .2 0 .2-.3 0l-.2.1h-.7v-.1s-.1-.1-.2 0h-.7c0-.2-.1-.2-.2-.2l-.2-.1-.2-.2c-.2 0-.8-1-.8-1.4l-.1-.4a4.8 4.8 0 0 1 0-2.6c-.1-.2 0-.3.7-.9.2-.2.8-.2 1 0h1.8a26.1 26.1 0 0 1 3.7.2h.6c.1 0 .2 0 .2-.2s.2-.2.4 0c.2.4 0 .3 1.7.4a591.3 591.3 0 0 1 19.3.6c0-.2.2 0 .2.2s0 .2 0 0l.1-.2h.5c0 .1.1.1.2 0h.7a55 55 0 0 0 4 0 206 206 0 0 0 12.2.5l1.6.1h1.9a123.2 123.2 0 0 0 3 .4c0 .2 0 .2.2 0l.2-.1a22.3 22.3 0 0 0 2.8.4h.3l.2.2.1-.1 1.3-.1a140 140 0 0 0 5 0v.2l.2-.1c0-.2 1.8-.1 1.8 0l.5.1h.8l1.5.1h.5l1.2.2c1.9 0 2.2 0 2.3.2h.3c.2 0 .5.1.4.2h.3c-.2 0 0-.1.2 0h.4c.2 0 .8.2 1 .4h.2l1 .6c0 .1 0 .1 0 0l.4.8c.2.5.2 1.7 0 1.9l-.2.5-.2.6-.1.4c0 .2-.6 1-1 1.4-.4.5-.6.6-1 .6h-.4c0 .1 0 0 0 0h-.3c-.2.2-.6.3-1.3.4h-.4c0 .1 0 0-.1 0h-.2c0 .2-.1.2-.3.2h-.3l-.4.2h-.3l-.3.1a1 1 0 0 1-.3.2l-.3.2-.1.4v.3l.2.1c.1.3-.1.9-.5 1.3-.4.3-.8.6-.7.3h-.2c-.2.2-.2.2-.3.1 0 .2-.1.3-.2.3l-.2.2-.2.1-.1.1-.6.3s-.1 0 0 0c0 .2-.3.2-.4 0-.1 0-.1 0 0 0 0 .2.1.3.2.3v.2a606.8 606.8 0 0 0-1.3 1.1c0 .2-.3.3-.5.2h-.6zm-4.8-1.7h-.1v.1h.1zm2.5-1.2h-.1v.1h.1zm-5.2-1V16l-.2.1h.2zm10.5-1.5h-.2.2zm-35.6-2.5v.2-.2zM246 9.5c0-.1 0-.1-.1 0 0 0 0 .1 0 0h.1zm63.3-3-.2-.1v.2l.2-.1zm-6.3-.6c.2-.2 0-.2-.1 0-.1 0-.1.1 0 .1h.1zm-21.1-1.3-.1.2.1-.2z" style="display:inline;fill:#fcb271;fill-opacity:1" transform="translate(.4 5.9)"/>
  <path d="m243.3 13.9-.6-.1a3 3 0 0 1-1.3-.4h-.2l-.3-.3-.4-.2h-.2l-.4-.2h-.4l-.3-.2-.4-.1-.2-.1c0 .1-1.2-.1-1.9-.4h-.2c-1.4-.2-2-.4-2.2-.7l-.2-.2-.4-.2c0-.2-.4-.3-.7-.4a3 3 0 0 1-.6-.3h-.3L231 10a42.2 42.2 0 0 0-8-.2 28.7 28.7 0 0 0-3.6 1l-1.4.3-.5.2h-.3l-.6.2-.6.1-.7.1a50.6 50.6 0 0 0-7 1.1 1142.9 1142.9 0 0 0-7 1l-1.8-.1h-.5l-.3-.2-.5-.2h-.2l-.3-.1-.4-.2-1-.2-.4-.1-.8-.2-.5-.1h-.3l-1.1-.5-.3-.3c-.2 0-.4-.3-.6-.5a3 3 0 0 1-.5-1.4l-.1-.2-.3-1-.1-.5a15.5 15.5 0 0 1-.7-1.7v-.5c-.2 0-.4-.6-.5-1.6V2.7L190 2c-.2 0-.3-.1-.3-.3l-.2-.5-.1-.3c0-.2.1-.2.2-.1.1.2.2 0 .2-.1V.5l.2-.2c0-.2 0-.2.2-.2h.5l.3-.1h.1c.2-.2 1-.2 1.6 0a19 19 0 0 0 2.9.2l2.5.1a32.6 32.6 0 0 1 5.7.3l2-.1h2.6a55.4 55.4 0 0 1 8.5-.1 136.1 136.1 0 0 0 9.3 0 104.4 104.4 0 0 0 9.4.8v.1l.1.2c.1 0 .2 0 .2-.2h.8c.8 0 1.7.2 1.8.3h.5l.4.1 1 .1c.6 0 .9.1 1.3.3.6.3 1.4.4 3 .2l4.4-.2a130 130 0 0 0 7.6-.3 128.3 128.3 0 0 1 15.5.3l1.2-.2c1 0 2 .1 2.4.3l.6.6.6.5c.2 0 .6.4.6.6h-.3l.4.2.1.2.2.4v-.1h.1l.4.6.2.3V6s.1.1 0 .2l.1.1.1.5V8l-.1.3c-.1.1-.1.2 0 .2 0 .1 0 .2-.2.3l-.2.2v.2l-.1.3-.2.3h-.1s-.2 0-.2.2c-.1.2-1.1.5-1.8.4h-2.3c-.1.2-1 .1-1.3 0l-1-.5c-.2 0-.2-.1-.3-.2 0 0 0-.1 0 0l-.6-.2-.6-.3h-.2l-.2-.1h-.2s-.1-.1-.1 0l-1-.3-1.3-.2a8 8 0 0 0-2.7.5 7 7 0 0 1-1.7.6l-2.2.7-.5.2h-.2c0 .2-1 .6-1.2.6h-.8l-.6-.2h-1.1a641.3 641.3 0 0 1-3.6.9h-.3l-.5.2-.5.2h-.2c0 .2-.1.2-.1 0-.2.2-1 .4-1.2.4h-.3c-.2.2-1.3.4-1.5.3h-.2v.1l-.5.1c-.3.2-2 .4-2.9.5h-.8zm-43.2-.2h-.1c0-.1-.1-.1-.1 0h.2zm36-4.3-.2-.2-.3-.1h-.2l.1.3c.3.1.5.2.5 0zm38.1-1c.1 0 .1-.1 0-.2h-1c0 .2.7.3 1 .2zm2-.2c.2-.2.1-.2-.4-.1-.4 0-.5.1-.3.2l.8-.1zm-6.7-1.3v-.2c-.2-.1-1-.2-1 0l.5.1h.2c.2.2.3.2.3 0zm5.9-2c0-.1-.2-.2-.2 0V5h.2zm2.7 0c0-.1 0-.1 0 0V5v-.2zm-37.2-3.3.2-.1h.1l-.2.1s-.1 0 0 0z" style="fill:#3f6846;fill-opacity:1" transform="translate(.4 5.9)"/>
  <path d="m151.4 17.3-.4-.2a1 1 0 0 1-.4-.2l-.5-.2h-1c-.7 0-1.3 0-1.2-.2l-.2-.1c-.2 0-.2-.1-.2-.2h-.6c-.2-.1-.3-.2-.4-.5 0-.3 0-.3-.2-.4l-.2-.1c0-.2-.3-.4-.6-.4l-.3-.2-1.5-.3-.8-.2a4 4 0 0 0-1.6 0l-.3-.1h-1l-.5.1h-.3l-.5-.1-.7-.3-.5-.2-.6-.2a5 5 0 0 0-.8-.3 1 1 0 0 1-.4-.2h-1.5c-.2-.1-.5-.2-.6 0h-.1c-.1-.1-.2-.2-.3-.1h-.1c0-.2-.4-.2-.5 0h-.1l-.5-.1a2 2 0 0 1-.6 0c-.2-.1-.4-.1-.4 0h-.4a3 3 0 0 0-1.2.3s-.2.1-.1 0l-.3.1c-.3.2-.8.4-1.1.4h-.3c-.1.2-.5.3-.6.3h-.2c0 .2 0 .2-.3.2h-.2l-.4.1a5 5 0 0 0-1 .5l-.7.4-.2.2h-.3c-.2 0-.2 0-.2.2l-.2.1h-.2l-.2.1s-.2 0-.3.2c-.3.2-1 .3-1 0h-.4c-.2 0-.3 0-.5-.2s-.3-.2-.4-.1l-.3-.1c0-.1 0-.3-.2-.3a4 4 0 0 1-.4-1.4l-.2-.9-.1-1.8V6.3h.1s.2 0 .2-.2l.2-.2v-.2l.1-.6v-.9a43.9 43.9 0 0 0 .2-1l.2-.1c0-.2.4-.4.5-.4h.1l.3-.3.3-.1c0-.2.1-.1.1 0 0 .2.1.2.2.2v-.2c-.2-.2-.2-.2 0-.3l.2-.1.2-.2.4-.2a29.8 29.8 0 0 1 .5 0c0-.2.7-.5.7-.5l.8-.2h.2l.3-.1.6-.2.7-.1h.7l.6-.2h.2c.4 0 1.4-.2 1.7-.4.2 0 .4-.1.4 0l.3-.2h.8l1 .1h1.5l1 .1h1.5c0 .1.1.1.1 0h5.5c.1.2.2.2.4.1h3.3c0-.2 2.5-.2 5.5-.1a198 198 0 0 0 7.9.2l1.1.2h1.5a36.7 36.7 0 0 0 3.7.3h1.2l1 .1 1 .1 1 .1h3.2a17.2 17.2 0 0 1 2.7 0h1.3a37 37 0 0 1 1.5 0 103.3 103.3 0 0 1 4.4-.2h2c-.1.2-.1.2 0 0h1.8c.4-.1.8 0 .8 0h.3s.2-.1.2 0h.4c0 .1.1.1.1 0h2.9l.4-.1a25.4 25.4 0 0 1 2-.2c.1-.1 2.1-.3 2.2-.2h.2l.3-.2h1.4c0-.1 0-.2.2 0 0-.2.1-.2.2 0l.2-.1c0-.1.1-.2.2 0h.1l.1-.1h.2l.1.2v-.1l.1-.1.3-.1h.2v.2l.2-.1c0-.2.1-.3.3-.1h.8s.1-.1.1 0h.1c0-.2.2-.2.3-.2-.2.2-.1.2.1.3.4 0 .5 0 .5-.2 0-.1.2-.2.3 0h.3c0-.2 1.8-.3 2-.2 0 .1.1.1.1 0h.8V-1l.2.2a580 580 0 0 0 3.4.3l.1.1.1-.1c0-.1 0-.2.4-.2l1.5.3s.4.2.4 0h1.7l1.6.1.3.3c0 .1 0 .2.1.1 0 0 .3 0 .4.2.2.1.2.2.2.5v.5l-.1.3c0 .1 0 .2-.2.3V2l-.4.8-.4.5-.6.6-.2.3-.2.3-.2.4-1 1-.4.1-1 .2a30.3 30.3 0 0 0-3.4.7l-.6.2-.6.2-1 .4h-.4c0 .2-.1.2-.1 0-.2.2-.8.3-1 .2h-.2c-.3.2-.5.2-.8-.1l-.6-.3-.6-.2h-.4l-.6.2-1.1.1-1.3.3c-1 .1-2.2.6-2.3 1h-.2l-.2.1c0 .2-.8.6-1 .6h-.1v.1h-.1l-.4.3-.3.2-.4.2-.5.5a1 1 0 0 0-.4.4l-.1.1-.9.7-.8.7h-.2v.2c-.1.2-.7.3-.7.2l-.2-.2-.4.1-.3.2c0 .2-.3.1-.3 0v-.2l-.3.2-.1.1v-.1l-.1-.2v.2l-.4.1-.4.1h-.1c-.1 0-.2 0-.3.2h-.5l-.1.1-.2.1v-.2c0-.1 0-.1 0 0-.2 0-.2.2-.2.2l-.2.1-.6.2c-.2.1-.4.2-.5.1a10.6 10.6 0 0 0-4 1.4l-.2.2h-.3l-.1.1c.2.1-.1.3-.4.3l-.5.2c-.2.3-.5.2-.6 0 0-.2-.2-.2-.2 0h-.1c-.1 0-.1 0 0 0 .1.1 0 .2-.3.2h-.3c0-.2-.3-.3-.3-.1 0 0-.3.2-.4 0h-.4c0-.1-.2-.1-.2 0 0 0-.1.2-.4.2-.4.2-.6.2-.8 0l-.3-.1-.2-.2c-.4 0-.7-.2-.7-.3l-.5-.2h-.8a31.5 31.5 0 0 0-5.4 0l-.3.1c-.2.3-1 .4-1.1.2L164 16h-.5c-.1-.2-.3-.2-.2-.1h-.1l-.7.2c-.6.1-.9 0-1-.1-.1-.2-1.4-.5-1.5-.5h-.1c-.1-.3-.3-.3-.3 0 0 .1-.3.3-.8.2h-.3c0 .2 0 .2-.3.3a2 2 0 0 1-.4 0h-.2c0 .1 0 .1-.1 0l-.3.2h-.2c0 .2 0 .2-.3.3-.5 0-.8 0-1 .2-.2.2-.4.2-.5.1h-.1c0 .3-1 .5-1.3.4l-.3-.1-.4-.1h-.2c0 .2 0 .2-.1 0h-.2c-.2.3-1 .4-1.1.3zm14.5-1c0-.1 0-.1 0 0-.1 0 0 .1 0 .1v-.2zm-7.8-.5s.1 0 0 0c0-.1 0 0-.1 0-.2.1-.1.2 0 0zm-.6 0c0-.1 0-.1-.1 0-.2 0-.2 0 0 0zm1.8-.3h-.3c.1.2.3.2.3 0zm27.7-2.1v-.1h-.2v.2l.2-.1zm7.2-4h-.1v.2l.1-.1zm-75-.7v-.1h-.1v.1h.1zM182.3.8c-.1-.1-.2-.1-.2 0h.2z" style="fill:#ff8402;fill-opacity:1" transform="translate(.4 5.9)"/>
</svg>
