<svg xmlns="http://www.w3.org/2000/svg" width="866.1" height="467.6" viewBox="0 0 229.2 123.7">
  <path d="M29.6 116.7c.2-.1.2-.3.1-.5 0-.2-.2-.3-.4-.4l-.5.1c-.2.2-.2.4-.2.6a.6.6 0 0 0 .4.4.6.6 0 0 0 .6-.2l.2-.4-.1-.4c-.2-.2-.4-.4-.7-.4l-1.7-.3c-.4-.1-.7-.4-1-.8-.3-.3-.5-.8-.7-1.2-.3-.4-.5-.8-.9-1.1l-.8-.6-.3-.4a1 1 0 0 1-.1-.5v-.6l-.3-.2-.3-.3v-.2l-.1-.3-.1-.5a1 1 0 0 0-.3-.3l-.2-.2-.8-1a2 2 0 0 1-.3-1v-.6l-.1-.5-.4-.4-.5-.9v-1.2l-.3-.4-.2-.2c-.3-.3-.5-.7-.5-1.1v-1.3l.4-1.2v-1.3c0-.8-.5-1.4-.6-2.2-.1-.3-.2-.7 0-1.1 0-.2 0-.4.2-.5.1-.2.3-.3.5-.3l.4-.1c.1 0 .3 0 .4-.2l.1-.2.1-.3.8-1.1c.4-.3.9-.5 1.3-.6 1-.3 1.9-.2 2.8-.1h1.3c.5 0 1 0 1.3-.3.2 0 .3-.2.5-.3l.5-.2h.8l.3-.2c.2-.3.5-.5.8-.6h1l.3.2h.3l.1-.2.1-.1.2-.1 3-1.6 1-.4c.4 0 .8-.2 1.1-.3.7-.3 1.1-.8 1.6-1.4l1.3-1.5c.2-.3.5-.5.8-.6.3-.2.7-.2 1-.2.4 0 .7 0 1 .3.3.2.5.5.5.8v.2h.2a.1.1 0 0 0 .1 0V83l.2-.5c.4-.8.6-1.6.8-2.4.6-1.7 1.6-3.3 2.8-4.6a11.4 11.4 0 0 0 3.8-6.5 27.8 27.8 0 0 0 .6-7.2c0-2.7-.4-5.5 0-8.2l.8-3.6.5-2.3c.3-.4.5-.9.5-1.3l.1-1.5c0-.5.2-1 .4-1.3l.6-.6.3-.4.2-.3v-.6c0-.5.1-1 .4-1.6.3-.5.7-.9 1.1-1.2 1-.7 2-1 3.1-1.3.2 0 .5 0 .7-.2l.6-.3.6-.6.3-.3.4-.1h.5l.2-.1v-.2l.2-.1.1-.1h.5l.2-.1.1-.2.1-.1.2-.2h.2l.2.2.3.4.5.2h.5c.3-.1.6-.3.8-.6.5-.6.6-1.3.8-2 .3-.8.9-1.6 1.6-2.3.7-.6 1.5-1.2 2.3-1.6 1.7-1 3.5-1.5 5.1-2.5l.9-.5c.3-.1.6-.3 1-.3h.8l.3-.2.1-.2h.2c0-.1 0-.1.1 0h.2l.2.2.4.1h.5c.3 0 .6-.2.9-.4l2.6-1c1.4-.5 2.9-.8 4.4-1 .3-.4.8-.5 1.2-.6h.8c.5 0 1-.2 1.4-.5a4 4 0 0 1 1.4-.5h.8a6 6 0 0 0 2.6-.9 8 8 0 0 1 2.6-.9h1c.7 0 1.4-.2 2-.5.4-.2.7-.5 1.1-.5h1l1-.3.8-.2c.5-.1 1 0 1.6 0 .7 0 1.3-.4 2-.6h1.8c.4-.3.9-.5 1.3-.5l.7.2h.3l.3-.2.3-.2.3-.2h.3l.7.2 1.8-.3.9-.1.9.1 1 .7h.6c.1 0 .2 0 .3-.2l.1-.2V17c0-.1 0-.3.2-.4 0 0 .1-.2.3-.2.2-.1.5-.2.7-.1.3 0 .5.1.7.3l.7.4c1.3.8 3 1 4.5.8 1.5 0 3-.2 4.5 0 1.4.2 2.6.7 3.9 1l2 .5 1.9.8 1.5.5 1.6.3c.4.1.7.4 1 .7l.8 1c.4.8.8 1.6 1.5 2.1l.8.6 1.5 1.2a4 4 0 0 0 2 .8c.8 0 1.4-.1 2-.4.7-.3 1.2-.7 1.7-1.1 1-.9 2-1.9 3-2.6.9-.5 1.8-.8 2.7-1l1-.3 1.3-.8a5 5 0 0 1 2.8-.5c1 0 2 .3 2.9.5 2.7.6 5.6.7 8.5.5h.5l1 .5.8.6.6.2c.3 0 .5.1.7.3l.5.8c.2.4.6.8 1 1.2.3.4.7.8.8 1.3.1.5 0 1 .2 1.3l.6.8c.6 1 .7 2 .7 3.2l-.5 3.2c0 .8 0 1.6-.2 2.3l-.5 1.1-.8.8-.5.2-.5.5-.3.6-.5.3-.5.2a7 7 0 0 0-4 2.3c-.2.4-.4.8-.8 1.1l-.5.5-.7.2h-.2a1 1 0 0 0-.5.1l-.4.3-.4.9-.2.4-.2.3h-.5v-1.9l-.2-.1-.1-.1h-.2v.4h-.7c-.2.1-.3.2-.3.4l-.1.8c0 1.8-1 3.5-2.3 4.5a6.7 6.7 0 0 1-5 1.2c-.7 0-1.4-.3-2.1-.2-.4 0-.8.2-1 .5l-.4.4v.6l.3 1v.5l-.1.2-.2.1h-.5l-.6.3-.2.6v1.2c0 .4-.2.7-.3 1.1-.2.4-.3.8-.2 1.2v1l-.3.3c-.3.2-.4.6-.4 1s.1.8.4 1c.3.3.6.5 1 .5h3.4l.8.3h2.5c1 0 2 .3 3 .6l1.5.2c.5 0 1 0 1.5-.3l1.3-.7c.3-.3.6-.4 1-.6l1-.2h1.2c.2 0 .3-.2.4-.3 0 0 0-.2.2-.3l.1-.2h.4v-.4h.4l.1.1h.1v-.3h.1c.1-.1.2 0 .2 0h.2l.1-.1.1-.2h.5l1 .3s.2 0 .3.2l.3.3v.8c-.1.4-.3.8-.6 1-.4.4-.8.6-1.2.5h-.7v.5l-.2.1h-.3l-.2-.1h-.2v.5h-.3l-.3.2-.1.1v.2l.1.2h.4l.4-.2.4-.2h1.2l.6-.2h.7c2 .2 4-.3 6-.8h.5l.1.1.1.1.2.1h.6l.5.1c.2.1.3.3.3.5s-.1.4-.3.5c-.1.1-.3.2-.5.1h-.2v.7l-.3.3-.8.3c-1.2.5-2.3 1.3-3.4 1.8a6 6 0 0 1-1.9.6c-.6 0-1.3 0-1.9-.3l-1.2-.8c-.3-.3-.8-.6-1.2-.6h-.7a1 1 0 0 0-.5.6v.6c0 .1 0 .2.2.3l.3.1h.3l.5.2.5.4c.5.3 1.2.6 1.8.7 1 .2 1.8-.1 2.7-.3h1.4c.5 0 1 0 1.3.3l.8.8c.3.5.5 1.2.4 1.8 0 .6-.4 1.2-1 1.5-.2.2-.5.3-.8.3-.3 0-.7 0-1-.2l-.6-.7c-.1-.3-.2-.6-.1-.9v-.2h-.9l-.1-.2-.9-1c-.3-.3-.7-.5-1.1-.6a3 3 0 0 0-1.3.2l-.4.5-.2.6c0 .3 0 .6.3.8 0 .2.3.3.4.4l.6.1h2.8c.4 0 .7.1 1 .3l.8.5.6.5.1.4c0 .2 0 .3-.2.4H184l-.6.2h-.6a.9.9 0 0 1-.5-.2l-.1-.2h-.2l-.2-.1h-.3c-.1 0-.3 0-.4-.2l-.4-.3c-.5-.5-1.3-.7-2-.8h-1.8l-.8-.1h-.4a1 1 0 0 0-.4.1l-.3.6.1.7.6.5.7.2c.5 0 1-.2 1.4-.4l1.4-.5c.9-.2 1.8 0 2.6.5l1 .7.5.3h1.1v.1l.1.2.1.2.2.2h.3l.4.2.3.2.2.3v.2l-.1.2-.3.2h-.3l-.2.1-.2.1v.4l-.1.6-.4.6a2 2 0 0 1-1.3.4 3 3 0 0 1-1.3-.3l-1-.8-1.6-1.5-.9-1c-.3-.3-.7-.6-1.2-.6h-.2a1 1 0 0 1-.5-.2l-.5-.8a4 4 0 0 0-1.6-1.3l-1.3-.8-.7-.7a3 3 0 0 0-.8-.6l-.8-.2-.8-.4-.5-.7-.1-.4-.2-.2-.2-.1h-.4l-.2-.2-.1-.2-.2-.2h-.2v.1l-.1.1-.1.1h-.1v-.4h-.1s-.2-.1-.2 0h-.3l-.2.2-.7.1a2 2 0 0 1-.7-.1l-1.3-.7c-.4-.3-.9-.5-1.3-.4-.3 0-.5 0-.7.2a1 1 0 0 0-.4.6v.5c0 1.3-.4 2.6-.3 3.9 0 1.1.5 2.2.5 3.3v.5c0 .4.2.7.3 1l.6.7.5.8.2.9v.5l.2.3.3.2.4.5c.1.1.2.4.1.6v.2h.4v-.2l-.2-.2v-.1l-.1-.2c0-.1 0-.2.2-.2h.4c.2.1.2.3.3.4l.1.5.3.5.5.5.5.6c.2.1.2.4.3.6l.2.6c.2.4.6.7.9 1 .3.4.6.7.7 1.1.1.4 0 1 .2 1.4 0 .2 0 .4.2.6l.3.2.3.1h.3l.2.1.2.2v1l.1.5c0 .3.2.5.4.7l.4.6v1.4c0 .2.2.3.3.4h.6v.4h.6l.2.4.2.3c0 .2.2.3.3.3h1l.2.1v.2c.1 0 0 .1 0 .2l.2.4.4.2c.3.1.6 0 .8 0h.9l.4.1.2.4v.3h.1l.2.2h.3l.1.2v.3l.3.2h.3c.4.1.8.4 1 .7.3.3.5.8.5 1.2 0 .4-.1.8-.4 1.1-.3.4-.7.6-1.1.7h-2.5a.8.8 0 0 1-.3-.3l-.2-.3-.2-.2h-.4v-.2c0-.1 0-.1 0 0h-.2v-.5h-.3v-.3h-.4v-.2h-.4v-.7h-.4v-.1l-.1-.2v-.1l-.1-.1-.1-.1h-.2l-.1-.1-.1-.1v-.1l-.1-.2v-.1h-.1v-.1h-.3v-.4l-.1-.2h-.4l-.2.1-.2.3c0 .2 0 .5.2.7l.4.5c.3.4.4.9.5 1.3.3 1 .7 1.9.8 2.8 0 .8 0 1.6.2 2.4l.2.6v.4s0 .2-.2.2c0 .2-.2.2-.4.2l-.4-.1a1 1 0 0 1-.3-.4l-.1-.4-.2-.9v-.4c-.2 0-.2-.2-.4-.3h-.1v-.1l-.1-.1v-.5h-.2l-.1-.1v-.4h-.2v-.5c-.1-.1-.1 0-.2 0l-.2-.1v-.2l.1-.3a1.3 1.3 0 0 0-1.5-1.8l-.3.1h-.2v-.9h-.2v-.7l-.1-.3a.8.8 0 0 0-.7-.2 1 1 0 0 0-.6.3l-.2.6v.7l.4.6 1 1 .3.4.1.4v.5l-.2.2h-.5l-.2.1v.7l.2.3v.3l-.2.1v.2h-.1v.2l.1.2v.3h-.4l-.1.1v.3l.2.2v.2h-.4l-.1.2v.6h-.4v.4a.6.6 0 0 1-.1.5c-.1.2-.3.2-.5.2a.7.7 0 0 1-.5-.2.8.8 0 0 1-.2-.5v-.6l-.1-.1-.2-.1-.1-.1-.1-.2v-.5l.2-1.2-.1-1.1c-.2-.4-.4-.8-.8-1l-.5-.1h-.6c-.3.2-.5.4-.6.7a2 2 0 0 0-.2 1c0 .6.3 1.1.5 1.7.2.5.3 1 .3 1.6v1.3c0 .3.2.5.3.8l.5.8.3.9v.4l-.3.4-.6.3-.5.2-.5.5c-.2.2-.5.2-.7.2h-.8l-1 .5-1.1.4a2 2 0 0 1-1-.3l-.6-.9a3 3 0 0 1 0-2l.8-1.8c.3-.7.6-1.3.5-2a6 6 0 0 0-.6-2.3 5 5 0 0 1-.6-2.3v-.8l-.3-.5-.3-.5v-1l-.3-.2-.4-.5c-.2-.2-.2-.4-.2-.6v-.7c-.2-1-.5-1.8-1-2.6a18.5 18.5 0 0 0-2.2-3l-.2-.8v-.5l-.2-.4-.2-.3-.4-.6v-.8c0-.8-.3-1.6-.7-2.3-.4-.6-.9-1.3-1.1-2l-.3-1.5-.5-1.4-.5-.9a2 2 0 0 1-.2-.4v-1l-.2-.2h-.1v-.6l-.1-.6a2 2 0 0 0-.3-.6l-1-.9c-.3-.4-.6-1-.7-1.5 0-.4 0-.7-.2-1l-.6-.8-.2-1.2.1-1.1c0-.4 0-.9-.2-1.2l-.4-.4a1 1 0 0 0-.5-.2h-.3a.7.7 0 0 1-.5-.3l-.2-.5-.1-.5-.2-.5-.5-.6a2 2 0 0 1-.5-1v-1.2c0-.4-.2-.8-.4-1 0-.3-.2-.4-.4-.5a1 1 0 0 0-.6-.1h-.2l-.1-.1-.1-.1v-.3c-.1-.4-.4-.7-.7-1a3 3 0 0 0-1-.4l-1.2-.3c-.4 0-.7-.2-1-.4a2 2 0 0 1-.8-1 .8.8 0 0 1-.8-.3l-.2-.4a1 1 0 0 0-.3-.4h-.3l-.3-.1-.2-.1-.2-.3V59l-.2-.3a.7.7 0 0 0-.4-.2l-.7.1c-.3 0-.5.2-.8.3h-.4l-.4-.1-.2-.3-.9-.6-1-.3-.9-.3c-.3-.2-.6-.3-.8-.6l-.6-.9-.4-.3a.8.8 0 0 0-.6-.1h-.2v-.8a1 1 0 0 0-.5-.4l-.5-.2-.6.1c-.4.1-.7.4-1 .6-.3.2-.7.4-1 .4a1.8 1.8 0 0 1-1.8-.5c-.2 0-.2-.2-.4-.3l-.2-.2h-.7l-1-.5a1 1 0 0 0-.5-.1h-.4l-.3.2h-.3l-.1-.1V53l-.3-.2a1 1 0 0 0-.5-.3c-.5 0-1 .1-1.3.3l-1.2.4-1.3.1h-9.8c-2.3.2-4.5 1-6.7 1.3a10 10 0 0 1-3.9 0l-.8-.2-.8-.6-.8-.4a1 1 0 0 0-1 0l-.3.3-.2.4v.3l-.2.1h-.3l-.2-.1H85l-.1.2v.4l.2.4.4.3a9 9 0 0 1 2.8 3c.2.6.4 1.1.8 1.6l1 1c.3.3.4.7.6 1 .2.4.4.8.7 1 .2.4.6.6.8.9l.2.7c0 .3.1.6.3.8l.3.4.2.4v.8l.2.7c.2.3.3.5.3.8v1l.3.3v.8c0 .5.4 1 .6 1.5.2.2.3.5.3.7v1.6l.2.2h.1v.6l.1.8.2.8c0 .2 0 .5-.2.7 0 .3-.2.5-.3.8l-.3 1 .1 1.8a4 4 0 0 1 0 1.8l-.3.5v.8l.3.2h.3l.1-.2V84l.1-.3.2-.3v-.3h-.1l-.2-.1H95v-.4l-.1-.2h-.2l-.2.2v1.1l-.3.2-.2.3-.2.3-.1.4c0 .2-.3.3-.4.4l-.2.2-.2.2v.5c0 .4 0 .8-.2 1.1-.2.4-.5.6-.8.9l-1.8 1.4c-.6.5-1 1.3-1.5 2-.4.7-.8 1.5-1.3 2.1-.5.5-1 1-1.3 1.5l-.6 1.3c-.2.2-.3.4-.6.5a1 1 0 0 1-.6 0H84l-.1.1v.8l-.4.4-1.1.6c-1 .4-1.9 1.1-2.4 2-.6 1-1 2-1 3.1 0 1 0 2 .2 3.1 0 1 0 2-.2 3-.2.9-.6 1.6-.7 2.4v1.1c.1.4.4.8.7 1h.2v.7h.5v.5h.2l.3.1.2.2.1.5c0 .3.2.5.4.7l.5.4c.4.3.9.6 1.2 1 .2.3.3.8.3 1.2l-.1 1.2-.3 1.3v1.2l.5 1.2v.7l-.2.2-.2.2a1 1 0 0 1-.4 0h-.4c-.5 0-1 .1-1.4.3l-1.4.5c-1 .2-2.1-.1-3.1 0-1 0-2 .6-3 .8H71c-.5 0-1-.4-1.3-.8v-.2h-.9c-.1-.1 0-.2 0-.2v-.1h-.1l-.1-.1H68v-.2h-.2l-.2-.1-.4.1-.4.2a1 1 0 0 1-.4 0H66l-.1-.2v-.5h-.5v-.5h-.2v-.5h-.4v-.4l.1-.2v-.2h-.5v-.2l-.1-.3v-.3l-.2-.2-.3-.1h-.1l-.1-.2v-.5l-.1-.2h-1.1l-.2-.3v-.3l-.3-.1-.2-.1-.2-.1-.2-.2v-.5l-.1-.7-.4-.6a6 6 0 0 1-.6-3.2c0-1.1.4-2.2.6-3.2l.5-1.8a4 4 0 0 1 1-1.6l.6-.5.5-.5.1-.3s0-.2.2-.2l.2-.2.3-.1.2-.3v-.4l.2-.4.2-.1h.4l.1-.2h.1v-.9l.3-.3.3-.2c.2-.3.5-.5.6-.9l.4-1c1-2.6 3-4.9 4.4-7.4l1.5-3.1c.6-1.2 1.3-2.4 2.3-3.4l.6-.5c.2-.2.2-.6.3-1v-1c0-.3.1-.7.3-1l.4-.2c.2-.1.3-.2.5-.1h.3V84l.2-.2.3-.3v-.8L78 82v-.7l.3-.4v-.3h-.1l-.1-.1h-.4l-.1-.2-.1-.2v-.3l-.2-.3-.2-.2H77l-.5-.1a1 1 0 0 1-.4-.1l-.2-.2v-.5h-.4l-.1-.1-.2-.1v-.4c.1-.4 0-.8-.2-1-.3-.4-.7-.5-1-.5l-.7.1a1 1 0 0 1-.3 0l-.3-.1-.3-.3h-.6l-.4.1h-.3l-.1-.2-.1-.1h-.4l-.3.1-.4.1h-.1l-.1-.2v-.3H69l-.3-.1v-.2l-.1-.2-.2-.3-.2-.1H68a1 1 0 0 0-.5.1l-.6.7-.4.8-.4.8a2 2 0 0 1-.6.6l-.6.2-.2.3v.8H64l-.1.3v.7a2 2 0 0 1-.6 1l-.8.8a6.9 6.9 0 0 0-1.8 4.4v2.4c0 .4-.2.9-.5 1.2l-.3.2-.2.6v.6l-.2.6-.3.6-.5.2a2 2 0 0 0-.6.5l-.5.5a5.7 5.7 0 0 1-5.9 1.8l-1.6-.4a2 2 0 0 0-.8 0c-.3 0-.5.2-.7.4l-.1.2-.2.1h-.2c-.3 0-.6.1-.8.3l-.6.4-.3.2a1 1 0 0 1-.4.1l-.7-.1H45l-.1.2v.5h-.7l-.1.2v.1l-.1.2h-.5a1 1 0 0 0-.5 0l-.5.2a2 2 0 0 0-.6.8c0 .2-.1.4-.3.5l-.6.5-.6.3c-.5.2-.7.7-1 1-1 1-2.5 1.6-3.7 2.3l-2 1.6-.9.7c-.3.2-.5.5-.6.9-.2.3-.2.7-.1 1 0 .2.2.4.3.5l.5.2h.9l.5.1.1.2v.5h.5v.4l.1.1h.9v.2h.5v.3h.6l.3.1.3.5.1 1.2.5 1c.2.4.4.7.4 1.1v.6l-.4.4c-.1.2-.3.2-.5.3l-.5.2-.5.4-.5.2c-.2 0-.5 0-.7-.2l-.6-.2a1 1 0 0 0-.6-.1c-.1 0-.2 0-.3.2l-.1.3v.2l-.1.2-.2.2H33c-.3 0-.5-.2-.8-.4a2.2 2.2 0 0 0-2.6.5z" style="fill:#deebfb;fill-opacity:1;stroke-width:.264583" transform="translate(-4.3 -4)"/>
  <path d="m81.7 127.5-1.2-.2a10.4 10.4 0 0 1-8-1.6l-.7-.1-.7-.2a20.9 20.9 0 0 0-5.8-1.5 20.8 20.8 0 0 0-3.2 0c-1 0-1.3 0-1.7-.2-.4-.1-.5-.1-.6-.5l-.2-1v-.4l-.2-.4-.1-.5-.2-1v-1.6a23.6 23.6 0 0 0 .3-1 29 29 0 0 1 2.1-5.3l.2-.2 1-1.8.3-.6.4-.7.1-.3.1-.2.1-.3.3-.5.3-.6.2-.5a12 12 0 0 0 .8-1.6v-.2l.2-.3.4-.6c0-.3.1-.4.2-.4l.1-.4.1-.4.4-.9.3-.8v-.2l.2-.4.4-1 .3-.8.1-.1c0-.3.4-1 .7-1.5l.2-.5.1-.2h.1l.2-.6.2-.5.1-.1.4-.5.6-.7.4-.6a7.1 7.1 0 0 1 1.6-1.9l.1-.1.1-.2.2-.3a34.1 34.1 0 0 0 2.5-2.6l.6-.6.1-.2c.2 0 .4-.3.4-.4l.3-.4.3-.6c.4-.8.5-1.2.5-2.4 0-1.4 0-1.7-.6-2.6l-.4-.6a9.8 9.8 0 0 0-2.5-2.7H74l-.4-.3a4 4 0 0 0-1-.9l-.5-.3-.5-.3h-.2c0-.2-.3-.3-.5-.4l-1.1-.7-1-.5v.7l-.2 1v.6l-.1.2c-.2 0-.2.3 0 .5-.1 0-.2.2-.1.4 0 .3 0 .5-.2.6l-.4 1.2a13.1 13.1 0 0 1-1 2.6v.3l-.5 1.2a13 13 0 0 1-1.3 2.8l-1 1.7-.1.2h-.1l-.1.2v.1l-.5.3-.3.6-.2.3h-.2l-.3.3c0 .2-.2.2-.3.2-.1 0-.8.5-.8.7H61l-.6.5-.5.4-1.1.5-.4.1-.5.3a2545.4 2545.4 0 0 1-4 1.3l-.6.1-2 .5a3 3 0 0 1-.8.2h-.2l-.2.2h-.3l-.5.2c-.3 0-.5 0-.6.2h-.2l-1 .4a3 3 0 0 1-.5.1 5 5 0 0 0-1.2.5 4 4 0 0 1-.5.2l-.4.1a5.2 5.2 0 0 1-1.1.4l-.8.3-.5.2h-.1l-.1.2-1.6.6-.3.2a1 1 0 0 0-.4.2h-.2l-.6.3h-.3l-.6.6-.4.2-.4.2-.2.2c-.1-.1-1 .6-1 .8l-.1.1s-.2 0-.4.3c-.1.2-.3.3-.4.3l-.2.4-.4.5s-.1.2 0 .2l-.2.3-.3.5c0 .2 0 .3-.1.2 0 0-.4.6-.5 1.2-.2.6-.2.6-.2 1.7 0 .8 0 1 .2 1.2.4.7.8 1.1 1.3 1.4 1.3.6 1.5.8 1.8 1l1.5 2.2c.2.5.3 1.5.1 1.9-.2.4-1 1.2-1.3 1.5-.3.2-.4.2-1 .3l-2.3-.2h-1.6a8 8 0 0 1-2.9-.5l-.4-.2-.4-.2a.8.8 0 0 0-.3-.2c-.3 0-.7-.2-.7-.3l-.2-.2-.1-.2v-.2c-.2 0-.5-.7-.7-1.2l-.2-.8-.2-.5-.2-.4v-.4c.1-.2.3-.2.2 0v.1l.1.2v.3l.2.1.1.5.2.4v.2l.3.5.3.8.3.4.7.3c1.5.8 1.5.8 3.1 1l4.2.3c.8 0 1 0 1.7-.7.8-.8.8-1 .7-1.9 0-.5 0-.7-.2-.8l-.2-.3c0-.1-1-1.5-1.3-1.7l-.4-.3-.5-.2-.4-.1-.2-.1a5.7 5.7 0 0 1-1.4-1.4l-.2-.5c-.2-.4-.2-.6-.2-1.4 0-.9 0-1 .3-1.7a8.8 8.8 0 0 1 2.2-3.7l1-.8 1.4-1a17.5 17.5 0 0 1 4.3-2l.4-.2a7 7 0 0 0 1-.4l.4-.1h.3l.6-.3c.3 0 .7-.2 1-.4l.5-.2 1.2-.4.5-.1.4-.1.5-.2.5-.1.2-.1h.2l.6-.2 1.2-.3a16 16 0 0 1 2-.5l1-.3.7-.2.4-.2.5-.1.7-.3.3-.2s.3 0 .4-.2l.7-.3.6-.3.6-.4c.5-.2.8-.5 1.4-1l.5-.2a10.7 10.7 0 0 0 1.7-1.9l1-1.1c0-.2.3-.6.4-.5l.1-.2.1-.4.2-.2.6-1.4.3-.8c0-.3.3-.8.4-1l.2-.5c0-.1 0-.4.2-.6a21.4 21.4 0 0 0 1.7-6.9v-.6l-.4-.3-.4-.4-.4-.2a15 15 0 0 1-1.5-.8c-1.8-1-2.1-1.1-2.9-1.8a1 1 0 0 0-.4-.2l-.3-.4-.8-.6a7 7 0 0 1-.8-.7l-.3-.3a16 16 0 0 1-2.7-2.5 128.8 128.8 0 0 0-4.4-4.7 74.7 74.7 0 0 0 .3 1.4 26.4 26.4 0 0 1-.5 8.4c0 .3 0 .4-.2.4l-.2.2-.1.6-.3.8-.4 1-.4.9-1 2.1-.7.9-.5.7-.8 1-1 1c-.7 1-1.5 1.7-2 2.1a29.3 29.3 0 0 1-8 4.9l-1.8.8-.6.3-1 .5-1 .3-.5.3a35.9 35.9 0 0 0-4.5 1.9 55.2 55.2 0 0 1-2.2 1.1 6.6 6.6 0 0 0-1 .9c-2.2 1.7-3.7 4.1-3.8 5.9 0 .9 0 .9.3 1 .2.1.1.3-.3.3-.3 0-.6-.3-.6-.7a8.5 8.5 0 0 1 .8-3.2c0-.2.2-.5.8-1.2l.6-.7c0-.2.1-.3.2-.3l.3-.3.2-.2.1-.1.2-.2.5-.4.4-.2.1-.2c.1-.2 1-.9 1.2-.9h.1l.1-.2.4-.1.4-.2h.2c0-.2.9-.6 1-.6l.1-.1.5-.2.7-.3.5-.3h.3l.3-.2h.4l.3-.2.2-.1.4-.3c.2-.2.3-.2.8-.2 0 0 .1 0 0 0l1-.5h.2l.3-.1c.2 0 .4-.1.5-.3 0-.1.1-.2.2-.1 0 0 .5-.1.7-.3l.2-.2h.6l.4-.2.3-.2.1-.1 1.1-.6.4-.2V86h.3l.3-.2h.1l.4-.3.6-.4h.2c.2 0 .4-.2.5-.3 0-.1 0-.1 0 0h.1l.1-.2h.2l.3-.2.9-.5.2-.2h.4v-.2l.3-.1c.1 0 .6-.4.6-.6h.1l.2-.2.1-.1.4-.2c0-.2.3-.3.5-.4l.2-.2.5-.5.4-.5.5-.5.1-.1.1-.2.3-.3.4-.3s.1 0 0 0c0-.2.6-1 .7-1l.2-.1c0-.1 0-.2.2-.2l.3-.3.1-.3s0-.2.2-.3V77l.3-.3a9.2 9.2 0 0 0 1.3-2.2l.1-.2.6-1.6.1-.4.1-.4.1-.2.2-.8.2-.8.1-.2.2-.3.1-.3c.2 0 .2-.1.3-.8l.1-1v-3c0-1.8 0-2.2-.2-2.6l-.3-1c0-.5-.3-1.2-1-1.9a667.4 667.4 0 0 0-.5-1v-.6c-.2-1-.3-2-.2-3.1a26.5 26.5 0 0 1 4-12.2l.2-.4 1.2-1.7 1.5-1.9c.3-.5 2.3-2.5 2.8-2.9a76 76 0 0 0 4.6-4 26.1 26.1 0 0 1 4.5-3c.5-.4 1.7-1 2.3-1.3a57.8 57.8 0 0 0 4.4-2c.1 0 .4 0 .6-.2l1-.3A77.1 77.1 0 0 1 90.8 20a146.2 146.2 0 0 1 11.8-2.2c1.3 0 2 0 2.8-.2a151.5 151.5 0 0 1 19.2 0l2.1.2a104.7 104.7 0 0 1 11 2.2 24.2 24.2 0 0 0 2.1.7l1 .4 2.3 1 2.8 1.2c1.2.4 3.2 1.5 3.3 1.7l-.3.1c-.3 0-1.2-.4-1.6-.7l-.3-.2-.4-.1-.7-.4a27.7 27.7 0 0 1-3.2-1.4l-1-.4a40 40 0 0 1-2.8-1 31 31 0 0 1-3.7-1.2 2 2 0 0 1-1-.3l-.9-.1-.7-.1a19.6 19.6 0 0 0-2.7-.6h-.7l-1.6-.3h-.5a68.3 68.3 0 0 0-18-.5h-1.2a16.7 16.7 0 0 0-2.3.2 71.5 71.5 0 0 0-19 3.6A65.2 65.2 0 0 0 75 25.8a326 326 0 0 1-3.7 1.7 52.8 52.8 0 0 0-8 5.5l-1 1a27.4 27.4 0 0 0-5.4 5.7 17.4 17.4 0 0 0-3.3 5.7 24.2 24.2 0 0 0-2.5 9.7c0 1.4.2 2.1.5 2.5a276 276 0 0 1 4.1 5 28 28 0 0 0 2.5 2.7 36.9 36.9 0 0 0 7.9 6.4 17.2 17.2 0 0 1 1.4.8c.2 0 1 .4 1.3.7.1.2.5.4.7.5l.5.4c.1.2 1 .7 1.1.7.1 0 .4.1.5.3l1 .6 1.2.8 1 .9a8.4 8.4 0 0 1 2.5 2.7l.2.3.3.7c.4.8.4 1.2.4 2.4 0 1-.1 1.4-.5 2.4-.4.8-.7 1.2-2.9 3.4a26.5 26.5 0 0 0-3.4 3.9l-.5.7-.7 1a2967.2 2967.2 0 0 1-2.8 6.2l-.4 1a11 11 0 0 1-.7 1.6 21.3 21.3 0 0 1-.8 1.9l-.3.5a20.2 20.2 0 0 0-1.1 2.3l-.4.8a26.6 26.6 0 0 0-4.1 9.8c0 .7 0 1.4.3 2.9.3 1.1.3 1.1.9 1.3.4.1.6.1 1.6 0 1 0 1.2 0 2.3.2l2.1.2c.6 0 1 .1 1.7.4a43.5 43.5 0 0 0 7.6 2l3.4.7c.9.2 2.7.3 2.9.2.2-.1.5-.8.6-1.2.2-.6.2-1.5.1-1.8v-.6l-.2-.7a1 1 0 0 1 0-.3c0-.2-1.3-1.2-1.6-1.3l-.2-.1v-.1l-.4-.2a16.7 16.7 0 0 1-2.9-1.5l-.6-.4-.7-.4c-.2 0-.3-.2-.4-.3l-.3-.1-.4-.3-.3-.2v-.2l-.1-.1c-.4 0-1-.9-1.2-1.7v-1.1l.2-1 .4-.8c0-.3.2-.6.3-.7v-.3l.5-1 .2-.4.5-.7c.4-.5.8-1 1-1.5l.6-.7.4-.4.8-1.2.3-.3.1-.1.3-.4 1.1-1.3.6-.6a9.5 9.5 0 0 1 1.2-1.6l1.2-1.5a61.2 61.2 0 0 0 3.1-3.9l.6-.7V95l.5-.7a58.3 58.3 0 0 0 4-5.8 16.5 16.5 0 0 1 1-1.5c.1-.3.4-.6.5-.6.1 0 .1 0 0 0l.1-.5.2-.4.3-.4.3-.4v-.3l.2-.4v-.3c.2 0 .6-1 .8-1.7l.2-.7.2-.4.1-.3v-.3l.2-.3v-.5c.2-.4.2-.7.1-.8v-.1a43.7 43.7 0 0 1 .7-3.3 182.7 182.7 0 0 0 .2-5v-.6l-.3-.8-.2-.6a8.9 8.9 0 0 0-1.1-2.4l-.2-.3-.2-.4V65c-.2 0-.2-.2-.2-.3l-.2-.4-.4-.4-1.4-1.5a18.2 18.2 0 0 1-1.4-1.5c-.2 0-.3-.1-1-.8l-.8-.6-.4-.4s-1-.7-1.2-.7l-.3-.2c-.1-.2-.4-.4-.7-.5a8 8 0 0 1-.7-.5l-.5-.3-.9-.5-.4-.4c-.3-.1-.4-.1-.4 0v.3l-.1.2c-.1-.1-.2-.3-.2-.8 0-.2-.1-.3-.4-.6l-.3-.4c0-.2.1-.2.2 0 0-.1 0-.1.2 0a78 78 0 0 0 .7 0l.2-.1.4-.3.5-.3.4-.1.5-.2.5-.1c1-.3 2.6-.4 5.8-.3a52 52 0 0 0 9-.2c1.2 0 1 0 1 .1h.1a9 9 0 0 1 3.7.2c.5 0 1.5.3 1.9.4l1 .1 1.3.2 1 .2 1 .1a65.5 65.5 0 0 0 6.3 1.5l.7.2h.2l.3.2.3.1c.1.1.4.3.8.3l.4.1.6.2h.4l.3.2.8.2.4.2.6.2 1.2.3h.4l.2.2.4.1.3.1.2.1 1.2.3.4.2h.2l.3.1a40.8 40.8 0 0 1 .9.2h.1l.4.1.3.1s.1.1.2 0v.1l.4.1c.2 0 .4 0 .7.2l.7.3.5.2.2.1.5.1.3.2.5.1.6.2.6.2h.5l.7.1c.4 0 .6.1.7.3l.2.1v.1h.2c.2 0 .2.1-.1-.5l-.3-.8a38 38 0 0 1-1.8-5 1 1 0 0 0-.2-.4l-.1-.3v-.2l-.1-.3-.1-.2c-.2 0-.2 0-.4-.4l-.2-.6v-.2l-.1-.1-.1-.3-.1-.3-.1-.4.1-.3c.3-.1.4 0 .4.3v.3l.3.4a24.5 24.5 0 0 0 1.2 2.8v.1h.3v.1c-.1 0-.1.1 0 .2l.2.6.2.7v.3l.1.1v.4c.3-.1.4.5.2.8v.2c0 .1.1.1.2 0v-.3l.1.3.1.3.1.2.2.3.1.6c.1.2.2.4.1.5 0 .1 0 .2.2.3l.1.3.2.3v.3l.1.2c.3.2.6.8 1 1.6a70.4 70.4 0 0 0 2.8 6.6 37.1 37.1 0 0 0 1.6 3.3 31.3 31.3 0 0 1 .9 1.8 51.7 51.7 0 0 0 1.2 3v.3l.1.2.1.3v.3h.1v.3l.2.4.1.6a9.2 9.2 0 0 1 .7 2.4 45.1 45.1 0 0 1 .5 3.6l.3 1a4.7 4.7 0 0 1 .4 1v.2l.2.5v.4s0 .1 0 0c.2 0 .2.2.4.6l.4 1 .3.7.1.2c.1.1.3.3.3.5l.3.4.1.2.1.4c.2 0 .5.3.8.7a13.7 13.7 0 0 0 1.2 1.4l.2.1.3.2.3.4c0 .2.1.3.2.3v.1c0 .1 0 .2.2.3l.4.5.1.3c.2 0 .8.8.7 1h.2l.1.2.5.8.1.3.2.3.1.3.2.6.3.5.3.4 1 1c0 .2.3.5.5.8a6 6 0 0 0 1.3 1.5l.1.1s0 .2.2.2l.3.5.2.5c.3.7.2 1.6-.1 2.6-.3.7-.5 1.6-.5 2a4.2 4.2 0 0 1-1 2l-.3.4c-.2.3-.2.5.3.8.3.3.3.3.9.1l.9-.3c.4-.2 1.5-1.5 2.2-2.7.9-1.5 1-2.2.6-4.3l-.2-1.2c-.2-1-.3-1.3-.8-1.8l-.4-.6s0-.2.2-.2l.6.2c.5.4.8.6.8.8h.1c.2 0 .7.8.8 1l.3.6c.1.3.2.4.2 1.2 0 1.3.3 1.9 1 2.2.5.2 1 .2 1.3 0l.2-.3v-.2c.2 0 .6-.7.7-1.1V106l-.3-1-.3-1.3c-.2-.3-.2-.6-.2-.7l.2-.2.5.1.2.3 1.1 1.2.7.9.1.1 1.1 1.8c.5 1 .9 1.4 1.3 1.5h.6c.3 0 .3 0 .3-.4v-.7c.1-.3 0-1.7-.2-1.8l-.2-1v-.4a6 6 0 0 0-1.5-2 9 9 0 0 1-.9-.8l.3-.2h.3l.6.5c.3.4.7.7 1 .8.6.3.9.5 1.5 1.1.7.7 1.7 1.2 2.1 1 .4 0 .7-1.2.4-1.4l-.1-.6-.1-1c-.1-.5-.2-.7-.7-1.3a14 14 0 0 0-2.2-2 11 11 0 0 1-3.4-4.3l.3-.6.3-.6c0-.3-.6-1.3-1-2a31.7 31.7 0 0 1-2.2-2.8 15.9 15.9 0 0 1-1.1-1.7l-.9-1.6-.6-1.2c0-.3-.3-1-.6-1.6l-.5-1.6a16.1 16.1 0 0 1-1.2-4.2l-.4-2a44.5 44.5 0 0 0-.8-4.4l-.1-1.9a251 251 0 0 0-.8-12 2645.3 2645.3 0 0 0-.5-3.6c-.5-2-.5-2.1-1.2-3.7a23.8 23.8 0 0 1-1.1-2.5l-.7-1.3-1-2-1.2-2.7-.4-.9-.3-.8-.5-1a14.3 14.3 0 0 1-.8-1.8l-.6-1.1-1.1-1.8-1-1.4-2.1-2.6-.8-.9v-.4c.2-.2.4-.2.4 0l.5.7a76.8 76.8 0 0 1 5 7l.5 1 .5 1.1.2.4.3.6.4.7.3.7.2.6.4 1 .5 1.2c.1.3.2.4.5.4 0 0 .4.1.7.4l.8.4a8 8 0 0 1 1.9.5l.8.1 1.9.3c2 0 1.8 0 3.4-.3 1-.2 1.2-.3 1.5-.6l.7-.4.5-.3.2-.1.2-.1 1-.4 1.2-.5h.3l1.7-.6-.3-.1c-.6 0-1.3-.6-1.3-1l-.2-.3-.1-.6c0-.6.4-2 .5-2.5.5-1.2.6-1.4.9-1.7.3-.3.6-.4 1-.3h.8c.5-.1 1 0 1 .2l.2.2c.2 0 .4.5.4.9v.4c.3.3 0 2.6-.5 3.5l-.2.3.4.3c.4.2.5.4.3.8-.1.2 0 .4.2.4s.9.4 1.1.7c.2.2.2.2.3 0l1.5-1.4c2.6-2.2 3.6-3.6 3.7-5.4a15.6 15.6 0 0 0-.7-4.8c-.1-1-1-3.2-1.7-4.2s-1.6-1.9-2.4-2.4a49.3 49.3 0 0 1-2.4-1.5 22.3 22.3 0 0 1-2.5-1.2l-1-.4a21.6 21.6 0 0 0-7.3-.8l-.9.2a14.9 14.9 0 0 0-3.6 1l-1 .5-1.6.8c-1.5.8-1.5.8-1.5 1h-.2l-.4.3-.8.6-.8.7-.5.3-.5.5-.9.6-.9.5c-2.2 1.3-2.8 1.2-3.9-.5l-1-1.1c-.6-.6-.7-.8-.4-.8.3 0 1.3 1 1.8 1.8s1 1.1 1.4 1c.5 0 2.7-1 3.6-1.8a50.8 50.8 0 0 1 6.6-4.3l1.2-.6c.4 0 .8-.2 1-.3a20 20 0 0 1 3-.8 20.2 20.2 0 0 1 9.8 1.7l2.1 1a9 9 0 0 1 1.5 1l1 .7 1.1 1a28 28 0 0 0 1 1.3 15.8 15.8 0 0 1 1.8 5c.4 1.8.5 2.3.5 3.3v1.2l-.2.7c0 .5-.5 1.2-1.2 2-.3.5-.8 1-2.5 2.4-1.5 1.4-1.7 1.7-1.8 3.2 0 1-.2 2.3-.4 3.1-.3.8-.6 1.1-1.2 1.3l-2-.1h-1l-.5.7c-.7 1-1.6 1.5-2.5 1.6a3 3 0 0 1-2-.5 3 3 0 0 0-1-.4c-.3 0-.3 0-.5.2l-.3.7c0 .3-.2.5-1 1.4-1.4 1.2-2 1.7-2.7 1.7l-.8-.2c-.4-.2-.4-.2-.6 0-.3.2-.4.2-.6 0l-.2-.1v.8a17.7 17.7 0 0 1 .4 2.7c.2.2.3 1.4.3 2.6.1 1.4 0 1.3.8 1.5.3 0 .6.2.6.3l1.7.6.5.1 1.4.4a107.6 107.6 0 0 1 2.5.6 14.3 14.3 0 0 0 5.6-.6l1-.4c.6-.2 2.3-1.3 2.8-1.8l1.3-.8a4 4 0 0 1 2.2-.2c.4.1.8.2 1 .1.4 0 .2.5-.5 1.3a9.5 9.5 0 0 1-2 1.8l-1.8 1.3c-.5.4-.5.4-.4.6l.5.2.2.2h1.8a80.8 80.8 0 0 1 3.4.3H180l-.5-.2c-.2 0-.5-.3-.5-.5l.9-1a560.3 560.3 0 0 1 2.7-2l1.2-1.4-.5-.2-.6-.2c-.5-.2-1.6.2-2.4.8a12.4 12.4 0 0 1-1.1.8c-.4.5-1 .8-2 1.2l-1.3.6c-.5.3-2.1.6-3.8.7-.9 0-1.8 0-2.4-.3l-1-.2a22.4 22.4 0 0 1-5.5-1.8v4l.1 2c0 1.6 0 1.6.8 1.7.2 0 .4 0 .5-.2h.3l.4.2c.3 0 .9.7 1.2 1.4.3.5 1 1.3 2.4 2.6l.6.7s0 .2.2.3l.5.7a7 7 0 0 0 1.7 1.8l1 .6c.3.3 1.3.8 1.5.8l1.2.6c3.3 1.6 3.6 1.7 5.9 1.8h.5l1.7-.3c.3-.1.8-.7.8-.9l-1-.1a8.8 8.8 0 0 1-2.5-.2c-.9-.2-1.1-.3-1-.4 0-.1 0-.2-.1 0h-.4l-.5-.2-.7-.3-.4-.2-1.5-.6c-1.7-.8-2.4-1.5-1.9-2h.6l.4-.1.4.1s0 .1 0 0c.1-.1.5 0 .6.1.1.2.2.2.2.1h.2v.1l.1.1h.1l.9.1a209.5 209.5 0 0 0 7.1 1.2h.3c.5 0 1-1 .7-1.4-.2-.6-1-1.1-1.5-1.1l-.2-.1c0-.1 0-.1 0 0h-.4l-1-.1c-1.2-.1-2-.3-2.4-.5l-.7-.2-.8-.2-.3-.1-1-.5c-.1-.3.2-.6.7-.7h3.2l1.2.1a6 6 0 0 1 1.2 0l.2.1h1.7l.3-.2c.8 0 1-.1 1.1-.2l.3-.2c.2-.1.4-.7.3-1l-.3-.5c-.3-.3-.4-.3-1.2-.4h-3.3l-1.1-.1-.9-.3c-.6-.1-.8-.2-.7-.5 0-.2.9-.7 1.4-.7l.4-.2h1.2a16.6 16.6 0 0 0 3.3-.6l.7-.3c.3-.1.4-.3.5-.5.2-.5.2-.9 0-1.2-.3-.2-.3-.2-1.2-.2h-1c0-.2 1-.3 1.6-.2h.7c.2 0 .3 0 .3.2l.1.3c.3.2.2 1.3-.2 1.5a10.7 10.7 0 0 1-5.4 1.3c-.8 0-1 0-1.4.2l-.4.4 1.2.4 2.2.1c1.8 0 3.2.2 3.2.3l.2.1.1.1.2.2.2.1c0 .1 0 .2.2.3v.5c0 .4 0 .5-.5.9l-.5.4-.3.1a2 2 0 0 1-.7.2 2 2 0 0 0-.5 0c-.3.2-.8.3-1.4.2a76.4 76.4 0 0 0-5.4-.6c-.7 0-1 .1-1 .3 0 0 .5.5.7.5l.4.1 1.2.4.6.2h.2l.4.1.5.1h.3c.1.2.8.2.7 0h.7c.5 0 .9.2 1 .4h.2v-.2c-.1 0-.1 0 0 0h.1c0 .2.1.2.2.2h.2l.2.1c.1 0 .2 0 .2.2l.1.1.4.4c.3.5.4.8.1 1.4-.1.3-.3.4-.6.6l-.6.2-.5.1h-1.4l-1.4-.2c-.8 0-1.3-.2-1.3-.4l-.1-.2c-.1 0-.1 0 0 0 0 .4-.2.4-1 .1l-1.2-.3-.4-.2-.1-.1c-.1 0 0 0 0 .1s0 .2-.1 0h-.5l-.4-.2h-.5c0-.2-.6-.4-1.2-.5l-.4.1c0 .2.9 1 1 1 .2 0 .6.3.6.4h.2l.7.3.8.3h.2l.7.3c1.1.6 2.8 1 4.6 1 1.4 0 1.6 0 1.4.4-.2.4-.7.9-1.2 1a6 6 0 0 1-1.9.5h-.5a10.4 10.4 0 0 1-3.4-.5h-.2l-.2-.1h-.3l-.2-.2s0-.1-.1 0h-.3l-.7-.4a6.8 6.8 0 0 1-1.5-.9h-.3a10.8 10.8 0 0 1-1.7-.7l-.7-.6a12.3 12.3 0 0 1-2.3-2l-.6-1-.8-1-.3-.3-.5-.4-.5-.5-.3-.3-.1-.1s0-.1 0 0c-.2 0-.6-.5-.7-.9 0-.3-.5-1-.6-1h-.3c-.2-.2-1.2-.4-1.4-.3v.9l.1 1a63.6 63.6 0 0 1 1.2 6c0 .4.7 2.2.8 2.5l.5 1.4a21.7 21.7 0 0 0 3 5.8 36 36 0 0 1 3.4 5c.2.5 0 1-.3 1.3-.3.3-.3.3.2 1.2a11 11 0 0 0 3 3.3c1 .7 2 1.8 2.5 2.5.3.4.4.6.5 1.1v.9l.1.6c.3.8 0 1.5-.7 1.7a3 3 0 0 1-1.8-.2l-.9-.7-.6-.5.4 2c.2.5.2.8.2 1.8l-.1 1.3c-.3.3-.6.4-1 .4-1.2 0-1.5-.4-2.2-1.8a16.6 16.6 0 0 0-1.5-2.5c-.3-.3-.7-.7-1-.7v.1l.1.4.1.3v.3l.2.3c.2.2 0 3.1-.1 3.1l-.1.3-.2.5-.5.5c-.4.5-.7.7-1.4.7-.5 0-.6 0-1-.3-.6-.4-1-1.2-1-2.2 0-.6-.2-1.4-.4-2-.2-.2-.4-.2-.3 0l.3 1.5v.7l.1.3v1c0 1-.1 1.7-.4 2l-.2.1-1.3 2a4 4 0 0 1-2.6 1.8c-.8.1-1.2 0-1.6-.4l-.3-.4v-.2l.5-.6a4 4 0 0 0 1-1.9l.5-1.9c.3-.6.3-1.7.1-2.6 0-.6-.1-.7-.5-1-1-1-1-1-1.6-2l-1-1.2c-1-1-1-1-1.4-2.2-.3-1-.5-1.2-1-1.9l-.5-.7-1.9-2.3a16.7 16.7 0 0 1-2.7-3.4 17.1 17.1 0 0 1-1.7-4 14.5 14.5 0 0 1-1-4.8 17.5 17.5 0 0 0-.9-3.4 20.8 20.8 0 0 0-1.6-4.7 210.2 210.2 0 0 0-4-8.5 104.2 104.2 0 0 0-2.5-5c-.2 0-.4 0-.4-.2-.3-.3-.7-.4-1.3-.4l-.7-.1-.9-.3-.7-.3h-.2l-.4-.1-.8-.3-.7-.3-.8-.2-.5-.2-1-.2-.6-.2-.6-.1-.6-.2h-.2l-1.6-.5a4.8 4.8 0 0 0-1.6-.6h-.4l-1.3-.5a5 5 0 0 0-1.4-.4 3 3 0 0 1-.6-.1l-.5-.1c-.1 0-.2 0-.3-.2l-1.1-.3-.6-.3-1-.3-.4-.2h-.4l-.6-.2h-.3l-2.6-.6a45.6 45.6 0 0 0-6.5-1 39.5 39.5 0 0 1-3-.6h-1l-5 .1H87.7a9 9 0 0 0-2.9 1c-.5.3-.6.5-.4.9l.3.2.6.4.9.6c.2 0 .4.2.5.3l.5.3c.6.2 1 .5 1.4.9l.3.2.5.4.5.5.7.5a670.3 670.3 0 0 0 2.5 2c0 .2 0 .2.9 1.2l.5.6.2.3.2.3s0 .2.2.3l.2.3a12 12 0 0 0 .9 1.7 6.8 6.8 0 0 1 .8 2l.4 1.6v4.2c-.1.4-.2.9-.1 1l-.1.6-.1.6c0 .2 0 .7-.2 1.2l-.4 1.6-.1.7-.2.6c-.2.3-.2.4 0 .3v.1l-.2.2s-.3.7-.2.8l-.2.4-.2.3v.3l-.2.4c0 .1 0 .3-.2.5l-.2.5c0 .1 0 .3-.2.3l-.1.3-.2.3a1 1 0 0 0-.2.3l-.3.5-.2.5-.1.2v.1l-.2.2-.2.3c0 .2-.2.5-.4.5l-.1.2c0 .3-.2.7-.5.9l-.1.3s-.1.2-.2.1l-.3.4-.2.4v.1l-.1.2c-.1 0-.2 0-.2.2 0 0 0 .2-.2.3l-.2.3-.1.2-.1.2-.2.2-.3.3-.1.3-.1.1c0 .1-.2.2-.2 0l-.1.1-.1.2-.2.2c0 .2-.1.3-.2.3v.3l-.2.2c0 .2-.2.4-.3.3l-.4.6c0 .2-.3.6-.4.6v.2l-.3.4a37.3 37.3 0 0 0-1 1l-.1.3-.2.1-.4.6a7 7 0 0 0-.6.7l-.4.4-.3.3-.3.4-.5.7c0 .2-.3.4-.5.6l-.4.4c0 .1 0 .2-.2.2-.1 0-.1 0 0 0 0 .1 0 .3-.4.7l-.5.6-.1.2-.2.2-.3.4-.4.3-.4.5-.1.1v.2c-.1 0-.1 0 0 .1l-.1.3c-.2.4-.7.7-.8.7l-.9 1.1-.3.5c0 .2-.2.3-.3.3v.1c0 .2-.4.7-.6.7l-.2.1h.1v.2a1 1 0 0 0-.3.3l-.2.2s-.1 0 0 .1v.2l-.4.2-.2.3-.1.4-.1.2c-.2 0-.2 0-.2.2l-.5 1.2-.1.4-.2.5-.2.6v.3l-.2.6.4 1.2a5.4 5.4 0 0 0 1.5 1.4l.6.4 1 .6c.2.3.7.5 1 .7a37 37 0 0 1 4.5 2.8c.2.3.4 1 .5 1.8v.5c.1.1 0 1.3-.1 1.6l-.7 1.5a3 3 0 0 1-1.2.2zm94.4-50.2h-.1v.1h.1zm4.5-3.3h-.1v.1h.1zm-38.8-6h-.1c0-.1-.1-.1-.1 0h.2zm23.1-14v-.2l-.2-.3c0-.2-.3-1.1-.5-1.3l-.1-.4v-.2l-.2-.5-.2-.6-.2-.5-.2-.7-.1-1.2-.1-1.2-.4-.4c-.3-.3-.4-.3-.5-.2a3 3 0 0 0-.4 1.1s0 .2-.2.3c-.1 0-.1.1 0 .2v1c.1 0 .2.1.3.4 0 .3 0 .5-.1.3 0-.1 0 0 0 0v.2c.1 0 .2.1.1.3v.1h.1v.3l.2.5v.8l.2.4.1.4.2.4c0 .3.5.7.7.6l.6.2c.4.1.8.2 1 0zm-2.6-.1h-.1.1zm3.3-.3.7-.5.7-.7c.4-.4.6-.6 1-1.7.2-.4.3-.5.6-.5.5-.2 1.4 0 2 .4.2.2.8.4 1.3.4.8 0 1.4-.4 2.4-1.7l.6-.6c.3-.2.4-.3.2-.3-.1 0-.6-.5-.7-.9a6 6 0 0 1 .3-2.9c.1-.5 0-.4-.4 0a8 8 0 0 0-1.4 2.2c0 .4-.7 1.2-1.2 1.7-.3.3-1 .5-1.3.3h-.7c-.5.2-.8.1-1.2-.2l-.4-.2c-.3 0-.8-.4-1-.7-.2-.5-.1-1 .4-1.8l.4-.8h-.6a136.6 136.6 0 0 1-1.9.3h-2l-1.2-.3a24.9 24.9 0 0 0-1.9-.5c-.3 0-.8-.2-1-.4l-.7-.2s0 .3.2.5a49.3 49.3 0 0 1 2.5 5.5v-1.3c-.2-1 0-1.5.3-2.4.3-.6.6-.9 1-.9.2 0 .2 0 .3.3 0 .2.2.3.2.2.1 0 .2 0 .2.2l.2.3c.2 0 .2.2.3.7l-.1.6v.2l.1 1 .2 1c.2.2.3.6.2.6l.2.4c.2.3.3.6.1.5v.2c.2 0 .2.2.2.4s.2.4.2.2l.2 1v.6l.5-.3zm-30.2-.7v-.1l-.1.2c0 .2 0 .2.1.1v-.2zm34.3-4.8v-.3l-.7.3c0 .1.5.4.7.3V48zm1.5.2c.5-.2.7-.6 1.5-2.2l.2-.4.2-.2c0-.2 1.4-1.7 1.7-1.8l.4-.4c.6-.7 1-1 1.5-1.3l.6-.2c.1-.1.1-.4 0-.4l-.4-.2c-.3-.1-.6 0-1.2.5l-.3.2-.4.2a6 6 0 0 1-1.8.5h-.2a2 2 0 0 1-.5.2l-.5.2a19.7 19.7 0 0 1-1.7.8 11.4 11.4 0 0 0-2.4 2.1c-.1.2-.3 1-.2 1.2 0 .3.2.6.3.6l.2-.5c0-.5.2-.7.9-1.1.5-.4 1-.3 1 .1.1.2.4.3.4.2 0-.2.5-.4.8-.4.2 0 .2 0 .2.6 0 .5-.3 1.3-.6 1.5v.3l.3-.1zm6.8 0 .3-1-.6.4-1 .3c-.7 0-.6 0-.5.2.3.1 1.7.2 1.8 0zm-7.3-.7.2-.5-.1-.3c-.3 0-.5.5-.4.9 0 .2.2.2.3 0zm-1.3-.3c.2-.5.2-.8 0-.8-.3 0-.5.2-.6.5v.7c0 .1.4 0 .6-.4zm6.7-2.6c.5-.3.5-.3 1.6-.3h1.1v-.5c-.1-.3-.7-.8-1-.8-.2 0-.5-.2-.4-.3 0-.1 0-.2.2-.2s.2 0 0-.1c-.2 0-.4 0-1 .5l-.8.5c-.2 0-.8 1.3-.8 1.7v.3l.3-.3.8-.5zm.1-4c.6-.3.6-.3.8-.6l.4-1.2-.8.7c-.6.6-1.3 1-1.5 1h-.3c-.4.3.7.4 1.4 0zm-2-.8c0-.2-.2-.4-.3-.4v.3c.1.1.3.2.3 0zm0-2.2 1.1-.7.3-.1 1.8-.4c.1 0-.1-.6-.3-.8-.2-.2-.2-.2-.7-.2-.9.1-1.3.4-1.6 1.1-.1.3-.2.4-.3.3-.2 0-.2 0-.3.2-.2.6-.2.9 0 .6zM63.7 117.2v-.2l.2.2h-.1zm-38-7.2a7.2 7.2 0 0 1-.5-1.4 21.5 21.5 0 0 0-2.4-5 6.2 6.2 0 0 0-.7-1.2l-.3-.2-.4-.4-.2-.4s-.3 0-.4-.2l-.4-.3c-.2 0-.1-.2.1-.2l.8.4.6.6s0 .2.2.3l.3.3.4.6.4.8.3.5.5 1v.1c.2 0 .4.4.4.5v.2l.2.3v.1l.1.2.3.5.2.8.1.3.2.4c.1.2.1.3 0 .4h.1c.2 0 .4.6.3.7v.2c.2.1.2.2.2.3-.1.1-.2 0-.4-.2zm62.6-15.6h.1v.1h-.1z" style="display:inline;fill:#3f6846;fill-opacity:1" transform="translate(-4.3 -4)"/>
  <path d="M15.9 21a.7.7 0 0 1 .6.8.7.7 0 0 1-.8.6.7.7 0 0 1-.6-.8.7.7 0 0 1 .8-.6l.4.2.2.3c.1.2.1.5 0 .8 0 .2-.3.4-.5.6l-.7.4-1.5.6-.6.5c-.2.2-.3.5-.2.8v.7l-.3.2c-.4.3-.6.7-.8 1.2a3 3 0 0 0-.3 1.3c0 1 .4 1.8.9 2.7l.5 1v.8h.4v.4h.6l.2.2h.7l.1.1.1.2c.3.3.7.6 1.2.7h1.3c.9-.3 1.6-.8 2.4-1.2l1.2-.6c.4-.3.8-.5 1-.9l.2-.3.3-.2h.8c.2.1.3.1.4 0h.2V31l.2-.2.3-.2s.2 0 .2.2l.1.2v.5h.3v.1l.1.2-.1.2c-.7.9-1.3 1.7-1.7 2.7-.2.4-.3.7-.6 1 0 .2-.2.4-.4.5l-.5.2h-.3a.7.7 0 0 1-.2.7l-.4.2-.2.1-.1.2v.3l-.1.2h-.3v-.4h.2l.2-.3v-.2h-.2c-.3 0-.4.2-.4.4v.5l-.7 1.2-1.1 3a9 9 0 0 1-1.5 2.7c-.5.4-1 .9-1.3 1.4l-.4 1.1c0 .2-.2.4-.3.5l-.5.4h-.6l-.2.2-.2.3v.2l-.1.3a1 1 0 0 1-.4.2h-.3a1 1 0 0 0-.4.2l-.3.5v.6l.1.6v.5l-.2.4-.2.3v.4l.2.1h.4v.4l.1.1h.4l.4-.1.4.1.7.4h.5l.6-.1h.5l.6.1.2.4.1.4c0 .4-.2.6-.3 1-.3.4-.8.9-1 1.4l-.2.8c0 .3 0 .6.2.9l.7.5.8.2 2 .5 1.1.3h9.3L33 60h1.8c.6 0 1.2.2 1.7.5l.7.6.8.6h.9c.2 0 .3-.1.4-.3l.1-.4v-.2h.1l.1-.2h.6l.1-.1.1-.1v-.2l.1-.4.3-.1h.6c.5-.2 1-.5 1.3-1 .3-.4.5-1 .4-1.5 0-.6-.2-1-.6-1.5a5 5 0 0 0-1.1-1.2l-.3-.2-.2-.3-.1-.6-.1-.2-.3-.2h-.2l-.3-.1v-.6l.3-.3.5-.2h2.5l.2.1v.1h.2v-.3l-.1-.1c-.4-.5-.6-1.2-.8-1.8l-.3-1-.6-.7-.8-.5c-.3-.2-.5-.6-.7-1l-.5-.6a2 2 0 0 0-.7-.6h-.3l-.2-.2-.1-.2-.1-.3-.7-.8-.8-.7c-1.1-.9-1.8-2.2-3-3.1-.8-.7-1.7-1.2-2.7-1.8-1-.5-1.8-1.2-2.4-2.1l-.3-.6c0-.2-.2-.3-.4-.4l-.5-.2-.3-.1-.2-.2v-.3l-.2-.2h-.2l-.2-.1h-.2l-.2-.1v-.2l-.2-.1v-.2h-.5v-.4h-.5v-.3l-.2-.1h-.3l-.1-.3v-.3l.2-.2h.8l.6.3 1-.1 1-.5 1-.6c.2-.1.6-.3 1-.3h.2l.1-.1.1-.2v-.2l.1-.2h.4l.2.1.2.4v.4c.2.4.5.7.8.8.4.2.8.2 1.2 0 .3 0 .7-.2 1-.5l.6-1c.3-.6.3-1.4.4-2.1 0-.8 0-1.6.2-2.3.2-.5.4-1 .7-1.3a2 2 0 0 1 1.3-.7h.7l.3-.1.2-.3v-.3l.1-.2.2-.1.4-.2c.2 0 .4-.3.5-.5v-.7c-.1-.5-.4-.9-.7-1.2a9 9 0 0 0-1.4-1.5 3 3 0 0 0-1.8-.7h-.5c-.4 0-.8-.3-1.2-.6l-1-.9c-.9-.8-2-1.2-3.3-1.3a7 7 0 0 0-3.5.6l-1.2.5c-.6.1-1.2 0-1.7.2l-1 .4a3 3 0 0 1-1 .3h-.6l-.3.1-.3.2-.3.2-.3.1h-.4c-.3-.1-.5 0-.8 0l-.7.4-.7.3-.7.2h-.9l-.4.1-.2.4v.3l.2.2.5.3.4.4v.3l-.1.2-.3.1-.3-.1-.4-.5-.2-.3-.3-.1H14v.7h-.1l-.1.2-.1.1v.2h.5c.5-.3 1.1-.4 1.7-.3z" style="fill:#fcb271;fill-opacity:1;stroke-width:.264583" transform="translate(-4.3 -4)"/>
  <path d="M110.5 119.2h9c2 0 4 0 6 .2 2 0 4 .2 6 0l3.2-.2h2.3l.1.2h.4v-.7l-.2-.2c-.2-.5-.3-1-.2-1.5l.5-1.4c.1-.4.3-.9.3-1.4 0-.2 0-.5-.2-.7 0-.2-.2-.4-.4-.6a1.3 1.3 0 0 0-1.8.1l-.4.6-.4 1.2a4 4 0 0 1-.7 1.3l-.6.4h-.7l-.4-.2c-.2-.1-.3-.3-.3-.4-.2-.3-.2-.7-.2-1 0-.7.4-1.4.7-2 .4-1 .4-2.3.2-3.4l-.2-1c0-.4 0-.8.2-1.2l.3-.4v-.4l-.1-.4v-.7l.3-.2v-.5l-.2-.4-.1-.5.1-.2.2-.1h.3v-.2c.1 0 .1-.1 0-.2v-.7l.1-.3.3-.6c.1-.2.1-.5 0-.8l-.1-.9.1-.8.3-.3h.7v-.5h.2l.3-.1.1-.3-.1-.3h-.5a.5.5 0 0 1-.5-.3 1 1 0 0 1-.3-.4v-.6c0-.2.2-.3.3-.5l.4-.3c.1 0 .2 0 .2-.2l.1-.2v-.5l.2-.3.3-.2c.3-.1.5-.3.7-.6l.1-.4v-.4l-.2-.3v-.1h.1l.2-.1h.2V92l.1-.2v-.4l.2-.2.3-.2.5-.1c.2 0 .4-.3.4-.5v-.6a.8.8 0 0 0-.5-.4h-.6a2 2 0 0 0-.3-.7l-.7-1c-.2-.3-.4-.7-.4-1.2 0-.4.1-.8.4-1.2l.3-.3.2-.4v-.5l.2-.5.3-.4v-1.3l.2-.4.3-.3a.6.6 0 0 1 0-.7l.2-.2.8-1 .4-1.2c0-.4-.1-.8-.4-1.1-.2-.3-.6-.6-1-.6-.3 0-.6 0-.9.2l-.6.5-.5.7-.5.9-.7.6-.5.2-.5.5-.3.6-.5.6-.6.3h-.6l-.1.2v.5l-.3.3a1 1 0 0 1-.5.2h-1.8a1 1 0 0 1-.6 0 1 1 0 0 1-.2-.2l-.3-.3c-.2-.3-.6-.6-1-.8l-1.2-.5a7 7 0 0 1-1.2-.5l-1-.9-.1-.3h-.1l-.2-.1h-.2l-.3-.1-.2-.2-.2-.2h-.3l-.2.1-.2.2v.6l-.1.3-.2.2-.3.1h-.2v-1l-.1-.2h-.1v-.7l.1-.3-.1-.2h-.4v-.5l.1-.2-.2-.2-.3-.3V76l-.1-.3-.1-.2-.4-.1-.3-.1c-.2 0-.3-.2-.5-.3h-.5l-.2.3v1l-.3.2a1 1 0 0 0-.3.7c0 .3 0 .6.2.8l.2.8v.8l-.3.4v.2l.1.1h.3l.1.1.1.1v.2l-.2.4v.4l.1.4.4.6.5.9v.4l-.2.4-.6.3a1 1 0 0 1-.6-.2l-.4-.4-.2-.6V82c0-.4 0-.9-.2-1.3a4 4 0 0 0-.9-1.5l-.4-.7c-.1-.3-.2-.6-.1-.9l.1-.6v-.3h-.5l-.1-.1V76l-.3-.3-.7-.1h-1a3 3 0 0 1-.9 0l-.9-.3a1 1 0 0 0-.4 0c-.2 0-.3.1-.4.3v.7c.3.8.8 1.5 1.5 2l1.9 1.6c2.3 2.1 3.6 5.3 3.4 8.5v1.2c0 2 .2 4 1.2 5.6.2.4.6.8.7 1.2 0 .3.1.5 0 .8 0 .2 0 .4-.2.6a1 1 0 0 1-.6.3l-.5-.1c-.4-.1-.7-.4-.9-.8a2 2 0 0 1-.3-1.1l-.1-1.2c-.1-.6-.3-1.1-.6-1.6s-.6-1-1.1-1.3l-.3-.2-.2-.3V91l-.1-.2-.2-.2c-.2 0-.3-.2-.4-.3a2 2 0 0 1-.4-.4l-.4-.6a3 3 0 0 0-1-.7l-1.4-.6a5 5 0 0 1-1.4-.8l-.4-.3a1 1 0 0 0-.4-.2h-.3a1 1 0 0 1-.4 0c-.2 0-.3-.2-.5-.3a1 1 0 0 0-.8 0c-.3.1-.5.4-.6.6l-.3.8.2.9 1 1.4c.4.5.8.9 1 1.4.2.5.3 1 .3 1.6l-.1 1.7c-.2 1-.4 2.2-.2 3.3l.3 1v2.3c0 1 .2 2 .4 3l.4 1.6c.3.5.6 1 1 1.2l.6.3.2.2v.7h.3a1 1 0 0 1 1 1c0 .3 0 .5-.3.7a1 1 0 0 1-.7.3h-.7v.4l-.1.1h-.2l-.1-.2h-.4v.5l.2.1.4.6c.1.2.2.4.1.7 0 .2-.1.5-.3.7 0 .3-.2.5-.3.8l-.1.4v.4l.3.3h.7v.5h.2v.4s0 .1 0 0h.2l.1.1v.2a2 2 0 0 0-.2 1.5c.1.5.5 1 .9 1.2zm54.1-84.6a.5.5 0 0 1-.4.3.5.5 0 0 1-.6-.6.5.5 0 0 1 .6-.5.5.5 0 0 1 .5.5v.3l-.5.3h-1c-.2 0-.3 0-.5.2-.2 0-.4.2-.5.4l-.5.5-.6.3c-.2 0-.3 0-.4.2l-.2.2v.5c.1.7.3 1.3.3 2v.2c0 .6.1 1.2.5 1.7.3.5.9 1 1.5 1a2 2 0 0 0 1.7-.3l.5-.8c.1-.3.2-.6.1-.9v-.2l.2-.1h.4l.1-.2h.1v-.4l.2-.1h.2c.4 0 .7 0 1-.3.2-.2.4-.5.4-.9a1 1 0 0 0-.4-.8 1 1 0 0 0-1-.2h-.2v-.3c.2-.4 0-1-.2-1.4-.3-.4-.8-.7-1.3-.7z" style="fill:#ffeb01;fill-opacity:1;stroke-width:.264583" transform="translate(-4.3 -4)"/>
  <path d="M195.8 80h-2.4l-.4.2-.4.3-.4.2-.6.1c-.2 0-.4 0-.6.2a.8.8 0 0 0-.4.7.9.9 0 0 0 .4.7l.4.2.2.1.1.2v.3l.1.1.2.1h1.2l.8.5c.2.2.4.4.5.8l-.1.9v.2h.2v.8l.2.3.4.2h.6l.1.1v.1l.2.3c0 .2.2.3.3.4l.5.2.5.4.1.2v.5h.4l.1.1v.4l.1.2.1.1h.1l.3.2v.1l.1.2v.2l.1.2.3.1.2.1.1.2.1.2v.5c0 .1 0 .3.2.4l.1.1s.2.1.2 0h.2l.1.1v.4a.1.1 0 0 0 0 .1h.5l.2.3V95c0 .7 0 1.3.2 2v.2h-.5v.1l-.1.2v.4l-.1.1h-.2l-.2.2-.5.2-.4.5-.6 1c-.5.6-1.3 1-2 1.4a4 4 0 0 0-.9.8 2 2 0 0 0-.5 1.1v.8l-.1.3-.3.1h-.2l-.2.1v.1l-.1.3v.5l-.3.3-.4.1-.3.2-.2.2v.7h-.2l-.1.1-.1.1v.4l-.1.2-.2.1h-.2v.5l-.1.1h-.1v.6h-.3c-.2 0-.4 0-.6.2l-.3.5c0 .2 0 .4.2.6l.5.4.7.2h.7c.5-.2 1-.3 1.5-.2l.7.3h12.3c.8-.1 1.5-.5 2.2-.5h.5c.6.1 1.2 0 1.7-.3l.4-.2.5-.2h1l.9-.3.8-.2h.7l.9-.3.8-.2.7.2.6.3h.7c.2 0 .3 0 .3-.2l.1-.3v-.3h.1l.2-.1h.7v-.4l.1-.3.1-.2c.1-.1.1-.3 0-.4l-.1-.4-.8-.4-.8-.2-.4-.2a1 1 0 0 1-.3-.4l-.2-.4a.6.6 0 0 0-.5-.3.3.3 0 0 0 0-.3.3.3 0 0 0-.2-.2h-.3v-.6c0-.1 0-.3-.2-.3a.9.9 0 0 0-.3-.2 1 1 0 0 0-.4 0h-.5l-.2-.1v-.4h-.4v-.6l-.3-.1-.2-.2-.2-.1-.2-.4v-.3a1 1 0 0 0-.3-.4l-.3-.2a2 2 0 0 1-.3-.3l-.1-.4v-.4c0-.3-.2-.6-.4-.8-.1-.2-.4-.3-.6-.4l-1.2-.6-.4-.5a1 1 0 0 1-.1-.6v-.2a.1.1 0 0 0-.2 0 .8.8 0 0 1-.5-.6l-.1-.5-.2-.3v-.1h-.5v-.5l-.1-.1h-.2a.1.1 0 0 1-.1-.2.1.1 0 0 1 0-.1l-.2-.2-.5-.5a2 2 0 0 1-.5-.5c-.1-.4-.2-.8 0-1.2 0-.3.3-.7.5-1l.8-.8c.3-.2.5-.5.7-.9l.2-.6.3-.6.3-.3.4-.4.1-.4.1-.3.4-.5.2-.2.2-.3v-.2l.2-.5.7-1c.2-.3.3-.6.3-1 .2 0 .4-.2.5-.4v-.5l.2-.5.3-.4.1-.1v-1h.2l.1-.2v-.7h.3c.3 0 .6 0 .9-.2.2-.2.4-.5.4-.8a1 1 0 0 0-.4-.9 1 1 0 0 0-1 0h-.4V76l-.3-.1h-.5c-.3 0-.6.3-1 .4h-2c-.6 0-1 .3-1.5.5a7 7 0 0 1-2.2.5h-.7l-.8.2c-.2.2-.4.2-.7.2h-1.2l-.2.3a2 2 0 0 1-.9.5l-1 .2c-.6 0-1.2-.3-1.8-.7l-.7-.6-.9-.3h-.9l-.3.4v.7l-.2.1h-.4a1 1 0 0 0-.6 0 1 1 0 0 0-.5.4v.7c0 .2.2.4.4.5z" style="fill:#f5dabf;fill-opacity:1;stroke-width:.264583" transform="translate(-4.3 -4)"/>
  <path d="m197.6 111.9-2-.1c-1.4 0-2.1-.2-2.1-.4l.1-.5.2-.4v-.2l.7-1.4c.6-1.2 1.1-2 1.8-2.8l1.6-2.3a198 198 0 0 1 3.2-5.2l1.6-2.7c.3-.7.3-.5-.6-1.9l-1.1-1.4-.7-.8a25.2 25.2 0 0 0-2.3-2.5l-1.8-1.8c-.3-.3-.8-.8-1-1.2l-.7-.7-.5-.6-1.2-1.5c-.4-.5-.9-1.4-.9-1.7 0-.2.3-.3.8-.5a120.6 120.6 0 0 1 20.3-4.4l1.3.1c.2.3.2.5 0 1l-.2.9a15.6 15.6 0 0 1-.7 2.3 44 44 0 0 1-3.4 8.5l-.4.8a375 375 0 0 1-.9 2.1l-.3 1.2c0 .1.2.4 1.3 1.5l1.7 1.8 2.5 2.4a42.9 42.9 0 0 1 2.2 2.2c.2 0 1.3 1.1 2.5 2.4 2.7 2.6 3 2.9 3.4 2.9.3 0 .4.2.3.7l-.1.6c0 .3-.4 1-.5 1.2l-1.4.2-.4.1-.5.1-.7.1a14.1 14.1 0 0 1-1.6.3 23.3 23.3 0 0 1-2 .3 37.6 37.6 0 0 1-4.2.4l-1.2.2a70.5 70.5 0 0 0-6 .4 190.5 190.5 0 0 1-6.1.3zm5.4-.6a71.5 71.5 0 0 1 9.5-.9 15.3 15.3 0 0 0 2.5-.3 54.5 54.5 0 0 0 6-1l.4-1.2h-.7l-.9.2a42.1 42.1 0 0 1-7.7 1.2l-3.3.1-5.3.4h-.6a36.7 36.7 0 0 0-7.9.8c-.3 0-.6.3-.5.5 0 .1.9.3 2 .3h1.1l5.4-.1zm-6.7-1.4 1.5-.3c1.2-.1 2.7-.3 4.3-.2l1.7-.1-1.1-.1c-1.5 0-1.4 0-1.5-.2 0 0 0-.2-.1-.1a3 3 0 0 1-1.2-.5c-.6-.5-.6-1.3.2-2.6l.4-.6.3-.5a10.8 10.8 0 0 0 1-1.6 20.6 20.6 0 0 0 .9-1.5c.6-.6.9-1 1-1.8l.3-.8.3-.9.1-.9.1-1.5v-1l-.4-.8c-.4-.6-.5-.8-.8-1-.3 0-.4-.3-.2-.4.1-.1 0-.2-.2-.3l-.5-.2c-.2-.2-.2-.2-.2-.5s0-.3-.6-.7l-1.3-1.1c-1.2-1.2-1.5-2-1-3a5 5 0 0 1 1.6-1.6 29 29 0 0 1 7.2-1.5c.1-.2.2-.2.6 0l.5.2c.2.3 0 2.2-.3 2.9 0 0 0 .5-.2.8a783.4 783.4 0 0 1-1.1 5.3l-.1.4.3-.5.3-1 .2-.6a83 83 0 0 0 4.4-10.5V80c-.1-.1-.1-.1-.4 0a1 1 0 0 1-.4.2h-.3l-.3.2-.5.2h-.3l-.4.2-.5.2-.7.2c-1 .3-2.5.5-4 .6l-2.7.4-2.9.3a27.7 27.7 0 0 0-5.3.3h-.7l.2.3.4.5a19.6 19.6 0 0 0 2 2.5 37.2 37.2 0 0 0 3.6 3.9 65.8 65.8 0 0 0 3 3.4l.6.7c.5.7.8 1.2.7 1.5 0 .5-.4 1.2-1.6 3l-.9 1.4a28.7 28.7 0 0 1-1.8 3 14.4 14.4 0 0 1-1.4 2.1c-.2.4-.6 1-1.2 1.5a9.5 9.5 0 0 0-1.7 3l-.2.5 1.3-.1zm8.6-.7h-.9.9zm5.7-.4h-.1c-.1 0 0 0 0 0h.1zm2.2 0 1-.2 2.4-.3a34.8 34.8 0 0 0 4.6-1l-.3-.5-.8-.7-.6-.6a135.8 135.8 0 0 1-6.1-6 19 19 0 0 1-2.5-2.3c-.3-.5-2.8-2.8-3-3-.1 0 .3 1.9.6 2.5a13 13 0 0 0 3.1 3.6 9.9 9.9 0 0 1 3 4.3c.2.8.2 1.7 0 2l-.1.2-1 1.2-.6.3a109 109 0 0 1-1.6.5h1.9zm-10.4-.7 1-.4c.4 0 .7-.3.9-.4l.5-.4h-.4l-.6.1a28.3 28.3 0 0 0-.6.5l-.4.2c-.2.2-.4.2-1.2.3h-1c0-.1.2-.5 1.4-1.7a10 10 0 0 0 2.6-3.5l.9-1.5.2-.7.2-1.1.2-.8h-.2c-.2-.1-.2-.2-.2-.5v-.5c.2-.1.1-.3-.1-.3-.3 0-.3.2-.5 1-.2 1.2-1 2.9-1.4 3.3a1 1 0 0 0-.3.2s0 .3-.3.6l-.5.9-1.2 2a5 5 0 0 0-1 2.2c0 .4.6.8 1.2.8l.8-.3zm2.8 0 2-.2a10 10 0 0 0 2.2-.5 21.4 21.4 0 0 0-5.2.6c-.4 0-1 .2-1 .3-.3.1-.3.1.4 0l1.6-.1zm4 .3h-.2.2zm1.4-.2c1.3-.2 1.6-.3 1.9-.6l.8-1-.5-.1-.4-.1h-1l-.7.2c-.3 0-.7.2-.6.3h1.3l1 .1c.1.3 0 .4-.3.5a5 5 0 0 0-1.6.5 1 1 0 0 1-.4.2h-.4c-.2.2-.1.2.9 0zm-4-1.3 1.5-.3c-.2-.1-2.2 0-2.5.2-.3 0-.1.2.2.1h.8zm6-1.3a2 2 0 0 0-1.4-1c-.3 0-.3 0-.2.1l.7.5.6.4c.1.1.3.1.2 0zm-5.6 0-.2-.4-.4-.3v.3l.1.4a43.6 43.6 0 0 1 .5 0zm1.6-.2-.2-.6c-.3-.5-.5-.8-1-1.1-.3-.2-.3-.2-.4-.1-.1.2-.1.2.3.9.4.8.7 1 1 1h.3zm1.5 0c-.2-.2-.7-.5-.8-.4l.1.3c.1.2.2.2.5.2h.4zm2.9-1.6a15 15 0 0 0-3-3.6 26.1 26.1 0 0 1-2.4-2.8l-.3-.5-.2-.4v1.7c.2.1.2.3 0 .6s-.5 1.3-.5 1.6c0 .4-.2 1-.5 1.4l-.4.5v.2l-.1.2-.1.2-.4.8h.3c.3 0 .3 0 .3-.7 0-.3 0-.4.3-.6.5-.5.8-.5 1.3 0l.5.6c.2 0 .4.2.5.4l1.5 1 .3-.3c.3-.2.6-.2 1.4 0 .7.1 1 .3 1.5.8l.3.3v-.4c0-.3 0-.5-.3-1zm-6.9-7s0-.1-.2 0c-.2 0-.2 0 0 .2.2 0 .3 0 .2-.2zm-1-3.5-.1-.2v.5-.3zm2.4.1v.2-.2zm-3.4-2.2c.2-.3 0-.2-.3 0l-.3.2.2.2.2.2v-.2l.2-.4zm-1-.5c0-.1 0-.2-.2-.2-.5 0-.5-.1-.4-.3 0-.3.2-.4.6-.4.5-.1.5-.3 0-.3s-1.3-.2-1.3-.3a1011.6 1011.6 0 0 1 5.8-.3l.3-1.4.3-1.1c.2-.7.3-1.8.1-2h-1.7l-.5.1a19.1 19.1 0 0 0-4.4 1c-.6.1-.9.3-1.3 1-.4.5-.6 1-.5 1.3l.4.6c.4.7.8 1.2 1.4 1.6l.7.5c.4.3.6.4.7.2zm3.3-.3V90h-.4l-.3.3c0 .1 0 .2.3.1l.4-.1zm1-.6c0-.3 0-.3-.2-.2v.3c0 .3 0 .2.2-.1zm-11.8-7.9a98.3 98.3 0 0 1 6.5-.4 43.3 43.3 0 0 0 8.5-1.7l2.3-.7c.2 0 .3-.1.4-.6.2-1 .3-1-.8-1a28.2 28.2 0 0 0-3.5.5 37.2 37.2 0 0 1-5.1.8 18.8 18.8 0 0 0-2.8.6l-2.6.7-.6.3a13.7 13.7 0 0 1-2 .6 27.8 27.8 0 0 1-2.6.8c-.7.3-.4.3 2.3.1z" style="fill:#3f6846;fill-opacity:1" transform="translate(-4.3 -4)"/>
  <path d="M221.2 34a5.1 5.1 0 0 1-5-.4l-.3-.1-.3-.1h-.7l-.1-.2h-.1l-.3-.2-.3.1h-.6l-.3-.2-.3-.2a1 1 0 0 0-.3 0l-.6.2h-1.3c-.5 0-1-.2-1.4-.3h-1.4c-.4 0-.9.2-1.2.5l-.4.5-.3.2h-.5l-.2.2-.1.3-.1.2v.3l-.5.4-.2.1-.1.2v.5c.3 2-.3 4.1-1 6l-.3 1.3v.6l.3.6.3.2.1.4v.3l-.2.8v.7l.2.3.3.2h.3l.2.1v.2l.1.2.2.2.1.1h.2l.4.2s.2 0 .3.2l.2.2c.3.5.9.7 1.4.9l1.7.3 1.7.5c1.3.3 2.6 0 3.9 0 .8 0 1.6.2 2.4 0a3 3 0 0 0 1.1-.5c.4-.2.6-.5.8-1l.3-.4c.1-.3.4-.4.7-.5l.2-.7c.3-.6.8-1 1.2-1.5.5-.4.9-.9 1.2-1.4a3.8 3.8 0 0 0 .5-2.2V36c0-.4 0-.8-.2-1a1.6 1.6 0 0 0-1.7-.8z" style="fill:#008955;fill-opacity:1;stroke-width:.264583" transform="translate(-4.3 -6)"/>
  <path d="M223.8 61.8h-.8a54 54 0 0 1-8-1.6 85 85 0 0 1-15.3-3.4 13.7 13.7 0 0 1-1.5-.4 45 45 0 0 1-5.9-1.8 31.3 31.3 0 0 1-2-.5c-.5-.1-.6-.1-.6-.3 0-.3.2-.5 2.3-2.6a25.3 25.3 0 0 0 2.6-3l.8-1a24.1 24.1 0 0 0 3.4-6.3 140.3 140.3 0 0 0 5-12.9l.3-1.7c0-.8.2-1 .6-.9.3.2 2 .2 4.1.2l2.8.1a45.8 45.8 0 0 0 7 .5h.7l.8.1a590.4 590.4 0 0 0 9.7 1.1h2.3s.2-.3.5-.3l.4.2.4 2.4v1.5a46.8 46.8 0 0 1-.7 9.6 38.1 38.1 0 0 1-2 6.2 62.4 62.4 0 0 1-1.2 3.6l-1 3.6a24.3 24.3 0 0 1-1.2 3.2 14 14 0 0 0-.6 1.7l-.7 1.1-.7 1.2c-.2.6-.4.6-1.5.4zm1-.7c.1-.4.7-1.1.9-1.3l.6-1.4a35.8 35.8 0 0 0 2-5.8 30.8 30.8 0 0 1 1.4-4.4l.2-.7.8-2.3c.7-2 .7-2 1.1-3.7a32.3 32.3 0 0 0 .7-13c0-.3 0-.3-.4-.4l-2.6-.2-5-.6a91.3 91.3 0 0 0-11.3-1c-.9-.2-2.5-.2-4.8-.2h-3.5v.4a46 46 0 0 0-.7 2.6 38.7 38.7 0 0 1-4 10.1l-.8 2a23.7 23.7 0 0 1-5 8.4l-3 3.2-.8.7.4.2 1.6.3 1.6.5a44.9 44.9 0 0 0 5.6 1.7 38.6 38.6 0 0 0 5.9 1.7l1 .2a811 811 0 0 1 8.8 1.7l.5.1h.4l.7.2a7 7 0 0 0 1.8.4h.7c0 .2.4.2 1 .3h.3l.2.1h.5l.6.1.3.1.8.1.8.1h.3c.2 0 .2 0 .3-.2zm-6.7-4c.1-.6.6-1.7 1.3-3l.8-1.5c0-.2 0-.2-.2-.3l-.8-.2a29 29 0 0 0-3.8-.5c-2.7-.3-2.8-.3-2.8.2l-.3.8-.7 2c0 .3-.2.6-.4.7-.7.2-.6 0 .5-3l.2-.9-1-.2-2-.4-3.7-.8s-.2 0-.2.2c0 .4-1 2-1.1 2.2l-1 1.3c0 .1-.6.4-.7.3-.2 0-.1-.4 0-.7l.9-1c.5-.6 1.1-1.7 1.2-2.3 0-.2 0-.2-.2-.2l-2.9-.2c-.6 0-1.5-.3-2-.5v-.3c0-.5.6-.5 1.5-.1a361.9 361.9 0 0 1 3.4.4h.7l.1-.2.4-1.2a31.9 31.9 0 0 1 1.2-3.5l1.3-3.7-1.6-.2c-1.7 0-2-.1-2.4-.5-.2-.2-.3-.3-.2-.4.1-.3.3-.3.6 0 .3.1 1 .3 2 .3h.8c0 .1.1.1.2 0h.6c.3 0 .3 0 .5-.5l.4-1.3A69 69 0 0 1 210 33h-1.6c-1.6 0-2-.2-2-.4 0-.3.2-.3 1.2-.3h2.7l.1-.7.5-1.9c.2-.3.5-.2.6 0 .1.3 0 .7-.2 1.5l-.2 1c0 .1 0 .2.5.2a25.4 25.4 0 0 1 4.7 1.1l.1-.4.5-1.9c.2-.2.5-.2.5 0v1.6c-.2.3-.2.8-.2 1 .2.2 2.3.2 4 0 1.3-.2 2.7-.1 3.7.1.5.2.6 0 .8-.8l.7-1.7c.3-.4.3-.4.5-.3v.5l-.1.4-.1.5c0 .1-.1.2 0 .2l-.3.6-.1.7c0 .3-.1.3 2 .4 2.2.2 3 .4 2.6.8-.2.2-.2.2-.6 0a43 43 0 0 0-3.9-.3c-.3 0-.3.1-.4.6l-.1.6v.6l-.3 1a16.4 16.4 0 0 0-.3 1.6L225 41v.4l-.2.5v.6l-.1.4h.4l1.4.1c.8.2.9.2.9.4 0 .4-.2.4-1.4.3l-1.4-.1c-.1 0-.3.2-.7 1.2l-.6 1.4c-.1.6-.4 1.2-1 2.4a12 12 0 0 0-1 2.7v.4l1.3.2a19.7 19.7 0 0 1 3 .6h.2c.2 0 .2.2 0 .3-.2 0-.3.2-.4.3-.2.2-.3.1-1-.1l-.7-.2h-.5l-.7-.2-1-.1h-.5l-.2.3a4.6 4.6 0 0 1-.5 1l-.3.5-.3.7-.4.6-.2.5c-.2.8-.5 1.2-.8 1.2-.2 0-.2 0-.2-.3zm2.3-5.5.4-1 .6-1.4c.4-.7.8-1.8 1-2.5l.7-1.8c.5-1.2.5-1.3.4-1.4l-2.4-.4c-.9-.2-1.6-.3-2.9-.8a7.3 7.3 0 0 0-2.6-.6h-.7l-.2 1.4-.2.6-.5 2.8a9 9 0 0 1-.7 3.4l-.2.7h.4l.8.2 2.1.2c1 .1 1.5.2 1.7.4h.2c0-.1 0-.1.1 0h.6l.8.2h.6zm-7.8-1.7c.3-.9.5-1.5.5-2.6a27.2 27.2 0 0 1 1-5.8h-.5l-2-.5a3 3 0 0 0-.6-.1s-.4 0-.6-.2l-1-.1-.7-.1-.1.3-.2.3-.3.8a37.5 37.5 0 0 1-1.8 5.2 14.4 14.4 0 0 0-.5 1.5l-.2.4c0 .3 0 .3.3.4l1 .2a10.5 10.5 0 0 1 2.6.6 19.4 19.4 0 0 1 2.5.4c.3 0 .3 0 .6-.7zm11.4-8a63 63 0 0 0 1-5.7 16.6 16.6 0 0 1 .3-1.4l-.7-.3c-.7-.1-2.8-.2-4 0h-3.2l-.4.2v.3l-.1.7a72.7 72.7 0 0 0-.5 1.8c-.2.4-1 2.8-1 3.2-.1.4-.1.4 1 .5a9.2 9.2 0 0 1 2.2.5l.4.1h.2a12.6 12.6 0 0 0 3.6.8l.8.2h.3zm-9-2.8c1-2.6 1.4-4.3 1.3-4.8-.1-.2-3-1-4.5-1.2h-.9l-.1.3v.2l-.2.6-.3.7v.4l-.5 1.3-.1.3-.1.3-.2.7-.1.5c-.2.4-.4 1.4-.2 1.5a42.6 42.6 0 0 0 3 .5l.3.1s.1.1.1 0l.3.1.4.1h.2l1 .2.6-1.8z" style="fill:#0150f3;fill-opacity:1" transform="translate(-4.3 -4)"/>
  <path d="M20.5 60.8a59.7 59.7 0 0 0-3.5-.2l-.8-.2c-.6-.1-.7-.2-.7-.8V59a113.4 113.4 0 0 0 .4-4.3l.2-.7.1-.8V53h-.4l-1.3.1c-1.1 0-1.2 0-1.2-.3s.2-.9.5-1.4a186.6 186.6 0 0 0 2.6-5.4 8.6 8.6 0 0 1 1.1-1.7l.4-.6.4-.6.1-.2.1-.1v-.1l.2-.3a28.5 28.5 0 0 0 1.7-3.2 93.6 93.6 0 0 1 3.6-6.9l-1.2.5a10.8 10.8 0 0 1-3 1h-.5a25.2 25.2 0 0 1-5 .3 1 1 0 0 1-.5-.2l-.6-.4a5 5 0 0 1-.7-.6c-.3-.2-.3-.3-.3-.5 0-.3 0-.4 1.7-2l.5-.7V29a64.5 64.5 0 0 1-.4-6.3c0-.9.4-1.3 1-1.4.3 0 .6-.2.5-.2 0 0 0-.1.1 0l2.5-.7a15.2 15.2 0 0 1 2.8-.7 13.7 13.7 0 0 1 3.4-.8l.8-.1a15.4 15.4 0 0 0 2.3-.4h.2l.2-.1 1-.1.5-.1a10.4 10.4 0 0 0 1.7-.2h.7c.9-.2 1.2-.1 2 0l.6.2h.4a8.2 8.2 0 0 0 1.7.7l.7.8c.2.6.4 2 .4 3.2 0 .7-.1 1-.5 1a19.7 19.7 0 0 0-.7.4c-.2 0-.3.1-.8.5-.4.3-.9 1.4-1 2.5a41 41 0 0 1-.8 3.4c-.2.2-1.7 1.5-2 1.6-.2.1-2.8 0-3.6-.2-.8-.2-2.5-.2-2.7 0 0 0 .8 1 1 1l1.8 1.6.5.4v.2a7 7 0 0 1 1.5 1.6h.1l.4.5.7.8c.3.4.7.9 1 1a4.5 4.5 0 0 1 .8 1l.2.2.9.8c0 .1 0 .2.2.2l.4.4a17.9 17.9 0 0 0 1.8 1.4 12.8 12.8 0 0 0 2.2 1.9l.4.3.3.2.3.2.6.5.8.8 1 .9a47.5 47.5 0 0 0 1.2 1.7l.3.7a35.9 35.9 0 0 0 .7 1.6l.2.9.1.5c0 .2 0 .2-.2.2h-1.2a18.2 18.2 0 0 1-1.7.2v1.1a2173 2173 0 0 1 0 4c0 1-.1 1-.2 1.1h-1.3a21 21 0 0 0-2 .1 14.2 14.2 0 0 0-2.7.3l-1.5.1h-.8l-.8.1a27.6 27.6 0 0 1-4.4.3 66 66 0 0 0-5.3 0h-2.2zm3.8-.4a184.5 184.5 0 0 1 7.4-.2h.6a26 26 0 0 0 3.7-.4 6 6 0 0 1 1.8 0c0-.1.6-.2 1.8-.2h.7c0-.1 0 0 0 0h.7c.2-.1.2-.2.3-1.3a63.6 63.6 0 0 0-.2-4.7h-3a692 692 0 0 1-21.4-.4v.4l-.2.7c-.4 2-.4 2-.4 3.8V60c1 .2 1.6.3 3.6.4l1 .1h3.6zM36 53.2a303 303 0 0 1 8.3-.1l-.2-.8c-.1-.7-.2-.9-.6-1.8a16 16 0 0 0-5.3-5.6 15.2 15.2 0 0 1-1.8-1.5 73 73 0 0 1-2-1.8 51.2 51.2 0 0 1-4.3-4.5c-.8-1.1-1.5-1.8-2.2-2.4L27 34l-.8-.6-.7-.6-.5-.5-.3.2a16.8 16.8 0 0 0-1.4 2.2 39.5 39.5 0 0 0-3 5.8 21.9 21.9 0 0 1-2 3.5l-.7 1.2a13 13 0 0 0-1 1.7 11 11 0 0 0-.8 1.8l-.1.4a12.6 12.6 0 0 1-1.3 2.3l-.1.3-.3.6v.5h.6a37.5 37.5 0 0 0 3.5 0 10.6 10.6 0 0 1 2.7 0h.2c.2.2.7.2 3.4.3h2.4l9.2.2zM17 33.7c2-.1 2.7-.2 3.7-.5.3 0 .4-.1.4-.2h.3c.2 0 .2 0 .1-.2v-.5l.1-.6a8.5 8.5 0 0 1 .6-2v-.2c.3 0 .6-1 .6-1.6 0-.4.1-.7.3-.7v.2l.1.5c.1.3 0 .6-.3 1.4a8 8 0 0 0-.8 2.3l-.1.7v.5l.8-.3a18.7 18.7 0 0 1 1.6-.7l.4-.1.8-.1a11 11 0 0 1 3.1.1l1.7.2h1.1l.6-.4c.6-.5.6-.4 0-.8l-.4-.4c-.3-.6-.4-2.6-.3-3.8 0-.9 0-1.5-.3-2.6-.2-.5-.1-.7.2-.8v.2l.1.5.2.7a41.4 41.4 0 0 0 .2 1.6v2.7c0 .7.3 1.3.5 1.6.2.2.5.3.7.3.2 0 .5-.4.7-.7v-.5a20.2 20.2 0 0 1 1.4-4.9c.2-.3 1.3-1 1.8-1.1l.2-.1v-1.6l-.3.2c-.1.2-.2.2-.3.1l.1-.3c.3-.3.3-.4 0-.5a5.2 5.2 0 0 0-1.6-.4l-1-.2a41.6 41.6 0 0 0-4-.3c0-.1.4-.2 1.2-.2a35 35 0 0 1 5.3.7l.4.1c.3.2 0-1-.4-1.5a10 10 0 0 0-3.5-1.2c-.7-.1-1 0-3 .2a72.4 72.4 0 0 1-4.4.6 24.6 24.6 0 0 0-2.1.5 23.8 23.8 0 0 0-3.6.8 7 7 0 0 0-.7.2l-.5.1-.8.2a110.8 110.8 0 0 1-3.4 1.2l-.1.3c-.1.3-.3 2-.2 2.4a106.6 106.6 0 0 1 .5 4.6h.2c.2-.1.3 0 .3.1 0 .2-.6.7-.9.9l-.5.6-.6.6c-.2.2-.6.6-.6.8 0 .2 1.3 1.1 1.7 1.3h2.8zM14.7 27c0-.1.1-.4.4-.5l.2-.2h.2l.3-.1a336.3 336.3 0 0 1 3.8-1.7l-2.2 1.3a7.3 7.3 0 0 0-1.4.7l-1 .4h-.3z" style="fill:#0150f3;fill-opacity:1;stroke-width:.730695" transform="translate(-4.3 -4)"/>
  <path d="M126.3 120.8h-1l-1-.1a22.6 22.6 0 0 0-4-.7l-.4-.1-.6-.1a38.8 38.8 0 0 0-8.4 0l-3.4.3-.5-.2c-.5-.3-1-.4-2-.4a3.2 3.2 0 0 0-1.7.4c-1.2.5-1.5.5-1.4 0 0-.1 0-.2.3-.2a4 4 0 0 0 .9-.2c1.3-.5 1.4-.5 2.5-.5.8 0 1 0 1.5.3.6.2.7.3 1.1.2a25.2 25.2 0 0 1 3.9-.3h1a34.2 34.2 0 0 1 11.4.9l3.5.3a53 53 0 0 0 8.3-.9h1.4v-.4l-.2-.7v-2.1c0-.9 0-1 .3-1.5.4-.9.3-.9-.7 0a11 11 0 0 0-2.4 2.7c-.3.5-.4.6-.7.6-.2-.1-.3-.8-.4-3.1v-2.5a22.5 22.5 0 0 1 2.2-11.8l.8-1.8c0-.2-.1-.2-.4-.1a8 8 0 0 0-2 .8c-.1.1-.3 0-.4-.1 0-.1 0-.4.2-.7a50.6 50.6 0 0 0 1.9-3.8l.2-.6.1-.1a15.3 15.3 0 0 0 2.4-4.6v-.3h-.3c-.8.2-1.4.5-2 1-.4.4-.6.4-.6 0 0-.2 0-.7.2-1.2.1-.8.2-1 .5-1.6l.4-1 .2-.4.9-2.6a71.8 71.8 0 0 1 .8-2.5 24.8 24.8 0 0 1 .6-2.6 26.4 26.4 0 0 0-5.3 3.1c-.6.4-2.7 2.7-2.7 2.9 0 .1-.4.4-.6.3l-.3-.5a196.5 196.5 0 0 0-.8-3.1c-.1-.6-.2-.7-.5-.2l-.4.7c-.4.4-1.1 2-1.3 2.6-.2.4-.2.5-.5.4l-.3-.6a8.4 8.4 0 0 0-.3-.9l-.6-1.4a7.3 7.3 0 0 1-.6-1.5l-.2-.4v-.2l-.1.2c-.2.5-.8 2.5-.8 3-.1.8-.1.9-.3.9-.2 0-.3-.1-.4-.3l-.3-.3V83l-.8-1a2 2 0 0 1-.4-.4l-.4-.5-.3-.6-.5-.6a33.8 33.8 0 0 0-2.1-3l-.2-.2v.2l.2.9a44.8 44.8 0 0 1 1 10.1 7 7 0 0 1-1.2-1.5 23.2 23.2 0 0 0-2.4-3l-.9-.9-.7-.6-1.2-1.1-1.2-1-.8-.7c-.2-.2-1-.9-1.1-.8l1 1.4a10.1 10.1 0 0 1 1.8 3.2l.3.6a14.1 14.1 0 0 1 1.7 3 36 36 0 0 1 1.9 5.7l.2 1 .2.9.1.5.1 1.5.1 1.9c.1.5 0 1-.2 1l-.4-.4a16.7 16.7 0 0 0-2-2.9l-1.1-.6-.4-.2-1.2-.6c-1-.6-1.5-.9-2.3-1.6l-1.1-.9-1.3-1.1a3 3 0 0 0-.6-.6l.7 2.2a35 35 0 0 1 2 7.7l.6 3.1a49.3 49.3 0 0 0 .8 5.3c.4 1.8.8 4.4.8 5.4 0 .3-.2.5-.3.3-.2-.1-.3-1-.3-1.5a31.5 31.5 0 0 0-.9-5.6l-.1-.9-.2-.8a22.4 22.4 0 0 0-.3-2.1 18.4 18.4 0 0 0-1-4.8l-.1-.8-.1-.6-.2-.6a13.5 13.5 0 0 0-1-3v-.2l-.3-.9-.7-2c-.3-.6-.5-1-.5-1.3 0-.6-.1-.7-.3-1-.3-.3-.3-1 .1-1 .2 0 .3.2.7 1 .5 1 1 1.7 1.6 2.2a131.4 131.4 0 0 1 2.9 2.4c0 .2.7.7 1.2.9a45.5 45.5 0 0 1 2.8 1.4l1 1 1.2 1.5v-2c0-.6-.2-1.2-.4-1.7a8.2 8.2 0 0 0-2-6.7l-.3-.5-.1-.3-.3-.6-.3-.4-.4-.8-1.3-2.3a10.7 10.7 0 0 0-1.6-2.5c0-.1 0-.2-.2-.3l-.4-.5c0-.2-.4-.5-.6-.8-.9-.8-1-1-1-1.3l.2-.2c.2 0 .9.3 1 .5l.3.1.4.3c0 .2.4.4.7.6a7.1 7.1 0 0 1 .9.7c.2 0 .4.3.5.4l.5.4 1.2 1 1.4 1.3a31 31 0 0 1 4 4.6v-2l-.1-.9a55.6 55.6 0 0 1-.3-2.8l-.3-1.5c0-.3-.2-1.2-.4-1.3l-.4-1.6-.2-.6c-.2-.5-.3-.8-.1-1l.2-.2.4.4.4.6.1.1c0 .1 1 1.7 1.5 2.2l.6 1 .6.8.6.8.4.5c1.3 1.5 1.4 1.5 1.4 1.3l.2-.5a25 25 0 0 1 .7-2.5l.1-.7c.1-.7.3-1.1.4-1.1.2 0 .3.2.4 1l.2 1a25.5 25.5 0 0 0 1.6 4l.4-.7a15.3 15.3 0 0 1 1.7-2.7c.4-.6.6-.6.7 0l.1.4.2.3.1.6c0 .1 0 .5.2.8l.3 1 .1.5.1.2.4-.4 1-1a17.7 17.7 0 0 1 2.6-2.2c1.2-1 2.7-1.7 4.1-2.3.9-.3 1-.3 1 0l-.1.7-.2.5a22 22 0 0 1-.6 1.9 19.6 19.6 0 0 1-1 3.2 55.8 55.8 0 0 1-1.8 5v.3l.6-.3a5 5 0 0 1 2-.5c.3 0 .4.2.2.6v.4l-.1.3-.2.6a18.1 18.1 0 0 1-2.3 4.1l-.8 1.5c-1 2-1.1 2.4-1 2.4l.6-.2a6 6 0 0 1 1-.3l.7-.2c.3-.1.3.6-.2 1.5l-.4 1-.4 1-.5 1.2-.7 2.4c-.6 1.8-.8 3-.7 5.5 0 3 0 6 .2 6l1.1-1a29.2 29.2 0 0 1 3.3-2.8l.2.1v.6l-.4.8-.2.6-.3 2.2v2.8l-.2.3c-.1.2-.2.2-.5.2l-.9-.2-2.3.2h-.8l-.9.2-.7.1h-.9c-1.5.2-4.2.3-4.6.2zm-113.7 5c-.2 0-.2-.3-.2-.6v-3a9 9 0 0 0-.8-2.6l-.4-1.1-.2-.4-.1-.3-1.2-2.5a138.3 138.3 0 0 1-2.4-4.7 56.5 56.5 0 0 1-3-12.2 17.1 17.1 0 0 1 .7-4.2 23 23 0 0 0 .8-4.3l.2-1.2a9.3 9.3 0 0 1 .3-1.5 21.6 21.6 0 0 1 1.3-3.7l.5-.9a12 12 0 0 1 3.4-4l.5-.4.7-.5c.2-.1.6-.3.7-.5.2 0 .5-.3.8-.5l.6-.4h.2l.5-.4a16.2 16.2 0 0 1 2.2-1.3l.4-.2.5-.2.5-.3.2-.1a6 6 0 0 1 1.5-.8v-.1l.3-.2h.3a11.7 11.7 0 0 1 3.2-1.5l2.3-.6a56.8 56.8 0 0 1 6.6-1.6 11 11 0 0 1 1.5-.4l1-.5h.4l.5-.3.8-.4a11 11 0 0 1 2.5-.5h1l.8.2c.2 0 .3 0 .3.2.2.6.2.8.1.9a7.6 7.6 0 0 1 .3 2.3v.8s0 .2-.2.3c-.3.3-.4.2-.5-.6l-.2-2-.2-1.5h-.5l-1.8.1c-1.4.2-1.4.2-2 .5a30.5 30.5 0 0 1-7.6 2.3 26.8 26.8 0 0 0-4.3 1.1 13.6 13.6 0 0 0-3.9 1.6l-1.3.6a28.1 28.1 0 0 0-3.2 1.9 18.8 18.8 0 0 0-2.1 1.2l-3.5 2.5a12 12 0 0 0-3 3.8c0 .1 0 .3-.2.4v.1L8 84c-.2.3-.6 1.2-.6 1.5l-.2.5a61.5 61.5 0 0 1-2 10v.8a9 9 0 0 0 .3 4.5 54.6 54.6 0 0 1 .6 3.3 43.9 43.9 0 0 0 5.2 12.8 35.7 35.7 0 0 1 1.9 5.1v2.6l1.1-.4a123 123 0 0 1 3.4-1.4c.3 0 .4-.2.6-.7l.3-.6.4-.7c.4-.7.4-1.3.3-2.5l-.3-1-.4-1-.1-.3-.2-.4-.3-.6a2 2 0 0 1-.4-.9s0-.2-.2-.3l-.2-.3-.3-.8-.5-1a17 17 0 0 0-1.5-2.5l-.6-.8-.2-.4-.5-.6a12.7 12.7 0 0 0-1-1.6v-.5l-.3-.4-.4-1.2c-.2-.4-.4-1-.5-1.7l-.3-1c-.1-.6-.2-1.2 0-1.4l-.1-.2V99a7.5 7.5 0 0 1 0-2.7v-.6a37.5 37.5 0 0 0 .2-1.7l.1-.7.2-.4v-.2c0-.2.6-1.5 1-2l.5-1.1.1-.2v-.2l.1-.2.2-.3.1-.4.4-.6c0-.3.2-.6.3-.6l.3-.5.3-.3.2-.1.3-.5v-.1l.3-.2.2-.3.2-.2.3-.3.2-.2v-.1l1.6-1.4.5-.5.5-.5a34 34 0 0 0 2.1-1.7 7.3 7.3 0 0 1 1.8-1.4s.2-.3.5-.4l.6-.5.3-.2.2-.2.5-.3c.3 0 1.3-.7 1.8-1.1l.6-.2.5-.3a14 14 0 0 1 2.5-1.2 24.1 24.1 0 0 1 6-1.8 17.6 17.6 0 0 0 2.9-.8l.8-.2c.4-.2 1-.1 1 0 0 .2-.1.3-.7.4l-.9.2-.9.2-.7.3-1.2.2a11.6 11.6 0 0 0-2 .4 8.2 8.2 0 0 0-1.8.5l-1.7.7a23.3 23.3 0 0 1-2 .9l-.5.2a16.6 16.6 0 0 0-2.9 1.5 33.3 33.3 0 0 1-1.5 1l-1.1.9a16 16 0 0 0-3 2.4 12.6 12.6 0 0 0-1.4 1.2 31.7 31.7 0 0 0-4.7 5.5c-.3.7-1.1 2.3-1.6 3l-.9 2.7a21.4 21.4 0 0 0 1.3 11.4 18 18 0 0 0 2.3 3.8l.6.9a24 24 0 0 1 2 3.8l1.3 2.6c1 2.2 1.2 3.6.5 5l-.5.9c-.7 1.3-1.2 1.7-2 2a8.2 8.2 0 0 1-1.2.3 2 2 0 0 0-.6.2l-.5.2-1.7.7-.6.2zM189.6 22a3 3 0 0 1-1.4-.8l-.3-.8v-.8a16.3 16.3 0 0 0 .5-3.4c-.1-.6-.5-1.4-.7-1.4l-.6-.6-.6-.6-.4-.4c-.6-.5-.8-.9-.6-1.5a165.8 165.8 0 0 1 .6-1.5l.3-.4.5-.7c.5-.8 1.2-1.3 2.1-1.7.4 0 .6-.2.6-.3 0-.1-.3-.7-.6-1-.2-.4-.2-.5 0-1 .2-.7.5-1 1.6-1 1-.2 1.5-.1 2.3.2.9.5 2 1.3 2 1.7l.1.3.5.8.6.7c.2.2.3.2.9 0l1.8-1a2 2 0 0 1 1.3-.2c1.1.3 1.7 1 1.6 2.4 0 1.5-.8 2.7-2.5 3.8l-1 .8c-.3.4-.4.8-.4 1 0 .3.5 1 1 1.5.7.6 1 1 1 1.7.1.3 0 .4-.2.8-.4.4-1 .8-1.8 1l-.6.3-1-.2c-1.3-.2-2-.1-2.7.4l-1.2 1c-.8.8-1 1-1.6 1.1l-1.1-.1zm2-1 .9-.7c1.4-1.3 2-1.5 3.9-1l1.3-.2c1.4-.4 1.9-1 1.4-1.9V17l-.3-.2-.5-.4-.3-.4c-.2 0-.6-1-.6-1.4 0-.9.4-1.5 1.6-2.3 1-.7 2-1.6 2-2v-.2c.2-.3.2-2.4 0-2.3l-.2-.2c-.2-.3-1-.5-1.4-.5l-.6.2-.6.3-.4.3h-.1l-.3.1a4 4 0 0 1-.8.3c-.8.2-1 .1-1.4-.6a105.2 105.2 0 0 0-1.6-2.1 13.5 13.5 0 0 1-.9-.7s-.3 0-.5-.2c-.5-.2-.5-.2-1.3-.2l-1 .2c-.4.2-.5.5-.4.8l1 1.7v.4l-.7.8c-.2 0-.2 0-.1-.3.1-.4.1-.4-.4-.3a4 4 0 0 0-2 1.5c-1 1.4-1.2 2-1.3 2.6 0 .2 0 .3.3.5l2 2.1c.3.2.5.8.6 1.3.2.5 0 1.5-.1 2.3-.2.8-.3 1.8-.2 2.2 0 .4 0 .5.5.7.7.6 1 .7 1.5.6.4 0 .6-.2 1-.6z" style="fill:#008955;fill-opacity:1" transform="translate(-4.3 -4)"/>
</svg>
